<svg xmlns="http://www.w3.org/2000/svg" viewBox="0 0 50 50"><title>иконки</title><path d="M25,49.44A24.44,24.44,0,1,1,49.44,25,24.47,24.47,0,0,1,25,49.44ZM25,1.31A23.69,23.69,0,1,0,48.69,25,23.71,23.71,0,0,0,25,1.31Z" style="fill:#7a56b9"/><path d="M31.21,10.92H16.88a4.51,4.51,0,0,0-4.5,4.5V37a4.51,4.51,0,0,0,4.5,4.5H31.21a4.51,4.51,0,0,0,4.5-4.5V15.42A4.51,4.51,0,0,0,31.21,10.92ZM34.71,37a3.5,3.5,0,0,1-3.5,3.5H16.88a3.5,3.5,0,0,1-3.5-3.5V15.42a3.5,3.5,0,0,1,3.5-3.5H31.21a3.5,3.5,0,0,1,3.5,3.5Z" style="fill:#7a56b9"/><path d="M38,15.42a6.78,6.78,0,0,0-6.77-6.77H16.53a.51.51,0,1,0,0,1h0l.33,0H31.21A5.77,5.77,0,0,1,37,15.42V37c0,.07,0,.14,0,.21a.36.36,0,0,0,0,0,.51.51,0,0,0,1,0,.46.46,0,0,0,0-.05c0-.07,0-.13,0-.2Z" style="fill:#7a56b9"/><path d="M31.63,14.67H16.18a.45.45,0,0,0,0,.89H31.63a.45.45,0,1,0,0-.89Z" style="fill:#7a56b9"/><path d="M31.63,24.18H16.18a.45.45,0,0,0,0,.89H31.63a.45.45,0,1,0,0-.89Z" style="fill:#7a56b9"/><path d="M16.18,17.94h9.13a.45.45,0,1,0,0-.89H16.18a.45.45,0,0,0,0,.89Z" style="fill:#7a56b9"/><path d="M25.32,36.14H16.18a.45.45,0,0,0,0,.89h9.13a.45.45,0,1,0,0-.89Z" style="fill:#7a56b9"/><path d="M16.18,22.69h9.13a.45.45,0,1,0,0-.89H16.18a.45.45,0,0,0,0,.89Z" style="fill:#7a56b9"/><path d="M31.63,26.61H16.18a.45.45,0,0,0,0,.89H31.63a.45.45,0,1,0,0-.89Z" style="fill:#7a56b9"/><path d="M31.63,19.37H16.18a.45.45,0,0,0,0,.89H31.63a.45.45,0,1,0,0-.89Z" style="fill:#7a56b9"/><path d="M31.63,29H16.18a.45.45,0,0,0,0,.89H31.63a.45.45,0,1,0,0-.89Z" style="fill:#7a56b9"/><path d="M31.63,31.38H16.18a.45.45,0,0,0,0,.89H31.63a.45.45,0,1,0,0-.89Z" style="fill:#7a56b9"/><path d="M31.63,33.77H16.18a.45.45,0,0,0,0,.89H31.63a.45.45,0,1,0,0-.89Z" style="fill:#7a56b9"/></svg>