<svg id="Слой_1" data-name="Слой 1" xmlns="http://www.w3.org/2000/svg" viewBox="0 0 49 49"><defs><style>.cls-1{fill:none;stroke:#4f5356;stroke-miterlimit:10;stroke-width:0.5px;}</style></defs><title>избранное-gray</title><path class="cls-1" d="M14.8,34c-.53.22-1.07.41-1.6.62H13a1.43,1.43,0,0,1-.23-.28c-.39-.83-.79-1.65-1.15-2.49a37.88,37.88,0,0,1-1.94-5.25,5.53,5.53,0,0,1-.24-2.39c.2-1.17.39-2.34.62-3.51.41-2,.86-4,1.28-6,0-.19.12-.29.3-.32h0c.65.16,1.3.3,1.94.48L14,15"/><path class="cls-1" d="M35,15l.6-.15,1.76-.43h0a.3.3,0,0,1,.3.34.7.7,0,0,0,0,.15c.64,3,1.39,6,1.84,9.1a4,4,0,0,1,0,1.44c-.18.79-.35,1.58-.59,2.35a50.69,50.69,0,0,1-2.73,6.55,1.82,1.82,0,0,1-.25.31h-.2l-.07,0c-.54-.19-1.08-.39-1.61-.61"/><path class="cls-1" d="M33.49,35.6h-.16l-.06,0A16.48,16.48,0,0,1,30.71,34a12.1,12.1,0,0,1-3.17-3.34,9.41,9.41,0,0,1-1.27-3c-.09-.39-.16-.79-.22-1.14a2.3,2.3,0,0,1-.37.12c-.19,0-2,0-2.31,0s-.32,0-.45-.18l0,.17c-.11.54-.19,1.09-.34,1.61a9.94,9.94,0,0,1-1.94,3.59,13.39,13.39,0,0,1-3.71,3.09c-.41.24-.83.45-1.25.68h-.16a1.57,1.57,0,0,1-.18-.31c-.31-.91-.62-1.81-.9-2.73a53.14,53.14,0,0,1-1.52-5.76,8.39,8.39,0,0,1-.19-2.62c.16-1.28.3-2.57.49-3.84.32-2.2.67-4.39,1-6.59,0-.21.09-.32.23-.35h0c.51.17,1,.33,1.52.53a16.41,16.41,0,0,1,1.72.76,10.42,10.42,0,0,1,3.53,3.06,9.38,9.38,0,0,1,1.52,3.06c0,.16.09.31.13.41a2.16,2.16,0,0,1,.35-.14c.11,0,1-.06,1.31-.06a8.59,8.59,0,0,1,1,.06.59.59,0,0,1,.45.22c.06-.17.11-.3.16-.44s.16-.54.26-.8A9.81,9.81,0,0,1,28.38,17a11,11,0,0,1,4.77-3.11l1.38-.47h0c.15,0,.24.14.23.37a1,1,0,0,0,0,.17c.5,3.32,1.09,6.62,1.44,10a6.08,6.08,0,0,1,0,1.58c-.14.87-.27,1.74-.46,2.58a69.58,69.58,0,0,1-2.14,7.18A2.05,2.05,0,0,1,33.49,35.6Z"/><line class="cls-1" x1="22.89" y1="21.22" x2="22.93" y2="26.46"/><line class="cls-1" x1="26.06" y1="21.3" x2="26.06" y2="26.52"/><circle class="cls-1" cx="24.5" cy="24.5" r="24"/></svg>