<?xml version="1.0" encoding="utf-8"?>
<!-- Generator: Adobe Illustrator 20.0.0, SVG Export Plug-In . SVG Version: 6.00 Build 0)  -->
<svg version="1.1" id="Слой_1" xmlns="http://www.w3.org/2000/svg" xmlns:xlink="http://www.w3.org/1999/xlink" x="0px" y="0px"
	 viewBox="0 0 49 49" style="enable-background:new 0 0 49 49;" xml:space="preserve">
<style type="text/css">
	.st0{fill:#FBDB4A;}
	.st1{fill:#C4AE96;}
</style>
<polygon class="st0" points="13.7,12.9 12,24 14.9,35.8 15.2,36.2 17.3,35 20.3,32.4 22.2,29.1 22.7,27.8 26.2,27.8 27.7,30.9 
	29.6,33.3 32.6,35.6 33.7,36.2 34.1,35.9 35.9,29.1 37,24.6 35.4,12.9 35,12.8 32,13.8 29.3,16 27.1,18.8 26.2,20.5 22.7,20.5 
	21.8,18.3 20.1,16.4 17.8,14.5 15.6,13.5 14.1,12.8 "/>
<g>
	<path class="st1" d="M24.5,48.6c-13.3,0-24.1-10.8-24.1-24.1c0-13.3,10.8-24.1,24.1-24.1c13.3,0,24.1,10.8,24.1,24.1
		C48.6,37.8,37.8,48.6,24.5,48.6z M24.5,0.7C11.4,0.7,0.7,11.4,0.7,24.5c0,13.1,10.7,23.8,23.8,23.8c13.1,0,23.8-10.7,23.8-23.8
		C48.3,11.4,37.6,0.7,24.5,0.7z"/>
</g>
<g>
	<path class="st1" d="M40.1,24.8c0-0.5-0.1-1-0.2-1.5c-0.4-2.1-0.8-4.2-1.3-6.2c-0.2-1-0.4-2-0.6-3c0,0,0-0.1-0.1-0.1
		c-0.1,0-0.2-0.1-0.3,0c-0.2,0-0.5,0.1-0.7,0.2c-0.4,0.1-0.8,0.2-1.3,0.3l-0.2-1.5l-0.1-0.1c-0.1-0.1-0.2-0.1-0.3-0.1
		c-0.2,0-0.3,0.1-0.4,0.1c0,0,0,0-0.1,0c-0.2,0.1-0.3,0.1-0.5,0.2c-0.1,0.1-0.3,0.1-0.4,0.2c-0.1,0.1-0.3,0.1-0.4,0.2
		c-0.3,0.1-0.5,0.2-0.8,0.3c-1,0.5-2,1.1-2.9,1.9c-1.6,1.4-2.7,3-3.3,4.7c-0.1,0-0.2,0-0.2,0h0c-0.3,0-0.6,0-0.9,0
		c-0.2,0-0.4,0-0.6,0c-0.2,0-0.4,0-0.6,0c-0.3,0-0.6,0-0.9,0h0c-0.1,0-0.1,0-0.2,0c-0.6-1.8-1.7-3.4-3.3-4.7
		c-0.9-0.8-1.9-1.4-2.9-1.9c-0.3-0.1-0.5-0.2-0.8-0.3c-0.1-0.1-0.3-0.1-0.4-0.2C15.2,13.1,15.1,13,15,13c-0.2-0.1-0.3-0.2-0.5-0.2
		c0,0,0,0-0.1,0c-0.1-0.1-0.3-0.1-0.4-0.1c-0.1,0-0.2,0-0.3,0.1l-0.1,0.1l-0.2,1.5c-0.4-0.1-0.8-0.2-1.3-0.3
		c-0.2-0.1-0.4-0.1-0.7-0.2c-0.1,0-0.2,0-0.3,0c0,0-0.1,0.1-0.1,0.1c-0.2,1-0.4,2-0.6,3c-0.4,2.1-0.9,4.2-1.3,6.2
		c-0.1,0.5-0.2,1-0.2,1.5c0,0.6,0.1,1.2,0.3,1.8c0.5,2,1.3,3.9,2.1,5.7c0.4,0.9,0.8,1.7,1.2,2.6c0.1,0.3,0.3,0.3,0.6,0.2
		c0.4-0.2,0.9-0.3,1.3-0.5c0,0,0,0,0.1,0l0.4,1.5l0.1,0.1c0.1,0.1,0.2,0.1,0.3,0.1c0.2,0,0.4-0.1,0.5-0.2c2.4-1.4,4.2-3,5.5-4.9
		c0.7-1,1.1-1.9,1.5-3.3c0.3,0.1,0.7,0.1,1,0.1l0.2,0c0.1,0,0.2,0,0.3,0c0.1,0,0.2,0,0.2,0h0c0.1,0,0.2,0,0.2,0c0.1,0,0.2,0,0.3,0
		l0.2,0c0.3,0,0.7,0,1-0.1c0.4,1.4,0.9,2.3,1.5,3.3c1.3,1.9,3.1,3.5,5.5,4.9c0.2,0.1,0.4,0.2,0.5,0.2l0,0c0.1,0,0.2,0,0.3-0.1
		l0.1-0.1l0.4-1.5c0,0,0,0,0.1,0c0.4,0.2,0.9,0.3,1.3,0.5c0.3,0.1,0.4,0,0.6-0.2c0.4-0.9,0.8-1.7,1.2-2.6c0.8-1.9,1.6-3.8,2.1-5.7
		C40,26,40.2,25.4,40.1,24.8z M14.2,34.4l-0.4,0.1c-0.3,0.1-0.6,0.2-0.9,0.3c-0.1,0-0.1,0-0.1,0c0,0,0,0-0.1-0.1
		c-0.1-0.2-0.2-0.5-0.3-0.7c-0.3-0.6-0.6-1.3-0.9-1.9c-0.9-2.1-1.6-3.8-2.1-5.7c-0.2-0.6-0.3-1.2-0.3-1.7c0-0.6,0.1-1,0.2-1.5
		c0.4-2.1,0.8-4.1,1.3-6.2c0.2-0.8,0.3-1.6,0.5-2.4l0.1-0.5c0,0,0,0,0,0c0.1,0,0.2,0.1,0.4,0.1c0.1,0,0.2,0.1,0.3,0.1
		c0.3,0.1,0.7,0.2,1,0.2l0.3,0.1l-1.4,9.1c-0.1,0.5-0.1,1.1,0.1,1.6l2.4,9L14.2,34.4z M33.9,36c-0.1,0.1-0.2,0-0.5-0.1
		c-2.1-1.2-4-2.7-5.4-4.8c-0.7-1-1.1-2-1.6-3.5c-0.6,0.2-1.1,0.2-1.7,0.2c-0.1,0-0.2,0-0.2,0c-0.1,0-0.2,0-0.2,0
		c-0.6,0-1.2,0-1.7-0.2c-0.4,1.5-0.9,2.5-1.6,3.5c-1.4,2-3.3,3.5-5.4,4.8c-0.3,0.1-0.4,0.2-0.5,0.1l-2.8-10.8
		c-0.1-0.5-0.2-1-0.1-1.5L13.9,13c0.1-0.1,0.3,0,0.5,0.1c0.3,0.1,0.6,0.3,0.9,0.4c0.4,0.2,0.8,0.3,1.2,0.5c1,0.5,2,1.1,2.8,1.9
		c1.5,1.3,2.7,2.9,3.3,4.9c0,0,0,0.1,0.1,0.1c0.1-0.2,0.3-0.2,0.4-0.2c0.5,0,1,0,1.5,0c0.5,0,1,0,1.5,0c0.2,0,0.3,0,0.4,0.2
		c0,0,0.1-0.1,0.1-0.1c0.6-2,1.8-3.6,3.3-4.9c0.9-0.8,1.8-1.4,2.8-1.9c0.4-0.2,0.8-0.3,1.2-0.5c0.3-0.1,0.6-0.3,0.9-0.4
		c0.2-0.1,0.3-0.2,0.5-0.1l1.7,10.8c0.1,0.5,0.1,1-0.1,1.5L33.9,36z M39.6,26.5c-0.5,1.9-1.2,3.6-2.1,5.7c-0.3,0.6-0.6,1.3-0.9,1.9
		c-0.1,0.2-0.2,0.5-0.3,0.7c0,0.1,0,0.1-0.1,0.1c0,0-0.1,0-0.1,0c-0.3-0.1-0.6-0.2-0.9-0.3l-0.5-0.2l2.4-9c0.1-0.5,0.2-1.1,0.1-1.6
		l-1.4-9.1l0.3-0.1c0.4-0.1,0.7-0.2,1-0.2c0.1,0,0.2,0,0.3-0.1c0.1,0,0.3-0.1,0.4-0.1c0,0,0,0,0,0l0.1,0.5c0.2,0.8,0.4,1.6,0.5,2.4
		c0.4,2.1,0.9,4.2,1.3,6.2c0.1,0.4,0.1,0.9,0.2,1.5C39.8,25.3,39.7,25.9,39.6,26.5z"/>
</g>
</svg>
