<svg xmlns="http://www.w3.org/2000/svg" viewBox="0 0 50 50"><title>иконки</title><path d="M23.46,25.82c-.89-.75-2.07-1.24-5-1.24h0a.65.65,0,0,0,0,1.3h0a7.83,7.83,0,0,1,3.71.6l-1.47,1.36c-.56.53-2.24,1.74-5.78,1.81a8.89,8.89,0,0,1-1.06-4.23c0-.1,0-.7,0-.87h0v-.11c0-.22,0-.35,0-.41a9.06,9.06,0,0,1,1.06-4.67c3.54.07,5.23,1.3,5.77,1.8h0l7,7c.29.35,2.48,2.78,7.57,2.78.21,0,.69,0,1.37-1.76a11.05,11.05,0,0,0,.71-3.77c0-.08,0-.44,0-.73,0-.13,0-1,0-1.14a11.07,11.07,0,0,0-.71-3.77c-.68-1.76-1.16-1.76-1.37-1.76-4.22,0-6.29,1.52-7,2.17l-1.84,1.7-.12.11a.91.91,0,0,0-.05,1.14l.13.11c.88.72,2.07,1.19,5,1.19h0a.65.65,0,1,0,0-1.31h0a7.88,7.88,0,0,1-3.7-.59l1.5-1.38c.56-.53,2.24-1.74,5.78-1.81a8.9,8.9,0,0,1,1.06,4.23c0,.08,0,.49,0,.79h0c0,.11,0,.92,0,1a8.9,8.9,0,0,1-1.06,4.23,10.22,10.22,0,0,1-4.76-1.15,6.23,6.23,0,0,1-1.28-.92h0l-7-7c-.29-.35-2.24-2.49-7.29-2.49a.74.74,0,0,0-.54.24,9.34,9.34,0,0,0-1.53,5.77s0,.22,0,.37c0,.39,0,.58,0,.66h0c0,.15,0,.29,0,.35a11.08,11.08,0,0,0,.71,3.77C13.89,31,14.37,31,14.57,31c4.22,0,6.29-1.52,7-2.17l1.85-1.71a1.78,1.78,0,0,0,.16-.14.71.71,0,0,0,0-1Z" style="fill:#7a56b9"/><path d="M38.77,19.55a.6.6,0,0,0,0-.15v0h0a.65.65,0,0,0-1.26.25.53.53,0,0,0,0,.06h0a.59.59,0,0,0,0,.13c0,.08,0,.19.05.31v.06c.32,1.62,1.13,6.84-.76,10.5h0c-.32.61-.77,1.18-1.15,1.19-1.19,0-5-.37-7.26-2l0,0,0,0a.65.65,0,1,0-.78,1l0,0,0,0c2.61,1.92,6.63,2.29,7.92,2.29h.18c1.63-.06,2.53-2.42,2.66-2.8C40.1,26.06,39,20.62,38.77,19.55Z" style="fill:#7a56b9"/><path d="M21.8,29.65a.65.65,0,0,0-.4.14h0c-2.22,1.84-6.29,2.13-7.53,2.09-.37,0-.82-.58-1.15-1.19h0c-2.26-4.36-.67-10.94-.66-11h0a.7.7,0,0,0,0-.08.65.65,0,0,0-1.26-.23h0c-.07.27-1.53,6.31.36,11,.13.38,1,2.74,2.66,2.8h.3c1.7,0,5.72-.41,8.12-2.4h0a.65.65,0,0,0-.43-1.14Z" style="fill:#7a56b9"/><path d="M25,49.44A24.44,24.44,0,1,1,49.44,25,24.47,24.47,0,0,1,25,49.44ZM25,1.31A23.69,23.69,0,1,0,48.69,25,23.71,23.71,0,0,0,25,1.31Z" style="fill:#7a56b9"/></svg>