<svg id="Слой_1" data-name="Слой 1" xmlns="http://www.w3.org/2000/svg" viewBox="0 0 375 667"><defs><style>.cls-1,.cls-3{fill:#fff;}.cls-1{stroke:#000;stroke-miterlimit:10;stroke-width:0.5px;}.cls-2{fill:#c4ae96;}</style></defs><title>-</title><path class="cls-1" d="M91.83,260.73a5.23,5.23,0,0,0,2-.33,1,1,0,0,1,.23.69c0,1.08-.71,2-2.52,2a9.91,9.91,0,0,1-3.46-.71l-2,11.35a4,4,0,0,0,0,2,2.43,2.43,0,0,1-1.19.21c-1.54,0-1.83-.67-1.56-2.27l2-11.18c.08-.5.1-.81.1-.81a7.14,7.14,0,0,0-1.73-.21c-1.89,0-2.92,1.06-2.92,2.25,0,.58.31,1,.83,1a.85.85,0,0,0,.35-.06.64.64,0,0,1,0,.19c0,.5-.52,1.17-1.58,1.17a2,2,0,0,1-2.19-2.08c0-2.06,1.83-3.56,5.52-3.56C86.06,260.25,87.71,260.73,91.83,260.73Z"/><path class="cls-1" d="M90.9,272.52A9.86,9.86,0,0,1,91,271l.65-3.58a3.55,3.55,0,0,0,0-1.79,2.29,2.29,0,0,1,1.08-.19c1.6,0,1.79.6,1.54,2.06l-.19,1.06a4.49,4.49,0,0,1,2-.44c1.94,0,3.29,1.15,3.29,3a4.62,4.62,0,0,1-4.94,4.77C92.17,275.87,90.9,274.56,90.9,272.52Zm2.69-.69a10.06,10.06,0,0,0-.15,1.63c0,.81.42,1.38,1.21,1.38,1.17,0,2.17-1.29,2.17-3.81,0-1.1-.56-1.62-1.44-1.62a2.17,2.17,0,0,0-1.5.69Zm7.77-4.39a3.56,3.56,0,0,0,0-1.79,2.28,2.28,0,0,1,1.08-.19c1.6,0,1.79.6,1.54,2.06l-.79,4.6c-.25,1.5.08,1.94.63,1.94a.86.86,0,0,0,.79-.58c.29,0,.44.23.4.6a2.35,2.35,0,0,1-2.42,1.79,2.2,2.2,0,0,1-2.1-2.46,12.08,12.08,0,0,1,.19-2.12Z"/><path class="cls-1" d="M113.81,270.42h.83c.58,0,1-.69,1.25-1.19l.81-1.67c.83-1.69,1.5-2.1,2.4-2.1a1.29,1.29,0,0,1,1.35,1.42,1.89,1.89,0,0,1-.73,1.44,1,1,0,0,0-1-.75c-.62,0-1.08.46-1.46,1.25l-.35.75a2.34,2.34,0,0,1-.73.94,1.91,1.91,0,0,1,1.42,1.35l.23.73c.29,1,.71,1.48,1.56,1.48a2.88,2.88,0,0,0,2.23-1.81c.27,0,.46.17.4.54a4.28,4.28,0,0,1-3.73,3.08,2.93,2.93,0,0,1-2.9-2.44l-.33-1.1c-.17-.58-.44-.9-1-.9h-.44l-.42,2.46a3.56,3.56,0,0,0,0,1.79,2.28,2.28,0,0,1-1.08.19c-1.6,0-1.79-.6-1.54-2.06l1.1-6.37a3.55,3.55,0,0,0,0-1.79,2.29,2.29,0,0,1,1.08-.19c1.6,0,1.79.6,1.54,2.06Z"/><path class="cls-1" d="M130.81,269.44a8.49,8.49,0,0,1-.06,1.06,4.34,4.34,0,0,0,1.83-2.52c.44,0,.67.31.48.9a4.26,4.26,0,0,1-2.52,2.69,5.43,5.43,0,0,1-5.5,4.31,3.64,3.64,0,0,1-3.83-4c0-3.77,2.21-6.44,5.77-6.44A3.63,3.63,0,0,1,130.81,269.44Zm-2.69-1.35c-.1-1-.58-1.6-1.35-1.6-1,0-2.12,1.06-2.71,4.17a15.26,15.26,0,0,0-.19,2.14c0,1.31.5,2,1.38,2,1.1,0,2-1.17,2.58-3.56a2.09,2.09,0,0,1-.77-1.77A1.34,1.34,0,0,1,128.12,268.08Z"/><path class="cls-1" d="M133.44,273.17a5.32,5.32,0,0,1,.46-1.94l1.38-3a2,2,0,0,0,.19-.71.57.57,0,0,0-.62-.62c-.58,0-1.31.67-1.79,2.08a.38.38,0,0,1-.15,0c-.29,0-.48-.21-.4-.67a3.46,3.46,0,0,1,3.27-2.85,2.08,2.08,0,0,1,2.35,2.08,4.83,4.83,0,0,1-.44,1.77L136.42,272c-.54,1.17-.27,2,.73,2a2.91,2.91,0,0,0,2.46-1.81c.35,0,.46.23.4.56a4.53,4.53,0,0,1-3.9,3.06A2.45,2.45,0,0,1,133.44,273.17Z"/><path class="cls-1" d="M147.81,274.12a15.73,15.73,0,0,0,3.4-1.87.37.37,0,0,1,.4.48c0,.21-.27.44-.69.75a22.9,22.9,0,0,1-3.31,1.92l0,.25c-.81,4.83-2.75,7.52-5.83,7.52A2.14,2.14,0,0,1,139.4,281a4.41,4.41,0,0,1,1.75-3.23,16.07,16.07,0,0,1,3.81-2.35l.25-1.48a3.64,3.64,0,0,1-3,2c-1.71,0-3.06-1.15-3.06-3.58,0-4.65,2.71-6.83,5.14-6.83a2.73,2.73,0,0,1,2.25,1c.33-.75.85-1,1.88-1a2.1,2.1,0,0,1,1,.21,3.65,3.65,0,0,0-.48,1.5Zm-3.08,2.58a12.08,12.08,0,0,0-2.94,1.92,3.25,3.25,0,0,0-1.23,2.23.87.87,0,0,0,1,.94C143,281.79,144.1,280,144.73,276.71Zm1.33-7.85.19-1a1.51,1.51,0,0,0-1.37-1c-1.42,0-3,2.1-3,5.46,0,1.17.46,1.73,1.23,1.73C144.56,274.06,145.67,270.94,146.06,268.85Z"/><path class="cls-1" d="M159.75,272.13c-.27,1.48.08,1.94.63,1.94a.86.86,0,0,0,.79-.58c.29,0,.44.23.4.6a2.35,2.35,0,0,1-2.42,1.79,2.17,2.17,0,0,1-2.1-2.33c-.87,1.52-2,2.33-3.19,2.33-1.71,0-3.06-1.15-3.06-3.58,0-4.65,2.71-6.83,5.14-6.83a2.73,2.73,0,0,1,2.25,1c.33-.75.85-1,1.88-1a2.09,2.09,0,0,1,1,.21,4.14,4.14,0,0,0-.48,1.5Zm-2.08-3.27.19-1a1.51,1.51,0,0,0-1.37-1c-1.42,0-3,2.1-3,5.46,0,1.17.46,1.73,1.23,1.73C156.17,274.06,157.27,270.94,157.67,268.85Z"/><path class="cls-1" d="M163.94,271.06a2.44,2.44,0,0,0-1.15.19.72.72,0,0,1-.17-.54c0-.79.44-1.33,1.73-1.33h5.25a2.44,2.44,0,0,0,1.14-.19.72.72,0,0,1,.17.54c0,.79-.44,1.33-1.73,1.33Z"/><path class="cls-1" d="M184.71,272.25c.27,0,.46.17.4.54a4.23,4.23,0,0,1-3.73,3.08,2.34,2.34,0,0,1-2.44-2.6,12.69,12.69,0,0,1,.19-2h-3.35l-.44,2.6a3.55,3.55,0,0,0,0,1.79,2.29,2.29,0,0,1-1.08.19c-1.6,0-1.79-.6-1.54-2.06l1.1-6.37a3.54,3.54,0,0,0,0-1.79,2.28,2.28,0,0,1,1.08-.19c1.6,0,1.79.6,1.54,2.06l-.48,2.73h3.33l.5-2.81a3.55,3.55,0,0,0,0-1.79,2.29,2.29,0,0,1,1.08-.19c1.6,0,1.79.6,1.54,2.06l-.81,4.71c-.21,1.23.15,1.83.9,1.83A2.89,2.89,0,0,0,184.71,272.25Z"/><path class="cls-1" d="M190.64,272.56a9.66,9.66,0,0,1-.94,1.54,3.58,3.58,0,0,1-2.94,1.77,2.21,2.21,0,0,1-2.27-2.42,14,14,0,0,1,.25-2.56l.6-3.46a3.55,3.55,0,0,0,0-1.79,2.29,2.29,0,0,1,1.08-.19c1.6,0,1.79.6,1.54,2.06l-.83,4.81c-.21,1.19.08,1.73.69,1.73s1-.56,1.54-1.4a15.76,15.76,0,0,0,2.1-5.44,3.21,3.21,0,0,0,0-1.58,2.28,2.28,0,0,1,1.08-.19c1.6,0,1.79.6,1.54,2.06l-.81,4.71c-.21,1.25.15,1.83.9,1.83a2.89,2.89,0,0,0,2.19-1.81c.27,0,.46.17.4.54a4.23,4.23,0,0,1-3.73,3.08,2.34,2.34,0,0,1-2.44-2.6C190.62,273.08,190.62,272.85,190.64,272.56Z"/><path class="cls-1" d="M196.4,271.85c0-5.06,1.9-9.87,5.14-12,1.71-1.12,4.46-.83,6.94-1.69a.72.72,0,0,1,.15.5c0,1.13-.62,1.9-2.25,1.9-1,0-1.85-.44-2.52-.44-.92,0-1.46.35-2.15,1.56a19.42,19.42,0,0,0-1.67,4.48,4.25,4.25,0,0,1,2.4-.71,3.57,3.57,0,0,1,3.58,3.83,8.19,8.19,0,0,1-.12,1.46,4.15,4.15,0,0,0,2.52-1.62c.27,0,.42.21.38.52-.12.73-1.44,1.85-3.1,2.06a5.45,5.45,0,0,1-5.44,4.17C197.52,275.87,196.4,274,196.4,271.85Zm6.67-.69a2,2,0,0,1-.81-1.67,1.34,1.34,0,0,1,1.06-1.42c-.17-1.08-.71-1.52-1.54-1.52a2.94,2.94,0,0,0-2.1,1.1,24.72,24.72,0,0,0-.6,5c0,1.27.42,2.15,1.42,2.15C201.79,274.83,202.64,273,203.06,271.17Z"/><path class="cls-1" d="M216.14,274.12a15.73,15.73,0,0,0,3.39-1.87.37.37,0,0,1,.4.48c0,.21-.27.44-.69.75a23,23,0,0,1-3.31,1.92l0,.25c-.81,4.83-2.75,7.52-5.83,7.52a2.14,2.14,0,0,1-2.33-2.19,4.41,4.41,0,0,1,1.75-3.23,17,17,0,0,1,3.81-2.35l.44-2.69a12.24,12.24,0,0,1-.85,1.4,3.58,3.58,0,0,1-2.94,1.77,2.21,2.21,0,0,1-2.27-2.42,14,14,0,0,1,.25-2.56l.6-3.46a3.56,3.56,0,0,0,0-1.79,2.28,2.28,0,0,1,1.08-.19c1.6,0,1.79.6,1.54,2.06l-.83,4.81c-.21,1.21.08,1.73.69,1.73s1-.56,1.54-1.4a15.66,15.66,0,0,0,2.06-5.23,3.25,3.25,0,0,0,0-1.79,2.28,2.28,0,0,1,1.08-.19c1.6,0,1.79.6,1.54,2.06Zm-3.08,2.58a12.53,12.53,0,0,0-2.94,1.92,3.25,3.25,0,0,0-1.23,2.23.87.87,0,0,0,1,.94C211.33,281.79,212.46,280,213.06,276.71Z"/><path class="cls-1" d="M227.75,274.12a15.73,15.73,0,0,0,3.39-1.87.37.37,0,0,1,.4.48c0,.21-.27.44-.69.75a23,23,0,0,1-3.31,1.92l0,.25c-.81,4.83-2.75,7.52-5.83,7.52a2.14,2.14,0,0,1-2.33-2.19,4.41,4.41,0,0,1,1.75-3.23,16.08,16.08,0,0,1,3.81-2.35l.25-1.48a3.65,3.65,0,0,1-3,2c-1.71,0-3.06-1.15-3.06-3.58,0-4.65,2.71-6.83,5.14-6.83a2.73,2.73,0,0,1,2.25,1c.33-.75.85-1,1.87-1a2.11,2.11,0,0,1,1,.21,3.64,3.64,0,0,0-.48,1.5Zm-3.08,2.58a12.09,12.09,0,0,0-2.94,1.92,3.25,3.25,0,0,0-1.23,2.23.87.87,0,0,0,1,.94C222.92,281.79,224,280,224.67,276.71Zm1.33-7.85.19-1a1.51,1.51,0,0,0-1.37-1c-1.42,0-3,2.1-3,5.46,0,1.17.46,1.73,1.23,1.73C224.5,274.06,225.6,270.94,226,268.85Z"/><path class="cls-1" d="M230.94,272.52a9.75,9.75,0,0,1,.15-1.5l.65-3.58a3.55,3.55,0,0,0,0-1.79,2.28,2.28,0,0,1,1.08-.19c1.6,0,1.79.6,1.54,2.06l-.19,1.06a4.49,4.49,0,0,1,2-.44c1.94,0,3.29,1.15,3.29,3a4.62,4.62,0,0,1-4.94,4.77C232.21,275.87,230.94,274.56,230.94,272.52Zm2.69-.69a10,10,0,0,0-.15,1.63c0,.81.42,1.38,1.21,1.38,1.17,0,2.17-1.29,2.17-3.81,0-1.1-.56-1.62-1.44-1.62a2.17,2.17,0,0,0-1.5.69Z"/><path class="cls-1" d="M246,271.85c0-5.06,1.9-9.87,5.14-12,1.71-1.12,4.46-.83,6.94-1.69a.72.72,0,0,1,.15.5c0,1.13-.62,1.9-2.25,1.9-1,0-1.85-.44-2.52-.44-.92,0-1.46.35-2.15,1.56a19.42,19.42,0,0,0-1.67,4.48,4.25,4.25,0,0,1,2.4-.71,3.57,3.57,0,0,1,3.58,3.83,8.19,8.19,0,0,1-.12,1.46,4.15,4.15,0,0,0,2.52-1.62c.27,0,.42.21.38.52-.12.73-1.44,1.85-3.1,2.06a5.45,5.45,0,0,1-5.44,4.17C247.1,275.87,246,274,246,271.85Zm6.67-.69a2,2,0,0,1-.81-1.67,1.34,1.34,0,0,1,1.06-1.42c-.17-1.08-.71-1.52-1.54-1.52a2.94,2.94,0,0,0-2.1,1.1,24.72,24.72,0,0,0-.6,5c0,1.27.42,2.15,1.42,2.15C251.37,274.83,252.23,273,252.64,271.17Z"/><path class="cls-1" d="M257.25,272.52a9.75,9.75,0,0,1,.15-1.5l.65-3.58a3.55,3.55,0,0,0,0-1.79,2.28,2.28,0,0,1,1.08-.19c1.6,0,1.79.6,1.54,2.06l-.19,1.06a4.49,4.49,0,0,1,2-.44c1.94,0,3.29,1.15,3.29,3a4.62,4.62,0,0,1-4.94,4.77C258.52,275.87,257.25,274.56,257.25,272.52Zm2.69-.69a10,10,0,0,0-.15,1.63c0,.81.42,1.38,1.21,1.38,1.17,0,2.17-1.29,2.17-3.81,0-1.1-.56-1.62-1.44-1.62a2.17,2.17,0,0,0-1.5.69Zm7.77-4.39a3.55,3.55,0,0,0,0-1.79,2.29,2.29,0,0,1,1.08-.19c1.6,0,1.79.6,1.54,2.06l-.81,4.71c-.21,1.25.15,1.83.9,1.83a2.89,2.89,0,0,0,2.19-1.81c.27,0,.46.17.4.54a4.23,4.23,0,0,1-3.73,3.08,2.34,2.34,0,0,1-2.44-2.6,12.05,12.05,0,0,1,.19-2Z"/><path class="cls-1" d="M279.69,267.44a8.48,8.48,0,0,0,.1-.92c-1.06.1-1.79.9-2.29,2.58l-1.1,3.83c-.54,1.9-1.42,2.94-2.85,2.94a1.91,1.91,0,0,1-2-2,1.72,1.72,0,0,1,1.63-1.87,1.48,1.48,0,0,1,1,.29,2.65,2.65,0,0,0-.33,1.08c0,.5.23.73.52.73s.73-.42,1-1.42l1.08-3.85a4,4,0,0,1,4.19-3.33c1.77,0,1.94.6,1.69,2.06l-.81,4.71c-.21,1.25.15,1.83.9,1.83a2.89,2.89,0,0,0,2.19-1.81c.27,0,.46.17.4.54a4.23,4.23,0,0,1-3.73,3.08,2.34,2.34,0,0,1-2.44-2.6,12.16,12.16,0,0,1,.19-2Z"/><path class="cls-1" d="M293.14,272.13c-.27,1.48.08,1.94.63,1.94a.86.86,0,0,0,.79-.58c.29,0,.44.23.4.6a2.35,2.35,0,0,1-2.42,1.79,2.17,2.17,0,0,1-2.1-2.33c-.87,1.52-2,2.33-3.19,2.33-1.71,0-3.06-1.15-3.06-3.58,0-4.65,2.71-6.83,5.14-6.83a2.73,2.73,0,0,1,2.25,1c.33-.75.85-1,1.87-1a2.11,2.11,0,0,1,1,.21,4.1,4.1,0,0,0-.48,1.5Zm-2.08-3.27.19-1a1.51,1.51,0,0,0-1.37-1c-1.42,0-3,2.1-3,5.46,0,1.17.46,1.73,1.23,1.73C289.56,274.06,290.67,270.94,291.06,268.85Z"/><path class="cls-1" d="M111,293.6c.17-1,0-1.31-.5-1.31-1.31,0-3.29,3.1-3.94,6.6a3.57,3.57,0,0,0,0,1.79,2.28,2.28,0,0,1-1.08.19c-1.6,0-1.79-.6-1.54-2.06l1.1-6.37a3.56,3.56,0,0,0,0-1.79,2.28,2.28,0,0,1,1.08-.19c1.6,0,1.79.6,1.54,2.06l-.17,1c.81-1.35,2.4-3,4.08-3a2,2,0,0,1,2.15,2.15,11.31,11.31,0,0,1-.19,1.69l-.5,2.94c-.19,1,0,1.83.85,1.83s1.65-.73,2.19-1.81c.27,0,.46.17.39.54a4.25,4.25,0,0,1-3.67,3.08,2.4,2.4,0,0,1-2.52-2.6,18.16,18.16,0,0,1,.31-2.37Z"/><path class="cls-1" d="M125.23,294.44a8.8,8.8,0,0,1-.1,1.31,4.15,4.15,0,0,0,2.52-1.62c.27,0,.42.21.37.52-.12.73-1.44,1.85-3.1,2.06a5.43,5.43,0,0,1-5.46,4.17,3.64,3.64,0,0,1-3.83-4c0-3.77,2.21-6.44,5.77-6.44A3.63,3.63,0,0,1,125.23,294.44Zm-2.69-1.35c-.1-1-.58-1.6-1.35-1.6-1,0-2.12,1.06-2.71,4.17a15.12,15.12,0,0,0-.19,2.14c0,1.31.5,2,1.38,2,1.12,0,2.06-1.19,2.6-3.69a2,2,0,0,1-.79-1.65A1.34,1.34,0,0,1,122.54,293.08Z"/><path class="cls-1" d="M135.06,300.64c-.83,4.81-2.75,7.52-5.83,7.52A2.14,2.14,0,0,1,126.9,306a4.41,4.41,0,0,1,1.75-3.23,16.09,16.09,0,0,1,3.81-2.35l.25-1.48a3.65,3.65,0,0,1-3,2c-1.71,0-3.06-1.15-3.06-3.58,0-4.65,2.71-6.83,5.14-6.83a2.73,2.73,0,0,1,2.25,1c.33-.75.85-1,1.87-1a2.1,2.1,0,0,1,1,.21,3.64,3.64,0,0,0-.48,1.5Zm-2.83,1.06a12.08,12.08,0,0,0-2.94,1.92,3.25,3.25,0,0,0-1.23,2.23.87.87,0,0,0,1,.94C130.48,306.79,131.6,305,132.23,301.71Zm1.33-7.85.19-1a1.51,1.51,0,0,0-1.37-1c-1.42,0-3,2.1-3,5.46,0,1.17.46,1.73,1.23,1.73C132.06,299.06,133.17,295.94,133.56,293.85Z"/><path class="cls-1" d="M142.83,296.46a5.72,5.72,0,0,1,5.54-6c1.73,0,2.94,1,2.94,2.35s-.71,2.17-1.79,2.17a1.08,1.08,0,0,1-1-.5,2.69,2.69,0,0,0,.77-2,.91.91,0,0,0-1-1c-1.29,0-2.79,1.79-2.79,4.54a2.88,2.88,0,0,0,3.06,3.19,4.64,4.64,0,0,0,4-2c.27,0,.42.17.33.54-.21.92-2.15,3.08-5.37,3.08C144.79,300.87,142.83,299.15,142.83,296.46Z"/><path class="cls-1" d="M159.71,292.44a8.2,8.2,0,0,0,.1-.92c-1.06.1-1.79.9-2.29,2.58l-1.1,3.83c-.54,1.9-1.42,2.94-2.85,2.94a1.91,1.91,0,0,1-2-2,1.72,1.72,0,0,1,1.63-1.87,1.48,1.48,0,0,1,1,.29,2.65,2.65,0,0,0-.33,1.08c0,.5.23.73.52.73s.73-.42,1-1.42l1.08-3.85a4,4,0,0,1,4.19-3.33c1.77,0,1.94.6,1.69,2.06l-.81,4.71c-.21,1.25.14,1.83.89,1.83a2.89,2.89,0,0,0,2.19-1.81c.27,0,.46.17.4.54a4.23,4.23,0,0,1-3.73,3.08,2.34,2.34,0,0,1-2.44-2.6,12.05,12.05,0,0,1,.19-2Z"/><path class="cls-1" d="M164.21,296.38a5.69,5.69,0,0,1,5.58-5.92c2.13,0,3,1.1,3,2.17,0,1.9-2.19,3.15-5.85,3.83a2.86,2.86,0,0,0,3,2.77,4.64,4.64,0,0,0,4.06-2c.27,0,.42.17.33.54-.19.92-2.19,3.08-5.37,3.08C166.19,300.87,164.21,299.19,164.21,296.38Zm2.73-.9c2.54-.6,3.6-1.87,3.6-3.25a.69.69,0,0,0-.73-.73C168.63,291.5,167.17,292.88,166.94,295.48Z"/><path class="cls-1" d="M182.23,299.12a15.75,15.75,0,0,0,3.4-1.87.37.37,0,0,1,.39.48c0,.21-.27.44-.69.75a23,23,0,0,1-3.31,1.92l0,.25c-.81,4.83-2.75,7.52-5.83,7.52a2.14,2.14,0,0,1-2.33-2.19,4.41,4.41,0,0,1,1.75-3.23,16.08,16.08,0,0,1,3.81-2.35l.25-1.48a3.65,3.65,0,0,1-3,2c-1.71,0-3.06-1.15-3.06-3.58,0-4.65,2.71-6.83,5.14-6.83a2.73,2.73,0,0,1,2.25,1c.33-.75.85-1,1.88-1a2.09,2.09,0,0,1,1,.21,3.65,3.65,0,0,0-.48,1.5Zm-3.08,2.58a12.09,12.09,0,0,0-2.94,1.92,3.25,3.25,0,0,0-1.23,2.23.87.87,0,0,0,1,.94C177.4,306.79,178.52,305,179.14,301.71Zm1.33-7.85.19-1a1.51,1.51,0,0,0-1.37-1c-1.42,0-3,2.1-3,5.46,0,1.17.46,1.73,1.23,1.73C179,299.06,180.08,295.94,180.48,293.85Z"/><path class="cls-1" d="M185.21,296.46a5.72,5.72,0,0,1,5.54-6c1.73,0,2.94,1,2.94,2.35S193,295,191.89,295a1.08,1.08,0,0,1-1-.5,2.69,2.69,0,0,0,.77-2,.91.91,0,0,0-1-1c-1.29,0-2.79,1.79-2.79,4.54a2.88,2.88,0,0,0,3.06,3.19,4.64,4.64,0,0,0,4-2c.27,0,.42.17.33.54-.21.92-2.14,3.08-5.37,3.08C187.17,300.87,185.21,299.15,185.21,296.46Z"/><path class="cls-1" d="M211.79,297.25c.27,0,.46.17.4.54a4.27,4.27,0,0,1-3.67,3.08,2.4,2.4,0,0,1-2.52-2.6,19.13,19.13,0,0,1,.31-2.37l.4-2.29c.17-1,0-1.31-.5-1.31-1.06,0-2.67,3-3.31,6.6a3.56,3.56,0,0,0,0,1.79,2.28,2.28,0,0,1-1.08.19c-1.6,0-1.79-.6-1.54-2.06l.92-5.21c.17-.9,0-1.31-.48-1.31-1,0-2.65,2.75-3.33,6.6a3.57,3.57,0,0,0,0,1.79,2.28,2.28,0,0,1-1.08.19c-1.6,0-1.79-.6-1.54-2.06l1.1-6.37a3.56,3.56,0,0,0,0-1.79,2.28,2.28,0,0,1,1.08-.19c1.6,0,1.79.6,1.54,2.06l-.08.5c.69-1.15,1.92-2.56,3.35-2.56a2,2,0,0,1,2.17,2.17c0,.15,0,.29,0,.46.67-1.19,1.94-2.62,3.42-2.62a2,2,0,0,1,2.15,2.15,11.31,11.31,0,0,1-.19,1.69l-.5,2.94c-.21,1.23.1,1.83.85,1.83A2.71,2.71,0,0,0,211.79,297.25Z"/><path class="cls-1" d="M211.79,296.54a17.56,17.56,0,0,1,2.77-9.39c1.48-2.37,3.4-3.56,5.29-3.56s2.81,1,2.81,2.67-.71,3.21-3.42,5.06a3.36,3.36,0,0,1,2.17,3.46,7.42,7.42,0,0,1-.06,1,4.16,4.16,0,0,0,2.46-1.62c.27,0,.42.21.38.52-.12.71-1.4,1.81-3,2a5.49,5.49,0,0,1-5.44,4.19C213.27,300.87,211.79,299.44,211.79,296.54Zm6.71-.33a2,2,0,0,1-.85-1.71,1.36,1.36,0,0,1,1-1.42,2.1,2.1,0,0,0-.48-1.15,25.49,25.49,0,0,1-3.21,1.31,21.59,21.59,0,0,0-.54,4.46c0,1.56.54,2.13,1.44,2.13C217,299.83,218,298.31,218.5,296.21Zm-2.19-7.39a28,28,0,0,0-1,3.25c3.12-1.48,5.06-4.5,5.06-6.54a.78.78,0,0,0-.81-.9C218.58,284.63,217.21,286.48,216.31,288.81Z"/><path class="cls-1" d="M229.21,297.56a9.66,9.66,0,0,1-.94,1.54,3.58,3.58,0,0,1-2.94,1.77,2.21,2.21,0,0,1-2.27-2.42,14,14,0,0,1,.25-2.56l.6-3.46a3.55,3.55,0,0,0,0-1.79,2.28,2.28,0,0,1,1.08-.19c1.6,0,1.79.6,1.54,2.06l-.83,4.81c-.21,1.19.08,1.73.69,1.73s1-.56,1.54-1.4a15.76,15.76,0,0,0,2.1-5.44,3.21,3.21,0,0,0,0-1.58,2.28,2.28,0,0,1,1.08-.19c1.6,0,1.79.6,1.54,2.06l-.81,4.71c-.21,1.25.15,1.83.9,1.83a2.89,2.89,0,0,0,2.19-1.81c.27,0,.46.17.4.54a4.23,4.23,0,0,1-3.73,3.08,2.34,2.34,0,0,1-2.44-2.6C229.19,298.08,229.19,297.85,229.21,297.56Z"/><path class="cls-1" d="M234.54,296.38a5.69,5.69,0,0,1,5.58-5.92c2.13,0,3,1.1,3,2.17,0,1.9-2.19,3.15-5.85,3.83a2.86,2.86,0,0,0,3,2.77,4.64,4.64,0,0,0,4.06-2c.27,0,.42.17.33.54-.19.92-2.19,3.08-5.37,3.08C236.52,300.87,234.54,299.19,234.54,296.38Zm2.73-.9c2.54-.6,3.6-1.87,3.6-3.25a.69.69,0,0,0-.73-.73C239,291.5,237.5,292.88,237.27,295.48Z"/><path class="cls-1" d="M250.23,290.46a1.45,1.45,0,0,1,1.6,1.65L252,298l2.4-5.12a9.21,9.21,0,0,0,.83-2.27,2.28,2.28,0,0,1,1.08-.19c1.6,0,1.79.6,1.54,2.06l-.79,4.6c-.25,1.5.08,1.94.63,1.94a.86.86,0,0,0,.79-.58c.29,0,.44.23.4.6a2.35,2.35,0,0,1-2.42,1.79,2.2,2.2,0,0,1-2.1-2.46,12,12,0,0,1,.19-2.12l.33-2-2.1,4.56a10.27,10.27,0,0,0-.62,1.69,1.87,1.87,0,0,1-1.15.31c-1,0-1.56-.67-1.6-2l-.12-4.71-1.15,3.92c-.56,1.9-1.46,2.81-2.81,2.81a1.9,1.9,0,0,1-2-2,1.74,1.74,0,0,1,1.63-1.94,1.48,1.48,0,0,1,1,.29,2.73,2.73,0,0,0-.33,1.17c0,.42.25.65.52.65s.71-.37,1-1.42l1.17-4.08a8.53,8.53,0,0,0,.52-2.92A6.86,6.86,0,0,1,250.23,290.46Z"/><path class="cls-1" d="M265.08,292.29a5.75,5.75,0,0,0,1.79-3.92,1.79,1.79,0,0,0-1.92-2,2.48,2.48,0,0,0-2.31,2.67,2,2,0,0,0,.38,1.27,1.35,1.35,0,0,1-1.21.5c-.9,0-1.5-.58-1.5-1.71,0-2,2.06-3.83,5.06-3.85s4.39,1.56,4.39,3.31c0,1.94-.83,2.87-3,4.6a6,6,0,0,0-2.08,3,2.3,2.3,0,0,0-.1,1.13.9.9,0,0,1-.52.15c-.56,0-.73-.37-.73-1A6.09,6.09,0,0,1,265.08,292.29Zm-1.29,6a1.24,1.24,0,0,1,1.29,1.31,1.45,1.45,0,0,1-1.5,1.44,1.19,1.19,0,0,1-1.25-1.25A1.47,1.47,0,0,1,263.79,298.33Z"/><path class="cls-1" d="M91.16,318.08a3.46,3.46,0,0,1,3.15,3.33c0,2.46-2,4.46-6.25,4.46-2.17,0-3.31-.48-3.79-1a1.47,1.47,0,0,1-.37-1.08,6.15,6.15,0,0,1,.13-1.06l1.79-10.27a7.32,7.32,0,0,0,.1-1h-.19c-1.89,0-2.83,1.06-2.83,2.25,0,.58.31,1,.83,1a.86.86,0,0,0,.35-.06.66.66,0,0,1,0,.19c0,.5-.52,1.17-1.58,1.17a2,2,0,0,1-2.19-2.08c0-2.06,1.9-3.56,5.25-3.56h2.79c4.89,0,6.6,1.75,6.6,4A3.92,3.92,0,0,1,91.16,318.08Zm-3.67.6-.77,4.39a5.7,5.7,0,0,0-.1,1.58,7.92,7.92,0,0,0,1.08.06,3.45,3.45,0,0,0,3.71-3.54,2.29,2.29,0,0,0-2.5-2.5Zm1.27-7.29-1.08,6.14h1.23A3.26,3.26,0,0,0,92.07,314a2.44,2.44,0,0,0-2.75-2.58Z"/><path class="cls-1" d="M111.88,322.25c.27,0,.46.17.4.54a4.23,4.23,0,0,1-3.73,3.08,2.34,2.34,0,0,1-2.44-2.6,12.57,12.57,0,0,1,.19-2h-3.35l-.44,2.6a3.56,3.56,0,0,0,0,1.79,2.28,2.28,0,0,1-1.08.19c-1.6,0-1.79-.6-1.54-2.06l1.1-6.37a3.55,3.55,0,0,0,0-1.79,2.29,2.29,0,0,1,1.08-.19c1.6,0,1.79.6,1.54,2.06l-.48,2.73h3.33l.5-2.81a3.56,3.56,0,0,0,0-1.79,2.28,2.28,0,0,1,1.08-.19c1.6,0,1.79.6,1.54,2.06l-.81,4.71c-.21,1.23.15,1.83.9,1.83A2.89,2.89,0,0,0,111.88,322.25Z"/><path class="cls-1" d="M111.47,321.38a5.69,5.69,0,0,1,5.58-5.92c2.12,0,3,1.1,3,2.17,0,1.9-2.19,3.15-5.85,3.83a2.86,2.86,0,0,0,3,2.77,4.63,4.63,0,0,0,4.06-2c.27,0,.42.17.33.54-.19.92-2.19,3.08-5.37,3.08C113.45,325.87,111.47,324.19,111.47,321.38Zm2.73-.9c2.54-.6,3.6-1.87,3.6-3.25a.69.69,0,0,0-.73-.73C115.88,316.5,114.43,317.88,114.2,320.48Z"/><path class="cls-1" d="M124.22,320.42h.83c.58,0,1-.69,1.25-1.19l.81-1.67c.83-1.69,1.5-2.1,2.4-2.1a1.29,1.29,0,0,1,1.35,1.42,1.89,1.89,0,0,1-.73,1.44,1,1,0,0,0-1-.75c-.62,0-1.08.46-1.46,1.25l-.35.75a2.34,2.34,0,0,1-.73.94,1.91,1.91,0,0,1,1.42,1.35l.23.73c.29,1,.71,1.48,1.56,1.48a2.88,2.88,0,0,0,2.23-1.81c.27,0,.46.17.4.54a4.28,4.28,0,0,1-3.73,3.08,2.93,2.93,0,0,1-2.9-2.44l-.33-1.1c-.17-.58-.44-.9-1-.9H124l-.42,2.46a3.56,3.56,0,0,0,0,1.79,2.28,2.28,0,0,1-1.08.19c-1.6,0-1.79-.6-1.54-2.06l1.1-6.37a3.55,3.55,0,0,0,0-1.79,2.29,2.29,0,0,1,1.08-.19c1.6,0,1.79.6,1.54,2.06Z"/><path class="cls-1" d="M141.22,319.44a8.8,8.8,0,0,1-.1,1.31,4.14,4.14,0,0,0,2.52-1.62c.27,0,.42.21.38.52-.12.73-1.44,1.85-3.1,2.06a5.43,5.43,0,0,1-5.46,4.17,3.64,3.64,0,0,1-3.83-4c0-3.77,2.21-6.44,5.77-6.44A3.63,3.63,0,0,1,141.22,319.44Zm-2.69-1.35c-.1-1-.58-1.6-1.35-1.6-1,0-2.12,1.06-2.71,4.17a15.26,15.26,0,0,0-.19,2.14c0,1.31.5,2,1.38,2,1.13,0,2.06-1.19,2.6-3.69a2,2,0,0,1-.79-1.65A1.34,1.34,0,0,1,138.53,318.08Z"/><path class="cls-1" d="M159.86,322.25c.27,0,.46.17.4.54a4.27,4.27,0,0,1-3.67,3.08,2.4,2.4,0,0,1-2.52-2.6,19.13,19.13,0,0,1,.31-2.37l.4-2.29c.17-1,0-1.31-.5-1.31-1.06,0-2.67,3-3.31,6.6a3.55,3.55,0,0,0,0,1.79,2.29,2.29,0,0,1-1.08.19c-1.6,0-1.79-.6-1.54-2.06l.92-5.21c.17-.9,0-1.31-.48-1.31-1,0-2.64,2.75-3.33,6.6a3.56,3.56,0,0,0,0,1.79,2.28,2.28,0,0,1-1.08.19c-1.6,0-1.79-.6-1.54-2.06l1.1-6.37a3.55,3.55,0,0,0,0-1.79,2.29,2.29,0,0,1,1.08-.19c1.6,0,1.79.6,1.54,2.06l-.08.5c.69-1.15,1.92-2.56,3.35-2.56a2,2,0,0,1,2.17,2.17c0,.15,0,.29,0,.46.67-1.19,1.94-2.62,3.42-2.62a2,2,0,0,1,2.15,2.15,11.31,11.31,0,0,1-.19,1.69l-.5,2.94c-.21,1.23.1,1.83.85,1.83A2.71,2.71,0,0,0,159.86,322.25Z"/><path class="cls-1" d="M169.05,319.44a8.8,8.8,0,0,1-.1,1.31,4.15,4.15,0,0,0,2.52-1.62c.27,0,.42.21.38.52-.12.73-1.44,1.85-3.1,2.06a5.43,5.43,0,0,1-5.46,4.17,3.64,3.64,0,0,1-3.83-4c0-3.77,2.21-6.44,5.77-6.44A3.63,3.63,0,0,1,169.05,319.44Zm-2.69-1.35c-.1-1-.58-1.6-1.35-1.6-1,0-2.12,1.06-2.71,4.17a15.12,15.12,0,0,0-.19,2.14c0,1.31.5,2,1.38,2,1.12,0,2.06-1.19,2.6-3.69a2,2,0,0,1-.79-1.65A1.34,1.34,0,0,1,166.36,318.08Z"/><path class="cls-1" d="M174.32,317.9c.88-1.58,2-2.44,3.35-2.44,1.94,0,3,1.38,3,3.54a9.12,9.12,0,0,1-.17,1.75,4.06,4.06,0,0,0,2.58-1.62c.27,0,.42.21.37.52-.12.73-1.48,1.9-3.19,2.06-.81,2.6-2.73,4.17-4.75,4.17a3.24,3.24,0,0,1-2.42-1l-1.1,6.33a3.55,3.55,0,0,0,0,1.79,2.29,2.29,0,0,1-1.08.19c-1.6,0-1.79-.6-1.54-2.06l2.38-13.66a3.56,3.56,0,0,0,0-1.79,2.28,2.28,0,0,1,1.08-.19c1.6,0,1.79.58,1.54,2.06Zm3.64.19c-.12-.71-.48-1-1-1s-1.23.52-1.94,1.65a11.64,11.64,0,0,0-1.54,4.06l-.15.79a1.78,1.78,0,0,0,1.58.9c1.14,0,2.27-1.33,2.79-3.31a2,2,0,0,1-.77-1.65A1.36,1.36,0,0,1,178,318.08Z"/><path class="cls-1" d="M182.34,322.52a9.75,9.75,0,0,1,.15-1.5l.65-3.58a3.55,3.55,0,0,0,0-1.79,2.29,2.29,0,0,1,1.08-.19c1.6,0,1.79.6,1.54,2.06l-.19,1.06a4.49,4.49,0,0,1,2-.44c1.94,0,3.29,1.15,3.29,3a4.62,4.62,0,0,1-4.94,4.77C183.62,325.87,182.34,324.56,182.34,322.52Zm2.69-.69a10,10,0,0,0-.15,1.63c0,.81.42,1.38,1.21,1.38,1.17,0,2.17-1.29,2.17-3.81,0-1.1-.56-1.62-1.44-1.62a2.17,2.17,0,0,0-1.5.69Zm7.77-4.39a3.55,3.55,0,0,0,0-1.79,2.29,2.29,0,0,1,1.08-.19c1.6,0,1.79.6,1.54,2.06l-.79,4.6c-.25,1.5.08,1.94.63,1.94a.86.86,0,0,0,.79-.58c.29,0,.44.23.4.6a2.35,2.35,0,0,1-2.42,1.79,2.2,2.2,0,0,1-2.1-2.46,12,12,0,0,1,.19-2.12Z"/><path class="cls-1" d="M200.3,322.9l-.27-.81-.42.29a3.18,3.18,0,0,0-1.42,2.71,2.11,2.11,0,0,0,.08.6,1.56,1.56,0,0,1-.79.19c-.83,0-1.21-.44-1.21-1.1s.4-1.5,1.92-2.6l1.52-1.1-1-3.14c-.23-.69-.44-1-.83-1a.81.81,0,0,0-.4.1,1,1,0,0,1,0-.27,1.49,1.49,0,0,1,1.65-1.31c1.1,0,1.63.33,2,1.54l.81,2.48.73-.52a3.18,3.18,0,0,0,1.42-2.71,2.1,2.1,0,0,0-.08-.6,1.56,1.56,0,0,1,.79-.19c.83,0,1.21.44,1.21,1.1s-.4,1.5-1.92,2.6l-1.81,1.31.58,1.71c.44,1.29,1,1.87,1.79,1.87a1,1,0,0,0,.92-.58c.29,0,.42.25.38.58a2.35,2.35,0,0,1-2.44,1.81C202.09,325.87,201,325.06,200.3,322.9Z"/><path class="cls-1" d="M211.41,321.46a5.72,5.72,0,0,1,5.54-6c1.73,0,2.94,1,2.94,2.35s-.71,2.17-1.79,2.17a1.08,1.08,0,0,1-1-.5,2.69,2.69,0,0,0,.77-2,.91.91,0,0,0-1-1c-1.29,0-2.79,1.79-2.79,4.54a2.88,2.88,0,0,0,3.06,3.19,4.64,4.64,0,0,0,4-2c.27,0,.42.17.33.54-.21.92-2.15,3.08-5.37,3.08C213.36,325.87,211.41,324.15,211.41,321.46Z"/><path class="cls-1" d="M238,322.25c.27,0,.46.17.4.54a4.27,4.27,0,0,1-3.67,3.08,2.4,2.4,0,0,1-2.52-2.6,19.13,19.13,0,0,1,.31-2.37l.4-2.29c.17-1,0-1.31-.5-1.31-1.06,0-2.67,3-3.31,6.6a3.56,3.56,0,0,0,0,1.79,2.28,2.28,0,0,1-1.08.19c-1.6,0-1.79-.6-1.54-2.06l.92-5.21c.17-.9,0-1.31-.48-1.31-1,0-2.65,2.75-3.33,6.6a3.57,3.57,0,0,0,0,1.79,2.28,2.28,0,0,1-1.08.19c-1.6,0-1.79-.6-1.54-2.06l1.1-6.37a3.56,3.56,0,0,0,0-1.79,2.28,2.28,0,0,1,1.08-.19c1.6,0,1.79.6,1.54,2.06l-.08.5c.69-1.15,1.92-2.56,3.35-2.56a2,2,0,0,1,2.17,2.17c0,.15,0,.29,0,.46.67-1.19,1.94-2.62,3.42-2.62a2,2,0,0,1,2.15,2.15,11.31,11.31,0,0,1-.19,1.69l-.5,2.94c-.21,1.23.1,1.83.85,1.83A2.71,2.71,0,0,0,238,322.25Z"/><path class="cls-1" d="M241.38,317.9c.88-1.58,2-2.44,3.35-2.44,1.94,0,3,1.38,3,3.54a9.28,9.28,0,0,1-.17,1.75,4.06,4.06,0,0,0,2.58-1.62c.27,0,.42.21.38.52-.12.73-1.48,1.9-3.19,2.06-.81,2.6-2.73,4.17-4.75,4.17a3.24,3.24,0,0,1-2.42-1l-1.1,6.33a3.56,3.56,0,0,0,0,1.79,2.28,2.28,0,0,1-1.08.19c-1.6,0-1.79-.6-1.54-2.06l2.38-13.66a3.56,3.56,0,0,0,0-1.79,2.28,2.28,0,0,1,1.08-.19c1.6,0,1.79.58,1.54,2.06Zm3.65.19c-.12-.71-.48-1-1-1s-1.23.52-1.94,1.65a11.64,11.64,0,0,0-1.54,4.06l-.15.79a1.78,1.78,0,0,0,1.58.9c1.15,0,2.27-1.33,2.79-3.31a2,2,0,0,1-.77-1.65A1.36,1.36,0,0,1,245,318.08Z"/><path class="cls-1" d="M258.13,322.23c-.23,1.25.15,1.83.9,1.83a2.89,2.89,0,0,0,2.19-1.81c.27,0,.46.17.4.54a4.23,4.23,0,0,1-3.73,3.08,2.32,2.32,0,0,1-2.44-2.35c-.85,1.54-2,2.35-3.19,2.35-1.71,0-3.06-1.15-3.06-3.58,0-4.65,2.71-6.83,5.14-6.83a2.73,2.73,0,0,1,2.25,1c.33-.75.85-1,1.87-1a2.11,2.11,0,0,1,1,.21,4.1,4.1,0,0,0-.48,1.5Zm-2.06-3.37.19-1a1.51,1.51,0,0,0-1.37-1c-1.42,0-3,2.1-3,5.46,0,1.17.46,1.73,1.23,1.73C254.57,324.06,255.67,320.94,256.07,318.85Z"/><path class="cls-1" d="M272.92,322.25c.27,0,.46.17.4.54a4.23,4.23,0,0,1-3.73,3.08,2.34,2.34,0,0,1-2.44-2.6,12.57,12.57,0,0,1,.19-2H264l-.44,2.6a3.57,3.57,0,0,0,0,1.79,2.28,2.28,0,0,1-1.08.19c-1.6,0-1.79-.6-1.54-2.06l1.1-6.37a3.56,3.56,0,0,0,0-1.79,2.28,2.28,0,0,1,1.08-.19c1.6,0,1.79.6,1.54,2.06l-.48,2.73h3.33l.5-2.81a3.56,3.56,0,0,0,0-1.79,2.28,2.28,0,0,1,1.08-.19c1.6,0,1.79.6,1.54,2.06l-.81,4.71c-.21,1.23.15,1.83.9,1.83A2.89,2.89,0,0,0,272.92,322.25Z"/><path class="cls-1" d="M281.46,322.13c-.27,1.48.08,1.94.63,1.94a.86.86,0,0,0,.79-.58c.29,0,.44.23.4.6a2.35,2.35,0,0,1-2.42,1.79,2.17,2.17,0,0,1-2.1-2.33c-.87,1.52-2,2.33-3.19,2.33-1.71,0-3.06-1.15-3.06-3.58,0-4.65,2.71-6.83,5.14-6.83a2.73,2.73,0,0,1,2.25,1c.33-.75.85-1,1.87-1a2.11,2.11,0,0,1,1,.21,4.1,4.1,0,0,0-.48,1.5Zm-2.08-3.27.19-1a1.51,1.51,0,0,0-1.37-1c-1.42,0-3,2.1-3,5.46,0,1.17.46,1.73,1.23,1.73C277.88,324.06,279,320.94,279.38,318.85Z"/><path class="cls-1" d="M287.11,322.9l-.27-.81-.42.29a3.18,3.18,0,0,0-1.42,2.71,2.11,2.11,0,0,0,.08.6,1.56,1.56,0,0,1-.79.19c-.83,0-1.21-.44-1.21-1.1s.4-1.5,1.92-2.6l1.52-1.1-1-3.14c-.23-.69-.44-1-.83-1a.81.81,0,0,0-.4.1,1,1,0,0,1,0-.27,1.49,1.49,0,0,1,1.65-1.31c1.1,0,1.63.33,2,1.54l.81,2.48.73-.52a3.18,3.18,0,0,0,1.42-2.71,2.1,2.1,0,0,0-.08-.6,1.56,1.56,0,0,1,.79-.19c.83,0,1.21.44,1.21,1.1s-.4,1.5-1.92,2.6l-1.81,1.31.58,1.71c.44,1.29,1,1.87,1.79,1.87a1,1,0,0,0,.92-.58c.29,0,.42.25.38.58a2.35,2.35,0,0,1-2.44,1.81C288.9,325.87,287.84,325.06,287.11,322.9Z"/><path class="cls-1" d="M58,346.46a5.72,5.72,0,0,1,5.54-6c1.73,0,2.94,1,2.94,2.35S65.75,345,64.67,345a1.08,1.08,0,0,1-1-.5,2.69,2.69,0,0,0,.77-2,.91.91,0,0,0-1-1c-1.29,0-2.79,1.79-2.79,4.54a2.88,2.88,0,0,0,3.06,3.19,4.64,4.64,0,0,0,4-2c.27,0,.42.17.33.54-.21.92-2.15,3.08-5.37,3.08C59.94,350.87,58,349.15,58,346.46Z"/><path class="cls-1" d="M68.13,340.65a2.28,2.28,0,0,1,1.08-.19c1.6,0,1.81.6,1.54,2.06l-.52,2.73c-.23,1.25.1,1.73.67,1.73s1-.46,1.65-1.37a9,9,0,0,0,1.39-3.5,2.84,2.84,0,0,0,0-1.46,2.28,2.28,0,0,1,1.08-.19c1.6,0,1.79.6,1.54,2.06l-.81,4.71c-.21,1.25.15,1.83.9,1.83a2.89,2.89,0,0,0,2.19-1.81c.27,0,.46.17.39.54a4.23,4.23,0,0,1-3.73,3.08,2.34,2.34,0,0,1-2.44-2.6,13.09,13.09,0,0,1,.17-1.9,4.1,4.1,0,0,1-3.37,2.42,2.19,2.19,0,0,1-2.25-2.42,22.14,22.14,0,0,1,.52-3.94A3.55,3.55,0,0,0,68.13,340.65Z"/><path class="cls-1" d="M84.65,347.56a9.8,9.8,0,0,1-.94,1.54,3.58,3.58,0,0,1-2.94,1.77,2.21,2.21,0,0,1-2.27-2.42,14,14,0,0,1,.25-2.56l.6-3.46a3.56,3.56,0,0,0,0-1.79,2.28,2.28,0,0,1,1.08-.19c1.6,0,1.79.6,1.54,2.06l-.83,4.81c-.21,1.19.08,1.73.69,1.73s1-.56,1.54-1.4a15.76,15.76,0,0,0,2.1-5.44,3.21,3.21,0,0,0,0-1.58,2.28,2.28,0,0,1,1.08-.19c1.6,0,1.79.6,1.54,2.06l-.81,4.71c-.21,1.25.15,1.83.9,1.83a2.89,2.89,0,0,0,2.19-1.81c.27,0,.46.17.4.54a4.23,4.23,0,0,1-3.73,3.08,2.34,2.34,0,0,1-2.44-2.6C84.63,348.08,84.63,347.85,84.65,347.56Z"/><path class="cls-1" d="M107.06,347.25c.27,0,.46.17.4.54a4.27,4.27,0,0,1-3.67,3.08,2.4,2.4,0,0,1-2.52-2.6,19.13,19.13,0,0,1,.31-2.37l.4-2.29c.17-1,0-1.31-.5-1.31-1.06,0-2.67,3-3.31,6.6a3.55,3.55,0,0,0,0,1.79,2.29,2.29,0,0,1-1.08.19c-1.6,0-1.79-.6-1.54-2.06l.92-5.21c.17-.9,0-1.31-.48-1.31-1,0-2.64,2.75-3.33,6.6a3.56,3.56,0,0,0,0,1.79,2.28,2.28,0,0,1-1.08.19c-1.6,0-1.79-.6-1.54-2.06l1.1-6.37a3.55,3.55,0,0,0,0-1.79,2.29,2.29,0,0,1,1.08-.19c1.6,0,1.79.6,1.54,2.06l-.08.5c.69-1.15,1.92-2.56,3.35-2.56a2,2,0,0,1,2.17,2.17c0,.15,0,.29,0,.46.67-1.19,1.94-2.62,3.42-2.62a2,2,0,0,1,2.15,2.15,11.31,11.31,0,0,1-.19,1.69l-.5,2.94c-.21,1.23.1,1.83.85,1.83A2.71,2.71,0,0,0,107.06,347.25Z"/><path class="cls-1" d="M115.48,347.23c-.23,1.25.15,1.83.9,1.83a2.89,2.89,0,0,0,2.19-1.81c.27,0,.46.17.4.54a4.23,4.23,0,0,1-3.73,3.08,2.32,2.32,0,0,1-2.44-2.35c-.85,1.54-2,2.35-3.19,2.35-1.71,0-3.06-1.15-3.06-3.58,0-4.65,2.71-6.83,5.14-6.83a2.73,2.73,0,0,1,2.25,1c.33-.75.85-1,1.88-1a2.1,2.1,0,0,1,1,.21,4.12,4.12,0,0,0-.48,1.5Zm-2.06-3.37.19-1a1.51,1.51,0,0,0-1.37-1c-1.42,0-3,2.1-3,5.46,0,1.17.46,1.73,1.23,1.73C111.92,349.06,113,345.94,113.42,343.85Z"/><path class="cls-1" d="M118,346.38a5.69,5.69,0,0,1,5.58-5.92c2.13,0,3,1.1,3,2.17,0,1.9-2.19,3.15-5.85,3.83a2.86,2.86,0,0,0,3,2.77,4.64,4.64,0,0,0,4.06-2c.27,0,.42.17.33.54-.19.92-2.19,3.08-5.37,3.08C120,350.87,118,349.19,118,346.38Zm2.73-.9c2.54-.6,3.6-1.87,3.6-3.25a.69.69,0,0,0-.73-.73C122.46,341.5,121,342.88,120.77,345.48Z"/><path class="cls-1" d="M144.52,347.25c.27,0,.46.17.4.54a4.27,4.27,0,0,1-3.67,3.08,2.4,2.4,0,0,1-2.52-2.6,19.13,19.13,0,0,1,.31-2.37l.4-2.29c.17-1,0-1.31-.5-1.31-1.06,0-2.67,3-3.31,6.6a3.55,3.55,0,0,0,0,1.79,2.28,2.28,0,0,1-1.08.19c-1.6,0-1.79-.6-1.54-2.06l.92-5.21c.17-.9,0-1.31-.48-1.31-1,0-2.64,2.75-3.33,6.6a3.58,3.58,0,0,0,0,1.79,2.28,2.28,0,0,1-1.08.19c-1.6,0-1.79-.6-1.54-2.06l1.1-6.37a3.56,3.56,0,0,0,0-1.79,2.28,2.28,0,0,1,1.08-.19c1.6,0,1.79.6,1.54,2.06l-.08.5c.69-1.15,1.92-2.56,3.35-2.56a2,2,0,0,1,2.17,2.17c0,.15,0,.29,0,.46.67-1.19,1.94-2.62,3.42-2.62a2,2,0,0,1,2.14,2.15,11.19,11.19,0,0,1-.19,1.69l-.5,2.94c-.21,1.23.1,1.83.85,1.83A2.71,2.71,0,0,0,144.52,347.25Z"/><path class="cls-1" d="M144,346.46a5.72,5.72,0,0,1,5.54-6c1.73,0,2.94,1,2.94,2.35s-.71,2.17-1.79,2.17a1.08,1.08,0,0,1-1-.5,2.69,2.69,0,0,0,.77-2,.91.91,0,0,0-1-1c-1.29,0-2.79,1.79-2.79,4.54a2.88,2.88,0,0,0,3.06,3.19,4.64,4.64,0,0,0,4-2c.27,0,.42.17.33.54-.21.92-2.15,3.08-5.37,3.08C146,350.87,144,349.15,144,346.46Z"/><path class="cls-1" d="M162.81,342.86l-.73,4.27c-.25,1.5.08,1.94.63,1.94a.86.86,0,0,0,.79-.58c.29,0,.44.23.4.6a2.35,2.35,0,0,1-2.42,1.79,2.2,2.2,0,0,1-2.1-2.46,12.9,12.9,0,0,1,.08-1.48l-1.21,0-.52,1c-.92,1.85-1.71,2.85-3.06,2.85a1.87,1.87,0,0,1-2-2,1.74,1.74,0,0,1,1.67-1.94,1.3,1.3,0,0,1,.94.29,2.73,2.73,0,0,0-.33,1.17c0,.42.25.65.52.65s.81-.4,1.27-1.33l.38-.79c-2-.27-3-1.46-3-2.94,0-2,1.38-3.54,4.54-3.54a13.56,13.56,0,0,1,3.44.42C162.87,341.15,163,341.71,162.81,342.86Zm-3.19,3.08.54-3.17c.1-.65.17-1.1.17-1.1a4,4,0,0,0-1.19-.17,2.42,2.42,0,0,0-2.35,2.63,1.69,1.69,0,0,0,1.83,1.83C158.92,346,159.37,346,159.62,345.94Z"/><path class="cls-1" d="M176.31,343.6c.17-1,0-1.31-.5-1.31-1.31,0-3.29,3.1-3.94,6.6a3.56,3.56,0,0,0,0,1.79,2.28,2.28,0,0,1-1.08.19c-1.6,0-1.79-.6-1.54-2.06l1.1-6.37a3.55,3.55,0,0,0,0-1.79,2.29,2.29,0,0,1,1.08-.19c1.6,0,1.79.6,1.54,2.06l-.17,1c.81-1.35,2.4-3,4.08-3a2,2,0,0,1,2.14,2.15,11.19,11.19,0,0,1-.19,1.69l-.5,2.94c-.19,1,0,1.83.85,1.83s1.65-.73,2.19-1.81c.27,0,.46.17.4.54a4.25,4.25,0,0,1-3.67,3.08,2.4,2.4,0,0,1-2.52-2.6,18.16,18.16,0,0,1,.31-2.37Z"/><path class="cls-1" d="M191,346.73h-.33c-.81,2.58-2.73,4.14-4.75,4.14a3.24,3.24,0,0,1-2.42-1l-1.1,6.33a3.55,3.55,0,0,0,0,1.79,2.28,2.28,0,0,1-1.08.19c-1.6,0-1.79-.6-1.54-2.06l2.38-13.66a3.58,3.58,0,0,0,0-1.79,2.28,2.28,0,0,1,1.08-.19c1.6,0,1.79.6,1.54,2.06l-.06.38c.88-1.58,2-2.44,3.35-2.44,1.94,0,3,1.38,3,3.54a11.1,11.1,0,0,1-.19,1.9h.46a7.1,7.1,0,0,0,2.29-.37c.21.15.17.5-.06.71A4.69,4.69,0,0,1,191,346.73Zm-7.14,1-.15.79a1.78,1.78,0,0,0,1.58.9c1.17,0,2.29-1.35,2.81-3.35a1.83,1.83,0,0,1-.79-1.6,1.36,1.36,0,0,1,1-1.42c-.12-.71-.48-1-1-1s-1.23.52-1.94,1.65A11.66,11.66,0,0,0,183.83,347.77Z"/><path class="cls-1" d="M192.4,346.38a5.69,5.69,0,0,1,5.58-5.92c2.13,0,3,1.1,3,2.17,0,1.9-2.19,3.15-5.85,3.83a2.86,2.86,0,0,0,3,2.77,4.64,4.64,0,0,0,4.06-2c.27,0,.42.17.33.54-.19.92-2.19,3.08-5.37,3.08C194.37,350.87,192.4,349.19,192.4,346.38Zm2.73-.9c2.54-.6,3.6-1.87,3.6-3.25a.69.69,0,0,0-.73-.73C196.81,341.5,195.35,342.88,195.12,345.48Z"/><path class="cls-1" d="M201.69,346.46a5.72,5.72,0,0,1,5.54-6c1.73,0,2.94,1,2.94,2.35s-.71,2.17-1.79,2.17a1.08,1.08,0,0,1-1-.5,2.69,2.69,0,0,0,.77-2,.91.91,0,0,0-1-1c-1.29,0-2.79,1.79-2.79,4.54a2.88,2.88,0,0,0,3.06,3.19,4.64,4.64,0,0,0,4-2c.27,0,.42.17.33.54-.21.92-2.15,3.08-5.37,3.08C203.64,350.87,201.69,349.15,201.69,346.46Z"/><path class="cls-1" d="M228.16,347.25c.27,0,.46.17.4.54a4.27,4.27,0,0,1-3.67,3.08,2.4,2.4,0,0,1-2.52-2.6,19.13,19.13,0,0,1,.31-2.37l.4-2.29c.17-1,0-1.31-.5-1.31-1.06,0-2.67,3-3.31,6.6a3.56,3.56,0,0,0,0,1.79,2.28,2.28,0,0,1-1.08.19c-1.6,0-1.79-.6-1.54-2.06l.92-5.21c.17-.9,0-1.31-.48-1.31-1,0-2.65,2.75-3.33,6.6a3.57,3.57,0,0,0,0,1.79,2.28,2.28,0,0,1-1.08.19c-1.6,0-1.79-.6-1.54-2.06l1.1-6.37a3.56,3.56,0,0,0,0-1.79,2.28,2.28,0,0,1,1.08-.19c1.6,0,1.79.6,1.54,2.06l-.08.5c.69-1.15,1.92-2.56,3.35-2.56a2,2,0,0,1,2.17,2.17c0,.15,0,.29,0,.46.67-1.19,1.94-2.62,3.42-2.62a2,2,0,0,1,2.15,2.15,11.31,11.31,0,0,1-.19,1.69l-.5,2.94c-.21,1.23.1,1.83.85,1.83A2.71,2.71,0,0,0,228.16,347.25Z"/><path class="cls-1" d="M236.33,349.12a15.73,15.73,0,0,0,3.39-1.87.37.37,0,0,1,.4.48c0,.21-.27.44-.69.75a23,23,0,0,1-3.31,1.92l0,.25c-.81,4.83-2.75,7.52-5.83,7.52a2.14,2.14,0,0,1-2.33-2.19,4.41,4.41,0,0,1,1.75-3.23,17,17,0,0,1,3.81-2.35l.44-2.69a12.24,12.24,0,0,1-.85,1.4,3.58,3.58,0,0,1-2.94,1.77,2.21,2.21,0,0,1-2.27-2.42,14,14,0,0,1,.25-2.56l.6-3.46a3.56,3.56,0,0,0,0-1.79,2.28,2.28,0,0,1,1.08-.19c1.6,0,1.79.6,1.54,2.06l-.83,4.81c-.21,1.21.08,1.73.69,1.73s1-.56,1.54-1.4a15.66,15.66,0,0,0,2.06-5.23,3.25,3.25,0,0,0,0-1.79,2.28,2.28,0,0,1,1.08-.19c1.6,0,1.79.6,1.54,2.06Zm-3.08,2.58a12.53,12.53,0,0,0-2.94,1.92,3.25,3.25,0,0,0-1.23,2.23.87.87,0,0,0,1,.94C231.52,356.79,232.64,355,233.25,351.71Z"/><path class="cls-1" d="M246.39,343.6c.17-1,0-1.31-.5-1.31-1.31,0-3.29,3.1-3.94,6.6a3.57,3.57,0,0,0,0,1.79,2.28,2.28,0,0,1-1.08.19c-1.6,0-1.79-.6-1.54-2.06l1.1-6.37a3.56,3.56,0,0,0,0-1.79,2.28,2.28,0,0,1,1.08-.19c1.6,0,1.79.6,1.54,2.06l-.17,1c.81-1.35,2.4-3,4.08-3a2,2,0,0,1,2.14,2.15,11.19,11.19,0,0,1-.19,1.69l-.5,2.94c-.19,1,0,1.83.85,1.83s1.65-.73,2.19-1.81c.27,0,.46.17.4.54a4.25,4.25,0,0,1-3.67,3.08,2.4,2.4,0,0,1-2.52-2.6,18.16,18.16,0,0,1,.31-2.37Z"/><path class="cls-1" d="M258.43,342.44a8.48,8.48,0,0,0,.1-.92c-1.06.1-1.79.9-2.29,2.58l-1.1,3.83c-.54,1.9-1.42,2.94-2.85,2.94a1.91,1.91,0,0,1-2-2A1.72,1.72,0,0,1,252,347a1.48,1.48,0,0,1,1,.29,2.65,2.65,0,0,0-.33,1.08c0,.5.23.73.52.73s.73-.42,1-1.42l1.08-3.85a4,4,0,0,1,4.19-3.33c1.77,0,1.94.6,1.69,2.06l-.81,4.71c-.21,1.25.15,1.83.9,1.83a2.89,2.89,0,0,0,2.19-1.81c.27,0,.46.17.4.54a4.23,4.23,0,0,1-3.73,3.08,2.34,2.34,0,0,1-2.44-2.6,12.16,12.16,0,0,1,.19-2Z"/><path class="cls-1" d="M262.83,346.38a5.69,5.69,0,0,1,5.58-5.92c2.13,0,3,1.1,3,2.17,0,1.9-2.19,3.15-5.85,3.83a2.86,2.86,0,0,0,3,2.77,4.64,4.64,0,0,0,4.06-2c.27,0,.42.17.33.54-.19.92-2.19,3.08-5.37,3.08C264.81,350.87,262.83,349.19,262.83,346.38Zm2.73-.9c2.54-.6,3.6-1.87,3.6-3.25a.69.69,0,0,0-.73-.73C267.25,341.5,265.79,342.88,265.56,345.48Z"/><path class="cls-1" d="M284.25,347.25c.27,0,.46.17.4.54a4.23,4.23,0,0,1-3.73,3.08,2.34,2.34,0,0,1-2.44-2.6,12.57,12.57,0,0,1,.19-2h-3.35l-.44,2.6a3.57,3.57,0,0,0,0,1.79,2.28,2.28,0,0,1-1.08.19c-1.6,0-1.79-.6-1.54-2.06l1.1-6.37a3.56,3.56,0,0,0,0-1.79,2.28,2.28,0,0,1,1.08-.19c1.6,0,1.79.6,1.54,2.06l-.48,2.73h3.33l.5-2.81a3.56,3.56,0,0,0,0-1.79,2.28,2.28,0,0,1,1.08-.19c1.6,0,1.79.6,1.54,2.06l-.81,4.71c-.21,1.23.15,1.83.9,1.83A2.89,2.89,0,0,0,284.25,347.25Z"/><path class="cls-1" d="M290.08,347.56a9.66,9.66,0,0,1-.94,1.54,3.58,3.58,0,0,1-2.94,1.77,2.21,2.21,0,0,1-2.27-2.42,14,14,0,0,1,.25-2.56l.6-3.46a3.55,3.55,0,0,0,0-1.79,2.28,2.28,0,0,1,1.08-.19c1.6,0,1.79.6,1.54,2.06l-.83,4.81c-.21,1.19.08,1.73.69,1.73s1-.56,1.54-1.4a15.76,15.76,0,0,0,2.1-5.44,3.21,3.21,0,0,0,0-1.58,2.28,2.28,0,0,1,1.08-.19c1.6,0,1.79.6,1.54,2.06l-.81,4.71c-.21,1.25.15,1.83.9,1.83a2.89,2.89,0,0,0,2.19-1.81c.27,0,.46.17.4.54a4.23,4.23,0,0,1-3.73,3.08,2.34,2.34,0,0,1-2.44-2.6C290.06,348.08,290.06,347.85,290.08,347.56Z"/><path class="cls-1" d="M295.31,346.38a5.69,5.69,0,0,1,5.58-5.92c2.13,0,3,1.1,3,2.17,0,1.9-2.19,3.15-5.85,3.83a2.86,2.86,0,0,0,3,2.77,4.64,4.64,0,0,0,4.06-2c.27,0,.42.17.33.54-.19.92-2.19,3.08-5.37,3.08C297.29,350.87,295.31,349.19,295.31,346.38Zm2.73-.9c2.54-.6,3.6-1.87,3.6-3.25a.69.69,0,0,0-.73-.73C299.73,341.5,298.27,342.88,298,345.48Z"/><path class="cls-1" d="M310.89,340.46a1.45,1.45,0,0,1,1.6,1.65l.12,5.94,2.4-5.12a9.21,9.21,0,0,0,.83-2.27,2.28,2.28,0,0,1,1.08-.19c1.6,0,1.79.6,1.54,2.06l-.79,4.6c-.25,1.5.08,1.94.63,1.94a.86.86,0,0,0,.79-.58c.29,0,.44.23.4.6a2.35,2.35,0,0,1-2.42,1.79,2.2,2.2,0,0,1-2.1-2.46,12,12,0,0,1,.19-2.12l.33-2-2.1,4.56a10.27,10.27,0,0,0-.62,1.69,1.87,1.87,0,0,1-1.15.31c-1,0-1.56-.67-1.6-2l-.12-4.71-1.15,3.92c-.56,1.9-1.46,2.81-2.81,2.81a1.9,1.9,0,0,1-2-2A1.74,1.74,0,0,1,305.6,347a1.48,1.48,0,0,1,1,.29,2.73,2.73,0,0,0-.33,1.17c0,.42.25.65.52.65s.71-.37,1-1.42l1.17-4.08a8.53,8.53,0,0,0,.52-2.92A6.86,6.86,0,0,1,310.89,340.46Z"/><path class="cls-1" d="M112.95,371.54a17.56,17.56,0,0,1,2.77-9.39c1.48-2.37,3.4-3.56,5.29-3.56s2.81,1,2.81,2.67-.71,3.21-3.42,5.06a3.36,3.36,0,0,1,2.17,3.46,7.59,7.59,0,0,1-.06,1,4.16,4.16,0,0,0,2.46-1.62c.27,0,.42.21.38.52-.12.71-1.4,1.81-3,2a5.49,5.49,0,0,1-5.44,4.19C114.43,375.87,112.95,374.44,112.95,371.54Zm6.71-.33a2,2,0,0,1-.85-1.71,1.36,1.36,0,0,1,1-1.42,2.1,2.1,0,0,0-.48-1.15,25.43,25.43,0,0,1-3.21,1.31,21.59,21.59,0,0,0-.54,4.46c0,1.56.54,2.13,1.44,2.13C118.16,374.83,119.2,373.31,119.66,371.21Zm-2.19-7.39a27.85,27.85,0,0,0-1,3.25c3.12-1.48,5.06-4.5,5.06-6.54a.78.78,0,0,0-.81-.9C119.74,359.63,118.36,361.48,117.47,363.81Z"/><path class="cls-1" d="M124.22,372.52a9.86,9.86,0,0,1,.15-1.5l.65-3.58a3.55,3.55,0,0,0,0-1.79,2.29,2.29,0,0,1,1.08-.19c1.6,0,1.79.6,1.54,2.06l-.19,1.06a4.49,4.49,0,0,1,2-.44c1.94,0,3.29,1.15,3.29,3a4.62,4.62,0,0,1-4.94,4.77C125.49,375.87,124.22,374.56,124.22,372.52Zm2.69-.69a10.06,10.06,0,0,0-.15,1.63c0,.81.42,1.38,1.21,1.38,1.17,0,2.17-1.29,2.17-3.81,0-1.1-.56-1.62-1.44-1.62a2.17,2.17,0,0,0-1.5.69Zm7.77-4.39a3.56,3.56,0,0,0,0-1.79,2.28,2.28,0,0,1,1.08-.19c1.6,0,1.79.6,1.54,2.06l-.81,4.71c-.21,1.25.15,1.83.9,1.83a2.89,2.89,0,0,0,2.19-1.81c.27,0,.46.17.4.54a4.23,4.23,0,0,1-3.73,3.08,2.34,2.34,0,0,1-2.44-2.6,12.16,12.16,0,0,1,.19-2Z"/><path class="cls-1" d="M140.34,373.17a5.32,5.32,0,0,1,.46-1.94l1.38-3a2,2,0,0,0,.19-.71.57.57,0,0,0-.62-.62c-.58,0-1.31.67-1.79,2.08a.38.38,0,0,1-.15,0c-.29,0-.48-.21-.4-.67a3.46,3.46,0,0,1,3.27-2.85,2.08,2.08,0,0,1,2.35,2.08,4.83,4.83,0,0,1-.44,1.77L143.32,372c-.54,1.17-.27,2,.73,2a2.91,2.91,0,0,0,2.46-1.81c.35,0,.46.23.4.56a4.53,4.53,0,0,1-3.9,3.06A2.45,2.45,0,0,1,140.34,373.17Z"/><path class="cls-1" d="M153.57,367.44a8.33,8.33,0,0,0,.1-.92c-1.06.1-1.79.9-2.29,2.58l-1.1,3.83c-.54,1.9-1.42,2.94-2.85,2.94a1.91,1.91,0,0,1-2-2,1.72,1.72,0,0,1,1.62-1.87,1.48,1.48,0,0,1,1,.29,2.65,2.65,0,0,0-.33,1.08c0,.5.23.73.52.73s.73-.42,1-1.42l1.08-3.85a4,4,0,0,1,4.19-3.33c1.77,0,1.94.6,1.69,2.06l-.81,4.71c-.21,1.25.15,1.83.9,1.83a2.89,2.89,0,0,0,2.19-1.81c.27,0,.46.17.4.54a4.23,4.23,0,0,1-3.73,3.08,2.34,2.34,0,0,1-2.44-2.6,12.16,12.16,0,0,1,.19-2Z"/><path class="cls-1" d="M166.57,365.79c.88.21,1.27.58,1,2l-.75,4.4c-.21,1.25.15,1.83.9,1.83a2.89,2.89,0,0,0,2.19-1.81c.27,0,.46.17.4.54a4.23,4.23,0,0,1-3.73,3.08,2.34,2.34,0,0,1-2.44-2.6,12.75,12.75,0,0,1,.08-1.33c-.35,0-.94,0-1.21,0l-.52,1c-.92,1.83-1.71,2.85-3.12,2.85a1.87,1.87,0,0,1-1.94-2,1.73,1.73,0,0,1,1.67-1.92,1.36,1.36,0,0,1,.94.29,2.59,2.59,0,0,0-.33,1.15c0,.42.23.67.56.67s.77-.37,1.23-1.33l.38-.79c-2-.27-3-1.46-3-2.94,0-2,1.38-3.54,4.54-3.54A13.52,13.52,0,0,1,166.57,365.79Zm-2.17,5.14.54-3.19.17-1.08a4.92,4.92,0,0,0-1.19-.17,2.42,2.42,0,0,0-2.35,2.63,1.69,1.69,0,0,0,1.83,1.83C163.74,371,164.16,371,164.41,370.94Z"/><path class="cls-1" d="M178.13,374.12a15.75,15.75,0,0,0,3.4-1.87.37.37,0,0,1,.39.48c0,.21-.27.44-.69.75a23,23,0,0,1-3.31,1.92l0,.25c-.81,4.83-2.75,7.52-5.83,7.52a2.14,2.14,0,0,1-2.33-2.19,4.41,4.41,0,0,1,1.75-3.23,16.08,16.08,0,0,1,3.81-2.35l.25-1.48a3.65,3.65,0,0,1-3,2c-1.71,0-3.06-1.15-3.06-3.58,0-4.65,2.71-6.83,5.14-6.83a2.73,2.73,0,0,1,2.25,1c.33-.75.85-1,1.88-1a2.09,2.09,0,0,1,1,.21,3.65,3.65,0,0,0-.48,1.5Zm-3.08,2.58a12.09,12.09,0,0,0-2.94,1.92,3.25,3.25,0,0,0-1.23,2.23.87.87,0,0,0,1,.94C173.3,381.79,174.43,380,175.05,376.71Zm1.33-7.85.19-1a1.51,1.51,0,0,0-1.37-1c-1.42,0-3,2.1-3,5.46,0,1.17.46,1.73,1.23,1.73C174.88,374.06,176,370.94,176.38,368.85Z"/><path class="cls-1" d="M181.12,371.38a5.69,5.69,0,0,1,5.58-5.92c2.12,0,3,1.1,3,2.17,0,1.9-2.19,3.15-5.85,3.83a2.86,2.86,0,0,0,3,2.77,4.64,4.64,0,0,0,4.06-2c.27,0,.42.17.33.54-.19.92-2.19,3.08-5.37,3.08C183.09,375.87,181.12,374.19,181.12,371.38Zm2.73-.9c2.54-.6,3.6-1.87,3.6-3.25a.69.69,0,0,0-.73-.73C185.53,366.5,184.07,367.88,183.84,370.48Z"/><path class="cls-1" d="M207.69,372.25c.27,0,.46.17.4.54a4.27,4.27,0,0,1-3.67,3.08,2.4,2.4,0,0,1-2.52-2.6,19.13,19.13,0,0,1,.31-2.37l.4-2.29c.17-1,0-1.31-.5-1.31-1.06,0-2.67,3-3.31,6.6a3.56,3.56,0,0,0,0,1.79,2.28,2.28,0,0,1-1.08.19c-1.6,0-1.79-.6-1.54-2.06l.92-5.21c.17-.9,0-1.31-.48-1.31-1,0-2.65,2.75-3.33,6.6a3.57,3.57,0,0,0,0,1.79,2.28,2.28,0,0,1-1.08.19c-1.6,0-1.79-.6-1.54-2.06l1.1-6.37a3.56,3.56,0,0,0,0-1.79,2.28,2.28,0,0,1,1.08-.19c1.6,0,1.79.6,1.54,2.06l-.08.5c.69-1.15,1.92-2.56,3.35-2.56a2,2,0,0,1,2.17,2.17c0,.15,0,.29,0,.46.67-1.19,1.94-2.62,3.42-2.62a2,2,0,0,1,2.15,2.15,11.31,11.31,0,0,1-.19,1.69l-.5,2.94c-.21,1.23.1,1.83.85,1.83A2.71,2.71,0,0,0,207.69,372.25Z"/><path class="cls-1" d="M207.49,372.52a9.75,9.75,0,0,1,.15-1.5l.65-3.58a3.55,3.55,0,0,0,0-1.79,2.28,2.28,0,0,1,1.08-.19c1.6,0,1.79.6,1.54,2.06l-.19,1.06a4.49,4.49,0,0,1,2-.44c1.94,0,3.29,1.15,3.29,3a4.62,4.62,0,0,1-4.94,4.77C208.76,375.87,207.49,374.56,207.49,372.52Zm2.69-.69a10,10,0,0,0-.15,1.63c0,.81.42,1.38,1.21,1.38,1.17,0,2.17-1.29,2.17-3.81,0-1.1-.56-1.62-1.44-1.62a2.17,2.17,0,0,0-1.5.69Z"/><path class="cls-1" d="M239.3,372.25c.27,0,.46.17.4.54a4.27,4.27,0,0,1-3.67,3.08,2.4,2.4,0,0,1-2.52-2.6,19.13,19.13,0,0,1,.31-2.37l.4-2.29c.17-1,0-1.31-.5-1.31-1.06,0-2.67,3-3.31,6.6a3.56,3.56,0,0,0,0,1.79,2.28,2.28,0,0,1-1.08.19c-1.6,0-1.79-.6-1.54-2.06l.92-5.21c.17-.9,0-1.31-.48-1.31-1,0-2.65,2.75-3.33,6.6a3.57,3.57,0,0,0,0,1.79,2.28,2.28,0,0,1-1.08.19c-1.6,0-1.79-.6-1.54-2.06l1.1-6.37a3.56,3.56,0,0,0,0-1.79,2.28,2.28,0,0,1,1.08-.19c1.6,0,1.79.6,1.54,2.06l-.08.5c.69-1.15,1.92-2.56,3.35-2.56a2,2,0,0,1,2.17,2.17c0,.15,0,.29,0,.46.67-1.19,1.94-2.62,3.42-2.62a2,2,0,0,1,2.15,2.15,11.31,11.31,0,0,1-.19,1.69l-.5,2.94c-.21,1.23.1,1.83.85,1.83A2.71,2.71,0,0,0,239.3,372.25Z"/><path class="cls-1" d="M247.82,372.23c-.23,1.25.15,1.83.9,1.83a2.89,2.89,0,0,0,2.19-1.81c.27,0,.46.17.4.54a4.23,4.23,0,0,1-3.73,3.08,2.32,2.32,0,0,1-2.44-2.35c-.85,1.54-2,2.35-3.19,2.35-1.71,0-3.06-1.15-3.06-3.58,0-4.65,2.71-6.83,5.14-6.83a2.73,2.73,0,0,1,2.25,1c.33-.75.85-1,1.87-1a2.11,2.11,0,0,1,1,.21,4.1,4.1,0,0,0-.48,1.5Zm-2.06-3.37.19-1a1.51,1.51,0,0,0-1.37-1c-1.42,0-3,2.1-3,5.46,0,1.17.46,1.73,1.23,1.73C244.26,374.06,245.36,370.94,245.76,368.85Z"/><path class="cls-1" d="M253.84,370.42h.81c.6,0,1-.67,1.27-1.19l.81-1.67c.83-1.69,1.5-2.1,2.39-2.1a1.29,1.29,0,0,1,1.35,1.42,1.89,1.89,0,0,1-.73,1.44,1,1,0,0,0-1-.75c-.62,0-1.08.44-1.46,1.25l-.35.75a2.34,2.34,0,0,1-.73.94,1.91,1.91,0,0,1,1.42,1.35l.23.73c.27.9.6,1.48,1.27,1.48a1,1,0,0,0,.88-.58c.23,0,.44.17.38.6a2.41,2.41,0,0,1-2.44,1.79c-1.25,0-2-.77-2.52-2.44l-.33-1.1c-.19-.58-.44-.9-1-.9h-.44l-.42,2.46a3.57,3.57,0,0,0,0,1.79,2.28,2.28,0,0,1-1.08.19c-1.6,0-1.79-.6-1.54-2.06l1.1-6.37a3.56,3.56,0,0,0,0-1.79,2.28,2.28,0,0,1,1.08-.19c1.6,0,1.79.6,1.54,2.06Z"/><path class="cls-1" d="M123.25,397.56a9.8,9.8,0,0,1-.94,1.54,3.58,3.58,0,0,1-2.94,1.77,2.21,2.21,0,0,1-2.27-2.42,14,14,0,0,1,.25-2.56l.6-3.46a3.56,3.56,0,0,0,0-1.79,2.28,2.28,0,0,1,1.08-.19c1.6,0,1.79.6,1.54,2.06l-.83,4.81c-.21,1.19.08,1.73.69,1.73s1-.56,1.54-1.4a15.76,15.76,0,0,0,2.1-5.44,3.21,3.21,0,0,0,0-1.58,2.28,2.28,0,0,1,1.08-.19c1.6,0,1.79.6,1.54,2.06l-.81,4.71c-.21,1.25.15,1.83.9,1.83a2.89,2.89,0,0,0,2.19-1.81c.27,0,.46.17.4.54a4.23,4.23,0,0,1-3.73,3.08,2.34,2.34,0,0,1-2.44-2.6C123.23,398.08,123.23,397.85,123.25,397.56Z"/><path class="cls-1" d="M128.58,396.46a5.72,5.72,0,0,1,5.54-6c1.73,0,2.94,1,2.94,2.35s-.71,2.17-1.79,2.17a1.08,1.08,0,0,1-1-.5,2.69,2.69,0,0,0,.77-2,.91.91,0,0,0-1-1c-1.29,0-2.79,1.79-2.79,4.54a2.88,2.88,0,0,0,3.06,3.19,4.64,4.64,0,0,0,4-2c.27,0,.42.17.33.54-.21.92-2.15,3.08-5.37,3.08C130.54,400.87,128.58,399.15,128.58,396.46Z"/><path class="cls-1" d="M141.33,395.42h.83c.58,0,1-.69,1.25-1.19l.81-1.67c.83-1.69,1.5-2.1,2.4-2.1a1.29,1.29,0,0,1,1.35,1.42,1.89,1.89,0,0,1-.73,1.44,1,1,0,0,0-1-.75c-.62,0-1.08.46-1.46,1.25l-.35.75a2.34,2.34,0,0,1-.73.94,1.91,1.91,0,0,1,1.42,1.35l.23.73c.29,1,.71,1.48,1.56,1.48a2.88,2.88,0,0,0,2.23-1.81c.27,0,.46.17.4.54a4.28,4.28,0,0,1-3.73,3.08,2.93,2.93,0,0,1-2.9-2.44l-.33-1.1c-.17-.58-.44-.9-1-.9h-.44l-.42,2.46a3.55,3.55,0,0,0,0,1.79,2.29,2.29,0,0,1-1.08.19c-1.6,0-1.79-.6-1.54-2.06l1.1-6.37a3.54,3.54,0,0,0,0-1.79,2.28,2.28,0,0,1,1.08-.19c1.6,0,1.79.6,1.54,2.06Z"/><path class="cls-1" d="M157.42,399.12a15.76,15.76,0,0,0,3.39-1.87.37.37,0,0,1,.4.48c0,.21-.27.44-.69.75a23,23,0,0,1-3.31,1.92l0,.25c-.81,4.83-2.75,7.52-5.83,7.52A2.14,2.14,0,0,1,149,406a4.41,4.41,0,0,1,1.75-3.23,17,17,0,0,1,3.81-2.35l.44-2.69a12.38,12.38,0,0,1-.85,1.4,3.58,3.58,0,0,1-2.94,1.77,2.21,2.21,0,0,1-2.27-2.42,14,14,0,0,1,.25-2.56l.6-3.46a3.55,3.55,0,0,0,0-1.79,2.29,2.29,0,0,1,1.08-.19c1.6,0,1.79.6,1.54,2.06l-.83,4.81c-.21,1.21.08,1.73.69,1.73s1-.56,1.54-1.4a15.62,15.62,0,0,0,2.06-5.23,3.26,3.26,0,0,0,0-1.79,2.28,2.28,0,0,1,1.08-.19c1.6,0,1.79.6,1.54,2.06Zm-3.08,2.58a12.53,12.53,0,0,0-2.94,1.92,3.25,3.25,0,0,0-1.23,2.23.87.87,0,0,0,1,.94C152.6,406.79,153.73,405,154.33,401.71Z"/><path class="cls-1" d="M160.4,396.46a5.72,5.72,0,0,1,5.54-6c1.73,0,2.94,1,2.94,2.35s-.71,2.17-1.79,2.17a1.08,1.08,0,0,1-1-.5,2.68,2.68,0,0,0,.77-2,.91.91,0,0,0-1-1c-1.29,0-2.79,1.79-2.79,4.54a2.88,2.88,0,0,0,3.06,3.19,4.64,4.64,0,0,0,4-2c.27,0,.42.17.33.54-.21.92-2.15,3.08-5.37,3.08C162.35,400.87,160.4,399.15,160.4,396.46Z"/><path class="cls-1" d="M176.14,397.56a9.66,9.66,0,0,1-.94,1.54,3.58,3.58,0,0,1-2.94,1.77,2.21,2.21,0,0,1-2.27-2.42,14,14,0,0,1,.25-2.56l.6-3.46a3.55,3.55,0,0,0,0-1.79,2.29,2.29,0,0,1,1.08-.19c1.6,0,1.79.6,1.54,2.06l-.83,4.81c-.21,1.19.08,1.73.69,1.73s1-.56,1.54-1.4a15.72,15.72,0,0,0,2.1-5.44,3.21,3.21,0,0,0,0-1.58,2.29,2.29,0,0,1,1.08-.19c1.6,0,1.79.6,1.54,2.06l-.81,4.71c-.21,1.25.15,1.83.9,1.83a2.89,2.89,0,0,0,2.19-1.81c.27,0,.46.17.4.54a4.23,4.23,0,0,1-3.73,3.08,2.34,2.34,0,0,1-2.44-2.6C176.12,398.08,176.12,397.85,176.14,397.56Z"/><path class="cls-1" d="M198.66,397.25c.27,0,.46.17.4.54a4.27,4.27,0,0,1-3.67,3.08,2.4,2.4,0,0,1-2.52-2.6,19.13,19.13,0,0,1,.31-2.37l.4-2.29c.17-1,0-1.31-.5-1.31-1.06,0-2.67,3-3.31,6.6a3.56,3.56,0,0,0,0,1.79,2.28,2.28,0,0,1-1.08.19c-1.6,0-1.79-.6-1.54-2.06l.92-5.21c.17-.9,0-1.31-.48-1.31-1,0-2.65,2.75-3.33,6.6a3.57,3.57,0,0,0,0,1.79,2.28,2.28,0,0,1-1.08.19c-1.6,0-1.79-.6-1.54-2.06l1.1-6.37a3.56,3.56,0,0,0,0-1.79,2.28,2.28,0,0,1,1.08-.19c1.6,0,1.79.6,1.54,2.06l-.08.5c.69-1.15,1.92-2.56,3.35-2.56a2,2,0,0,1,2.17,2.17c0,.15,0,.29,0,.46.67-1.19,1.94-2.62,3.42-2.62a2,2,0,0,1,2.15,2.15,11.31,11.31,0,0,1-.19,1.69l-.5,2.94c-.21,1.23.1,1.83.85,1.83A2.71,2.71,0,0,0,198.66,397.25Z"/><path class="cls-1" d="M198.25,396.38a5.69,5.69,0,0,1,5.58-5.92c2.13,0,3,1.1,3,2.17,0,1.9-2.19,3.15-5.85,3.83a2.86,2.86,0,0,0,3,2.77,4.64,4.64,0,0,0,4.06-2c.27,0,.42.17.33.54-.19.92-2.19,3.08-5.37,3.08C200.23,400.87,198.25,399.19,198.25,396.38Zm2.73-.9c2.54-.6,3.6-1.87,3.6-3.25a.69.69,0,0,0-.73-.73C202.67,391.5,201.21,392.88,201,395.48Z"/><path class="cls-1" d="M215.12,392.44a8.48,8.48,0,0,0,.1-.92c-1.06.1-1.79.9-2.29,2.58l-1.1,3.83c-.54,1.9-1.42,2.94-2.85,2.94a1.91,1.91,0,0,1-2-2,1.72,1.72,0,0,1,1.63-1.87,1.48,1.48,0,0,1,1,.29,2.65,2.65,0,0,0-.33,1.08c0,.5.23.73.52.73s.73-.42,1-1.42l1.08-3.85a4,4,0,0,1,4.19-3.33c1.77,0,1.94.6,1.69,2.06l-.81,4.71c-.21,1.25.15,1.83.9,1.83a2.89,2.89,0,0,0,2.19-1.81c.27,0,.46.17.4.54a4.23,4.23,0,0,1-3.73,3.08,2.34,2.34,0,0,1-2.44-2.6,12.14,12.14,0,0,1,.19-2Z"/><path class="cls-1" d="M219.83,397.52A9.75,9.75,0,0,1,220,396l.65-3.58a3.55,3.55,0,0,0,0-1.79,2.28,2.28,0,0,1,1.08-.19c1.6,0,1.79.6,1.54,2.06l-.19,1.06a4.49,4.49,0,0,1,2-.44c1.94,0,3.29,1.15,3.29,3a4.62,4.62,0,0,1-4.94,4.77C221.1,400.87,219.83,399.56,219.83,397.52Zm2.69-.69a10,10,0,0,0-.15,1.63c0,.81.42,1.38,1.21,1.38,1.17,0,2.17-1.29,2.17-3.81,0-1.1-.56-1.62-1.44-1.62a2.17,2.17,0,0,0-1.5.69Z"/><path class="cls-1" d="M242,397.25c.27,0,.46.17.4.54a4.23,4.23,0,0,1-3.73,3.08,2.34,2.34,0,0,1-2.44-2.6,12.57,12.57,0,0,1,.19-2h-3.35l-.44,2.6a3.57,3.57,0,0,0,0,1.79,2.28,2.28,0,0,1-1.08.19c-1.6,0-1.79-.6-1.54-2.06l1.1-6.37a3.56,3.56,0,0,0,0-1.79,2.28,2.28,0,0,1,1.08-.19c1.6,0,1.79.6,1.54,2.06l-.48,2.73h3.33l.5-2.81a3.56,3.56,0,0,0,0-1.79,2.28,2.28,0,0,1,1.08-.19c1.6,0,1.79.6,1.54,2.06l-.81,4.71c-.21,1.23.15,1.83.9,1.83A2.89,2.89,0,0,0,242,397.25Z"/><path class="cls-1" d="M251.18,394.44c0,3.67-2.12,6.44-5.77,6.44a3.64,3.64,0,0,1-3.83-4c0-3.77,2.21-6.44,5.77-6.44A3.63,3.63,0,0,1,251.18,394.44Zm-6.94,3.35c0,1.31.5,2,1.38,2,1.21,0,2.17-1.35,2.71-4.17a12.21,12.21,0,0,0,.19-2.15c0-1.33-.5-2-1.37-2-1,0-2.12,1.06-2.71,4.17A15.12,15.12,0,0,0,244.25,397.79Z"/><path class="cls-1" d="M254.1,398.33a1.24,1.24,0,0,1,1.29,1.31,1.45,1.45,0,0,1-1.5,1.44,1.19,1.19,0,0,1-1.25-1.25A1.47,1.47,0,0,1,254.1,398.33Z"/><path class="cls-2" d="M13.44,34.55a.93.93,0,0,1,.12.9,1.12,1.12,0,0,1-.77.52,2,2,0,0,1-.95,0,1.48,1.48,0,0,1-.8-.53,3.13,3.13,0,0,1-.59-1.81A3.4,3.4,0,0,1,11,31.75a3.91,3.91,0,0,1,1.37-1.35,4.07,4.07,0,0,1,1.86-.51,5.3,5.3,0,0,1,3.57,1.2,5.4,5.4,0,0,1,1.92,3.24,6,6,0,0,1,.1,1.9,6.49,6.49,0,0,1-.47,1.85,7.56,7.56,0,0,1-5.79,4.46l.07-.32,4.82,3,.92.57-1.06-.26a8.48,8.48,0,0,0-1.1-.18,9.37,9.37,0,0,0-1.12,0,7.56,7.56,0,0,0-1.11.1l-.55.1c-.18,0-.36.09-.54.14a5.5,5.5,0,0,0-.52.19,4.78,4.78,0,0,0-.5.25,5.16,5.16,0,0,0-.47.3,5,5,0,0,0-.43.36,5,5,0,0,0-.39.4c-.11.15-.24.29-.34.45a4.72,4.72,0,0,0-.29.49c-.09.16-.16.34-.25.51.07-.18.13-.36.21-.53a4.79,4.79,0,0,1,.26-.51,5,5,0,0,1,.31-.48,5.26,5.26,0,0,1,.8-.84,5.37,5.37,0,0,1,.47-.34,5,5,0,0,1,.51-.29,5.77,5.77,0,0,1,.54-.23,6,6,0,0,1,1.13-.3,8.4,8.4,0,0,1,1.16-.1,9.72,9.72,0,0,1,1.16.05,8.77,8.77,0,0,1,1.15.19l-.14.32-4.82-3L13,42.26l.47-.07A7.21,7.21,0,0,0,19,37.95a6.14,6.14,0,0,0,.45-1.75,5.7,5.7,0,0,0-.1-1.8,5.11,5.11,0,0,0-.63-1.68,5.17,5.17,0,0,0-1.17-1.35,5,5,0,0,0-3.33-1.12,4.34,4.34,0,0,0-.88.13,2.81,2.81,0,0,0-.42.13,3.39,3.39,0,0,0-.4.2,3.52,3.52,0,0,0-1.25,1.23,3.75,3.75,0,0,0-.53,1.68,2.89,2.89,0,0,0,.44,1.71,1.61,1.61,0,0,0,1.6.56,1.05,1.05,0,0,0,.75-.45A.91.91,0,0,0,13.44,34.55Z"/><path class="cls-2" d="M13.57,72.67a1.19,1.19,0,0,0,.2-1.08A1.12,1.12,0,0,0,12.9,71a1.49,1.49,0,0,0-1.06.21,1.42,1.42,0,0,0-.39.38,3.33,3.33,0,0,0-.28.49A3.26,3.26,0,0,0,11,74.22a4,4,0,0,0,1.1,1.87,3.33,3.33,0,0,0,.91.6l.13.05.12,0,.27.07A4,4,0,0,0,14,77a4.71,4.71,0,0,0,2.18-.27,5.11,5.11,0,0,0,3-3.06,4.46,4.46,0,0,0,.16-.53c0-.09,0-.18.06-.28s0-.17,0-.26a3.33,3.33,0,0,0-.13-1.08,7.9,7.9,0,0,0-1-2,35.49,35.49,0,0,0-2.77-3.64c-1-1.18-2-2.35-2.89-3.59a20.86,20.86,0,0,1-1.28-1.94,10.22,10.22,0,0,1-.95-2.13l-.24-.81.55.66a4.64,4.64,0,0,0,.34.36l.38.34a9.2,9.2,0,0,0,.81.6,10.08,10.08,0,0,0,.88.51c.3.16.61.29.92.42l-.2.27a20.89,20.89,0,0,1-1.56-2.37c-.23-.41-.45-.83-.66-1.25a11.18,11.18,0,0,1-.53-1.31c-.08-.22-.15-.45-.21-.68s-.13-.46-.17-.69a8.86,8.86,0,0,1-.21-1.4c0-.24,0-.47,0-.71a6.38,6.38,0,0,1,.06-.7,5.1,5.1,0,0,1,.14-.69A5.8,5.8,0,0,1,11,50a5.78,5.78,0,0,0-.19.68,5,5,0,0,0-.1.69,6.28,6.28,0,0,0,0,.7c0,.23,0,.46.05.69a8.66,8.66,0,0,0,.28,1.36c.06.22.13.44.21.66s.16.44.25.65c.18.43.37.85.56,1.27s.41.83.64,1.23a20.59,20.59,0,0,0,1.53,2.32l.4.52-.6-.25c-.32-.13-.64-.27-1-.44a10.42,10.42,0,0,1-.91-.53,9.54,9.54,0,0,1-.85-.63l-.39-.35a4.88,4.88,0,0,1-.37-.39l.3-.16a9.89,9.89,0,0,0,.92,2.06A20.51,20.51,0,0,0,13,62c.9,1.23,1.9,2.4,2.88,3.58a35.77,35.77,0,0,1,2.8,3.68,8.23,8.23,0,0,1,1,2.12,3.68,3.68,0,0,1,.14,1.19,3,3,0,0,1,0,.31c0,.09,0,.19-.06.29a4.8,4.8,0,0,1-.17.57A5.45,5.45,0,0,1,16.34,77,5.05,5.05,0,0,1,14,77.3a4.36,4.36,0,0,1-.59-.11l-.28-.08-.15,0L12.83,77a3.68,3.68,0,0,1-1-.67,3.76,3.76,0,0,1-1.15-2.06,3.43,3.43,0,0,1,.65-2.81,1.57,1.57,0,0,1,.44-.4,1.59,1.59,0,0,1,1.15-.19,1.18,1.18,0,0,1,.89.7A1.21,1.21,0,0,1,13.57,72.67Z"/><path class="cls-2" d="M16.81,51.21v.09c0,.06,0,.15,0,.27a1.54,1.54,0,0,0,.24,1,.88.88,0,0,0,.57.35,1.27,1.27,0,0,0,.78-.14,1.56,1.56,0,0,0,.65-.64,3.24,3.24,0,0,0,.38-1A4,4,0,0,0,19.46,50a3.42,3.42,0,0,0-.33-1.14,3.54,3.54,0,0,0-1.84-1.73A4.89,4.89,0,0,0,14.53,47a5.07,5.07,0,0,0-2.48,1.43,4,4,0,0,0-1.11,2.58,5.44,5.44,0,0,0,.75,2.68,14.51,14.51,0,0,0,1.51,2.21c.54.67,1.09,1.27,1.6,1.81l.75.77c.25.24.48.47.68.69l1.09,1.16c.61.64.92,1,.92,1L18,61.17l-.76-.68-1.2-1c-.23-.2-.47-.43-.71-.67L14.55,58c-.52-.55-1.08-1.15-1.62-1.83a14.85,14.85,0,0,1-1.54-2.27A5.77,5.77,0,0,1,10.59,51a4.34,4.34,0,0,1,1.21-2.81,5.41,5.41,0,0,1,2.65-1.53,5.22,5.22,0,0,1,3,.11,3.88,3.88,0,0,1,2,1.91,3.45,3.45,0,0,1,.26,2.48,3.5,3.5,0,0,1-.49,1,1.83,1.83,0,0,1-.76.67,1.42,1.42,0,0,1-.88.11,1,1,0,0,1-.62-.42,1.59,1.59,0,0,1-.19-1c0-.12,0-.21,0-.27Z"/><path class="cls-2" d="M13.44,89.91a2.21,2.21,0,0,0,0-.93.91.91,0,0,0-.6-.63,1.66,1.66,0,0,0-1.61.6,2.57,2.57,0,0,0-.62,1.66,3.45,3.45,0,0,0,.5,1.7,4,4,0,0,0,1.23,1.31,3.26,3.26,0,0,0,.8.4,4.37,4.37,0,0,0,.89.18,4.91,4.91,0,0,0,3.42-1,5.13,5.13,0,0,0,1.23-1.33,5,5,0,0,0,.68-1.68,5.88,5.88,0,0,0,.14-1.82A6,6,0,0,0,19,86.6a7,7,0,0,0-2.21-2.89,7.2,7.2,0,0,0-1.58-.94,7,7,0,0,0-1.76-.5l-.4-.06.32-.25,5.25-4,.17.3a10.41,10.41,0,0,1-1.17.33,11.5,11.5,0,0,1-1.19.2,10,10,0,0,1-1.21.07,5.84,5.84,0,0,1-.61,0c-.2,0-.4-.06-.6-.1a5.21,5.21,0,0,1-.59-.16,5.74,5.74,0,0,1-.57-.22,5,5,0,0,1-.53-.29,3.83,3.83,0,0,1-.49-.36l-.22-.2-.2-.22a3.91,3.91,0,0,1-.36-.48l-.15-.26-.13-.27c-.09-.18-.15-.37-.22-.55.09.18.16.36.26.53l.15.26.17.24a4.27,4.27,0,0,0,.38.45l.21.2.23.18a4.54,4.54,0,0,0,2.13.86,7.78,7.78,0,0,0,1.16.08,9,9,0,0,0,1.16-.06,11.16,11.16,0,0,0,1.15-.2,10.12,10.12,0,0,0,1.12-.31l1-.36-.86.66-5.25,4-.08-.31a7.29,7.29,0,0,1,1.85.53,7.55,7.55,0,0,1,1.65,1,7.67,7.67,0,0,1,1.36,1.36,7.14,7.14,0,0,1,1,1.67,6.37,6.37,0,0,1,.45,1.88,6.24,6.24,0,0,1-.14,1.92,5.35,5.35,0,0,1-.73,1.8,5.48,5.48,0,0,1-1.32,1.42,5.25,5.25,0,0,1-3.66,1.06,4.75,4.75,0,0,1-1-.19,3.58,3.58,0,0,1-.89-.44,4.45,4.45,0,0,1-1.34-1.42,3.3,3.3,0,0,1-.48-1.89,2.8,2.8,0,0,1,.77-1.76,2.1,2.1,0,0,1,.81-.54,1.44,1.44,0,0,1,1,0,1,1,0,0,1,.62.71A2.23,2.23,0,0,1,13.44,89.91Z"/><path class="cls-2" d="M22.42,25.3a.91.91,0,0,0,.87.08,1.05,1.05,0,0,0,.45-.75,1.61,1.61,0,0,0-.56-1.6,2.89,2.89,0,0,0-1.71-.44,3.75,3.75,0,0,0-1.68.53,3.52,3.52,0,0,0-1.23,1.25,3.39,3.39,0,0,0-.2.4,2.81,2.81,0,0,0-.13.42,4.33,4.33,0,0,0-.13.88,5,5,0,0,0,1.12,3.33,5.17,5.17,0,0,0,1.35,1.17,5.11,5.11,0,0,0,1.68.63,5.7,5.7,0,0,0,1.8.1,6.14,6.14,0,0,0,1.75-.45,7.21,7.21,0,0,0,4.25-5.52l.07-.47.25.41,3,4.82-.32.14a8.77,8.77,0,0,1-.19-1.15,9.72,9.72,0,0,1-.05-1.16,8.4,8.4,0,0,1,.1-1.16,6,6,0,0,1,.3-1.13,5.77,5.77,0,0,1,.23-.54,5,5,0,0,1,.29-.51,5.37,5.37,0,0,1,.34-.47,5.26,5.26,0,0,1,.84-.8,5,5,0,0,1,.48-.31,4.79,4.79,0,0,1,.51-.26c.17-.08.36-.14.53-.21-.17.08-.35.15-.51.25a4.73,4.73,0,0,0-.49.29c-.16.1-.3.22-.45.34a5,5,0,0,0-.4.39,4.94,4.94,0,0,0-.36.43,5.16,5.16,0,0,0-.3.47,4.78,4.78,0,0,0-.25.5,5.5,5.5,0,0,0-.19.52c-.05.18-.1.36-.14.54s-.07.36-.1.55a7.56,7.56,0,0,0-.1,1.11,9.37,9.37,0,0,0,0,1.12,8.48,8.48,0,0,0,.18,1.1l.26,1.06-.57-.92-3-4.82.32-.07A7.56,7.56,0,0,1,26,31.17a6.49,6.49,0,0,1-1.85.47,6.05,6.05,0,0,1-1.9-.1A5.4,5.4,0,0,1,19,29.62a5.3,5.3,0,0,1-1.2-3.57,4.07,4.07,0,0,1,.51-1.86,3.91,3.91,0,0,1,1.35-1.37,3.4,3.4,0,0,1,1.85-.51,3.13,3.13,0,0,1,1.81.59,1.48,1.48,0,0,1,.53.8,2,2,0,0,1,0,.95,1.12,1.12,0,0,1-.52.77A.93.93,0,0,1,22.42,25.3Z"/><path class="cls-2" d="M60.55,25.43a1.21,1.21,0,0,1-1.09.23,1.18,1.18,0,0,1-.7-.89,1.59,1.59,0,0,1,.19-1.15,1.57,1.57,0,0,1,.4-.44,3.43,3.43,0,0,1,2.81-.65,3.76,3.76,0,0,1,2.06,1.15,3.68,3.68,0,0,1,.67,1l.06.14A1.39,1.39,0,0,1,65,25c0,.09.06.18.08.28a4.36,4.36,0,0,1,.11.59,5.05,5.05,0,0,1-.29,2.34,5.45,5.45,0,0,1-3.27,3.24,4.79,4.79,0,0,1-.57.17l-.29.06-.31,0a3.68,3.68,0,0,1-1.19-.14,8.23,8.23,0,0,1-2.12-1,35.77,35.77,0,0,1-3.68-2.8c-1.18-1-2.35-2-3.58-2.88A20.52,20.52,0,0,0,48,23.65a9.89,9.89,0,0,0-2.06-.92l.16-.3a4.87,4.87,0,0,1,.39.37q.18.19.35.39a9.54,9.54,0,0,1,.63.85,10.44,10.44,0,0,1,.53.91c.16.31.3.63.44,1l.25.6-.52-.4a20.59,20.59,0,0,0-2.32-1.53c-.4-.23-.81-.45-1.23-.64s-.84-.39-1.27-.56l-.65-.25c-.22-.07-.44-.15-.66-.21a8.66,8.66,0,0,0-1.36-.28c-.23,0-.46,0-.69-.05a6.28,6.28,0,0,0-.7,0,5,5,0,0,0-.69.1,5.78,5.78,0,0,0-.68.19,5.8,5.8,0,0,1,.67-.22,5.09,5.09,0,0,1,.69-.14,6.38,6.38,0,0,1,.7-.06c.24,0,.47,0,.71,0a8.85,8.85,0,0,1,1.4.21c.23,0,.46.11.69.17l.68.21a11.17,11.17,0,0,1,1.31.53c.42.21.84.42,1.25.66a20.89,20.89,0,0,1,2.37,1.56l-.27.2c-.13-.31-.27-.62-.42-.92a10.08,10.08,0,0,0-.51-.88,9.2,9.2,0,0,0-.6-.81L46.22,23a4.65,4.65,0,0,0-.36-.34l-.66-.55.81.24a10.23,10.23,0,0,1,2.13.95,20.85,20.85,0,0,1,1.94,1.28c1.24.91,2.42,1.91,3.59,2.89a35.49,35.49,0,0,0,3.64,2.77,7.9,7.9,0,0,0,2,1,3.33,3.33,0,0,0,1.08.13l.26,0,.28-.06a4.45,4.45,0,0,0,.53-.16,5.11,5.11,0,0,0,3.06-3,4.71,4.71,0,0,0,.27-2.18,4,4,0,0,0-.1-.54c0-.09,0-.18-.07-.27a1.07,1.07,0,0,0,0-.12l-.05-.13a3.33,3.33,0,0,0-.6-.91,4,4,0,0,0-1.87-1.1,3.26,3.26,0,0,0-2.17.19,3.33,3.33,0,0,0-.49.28,1.42,1.42,0,0,0-.38.39,1.49,1.49,0,0,0-.21,1.06,1.11,1.11,0,0,0,.63.87A1.19,1.19,0,0,0,60.55,25.43Z"/><path class="cls-2" d="M39.09,28.68l.09,0,.27,0a1.59,1.59,0,0,1,1,.19,1,1,0,0,1,.42.62,1.42,1.42,0,0,1-.11.88,1.83,1.83,0,0,1-.67.76,3.5,3.5,0,0,1-1,.49,3.45,3.45,0,0,1-2.48-.26,3.88,3.88,0,0,1-1.91-2,5.22,5.22,0,0,1-.11-3,5.41,5.41,0,0,1,1.53-2.65,4.34,4.34,0,0,1,2.81-1.21,5.77,5.77,0,0,1,2.85.79A14.85,14.85,0,0,1,44,24.79c.68.55,1.28,1.1,1.83,1.62l.78.76c.25.24.48.47.67.71l1,1.2.68.76.25.26s-.4-.31-1-.92L47.09,28.1c-.23-.2-.46-.44-.69-.68l-.77-.75c-.54-.52-1.14-1.07-1.81-1.6a14.51,14.51,0,0,0-2.21-1.51,5.44,5.44,0,0,0-2.68-.75,4,4,0,0,0-2.58,1.11,5.07,5.07,0,0,0-1.43,2.48A4.89,4.89,0,0,0,35,29.15,3.54,3.54,0,0,0,36.75,31a3.42,3.42,0,0,0,1.14.33A4,4,0,0,0,39,31.27a3.24,3.24,0,0,0,1-.38,1.56,1.56,0,0,0,.64-.65,1.27,1.27,0,0,0,.14-.78.88.88,0,0,0-.35-.57,1.54,1.54,0,0,0-1-.24l-.27,0Z"/><path class="cls-2" d="M77.78,25.3a2.23,2.23,0,0,1-.94,0,1,1,0,0,1-.71-.62,1.44,1.44,0,0,1,0-1,2.1,2.1,0,0,1,.54-.81,2.8,2.8,0,0,1,1.76-.77,3.3,3.3,0,0,1,1.89.48A4.45,4.45,0,0,1,81.79,24a3.58,3.58,0,0,1,.44.89,4.74,4.74,0,0,1,.19,1,5.25,5.25,0,0,1-1.06,3.66,5.48,5.48,0,0,1-1.42,1.32,5.35,5.35,0,0,1-1.8.73,6.24,6.24,0,0,1-1.92.14,6.37,6.37,0,0,1-1.88-.45,7.14,7.14,0,0,1-1.67-1,7.67,7.67,0,0,1-1.36-1.36,7.55,7.55,0,0,1-1-1.65,7.29,7.29,0,0,1-.53-1.85l.31.08-4,5.25-.66.86.36-1a10.12,10.12,0,0,0,.31-1.12,11.16,11.16,0,0,0,.2-1.15,9,9,0,0,0,.06-1.16A7.78,7.78,0,0,0,66.26,26a4.54,4.54,0,0,0-.86-2.13l-.18-.23-.2-.21a4.27,4.27,0,0,0-.45-.38l-.24-.17-.26-.15c-.17-.1-.35-.17-.53-.26.18.08.38.13.55.22l.27.13.26.15a3.91,3.91,0,0,1,.48.36l.22.2.2.22a3.83,3.83,0,0,1,.36.49,5,5,0,0,1,.29.53,5.76,5.76,0,0,1,.22.57,5.21,5.21,0,0,1,.16.59c0,.2.07.4.1.6a5.83,5.83,0,0,1,0,.61,10,10,0,0,1-.07,1.21,11.5,11.5,0,0,1-.2,1.19,10.41,10.41,0,0,1-.33,1.17l-.3-.17,4-5.25.25-.32.06.4a6.94,6.94,0,0,0,.5,1.76,7.2,7.2,0,0,0,.94,1.58,7,7,0,0,0,2.89,2.21,6,6,0,0,0,1.78.42,5.88,5.88,0,0,0,1.82-.14,5,5,0,0,0,1.68-.68,5.13,5.13,0,0,0,1.33-1.23,4.91,4.91,0,0,0,1-3.42,4.37,4.37,0,0,0-.18-.89,3.26,3.26,0,0,0-.4-.8,4,4,0,0,0-1.31-1.23,3.45,3.45,0,0,0-1.7-.5,2.57,2.57,0,0,0-1.66.62,1.66,1.66,0,0,0-.6,1.61.91.91,0,0,0,.63.6A2.21,2.21,0,0,0,77.78,25.3Z"/><path class="cls-2" d="M361,34.7a.91.91,0,0,0-.08.87,1.05,1.05,0,0,0,.75.45,1.61,1.61,0,0,0,1.6-.56,2.89,2.89,0,0,0,.44-1.71,3.75,3.75,0,0,0-.53-1.68,3.52,3.52,0,0,0-1.25-1.23,3.39,3.39,0,0,0-.4-.2,2.81,2.81,0,0,0-.42-.13,4.34,4.34,0,0,0-.88-.13,5,5,0,0,0-3.33,1.12,5.17,5.17,0,0,0-1.17,1.35,5.11,5.11,0,0,0-.63,1.68,5.7,5.7,0,0,0-.1,1.8,6.14,6.14,0,0,0,.45,1.75,7.21,7.21,0,0,0,5.52,4.25l.47.07-.41.25-4.82,3-.14-.32a8.77,8.77,0,0,1,1.15-.19,9.72,9.72,0,0,1,1.16-.05,8.4,8.4,0,0,1,1.16.1,6,6,0,0,1,1.13.3,5.77,5.77,0,0,1,.54.23,5,5,0,0,1,.51.29,5.36,5.36,0,0,1,.47.34,5.11,5.11,0,0,1,.42.4,5.17,5.17,0,0,1,.38.44,5,5,0,0,1,.31.48,4.78,4.78,0,0,1,.26.51c.08.17.14.36.21.53-.08-.17-.15-.35-.25-.51a4.73,4.73,0,0,0-.29-.49c-.1-.16-.22-.3-.34-.45a5,5,0,0,0-.39-.4,4.94,4.94,0,0,0-.43-.36,5.16,5.16,0,0,0-.47-.3,4.78,4.78,0,0,0-.5-.25,5.5,5.5,0,0,0-.52-.19c-.18-.05-.36-.1-.54-.14l-.55-.1a7.56,7.56,0,0,0-1.11-.1,9.37,9.37,0,0,0-1.12,0,8.48,8.48,0,0,0-1.1.18l-1.06.26.92-.57,4.82-3,.07.32a7.56,7.56,0,0,1-5.79-4.46,6.49,6.49,0,0,1-.47-1.85,6,6,0,0,1,.1-1.9,5.4,5.4,0,0,1,1.92-3.24,5.3,5.3,0,0,1,3.57-1.2,4.07,4.07,0,0,1,1.86.51,3.91,3.91,0,0,1,1.37,1.35,3.4,3.4,0,0,1,.51,1.85,3.13,3.13,0,0,1-.59,1.81,1.48,1.48,0,0,1-.8.53,2,2,0,0,1-.95,0,1.12,1.12,0,0,1-.77-.52A.93.93,0,0,1,361,34.7Z"/><path class="cls-2" d="M360.85,72.83a1.21,1.21,0,0,1-.23-1.09,1.18,1.18,0,0,1,.89-.7,1.59,1.59,0,0,1,1.15.19,1.57,1.57,0,0,1,.44.4,3.43,3.43,0,0,1,.65,2.81,3.76,3.76,0,0,1-1.15,2.06,3.68,3.68,0,0,1-1,.67l-.14.06-.15,0-.28.08a4.36,4.36,0,0,1-.59.11,5.05,5.05,0,0,1-2.34-.29,5.45,5.45,0,0,1-3.24-3.27,4.78,4.78,0,0,1-.17-.57c0-.1,0-.19-.06-.29a3,3,0,0,1,0-.31,3.68,3.68,0,0,1,.14-1.19,8.23,8.23,0,0,1,1-2.12,35.78,35.78,0,0,1,2.8-3.68c1-1.18,2-2.35,2.88-3.58a20.52,20.52,0,0,0,1.26-1.9,9.89,9.89,0,0,0,.92-2.06l.3.16a4.87,4.87,0,0,1-.37.39l-.39.35a9.54,9.54,0,0,1-.85.63,10.42,10.42,0,0,1-.91.53c-.31.16-.63.3-1,.44l-.6.25.4-.52a20.6,20.6,0,0,0,1.53-2.32c.23-.4.45-.81.64-1.23s.39-.84.56-1.27c.09-.21.17-.43.25-.65s.15-.44.21-.66a8.66,8.66,0,0,0,.28-1.36c0-.23,0-.46.05-.69a6.26,6.26,0,0,0,0-.7,5,5,0,0,0-.1-.69,5.78,5.78,0,0,0-.19-.68,5.81,5.81,0,0,1,.22.67,5.11,5.11,0,0,1,.14.69,6.38,6.38,0,0,1,.06.7c0,.24,0,.47,0,.71a8.85,8.85,0,0,1-.21,1.4c0,.23-.11.46-.17.69s-.14.45-.21.68a11.16,11.16,0,0,1-.53,1.31c-.21.42-.42.84-.66,1.25a20.91,20.91,0,0,1-1.56,2.37l-.2-.27c.31-.13.62-.27.92-.42a10.08,10.08,0,0,0,.88-.51,9.19,9.19,0,0,0,.81-.6l.38-.34a4.65,4.65,0,0,0,.34-.36l.55-.66-.24.81a10.22,10.22,0,0,1-.95,2.13,20.86,20.86,0,0,1-1.28,1.94c-.91,1.24-1.91,2.42-2.89,3.59A35.49,35.49,0,0,0,356,69.6a7.9,7.9,0,0,0-1,2,3.33,3.33,0,0,0-.13,1.08c0,.09,0,.17,0,.26s0,.19.06.28a4.46,4.46,0,0,0,.16.53,5.11,5.11,0,0,0,3,3.06,4.71,4.71,0,0,0,2.18.27,4,4,0,0,0,.54-.1l.27-.07.12,0,.13-.05a3.33,3.33,0,0,0,.91-.6,4,4,0,0,0,1.1-1.87,3.26,3.26,0,0,0-.19-2.17,3.33,3.33,0,0,0-.28-.49,1.42,1.42,0,0,0-.39-.38,1.49,1.49,0,0,0-1.06-.21,1.12,1.12,0,0,0-.87.63A1.19,1.19,0,0,0,360.85,72.83Z"/><path class="cls-2" d="M357.61,51.37l0,.09c0,.06,0,.15,0,.27a1.59,1.59,0,0,1-.19,1,1,1,0,0,1-.62.42A1.42,1.42,0,0,1,356,53a1.83,1.83,0,0,1-.76-.67,3.5,3.5,0,0,1-.49-1,3.45,3.45,0,0,1,.26-2.48A3.88,3.88,0,0,1,357,47a5.22,5.22,0,0,1,3-.11,5.41,5.41,0,0,1,2.65,1.53,4.34,4.34,0,0,1,1.21,2.81A5.77,5.77,0,0,1,363,54a14.85,14.85,0,0,1-1.54,2.27c-.55.68-1.1,1.28-1.62,1.83l-.76.78c-.24.25-.47.48-.71.67l-1.2,1-.76.68-.26.25s.31-.4.92-1l1.09-1.16c.2-.23.44-.46.68-.69l.75-.77c.52-.54,1.07-1.14,1.6-1.81a14.51,14.51,0,0,0,1.51-2.21,5.44,5.44,0,0,0,.75-2.68,4,4,0,0,0-1.11-2.58,5.07,5.07,0,0,0-2.48-1.43,4.89,4.89,0,0,0-2.76.09A3.54,3.54,0,0,0,355.29,49a3.42,3.42,0,0,0-.33,1.14,4,4,0,0,0,.06,1.11,3.24,3.24,0,0,0,.38,1,1.56,1.56,0,0,0,.65.64,1.27,1.27,0,0,0,.78.14.88.88,0,0,0,.57-.35,1.54,1.54,0,0,0,.24-1c0-.12,0-.21,0-.27Z"/><path class="cls-2" d="M361,90.06a2.23,2.23,0,0,1,0-.94,1,1,0,0,1,.62-.71,1.44,1.44,0,0,1,1,0,2.1,2.1,0,0,1,.81.54,2.8,2.8,0,0,1,.77,1.76,3.3,3.3,0,0,1-.48,1.89,4.45,4.45,0,0,1-1.34,1.42,3.58,3.58,0,0,1-.89.44,4.75,4.75,0,0,1-1,.19,5.25,5.25,0,0,1-3.66-1.06,5.48,5.48,0,0,1-1.32-1.42,5.35,5.35,0,0,1-.73-1.8,6.25,6.25,0,0,1-.14-1.92,6.38,6.38,0,0,1,.45-1.88A7.14,7.14,0,0,1,356,85a7.67,7.67,0,0,1,1.36-1.36,7.55,7.55,0,0,1,1.65-1,7.29,7.29,0,0,1,1.85-.53l-.08.31-5.25-4-.86-.66,1,.36a10.12,10.12,0,0,0,1.12.31,11.15,11.15,0,0,0,1.15.2,9,9,0,0,0,1.16.06,7.78,7.78,0,0,0,1.16-.08,4.54,4.54,0,0,0,2.13-.86l.23-.18.21-.2a4.26,4.26,0,0,0,.38-.45l.17-.24.15-.26c.1-.17.17-.35.26-.53-.08.18-.13.38-.22.55l-.13.27-.15.26a3.9,3.9,0,0,1-.36.48l-.2.22-.22.2a3.83,3.83,0,0,1-.49.36,5,5,0,0,1-.53.29,5.74,5.74,0,0,1-.57.22,5.21,5.21,0,0,1-.59.16c-.2,0-.4.07-.6.1a5.84,5.84,0,0,1-.61,0A10,10,0,0,1,358,78.9a11.5,11.5,0,0,1-1.19-.2,10.41,10.41,0,0,1-1.17-.33l.17-.3,5.25,4,.32.25-.4.06a7,7,0,0,0-1.76.5,7.2,7.2,0,0,0-1.58.94,7,7,0,0,0-2.21,2.89,6,6,0,0,0-.43,1.78,5.88,5.88,0,0,0,.14,1.82,5,5,0,0,0,.68,1.68A5.13,5.13,0,0,0,357,93.37a4.91,4.91,0,0,0,3.42,1,4.37,4.37,0,0,0,.89-.18,3.26,3.26,0,0,0,.8-.4,4,4,0,0,0,1.23-1.31,3.45,3.45,0,0,0,.5-1.7,2.57,2.57,0,0,0-.62-1.66,1.66,1.66,0,0,0-1.61-.6.91.91,0,0,0-.6.63A2.21,2.21,0,0,0,361,90.06Z"/><path class="cls-2" d="M352,25.45a.93.93,0,0,1-.9.12,1.12,1.12,0,0,1-.52-.77,2,2,0,0,1,0-.95,1.48,1.48,0,0,1,.53-.8,3.13,3.13,0,0,1,1.81-.59,3.4,3.4,0,0,1,1.85.51,3.91,3.91,0,0,1,1.35,1.37,4.07,4.07,0,0,1,.51,1.86,5.3,5.3,0,0,1-1.2,3.57,5.4,5.4,0,0,1-3.24,1.92,6.05,6.05,0,0,1-1.9.1,6.49,6.49,0,0,1-1.85-.47A7.56,7.56,0,0,1,344,25.54l.32.07-3,4.82-.57.92.26-1.06a8.47,8.47,0,0,0,.18-1.1,9.37,9.37,0,0,0,0-1.12,7.56,7.56,0,0,0-.1-1.11c0-.18-.06-.37-.1-.55s-.09-.36-.14-.54a5.5,5.5,0,0,0-.19-.52,4.77,4.77,0,0,0-.25-.5,5.13,5.13,0,0,0-.3-.47,4.94,4.94,0,0,0-.36-.43,5,5,0,0,0-.4-.39c-.15-.11-.29-.24-.45-.34a4.73,4.73,0,0,0-.49-.29c-.16-.09-.34-.16-.51-.25.18.07.36.13.53.21a4.79,4.79,0,0,1,.51.26,5,5,0,0,1,.48.31,5.17,5.17,0,0,1,.44.38,5.11,5.11,0,0,1,.4.42,5.35,5.35,0,0,1,.34.47,5,5,0,0,1,.29.51,5.78,5.78,0,0,1,.23.54,6,6,0,0,1,.3,1.13,8.41,8.41,0,0,1,.1,1.16,9.72,9.72,0,0,1-.05,1.16,8.77,8.77,0,0,1-.19,1.15l-.32-.14,3-4.82.25-.41.07.47A7.21,7.21,0,0,0,348.6,31a6.14,6.14,0,0,0,1.75.45,5.7,5.7,0,0,0,1.8-.1,5.11,5.11,0,0,0,1.68-.63,5.17,5.17,0,0,0,1.35-1.17,5,5,0,0,0,1.12-3.33,4.34,4.34,0,0,0-.13-.88,2.81,2.81,0,0,0-.13-.42,3.39,3.39,0,0,0-.2-.4,3.52,3.52,0,0,0-1.23-1.25,3.75,3.75,0,0,0-1.68-.53,2.89,2.89,0,0,0-1.71.44,1.61,1.61,0,0,0-.56,1.6,1.05,1.05,0,0,0,.45.75A.91.91,0,0,0,352,25.45Z"/><path class="cls-2" d="M313.87,25.58a1.19,1.19,0,0,0,1.08.2,1.12,1.12,0,0,0,.63-.87,1.49,1.49,0,0,0-.21-1.06,1.42,1.42,0,0,0-.38-.39,3.33,3.33,0,0,0-.49-.28,3.26,3.26,0,0,0-2.17-.19,4,4,0,0,0-1.87,1.1,3.33,3.33,0,0,0-.6.91l-.05.13a1.06,1.06,0,0,0,0,.12c0,.09-.06.18-.07.27a4,4,0,0,0-.1.54,4.71,4.71,0,0,0,.27,2.18,5.11,5.11,0,0,0,3.06,3,4.45,4.45,0,0,0,.53.16l.28.06.26,0a3.33,3.33,0,0,0,1.08-.13,7.9,7.9,0,0,0,2-1,35.49,35.49,0,0,0,3.64-2.77c1.18-1,2.35-2,3.59-2.89a20.85,20.85,0,0,1,1.94-1.28,10.22,10.22,0,0,1,2.13-.95l.81-.24-.66.55a4.64,4.64,0,0,0-.36.34l-.34.38a9.21,9.21,0,0,0-.6.81,10.09,10.09,0,0,0-.51.88c-.16.3-.29.61-.42.92l-.27-.2a20.9,20.9,0,0,1,2.37-1.56c.41-.23.83-.45,1.25-.66a11.17,11.17,0,0,1,1.31-.53l.68-.21c.23-.06.46-.13.69-.17a8.85,8.85,0,0,1,1.4-.21c.24,0,.47,0,.71,0a6.38,6.38,0,0,1,.7.06,5.09,5.09,0,0,1,.69.14,5.81,5.81,0,0,1,.67.22,5.78,5.78,0,0,0-.68-.19,5,5,0,0,0-.69-.1,6.28,6.28,0,0,0-.7,0c-.23,0-.46,0-.69.05a8.66,8.66,0,0,0-1.36.28c-.22.06-.44.13-.66.21l-.65.25c-.43.18-.85.37-1.27.56s-.83.41-1.23.64a20.59,20.59,0,0,0-2.32,1.53l-.52.4.25-.6c.13-.32.27-.64.44-1a10.42,10.42,0,0,1,.53-.91,9.54,9.54,0,0,1,.63-.85q.17-.2.35-.39a4.88,4.88,0,0,1,.39-.37l.16.3a9.89,9.89,0,0,0-2.06.92,20.51,20.51,0,0,0-1.9,1.26c-1.23.9-2.4,1.9-3.58,2.88a35.78,35.78,0,0,1-3.68,2.8,8.23,8.23,0,0,1-2.12,1,3.68,3.68,0,0,1-1.19.14l-.31,0-.29-.06a4.79,4.79,0,0,1-.57-.17,5.45,5.45,0,0,1-3.27-3.24,5.05,5.05,0,0,1-.29-2.34,4.37,4.37,0,0,1,.11-.59c0-.1,0-.19.08-.28a1.4,1.4,0,0,1,0-.15l.06-.14a3.68,3.68,0,0,1,.67-1,3.76,3.76,0,0,1,2.06-1.15,3.43,3.43,0,0,1,2.81.65,1.57,1.57,0,0,1,.4.44,1.59,1.59,0,0,1,.19,1.15,1.18,1.18,0,0,1-.7.89A1.21,1.21,0,0,1,313.87,25.58Z"/><path class="cls-2" d="M335.33,28.83h-.09l-.27,0a1.54,1.54,0,0,0-1,.24.88.88,0,0,0-.35.57,1.27,1.27,0,0,0,.14.78,1.56,1.56,0,0,0,.64.65,3.24,3.24,0,0,0,1,.38,4,4,0,0,0,1.11.06,3.42,3.42,0,0,0,1.14-.33,3.54,3.54,0,0,0,1.73-1.84,4.89,4.89,0,0,0,.09-2.76,5.07,5.07,0,0,0-1.43-2.48A4,4,0,0,0,335.49,23a5.44,5.44,0,0,0-2.68.75,14.52,14.52,0,0,0-2.21,1.51c-.67.54-1.27,1.09-1.81,1.6l-.77.75c-.24.25-.47.48-.69.68l-1.16,1.09c-.64.61-1,.92-1,.92l.25-.26.68-.76,1-1.2c.2-.23.43-.47.67-.71l.78-.76c.55-.52,1.15-1.08,1.83-1.62a14.85,14.85,0,0,1,2.27-1.54,5.77,5.77,0,0,1,2.85-.79,4.34,4.34,0,0,1,2.81,1.21,5.41,5.41,0,0,1,1.53,2.65,5.22,5.22,0,0,1-.11,3,3.88,3.88,0,0,1-1.91,2,3.45,3.45,0,0,1-2.48.26,3.5,3.5,0,0,1-1-.49,1.83,1.83,0,0,1-.67-.76,1.42,1.42,0,0,1-.11-.88A1,1,0,0,1,334,29a1.59,1.59,0,0,1,1-.19l.27,0Z"/><path class="cls-2" d="M296.64,25.45a2.21,2.21,0,0,0,.93,0,.91.91,0,0,0,.63-.6,1.66,1.66,0,0,0-.6-1.61,2.57,2.57,0,0,0-1.66-.62,3.45,3.45,0,0,0-1.7.5,4,4,0,0,0-1.31,1.23,3.26,3.26,0,0,0-.4.8,4.37,4.37,0,0,0-.18.89,4.91,4.91,0,0,0,1,3.42,5.13,5.13,0,0,0,1.33,1.23,5,5,0,0,0,1.68.68,5.88,5.88,0,0,0,1.82.14,6,6,0,0,0,1.78-.42,7,7,0,0,0,2.89-2.21,7.21,7.21,0,0,0,.94-1.58,6.94,6.94,0,0,0,.5-1.76l.06-.4.25.32,4,5.25-.3.17a10.41,10.41,0,0,1-.33-1.17,11.5,11.5,0,0,1-.2-1.19,10,10,0,0,1-.07-1.21,5.83,5.83,0,0,1,0-.61c0-.2.06-.4.1-.6a5.21,5.21,0,0,1,.16-.59,5.74,5.74,0,0,1,.22-.57,5,5,0,0,1,.29-.53,3.83,3.83,0,0,1,.36-.49l.2-.22.22-.2a3.91,3.91,0,0,1,.48-.36l.26-.15.27-.13c.18-.09.37-.15.55-.22-.18.09-.36.16-.53.26l-.26.15-.24.17a4.27,4.27,0,0,0-.45.38l-.2.21L309,24a4.54,4.54,0,0,0-.86,2.13,7.78,7.78,0,0,0-.08,1.16,8.94,8.94,0,0,0,.06,1.16,11.15,11.15,0,0,0,.2,1.15,10.13,10.13,0,0,0,.31,1.12l.36,1-.66-.86-4-5.25.31-.08a7.29,7.29,0,0,1-.53,1.85,7.55,7.55,0,0,1-1,1.65,7.67,7.67,0,0,1-1.36,1.36,7.14,7.14,0,0,1-1.67,1,6.37,6.37,0,0,1-1.88.45,6.24,6.24,0,0,1-1.92-.14,5.35,5.35,0,0,1-1.8-.73,5.48,5.48,0,0,1-1.42-1.32A5.25,5.25,0,0,1,292,26a4.74,4.74,0,0,1,.19-1,3.58,3.58,0,0,1,.44-.89,4.45,4.45,0,0,1,1.42-1.34,3.3,3.3,0,0,1,1.89-.48,2.8,2.8,0,0,1,1.76.77,2.1,2.1,0,0,1,.54.81,1.44,1.44,0,0,1,0,1,1,1,0,0,1-.71.62A2.23,2.23,0,0,1,296.64,25.45Z"/><path class="cls-2" d="M13.28,643.46a.91.91,0,0,0,.08-.87,1.05,1.05,0,0,0-.75-.45,1.61,1.61,0,0,0-1.6.56,2.89,2.89,0,0,0-.44,1.71,3.75,3.75,0,0,0,.53,1.68,3.52,3.52,0,0,0,1.25,1.23,3.39,3.39,0,0,0,.4.2,2.81,2.81,0,0,0,.42.13,4.34,4.34,0,0,0,.88.13,5,5,0,0,0,3.33-1.12,5.17,5.17,0,0,0,1.17-1.35,5.11,5.11,0,0,0,.63-1.68,5.7,5.7,0,0,0,.1-1.8,6.14,6.14,0,0,0-.45-1.75,7.21,7.21,0,0,0-5.52-4.25l-.47-.07.41-.25,4.82-3,.14.32a8.77,8.77,0,0,1-1.15.19,9.72,9.72,0,0,1-1.16.05,8.39,8.39,0,0,1-1.16-.1,6,6,0,0,1-1.13-.3,5.78,5.78,0,0,1-.54-.23,5,5,0,0,1-.51-.29,5.37,5.37,0,0,1-.47-.34,5.26,5.26,0,0,1-.8-.84,5,5,0,0,1-.31-.48,4.78,4.78,0,0,1-.26-.51c-.08-.17-.14-.36-.21-.53.08.17.15.35.25.51a4.72,4.72,0,0,0,.29.49c.1.16.22.3.34.45a5,5,0,0,0,.39.4,5,5,0,0,0,.43.36,5.15,5.15,0,0,0,.47.3,4.77,4.77,0,0,0,.5.25,5.5,5.5,0,0,0,.52.19c.18.05.36.1.54.14l.55.1a7.56,7.56,0,0,0,1.11.1,9.38,9.38,0,0,0,1.12,0,8.48,8.48,0,0,0,1.1-.18l1.06-.26-.92.57-4.82,3-.07-.32a7.56,7.56,0,0,1,5.79,4.46,6.49,6.49,0,0,1,.47,1.85,6.05,6.05,0,0,1-.1,1.9,5.4,5.4,0,0,1-1.92,3.24,5.3,5.3,0,0,1-3.57,1.2,4.07,4.07,0,0,1-1.86-.51,3.91,3.91,0,0,1-1.37-1.35,3.4,3.4,0,0,1-.51-1.85,3.13,3.13,0,0,1,.59-1.81,1.48,1.48,0,0,1,.8-.53,2,2,0,0,1,.95,0,1.12,1.12,0,0,1,.77.52A.93.93,0,0,1,13.28,643.46Z"/><path class="cls-2" d="M13.41,605.34a1.21,1.21,0,0,1,.23,1.09,1.18,1.18,0,0,1-.89.7,1.59,1.59,0,0,1-1.15-.19,1.57,1.57,0,0,1-.44-.4,3.43,3.43,0,0,1-.65-2.81,3.76,3.76,0,0,1,1.15-2.06,3.68,3.68,0,0,1,1-.67l.14-.06.15,0,.28-.08a4.37,4.37,0,0,1,.59-.11,5.05,5.05,0,0,1,2.34.29,5.45,5.45,0,0,1,3.24,3.27,4.8,4.8,0,0,1,.17.57c0,.1,0,.19.06.29a3,3,0,0,1,0,.31,3.68,3.68,0,0,1-.14,1.19,8.23,8.23,0,0,1-1,2.12,35.77,35.77,0,0,1-2.8,3.68c-1,1.18-2,2.35-2.88,3.58a20.51,20.51,0,0,0-1.26,1.9,9.89,9.89,0,0,0-.92,2.06l-.3-.16a4.88,4.88,0,0,1,.37-.39l.39-.35a9.55,9.55,0,0,1,.85-.63,10.42,10.42,0,0,1,.91-.53c.31-.16.63-.3,1-.44l.6-.25-.4.52a20.6,20.6,0,0,0-1.53,2.32c-.23.4-.45.81-.64,1.23s-.39.84-.56,1.27c-.09.21-.17.43-.25.65s-.15.44-.21.66a8.66,8.66,0,0,0-.28,1.36c0,.23,0,.46-.05.69a6.28,6.28,0,0,0,0,.7,5,5,0,0,0,.1.69,5.78,5.78,0,0,0,.19.68,5.8,5.8,0,0,1-.22-.67,5.09,5.09,0,0,1-.14-.69,6.37,6.37,0,0,1-.06-.7c0-.24,0-.47,0-.71a8.86,8.86,0,0,1,.21-1.4c0-.23.11-.46.17-.69s.14-.45.21-.68a11.18,11.18,0,0,1,.53-1.31c.21-.42.42-.84.66-1.25a20.89,20.89,0,0,1,1.56-2.37l.2.27c-.31.13-.62.27-.92.42a10.08,10.08,0,0,0-.88.51,9.2,9.2,0,0,0-.81.6l-.38.34a4.64,4.64,0,0,0-.34.36l-.55.66.24-.81a10.22,10.22,0,0,1,.95-2.13,20.85,20.85,0,0,1,1.28-1.94c.91-1.24,1.91-2.42,2.89-3.59a35.5,35.5,0,0,0,2.77-3.64,7.9,7.9,0,0,0,1-2,3.33,3.33,0,0,0,.13-1.08c0-.09,0-.17,0-.26s0-.19-.06-.28a4.46,4.46,0,0,0-.16-.53,5.11,5.11,0,0,0-3-3.06,4.71,4.71,0,0,0-2.18-.27,4,4,0,0,0-.54.1l-.27.07-.12,0-.13.05a3.33,3.33,0,0,0-.91.6,4,4,0,0,0-1.1,1.87A3.26,3.26,0,0,0,11,606a3.33,3.33,0,0,0,.28.49,1.42,1.42,0,0,0,.39.38,1.49,1.49,0,0,0,1.06.21,1.11,1.11,0,0,0,.87-.63A1.19,1.19,0,0,0,13.41,605.34Z"/><path class="cls-2" d="M16.65,626.8l0-.09c0-.06,0-.15,0-.27a1.59,1.59,0,0,1,.19-1,1,1,0,0,1,.62-.42,1.42,1.42,0,0,1,.88.11,1.83,1.83,0,0,1,.76.67,3.5,3.5,0,0,1,.49,1,3.45,3.45,0,0,1-.26,2.48,3.88,3.88,0,0,1-2,1.91,5.22,5.22,0,0,1-3,.11,5.41,5.41,0,0,1-2.65-1.53A4.34,4.34,0,0,1,10.43,627a5.77,5.77,0,0,1,.79-2.85,14.84,14.84,0,0,1,1.54-2.27c.55-.68,1.1-1.28,1.62-1.83l.76-.78c.24-.25.47-.48.71-.67l1.2-1,.76-.68.26-.25s-.31.4-.92,1l-1.09,1.16c-.2.23-.44.46-.68.69l-.75.77c-.52.54-1.07,1.14-1.6,1.81a14.51,14.51,0,0,0-1.51,2.21,5.44,5.44,0,0,0-.75,2.68,4,4,0,0,0,1.11,2.58A5.07,5.07,0,0,0,14.37,631a4.89,4.89,0,0,0,2.76-.09A3.54,3.54,0,0,0,19,629.14,3.42,3.42,0,0,0,19.3,628a4,4,0,0,0-.06-1.11,3.24,3.24,0,0,0-.38-1,1.56,1.56,0,0,0-.65-.64,1.27,1.27,0,0,0-.78-.14.88.88,0,0,0-.57.35,1.54,1.54,0,0,0-.24,1c0,.12,0,.21,0,.27Z"/><path class="cls-2" d="M13.27,588.1a2.23,2.23,0,0,1,0,.94,1,1,0,0,1-.62.71,1.44,1.44,0,0,1-1,0,2.1,2.1,0,0,1-.81-.54,2.8,2.8,0,0,1-.77-1.76,3.3,3.3,0,0,1,.48-1.89,4.45,4.45,0,0,1,1.34-1.42,3.58,3.58,0,0,1,.89-.44,4.75,4.75,0,0,1,1-.19,5.25,5.25,0,0,1,3.66,1.06,5.48,5.48,0,0,1,1.32,1.42,5.35,5.35,0,0,1,.73,1.8,6.24,6.24,0,0,1,.14,1.92,6.37,6.37,0,0,1-.45,1.88,7.14,7.14,0,0,1-1,1.67,7.67,7.67,0,0,1-1.36,1.36,7.55,7.55,0,0,1-1.65,1,7.29,7.29,0,0,1-1.85.53l.08-.31,5.25,4,.86.66-1-.36a10.12,10.12,0,0,0-1.12-.31,11.14,11.14,0,0,0-1.15-.2,9,9,0,0,0-1.16-.06,7.78,7.78,0,0,0-1.16.08,4.54,4.54,0,0,0-2.13.86l-.23.18-.21.2a4.28,4.28,0,0,0-.38.45l-.17.24-.15.26c-.1.17-.17.35-.26.53.08-.18.13-.38.22-.55l.13-.27.15-.26a3.91,3.91,0,0,1,.36-.48l.2-.22.22-.2a3.82,3.82,0,0,1,.49-.36,5,5,0,0,1,.53-.29,5.74,5.74,0,0,1,.57-.22,5.21,5.21,0,0,1,.59-.16c.2,0,.4-.07.6-.1a5.84,5.84,0,0,1,.61,0,10.05,10.05,0,0,1,1.21.07,11.5,11.5,0,0,1,1.19.2,10.41,10.41,0,0,1,1.17.33l-.17.3-5.25-4-.32-.25.4-.06a7,7,0,0,0,1.76-.5,7.2,7.2,0,0,0,1.58-.94,7,7,0,0,0,2.21-2.89,6,6,0,0,0,.42-1.78,5.87,5.87,0,0,0-.14-1.82,5,5,0,0,0-.68-1.68,5.13,5.13,0,0,0-1.23-1.33,4.91,4.91,0,0,0-3.42-1,4.37,4.37,0,0,0-.89.18,3.26,3.26,0,0,0-.8.4,4,4,0,0,0-1.23,1.31,3.45,3.45,0,0,0-.5,1.7,2.57,2.57,0,0,0,.62,1.66,1.66,1.66,0,0,0,1.61.6.91.91,0,0,0,.6-.63A2.21,2.21,0,0,0,13.27,588.1Z"/><path class="cls-2" d="M22.26,652.71a.93.93,0,0,1,.9-.12,1.12,1.12,0,0,1,.52.77,2,2,0,0,1,0,.95,1.48,1.48,0,0,1-.53.8,3.13,3.13,0,0,1-1.81.59,3.4,3.4,0,0,1-1.85-.51,3.91,3.91,0,0,1-1.35-1.37A4.07,4.07,0,0,1,17.6,652a5.3,5.3,0,0,1,1.2-3.57A5.4,5.4,0,0,1,22,646.47a6.05,6.05,0,0,1,1.9-.1,6.49,6.49,0,0,1,1.85.47,7.56,7.56,0,0,1,4.46,5.79l-.32-.07,3-4.82.57-.92-.26,1.06a8.47,8.47,0,0,0-.18,1.1,9.37,9.37,0,0,0,0,1.12,7.56,7.56,0,0,0,.1,1.11c0,.18.06.37.1.55s.09.36.14.54a5.5,5.5,0,0,0,.19.52,4.78,4.78,0,0,0,.25.5,5.16,5.16,0,0,0,.3.47,5,5,0,0,0,.36.43,5,5,0,0,0,.4.39c.15.11.29.24.45.34a4.73,4.73,0,0,0,.49.29c.16.09.34.16.51.25-.18-.07-.36-.13-.53-.21a4.79,4.79,0,0,1-.51-.26,5,5,0,0,1-.48-.31,5.16,5.16,0,0,1-.44-.38,5.1,5.1,0,0,1-.4-.42,5.37,5.37,0,0,1-.34-.47,5,5,0,0,1-.29-.51,5.77,5.77,0,0,1-.23-.54,6,6,0,0,1-.3-1.13,8.4,8.4,0,0,1-.1-1.16,9.72,9.72,0,0,1,.05-1.16,8.77,8.77,0,0,1,.19-1.15l.32.14-3,4.82-.25.41-.07-.47a7.21,7.21,0,0,0-4.25-5.52,6.14,6.14,0,0,0-1.75-.45,5.7,5.7,0,0,0-1.8.1,5.11,5.11,0,0,0-1.68.63,5.17,5.17,0,0,0-1.35,1.17A5,5,0,0,0,18,651.94a4.34,4.34,0,0,0,.13.88,2.81,2.81,0,0,0,.13.42,3.39,3.39,0,0,0,.2.4,3.52,3.52,0,0,0,1.23,1.25,3.75,3.75,0,0,0,1.68.53A2.89,2.89,0,0,0,23,655a1.61,1.61,0,0,0,.56-1.6,1.05,1.05,0,0,0-.45-.75A.91.91,0,0,0,22.26,652.71Z"/><path class="cls-2" d="M60.39,652.58a1.19,1.19,0,0,0-1.08-.2,1.12,1.12,0,0,0-.63.87,1.49,1.49,0,0,0,.21,1.06,1.42,1.42,0,0,0,.38.39,3.33,3.33,0,0,0,.49.28,3.26,3.26,0,0,0,2.17.19,4,4,0,0,0,1.87-1.1,3.33,3.33,0,0,0,.6-.91l.05-.13a1.06,1.06,0,0,0,0-.12c0-.09.06-.18.07-.27a4,4,0,0,0,.1-.54,4.71,4.71,0,0,0-.27-2.18,5.11,5.11,0,0,0-3.06-3,4.44,4.44,0,0,0-.53-.16l-.28-.06-.26,0a3.33,3.33,0,0,0-1.08.13,7.9,7.9,0,0,0-2,1,35.49,35.49,0,0,0-3.64,2.77c-1.18,1-2.35,2-3.59,2.89A20.85,20.85,0,0,1,48,654.67a10.23,10.23,0,0,1-2.13.95l-.81.24.66-.55a4.64,4.64,0,0,0,.36-.34l.34-.38a9.2,9.2,0,0,0,.6-.81,10.09,10.09,0,0,0,.51-.88c.16-.3.29-.61.42-.92l.27.2a20.9,20.9,0,0,1-2.37,1.56c-.41.23-.83.45-1.25.66a11.18,11.18,0,0,1-1.31.53l-.68.21c-.23.06-.46.13-.69.17a8.85,8.85,0,0,1-1.4.21c-.24,0-.47,0-.71,0a6.37,6.37,0,0,1-.7-.06,5.09,5.09,0,0,1-.69-.14,5.8,5.8,0,0,1-.67-.22,5.78,5.78,0,0,0,.68.19,5,5,0,0,0,.69.1,6.28,6.28,0,0,0,.7,0c.23,0,.46,0,.69-.05a8.66,8.66,0,0,0,1.36-.28c.22-.06.44-.13.66-.21l.65-.25c.43-.18.85-.37,1.27-.56s.83-.41,1.23-.64A20.59,20.59,0,0,0,48,651.91l.52-.4-.25.6c-.13.32-.27.64-.44,1a10.43,10.43,0,0,1-.53.91,9.55,9.55,0,0,1-.63.85q-.17.2-.35.39a4.89,4.89,0,0,1-.39.37l-.16-.3a9.88,9.88,0,0,0,2.06-.92,20.5,20.5,0,0,0,1.9-1.26c1.23-.9,2.4-1.9,3.58-2.88a35.78,35.78,0,0,1,3.68-2.8,8.23,8.23,0,0,1,2.12-1,3.67,3.67,0,0,1,1.19-.14l.31,0,.29.06a4.78,4.78,0,0,1,.57.17,5.45,5.45,0,0,1,3.27,3.24,5.05,5.05,0,0,1,.29,2.34,4.36,4.36,0,0,1-.11.59c0,.1,0,.19-.08.28a1.4,1.4,0,0,1,0,.15l-.06.14a3.68,3.68,0,0,1-.67,1A3.76,3.76,0,0,1,62,655.47a3.43,3.43,0,0,1-2.81-.65,1.58,1.58,0,0,1-.4-.44,1.59,1.59,0,0,1-.19-1.15,1.18,1.18,0,0,1,.7-.89A1.21,1.21,0,0,1,60.39,652.58Z"/><path class="cls-2" d="M38.92,649.34H39l.27,0a1.54,1.54,0,0,0,1-.24.88.88,0,0,0,.35-.57,1.27,1.27,0,0,0-.14-.78,1.56,1.56,0,0,0-.64-.65,3.24,3.24,0,0,0-1-.38,4,4,0,0,0-1.11-.06,3.42,3.42,0,0,0-1.14.33,3.54,3.54,0,0,0-1.73,1.84,4.89,4.89,0,0,0-.09,2.76,5.07,5.07,0,0,0,1.43,2.48,4,4,0,0,0,2.58,1.11,5.44,5.44,0,0,0,2.68-.75A14.51,14.51,0,0,0,43.66,653c.67-.54,1.27-1.09,1.81-1.6l.77-.75c.24-.25.47-.48.69-.68l1.16-1.09c.64-.61,1-.92,1-.92l-.25.26-.68.76-1,1.2c-.2.23-.43.47-.67.71l-.78.76c-.55.52-1.15,1.08-1.83,1.62a14.85,14.85,0,0,1-2.27,1.54,5.77,5.77,0,0,1-2.85.79,4.34,4.34,0,0,1-2.81-1.21,5.41,5.41,0,0,1-1.53-2.65,5.22,5.22,0,0,1,.11-3,3.88,3.88,0,0,1,1.91-2,3.45,3.45,0,0,1,2.48-.26,3.5,3.5,0,0,1,1,.49,1.83,1.83,0,0,1,.67.76,1.42,1.42,0,0,1,.11.88,1,1,0,0,1-.42.62,1.59,1.59,0,0,1-1,.19l-.27,0Z"/><path class="cls-2" d="M77.62,652.72a2.21,2.21,0,0,0-.93,0,.91.91,0,0,0-.63.6,1.66,1.66,0,0,0,.6,1.61,2.57,2.57,0,0,0,1.66.62,3.45,3.45,0,0,0,1.7-.5,4,4,0,0,0,1.31-1.23,3.26,3.26,0,0,0,.4-.8,4.37,4.37,0,0,0,.18-.89,4.91,4.91,0,0,0-1-3.42,5.13,5.13,0,0,0-1.33-1.23,5,5,0,0,0-1.68-.68,5.87,5.87,0,0,0-1.82-.14,6,6,0,0,0-1.78.42,7,7,0,0,0-2.89,2.21,7.21,7.21,0,0,0-.94,1.58,7,7,0,0,0-.5,1.76l-.06.4-.25-.32-4-5.25.3-.17a10.41,10.41,0,0,1,.33,1.17,11.5,11.5,0,0,1,.2,1.19,10,10,0,0,1,.07,1.21,5.83,5.83,0,0,1,0,.61c0,.2-.06.4-.1.6a5.22,5.22,0,0,1-.16.59,5.75,5.75,0,0,1-.22.57,5,5,0,0,1-.29.53,3.83,3.83,0,0,1-.36.49l-.2.22-.22.2a3.91,3.91,0,0,1-.48.36l-.26.15-.27.13c-.18.09-.37.15-.55.22.18-.09.36-.16.53-.26l.26-.15.24-.17a4.27,4.27,0,0,0,.45-.38l.2-.21.18-.23a4.54,4.54,0,0,0,.86-2.13,7.78,7.78,0,0,0,.08-1.16,9,9,0,0,0-.06-1.16,11.16,11.16,0,0,0-.2-1.15,10.12,10.12,0,0,0-.31-1.12l-.36-1,.66.86,4,5.25-.31.08a7.29,7.29,0,0,1,.53-1.85,7.55,7.55,0,0,1,1-1.65,7.67,7.67,0,0,1,1.36-1.36,7.14,7.14,0,0,1,1.67-1,6.37,6.37,0,0,1,1.88-.45,6.25,6.25,0,0,1,1.92.14,5.35,5.35,0,0,1,1.8.73,5.48,5.48,0,0,1,1.42,1.32,5.25,5.25,0,0,1,1.06,3.66,4.74,4.74,0,0,1-.19,1,3.58,3.58,0,0,1-.44.89,4.45,4.45,0,0,1-1.42,1.34,3.3,3.3,0,0,1-1.89.48,2.8,2.8,0,0,1-1.76-.77,2.1,2.1,0,0,1-.54-.81,1.44,1.44,0,0,1,0-1,1,1,0,0,1,.71-.62A2.23,2.23,0,0,1,77.62,652.72Z"/><path class="cls-2" d="M360.82,643.31a.93.93,0,0,1-.12-.9,1.12,1.12,0,0,1,.77-.52,2,2,0,0,1,.95,0,1.48,1.48,0,0,1,.8.53,3.13,3.13,0,0,1,.59,1.81,3.4,3.4,0,0,1-.51,1.85,3.91,3.91,0,0,1-1.37,1.35,4.07,4.07,0,0,1-1.86.51,5.3,5.3,0,0,1-3.57-1.2,5.4,5.4,0,0,1-1.92-3.24,6.05,6.05,0,0,1-.1-1.9,6.49,6.49,0,0,1,.47-1.85,7.56,7.56,0,0,1,5.79-4.46l-.07.32-4.82-3-.92-.57,1.06.26a8.48,8.48,0,0,0,1.1.18,9.38,9.38,0,0,0,1.12,0,7.56,7.56,0,0,0,1.11-.1l.55-.1c.18,0,.36-.09.54-.14a5.49,5.49,0,0,0,.52-.19,4.77,4.77,0,0,0,.5-.25,5.16,5.16,0,0,0,.47-.3,4.94,4.94,0,0,0,.43-.36,5,5,0,0,0,.39-.4c.11-.15.24-.29.34-.45a4.71,4.71,0,0,0,.29-.49c.09-.16.16-.34.25-.51-.07.18-.13.36-.21.53a4.8,4.8,0,0,1-.26.51,5,5,0,0,1-.31.48,5.26,5.26,0,0,1-.8.84,5.36,5.36,0,0,1-.47.34,5,5,0,0,1-.51.29,5.78,5.78,0,0,1-.54.23,6,6,0,0,1-1.13.3,8.4,8.4,0,0,1-1.16.1,9.72,9.72,0,0,1-1.16-.05,8.77,8.77,0,0,1-1.15-.19l.14-.32,4.82,3,.41.25-.47.07a7.21,7.21,0,0,0-5.52,4.25,6.14,6.14,0,0,0-.45,1.75,5.69,5.69,0,0,0,.1,1.8,5.11,5.11,0,0,0,.63,1.68,5.17,5.17,0,0,0,1.17,1.35,5,5,0,0,0,3.33,1.12,4.34,4.34,0,0,0,.88-.13,2.81,2.81,0,0,0,.42-.13,3.4,3.4,0,0,0,.4-.2,3.52,3.52,0,0,0,1.25-1.23,3.75,3.75,0,0,0,.53-1.68,2.89,2.89,0,0,0-.44-1.71,1.61,1.61,0,0,0-1.6-.56,1.05,1.05,0,0,0-.75.45A.91.91,0,0,0,360.82,643.31Z"/><path class="cls-2" d="M360.69,605.19a1.19,1.19,0,0,0-.2,1.08,1.12,1.12,0,0,0,.87.63,1.49,1.49,0,0,0,1.06-.21,1.42,1.42,0,0,0,.39-.38,3.33,3.33,0,0,0,.28-.49,3.26,3.26,0,0,0,.19-2.17,4,4,0,0,0-1.1-1.87,3.33,3.33,0,0,0-.91-.6l-.13-.05-.12,0-.27-.07a4,4,0,0,0-.54-.1,4.71,4.71,0,0,0-2.18.27,5.11,5.11,0,0,0-3,3.06,4.43,4.43,0,0,0-.16.53c0,.09,0,.18-.06.28s0,.17,0,.26a3.33,3.33,0,0,0,.13,1.08,7.91,7.91,0,0,0,1,2,35.49,35.49,0,0,0,2.77,3.64c1,1.18,2,2.35,2.89,3.59a20.83,20.83,0,0,1,1.28,1.94,10.22,10.22,0,0,1,.95,2.13l.24.81-.55-.66a4.65,4.65,0,0,0-.34-.36l-.38-.34a9.21,9.21,0,0,0-.81-.6,10.08,10.08,0,0,0-.88-.51c-.3-.16-.61-.29-.92-.42l.2-.27a20.89,20.89,0,0,1,1.56,2.37c.23.41.45.83.66,1.25a11.18,11.18,0,0,1,.53,1.31c.08.22.15.45.21.68s.13.46.17.69a8.85,8.85,0,0,1,.21,1.4c0,.24,0,.47,0,.71a6.38,6.38,0,0,1-.06.7,5.09,5.09,0,0,1-.14.69,5.82,5.82,0,0,1-.22.67,5.78,5.78,0,0,0,.19-.68,5,5,0,0,0,.1-.69,6.28,6.28,0,0,0,0-.7c0-.23,0-.46-.05-.69a8.66,8.66,0,0,0-.28-1.36c-.06-.22-.13-.44-.21-.66s-.16-.44-.25-.65c-.18-.43-.37-.85-.56-1.27s-.41-.83-.64-1.23a20.59,20.59,0,0,0-1.53-2.32l-.4-.52.6.25c.32.13.64.27,1,.44a10.42,10.42,0,0,1,.91.53,9.53,9.53,0,0,1,.85.63l.39.35a4.89,4.89,0,0,1,.37.39l-.3.16a9.89,9.89,0,0,0-.92-2.06,20.52,20.52,0,0,0-1.26-1.9c-.9-1.23-1.9-2.4-2.88-3.58a35.79,35.79,0,0,1-2.8-3.68,8.23,8.23,0,0,1-1-2.12,3.68,3.68,0,0,1-.14-1.19,3,3,0,0,1,0-.31c0-.09,0-.19.06-.29a4.78,4.78,0,0,1,.17-.57,5.45,5.45,0,0,1,3.24-3.27,5.05,5.05,0,0,1,2.34-.29,4.37,4.37,0,0,1,.59.11l.28.08.15,0,.14.06a3.68,3.68,0,0,1,1,.67,3.76,3.76,0,0,1,1.15,2.06,3.43,3.43,0,0,1-.65,2.81,1.57,1.57,0,0,1-.44.4,1.59,1.59,0,0,1-1.15.19,1.18,1.18,0,0,1-.89-.7A1.21,1.21,0,0,1,360.69,605.19Z"/><path class="cls-2" d="M357.44,626.65v-.09c0-.06,0-.15,0-.27a1.54,1.54,0,0,0-.24-1,.88.88,0,0,0-.57-.35,1.27,1.27,0,0,0-.78.14,1.56,1.56,0,0,0-.65.64,3.24,3.24,0,0,0-.38,1,4,4,0,0,0-.06,1.11,3.42,3.42,0,0,0,.33,1.14,3.54,3.54,0,0,0,1.84,1.73,4.89,4.89,0,0,0,2.76.09,5.07,5.07,0,0,0,2.48-1.43,4,4,0,0,0,1.11-2.58,5.44,5.44,0,0,0-.75-2.68,14.51,14.51,0,0,0-1.51-2.21c-.54-.67-1.09-1.27-1.6-1.81l-.75-.77c-.25-.24-.48-.47-.68-.69l-1.09-1.16c-.61-.64-.92-1-.92-1l.26.25.76.68,1.2,1c.23.2.47.43.71.67l.76.78c.52.55,1.08,1.15,1.62,1.83a14.85,14.85,0,0,1,1.54,2.27,5.77,5.77,0,0,1,.79,2.85,4.34,4.34,0,0,1-1.21,2.81,5.41,5.41,0,0,1-2.65,1.53,5.22,5.22,0,0,1-3-.11,3.88,3.88,0,0,1-2-1.91,3.45,3.45,0,0,1-.26-2.48,3.5,3.5,0,0,1,.49-1,1.83,1.83,0,0,1,.76-.67,1.42,1.42,0,0,1,.88-.11,1,1,0,0,1,.62.42,1.59,1.59,0,0,1,.19,1c0,.12,0,.21,0,.27Z"/><path class="cls-2" d="M360.82,588a2.21,2.21,0,0,0,0,.93.91.91,0,0,0,.6.63,1.66,1.66,0,0,0,1.61-.6,2.57,2.57,0,0,0,.62-1.66,3.45,3.45,0,0,0-.5-1.7,4,4,0,0,0-1.23-1.31,3.26,3.26,0,0,0-.8-.4,4.37,4.37,0,0,0-.89-.18,4.91,4.91,0,0,0-3.42,1,5.13,5.13,0,0,0-1.23,1.33,5,5,0,0,0-.68,1.68,5.87,5.87,0,0,0-.14,1.82,6,6,0,0,0,.42,1.78,7,7,0,0,0,2.21,2.89,7.21,7.21,0,0,0,1.58.94,7,7,0,0,0,1.76.5l.4.06-.32.25-5.25,4-.17-.3a10.42,10.42,0,0,1,1.17-.33,11.5,11.5,0,0,1,1.19-.2A10,10,0,0,1,359,599a5.84,5.84,0,0,1,.61,0c.2,0,.4.06.6.1a5.2,5.2,0,0,1,.59.16,5.74,5.74,0,0,1,.57.22,5,5,0,0,1,.53.29,3.83,3.83,0,0,1,.49.36l.22.2.2.22a3.91,3.91,0,0,1,.36.48l.15.26.13.27c.09.18.15.37.22.55-.09-.18-.16-.36-.26-.53l-.15-.26-.17-.24a4.28,4.28,0,0,0-.38-.45l-.21-.2-.23-.18a4.54,4.54,0,0,0-2.13-.86,7.78,7.78,0,0,0-1.16-.08,9,9,0,0,0-1.16.06,11.15,11.15,0,0,0-1.15.2,10.13,10.13,0,0,0-1.12.31l-1,.36.86-.66,5.25-4,.08.31a7.29,7.29,0,0,1-1.85-.53,7.55,7.55,0,0,1-1.65-1,7.67,7.67,0,0,1-1.36-1.36,7.14,7.14,0,0,1-1-1.67,6.37,6.37,0,0,1-.45-1.88,6.24,6.24,0,0,1,.14-1.92,5.35,5.35,0,0,1,.73-1.8,5.48,5.48,0,0,1,1.32-1.42,5.25,5.25,0,0,1,3.66-1.06,4.75,4.75,0,0,1,1,.19,3.58,3.58,0,0,1,.89.44,4.45,4.45,0,0,1,1.34,1.42,3.3,3.3,0,0,1,.48,1.89,2.8,2.8,0,0,1-.77,1.76,2.1,2.1,0,0,1-.81.54,1.44,1.44,0,0,1-1,0,1,1,0,0,1-.62-.71A2.23,2.23,0,0,1,360.82,588Z"/><path class="cls-2" d="M351.84,652.56a.91.91,0,0,0-.87-.08,1.05,1.05,0,0,0-.45.75,1.61,1.61,0,0,0,.56,1.6,2.89,2.89,0,0,0,1.71.44,3.75,3.75,0,0,0,1.68-.53,3.52,3.52,0,0,0,1.23-1.25,3.4,3.4,0,0,0,.2-.4,2.81,2.81,0,0,0,.13-.42,4.33,4.33,0,0,0,.13-.88,5,5,0,0,0-1.12-3.33,5.17,5.17,0,0,0-1.35-1.17,5.11,5.11,0,0,0-1.68-.63,5.7,5.7,0,0,0-1.8-.1,6.14,6.14,0,0,0-1.75.45,7.21,7.21,0,0,0-4.25,5.52l-.07.47-.25-.41-3-4.82.32-.14a8.77,8.77,0,0,1,.19,1.15,9.7,9.7,0,0,1,.05,1.16,8.39,8.39,0,0,1-.1,1.16,6,6,0,0,1-.3,1.13,5.78,5.78,0,0,1-.23.54,5,5,0,0,1-.29.51,5.37,5.37,0,0,1-.34.47,5.26,5.26,0,0,1-.84.8,5,5,0,0,1-.48.31,4.79,4.79,0,0,1-.51.26c-.17.08-.36.14-.53.21.17-.08.35-.15.51-.25a4.72,4.72,0,0,0,.49-.29c.16-.1.3-.22.45-.34a5,5,0,0,0,.4-.39,5,5,0,0,0,.36-.43,5.16,5.16,0,0,0,.3-.47,4.79,4.79,0,0,0,.25-.5,5.5,5.5,0,0,0,.19-.52c.05-.18.1-.36.14-.54s.07-.36.1-.55a7.56,7.56,0,0,0,.1-1.11,9.39,9.39,0,0,0,0-1.12,8.48,8.48,0,0,0-.18-1.1l-.26-1.06.57.92,3,4.82-.32.07a7.56,7.56,0,0,1,4.46-5.79,6.49,6.49,0,0,1,1.85-.47,6.05,6.05,0,0,1,1.9.1,5.4,5.4,0,0,1,3.24,1.92,5.3,5.3,0,0,1,1.2,3.57,4.07,4.07,0,0,1-.51,1.86,3.91,3.91,0,0,1-1.35,1.37,3.4,3.4,0,0,1-1.85.51A3.13,3.13,0,0,1,351,655a1.48,1.48,0,0,1-.53-.8,2,2,0,0,1,0-.95,1.12,1.12,0,0,1,.52-.77A.93.93,0,0,1,351.84,652.56Z"/><path class="cls-2" d="M313.71,652.43a1.21,1.21,0,0,1,1.09-.23,1.18,1.18,0,0,1,.7.89,1.59,1.59,0,0,1-.19,1.15,1.58,1.58,0,0,1-.4.44,3.43,3.43,0,0,1-2.81.65,3.76,3.76,0,0,1-2.06-1.15,3.68,3.68,0,0,1-.67-1l-.06-.14a1.4,1.4,0,0,1,0-.15c0-.09-.06-.18-.08-.28a4.36,4.36,0,0,1-.11-.59,5.05,5.05,0,0,1,.29-2.34,5.45,5.45,0,0,1,3.27-3.24,4.8,4.8,0,0,1,.57-.17l.29-.06.31,0a3.67,3.67,0,0,1,1.19.14,8.23,8.23,0,0,1,2.12,1,35.77,35.77,0,0,1,3.68,2.8c1.18,1,2.35,2,3.58,2.88a20.5,20.5,0,0,0,1.9,1.26,9.89,9.89,0,0,0,2.06.92l-.16.3a4.88,4.88,0,0,1-.39-.37q-.18-.19-.35-.39a9.55,9.55,0,0,1-.63-.85,10.43,10.43,0,0,1-.53-.91c-.16-.31-.3-.63-.44-1l-.25-.6.52.4a20.59,20.59,0,0,0,2.32,1.53c.4.23.81.45,1.23.64s.84.39,1.27.56l.65.25c.22.07.44.15.66.21a8.66,8.66,0,0,0,1.36.28c.23,0,.46,0,.69.05a6.28,6.28,0,0,0,.7,0,5,5,0,0,0,.69-.1,5.78,5.78,0,0,0,.68-.19,5.8,5.8,0,0,1-.67.22,5.09,5.09,0,0,1-.69.14,6.37,6.37,0,0,1-.7.06c-.24,0-.47,0-.71,0a8.85,8.85,0,0,1-1.4-.21c-.23,0-.46-.11-.69-.17l-.68-.21a11.18,11.18,0,0,1-1.31-.53c-.42-.21-.84-.42-1.25-.66A20.89,20.89,0,0,1,325.9,652l.27-.2c.13.31.27.62.42.92a10.09,10.09,0,0,0,.51.88,9.2,9.2,0,0,0,.6.81l.34.38a4.64,4.64,0,0,0,.36.34l.66.55-.81-.24a10.23,10.23,0,0,1-2.13-.95,20.86,20.86,0,0,1-1.94-1.28c-1.24-.91-2.42-1.91-3.59-2.89a35.49,35.49,0,0,0-3.64-2.77,7.9,7.9,0,0,0-2-1,3.33,3.33,0,0,0-1.08-.13l-.26,0-.28.06a4.44,4.44,0,0,0-.53.16,5.11,5.11,0,0,0-3.06,3,4.71,4.71,0,0,0-.27,2.18,4,4,0,0,0,.1.54c0,.09,0,.18.07.27a1.06,1.06,0,0,0,0,.12l.05.13a3.33,3.33,0,0,0,.6.91,4,4,0,0,0,1.87,1.1,3.26,3.26,0,0,0,2.17-.19,3.33,3.33,0,0,0,.49-.28,1.42,1.42,0,0,0,.38-.39,1.49,1.49,0,0,0,.21-1.06,1.12,1.12,0,0,0-.63-.87A1.19,1.19,0,0,0,313.71,652.43Z"/><path class="cls-2" d="M335.17,649.18l-.09,0-.27,0a1.59,1.59,0,0,1-1-.19,1,1,0,0,1-.42-.62,1.42,1.42,0,0,1,.11-.88,1.83,1.83,0,0,1,.67-.76,3.5,3.5,0,0,1,1-.49,3.45,3.45,0,0,1,2.48.26,3.88,3.88,0,0,1,1.91,2,5.22,5.22,0,0,1,.11,3,5.41,5.41,0,0,1-1.53,2.65,4.34,4.34,0,0,1-2.81,1.21,5.77,5.77,0,0,1-2.85-.79,14.84,14.84,0,0,1-2.27-1.54c-.68-.55-1.28-1.1-1.83-1.62l-.78-.76c-.25-.24-.48-.47-.67-.71l-1-1.2-.68-.76-.25-.26s.4.31,1,.92l1.16,1.09c.23.2.46.44.69.68l.77.75c.54.52,1.14,1.07,1.81,1.6a14.51,14.51,0,0,0,2.21,1.51,5.44,5.44,0,0,0,2.68.75,4,4,0,0,0,2.58-1.11,5.07,5.07,0,0,0,1.43-2.48,4.89,4.89,0,0,0-.09-2.76,3.54,3.54,0,0,0-1.73-1.84,3.42,3.42,0,0,0-1.14-.33,4,4,0,0,0-1.11.06,3.24,3.24,0,0,0-1,.38,1.56,1.56,0,0,0-.64.65,1.27,1.27,0,0,0-.14.78.88.88,0,0,0,.35.57,1.54,1.54,0,0,0,1,.24l.27,0Z"/><path class="cls-2" d="M296.48,652.56a2.23,2.23,0,0,1,.94,0,1,1,0,0,1,.71.62,1.44,1.44,0,0,1,0,1,2.1,2.1,0,0,1-.54.81,2.8,2.8,0,0,1-1.76.77,3.3,3.3,0,0,1-1.89-.48,4.45,4.45,0,0,1-1.42-1.34A3.58,3.58,0,0,1,292,653a4.74,4.74,0,0,1-.19-1,5.25,5.25,0,0,1,1.06-3.66,5.48,5.48,0,0,1,1.42-1.32,5.35,5.35,0,0,1,1.8-.73,6.24,6.24,0,0,1,1.92-.14,6.37,6.37,0,0,1,1.88.45,7.14,7.14,0,0,1,1.67,1A7.67,7.67,0,0,1,303,649a7.55,7.55,0,0,1,1,1.65,7.29,7.29,0,0,1,.53,1.85l-.31-.08,4-5.25.66-.86-.36,1a10.12,10.12,0,0,0-.31,1.12,11.16,11.16,0,0,0-.2,1.15,9,9,0,0,0-.06,1.16,7.78,7.78,0,0,0,.08,1.16,4.54,4.54,0,0,0,.86,2.13l.18.23.2.21a4.27,4.27,0,0,0,.45.38l.24.17.26.15c.17.1.35.17.53.26-.18-.08-.38-.13-.55-.22l-.27-.13-.26-.15a3.91,3.91,0,0,1-.48-.36l-.22-.2-.2-.22a3.83,3.83,0,0,1-.36-.49,5,5,0,0,1-.29-.53,5.75,5.75,0,0,1-.22-.57,5.22,5.22,0,0,1-.16-.59c0-.2-.07-.4-.1-.6a5.83,5.83,0,0,1,0-.61,10,10,0,0,1,.07-1.21,11.5,11.5,0,0,1,.2-1.19,10.41,10.41,0,0,1,.33-1.17l.3.17-4,5.25-.25.32-.06-.4a7,7,0,0,0-.5-1.76,7.21,7.21,0,0,0-.94-1.58,7,7,0,0,0-2.89-2.21,6,6,0,0,0-1.78-.42,5.87,5.87,0,0,0-1.82.14,5,5,0,0,0-1.68.68,5.13,5.13,0,0,0-1.33,1.23,4.91,4.91,0,0,0-1,3.42,4.37,4.37,0,0,0,.18.89,3.26,3.26,0,0,0,.4.8,4,4,0,0,0,1.31,1.23,3.45,3.45,0,0,0,1.7.5,2.57,2.57,0,0,0,1.66-.62,1.66,1.66,0,0,0,.6-1.61.91.91,0,0,0-.63-.6A2.21,2.21,0,0,0,296.48,652.56Z"/><rect class="cls-2" x="82.27" y="26.72" width="209.92" height="0.35"/><rect class="cls-2" x="14.86" y="94.35" width="0.35" height="489.32"/><rect class="cls-2" x="82.07" y="650.95" width="209.91" height="0.35"/><rect class="cls-2" x="359.06" y="94.47" width="0.35" height="488.61"/><path class="cls-2" d="M181.85,138.16l.16-.2c.05-.06.11-.15.2-.23l.3-.29c.12-.1.26-.2.41-.32s.33-.21.52-.32a4.64,4.64,0,0,1,1.4-.46,4.83,4.83,0,0,1,1.75.06,4.55,4.55,0,0,1,1.77.83,4.61,4.61,0,0,1,1.34,1.62,4.79,4.79,0,0,1,.51,2.12c0,.18,0,.35,0,.53a4.64,4.64,0,0,1-.1.55,3.78,3.78,0,0,1-.16.52,3.57,3.57,0,0,1-.22.5,4.61,4.61,0,0,1-1.34,1.62,4.54,4.54,0,0,1-1.77.83,4.84,4.84,0,0,1-1.74.07,4.62,4.62,0,0,1-1.4-.46c-.19-.11-.37-.21-.52-.32s-.29-.22-.41-.32l-.3-.29c-.08-.09-.14-.17-.2-.24l-.16-.2.17.19c.06.06.12.14.21.22l.31.27c.12.1.27.19.42.29l.53.28a5,5,0,0,0,1.36.38,4.5,4.5,0,0,0,3.31-.94,4.3,4.3,0,0,0,1.23-1.52,3.26,3.26,0,0,0,.2-.47,3.47,3.47,0,0,0,.14-.49,4.36,4.36,0,0,0,.09-.49c0-.17,0-.35,0-.53a4.48,4.48,0,0,0-.46-2,4.3,4.3,0,0,0-1.23-1.52,4.61,4.61,0,0,0-1.65-.82,3,3,0,0,0-.42-.09,2.78,2.78,0,0,0-.43,0h-.41a4,4,0,0,0-.4,0,5,5,0,0,0-1.37.38l-.53.28c-.15.11-.3.2-.42.29l-.31.27c-.09.08-.15.16-.21.22Z"/><path class="cls-2" d="M198.2,138.63l-.17-.19c-.06-.06-.12-.14-.21-.22l-.31-.27c-.12-.1-.27-.19-.42-.29l-.53-.28a5,5,0,0,0-1.37-.38,4,4,0,0,0-.4,0h-.41a2.78,2.78,0,0,0-.43,0,3,3,0,0,0-.42.09,4.61,4.61,0,0,0-1.65.82,4.3,4.3,0,0,0-1.23,1.52,4.48,4.48,0,0,0-.46,2c0,.18,0,.36,0,.53a4.36,4.36,0,0,0,.09.49,3.47,3.47,0,0,0,.14.49,3.26,3.26,0,0,0,.2.47,4.3,4.3,0,0,0,1.23,1.52,4.5,4.5,0,0,0,3.31.94,5,5,0,0,0,1.36-.38l.53-.28c.15-.11.3-.2.42-.29l.31-.27c.09-.08.15-.16.21-.22l.17-.19-.16.2c-.05.06-.11.15-.2.24l-.3.29c-.12.1-.26.2-.41.32s-.33.21-.52.32a4.62,4.62,0,0,1-1.4.46,4.84,4.84,0,0,1-1.74-.07,4.54,4.54,0,0,1-1.77-.83,4.61,4.61,0,0,1-1.34-1.62,3.56,3.56,0,0,1-.22-.5,3.78,3.78,0,0,1-.16-.52,4.64,4.64,0,0,1-.1-.55c0-.18,0-.36,0-.53a4.79,4.79,0,0,1,.51-2.12,4.61,4.61,0,0,1,1.34-1.62,4.55,4.55,0,0,1,1.77-.83,4.83,4.83,0,0,1,1.75-.06,4.64,4.64,0,0,1,1.4.46c.19.11.37.21.52.32s.29.22.41.32l.3.29c.08.09.14.17.2.23Z"/><path class="cls-2" d="M185,139.25l.1-.12a2.42,2.42,0,0,1,.3-.33l.25-.2.32-.2a2.82,2.82,0,0,1,.87-.29,3.05,3.05,0,0,1,1.09,0,2.9,2.9,0,0,1,2,1.5,3,3,0,0,1,.33,1.34c0,.11,0,.21,0,.33a2.84,2.84,0,0,1-.06.35,2.78,2.78,0,0,1-.24.64,2.9,2.9,0,0,1-2,1.5,3.06,3.06,0,0,1-1.08,0,2.8,2.8,0,0,1-.87-.29l-.32-.2-.25-.2a2.43,2.43,0,0,1-.3-.33l-.1-.12.11.11a3.07,3.07,0,0,0,.33.29l.26.17.33.16a3.19,3.19,0,0,0,.83.21,2.75,2.75,0,0,0,2-.58,2.64,2.64,0,0,0,.74-.91,2.45,2.45,0,0,0,.21-.57,2.54,2.54,0,0,0,.05-.29c0-.1,0-.21,0-.32a2.66,2.66,0,0,0-1-2.08,2.82,2.82,0,0,0-1-.5,2.45,2.45,0,0,0-.51-.09,2.82,2.82,0,0,0-.49,0,3.18,3.18,0,0,0-.84.22l-.33.16-.26.17a3,3,0,0,0-.33.29Z"/><path class="cls-2" d="M195.08,139.25l-.11-.11a3,3,0,0,0-.33-.29l-.26-.17-.33-.16a3.18,3.18,0,0,0-.84-.22,2.82,2.82,0,0,0-.49,0,2.45,2.45,0,0,0-.51.09,2.82,2.82,0,0,0-1,.5,2.66,2.66,0,0,0-1,2.08c0,.11,0,.22,0,.32a2.54,2.54,0,0,0,.05.29,2.45,2.45,0,0,0,.21.57,2.64,2.64,0,0,0,.74.91,2.75,2.75,0,0,0,2,.58,3.19,3.19,0,0,0,.83-.21l.33-.16.26-.17a3.07,3.07,0,0,0,.33-.29l.11-.11-.1.12a2.43,2.43,0,0,1-.3.33l-.25.2-.32.2a2.8,2.8,0,0,1-.87.29,3.06,3.06,0,0,1-1.08,0,2.9,2.9,0,0,1-2-1.5,2.78,2.78,0,0,1-.24-.64,2.83,2.83,0,0,1-.06-.35c0-.12,0-.22,0-.33a3,3,0,0,1,.33-1.34,2.9,2.9,0,0,1,2-1.5,3.05,3.05,0,0,1,1.09,0,2.82,2.82,0,0,1,.87.29l.32.2.25.2a2.42,2.42,0,0,1,.3.33Z"/><path class="cls-2" d="M187.5,141,186,141l-4.05.06-5.73.05-6.57,0-6.57,0-5.73-.05-4.05-.06-1.54,0,1.54,0,4.05-.06,5.73-.05,6.57,0,6.57,0,5.73.05,4.05.06Z"/><path class="cls-2" d="M228.31,141l-1.54,0-4.05.06-5.73.05-6.57,0-6.57,0-5.73-.05-4.05-.06-1.54,0,1.54,0,4.05-.06,5.73-.05,6.57,0,6.57,0,5.73.05,4.05.06Z"/><path class="cls-3" d="M148.38,76.94a2.66,2.66,0,0,0,1.46,2.25l2.64,1.54a4.15,4.15,0,0,1,2.44,3.73c0,2.31-2,4.42-5.83,4.42-2.85,0-4.75-1.42-4.75-3.35,0-1.5.83-2.17,1.83-2.17s1.27.54,1.27.54a2.51,2.51,0,0,0-.73,1.73c0,1.25.9,2.1,2.5,2.1,1.88,0,3-1.15,3-2.5,0-1-.52-1.79-1.92-2.58l-2.23-1.27a4,4,0,0,1-2.4-3.69c0-2.31,2-4.44,5.58-4.44,3,0,4.94,1.48,4.94,3.54,0,1.46-.77,2.31-2,2.31a1.65,1.65,0,0,1-1.37-.54,2.39,2.39,0,0,0,1-2.1c0-1.17-.81-2.06-2.58-2.06A2.6,2.6,0,0,0,148.38,76.94Z"/><path class="cls-3" d="M156.66,84.38a5.69,5.69,0,0,1,5.58-5.92c2.12,0,3,1.1,3,2.17,0,1.9-2.19,3.15-5.85,3.83a2.86,2.86,0,0,0,3,2.77,4.63,4.63,0,0,0,4.06-2c.27,0,.42.17.33.54-.19.92-2.19,3.08-5.37,3.08C158.64,88.88,156.66,87.19,156.66,84.38Zm2.73-.9c2.54-.6,3.6-1.87,3.6-3.25a.69.69,0,0,0-.73-.73C161.07,79.51,159.62,80.88,159.39,83.48Z"/><path class="cls-3" d="M172.32,86.5c-.87,1.54-2,2.37-3.21,2.37-1.71,0-3.06-1.15-3.06-3.58,0-4.64,2.71-6.83,5.14-6.83a2.71,2.71,0,0,1,2.17.92l1-5.81a3.58,3.58,0,0,0,0-1.79,2.28,2.28,0,0,1,1.08-.19c1.6,0,1.79.6,1.54,2.06l-2,11.58c-.21,1.25.15,1.83.9,1.83a2.89,2.89,0,0,0,2.19-1.81c.27,0,.46.17.4.54a4.23,4.23,0,0,1-3.73,3.08A2.31,2.31,0,0,1,172.32,86.5Zm.6-4.64.19-1a1.51,1.51,0,0,0-1.37-1c-1.42,0-3,2.1-3,5.46,0,1.17.46,1.73,1.23,1.73C171.43,87.07,172.53,83.94,172.93,81.86Z"/><path class="cls-3" d="M184,85.57a9.88,9.88,0,0,1-.94,1.54,3.59,3.59,0,0,1-2.94,1.77,2.2,2.2,0,0,1-2.27-2.42,14,14,0,0,1,.25-2.56l.6-3.46a3.57,3.57,0,0,0,0-1.79,2.28,2.28,0,0,1,1.08-.19c1.6,0,1.79.6,1.54,2.06l-.83,4.81c-.21,1.19.08,1.73.69,1.73s1-.56,1.54-1.4a15.79,15.79,0,0,0,2.1-5.44,3.21,3.21,0,0,0,0-1.58,2.28,2.28,0,0,1,1.08-.19c1.6,0,1.79.6,1.54,2.06l-.81,4.71c-.21,1.25.15,1.83.9,1.83a2.89,2.89,0,0,0,2.19-1.81c.27,0,.46.17.4.54a4.23,4.23,0,0,1-3.73,3.08,2.34,2.34,0,0,1-2.44-2.6C184,86.09,184,85.86,184,85.57Z"/><path class="cls-3" d="M189.37,84.46a5.72,5.72,0,0,1,5.54-6c1.73,0,2.94,1,2.94,2.35S197.13,83,196.05,83a1.08,1.08,0,0,1-1-.5,2.69,2.69,0,0,0,.77-2,.91.91,0,0,0-1-1c-1.29,0-2.79,1.79-2.79,4.54a2.88,2.88,0,0,0,3.06,3.19,4.64,4.64,0,0,0,4-2c.27,0,.42.17.33.54-.21.92-2.15,3.08-5.37,3.08C191.32,88.88,189.37,87.15,189.37,84.46Z"/><path class="cls-3" d="M200.24,78.46l.21-1.12a3.26,3.26,0,0,0,0-1.79,2.28,2.28,0,0,1,1.08-.19c1.6,0,1.81.6,1.54,2.06l-.19,1H205a.71.71,0,0,1,.15.44c0,.35-.25.6-.71.6h-1.69l-1,5.73c-.21,1.15.21,1.83,1.19,1.83a3,3,0,0,0,2.5-1.81c.27,0,.46.19.37.54a4.52,4.52,0,0,1-4,3.08,2.65,2.65,0,0,1-2.75-2.75,12.66,12.66,0,0,1,.23-2.23l.77-4.39H198.7a.71.71,0,0,1-.15-.44c0-.35.25-.6.71-.6Z"/><path class="cls-3" d="M206,80.44a3.52,3.52,0,0,0,0-1.79,2.28,2.28,0,0,1,1.08-.19c1.6,0,1.79.6,1.54,2.06l-.81,4.71c-.21,1.25.15,1.83.9,1.83a2.89,2.89,0,0,0,2.19-1.81c.27,0,.46.17.39.54a4.23,4.23,0,0,1-3.73,3.08,2.34,2.34,0,0,1-2.44-2.6,12.06,12.06,0,0,1,.19-2Zm2.19-6.6a1.24,1.24,0,0,1,1.29,1.31,1.46,1.46,0,0,1-1.5,1.44,1.19,1.19,0,0,1-1.25-1.25A1.47,1.47,0,0,1,208.22,73.84Z"/><path class="cls-3" d="M223,83.53c.21.15.17.4-.06.6a2.72,2.72,0,0,1-1.75.44,4.23,4.23,0,0,1-2-.48,13.4,13.4,0,0,1-1.27,2.58,4.43,4.43,0,0,1-3.58,2.21c-2.1,0-3.4-1.54-3.4-4a21.29,21.29,0,0,1,.31-3.44l.17-1a3.84,3.84,0,0,0,0-1.79,2.29,2.29,0,0,1,1.08-.19c1.6,0,1.79.63,1.54,2.06l-.31,1.77a13.94,13.94,0,0,0-.23,2.17c0,1.71.58,2.6,1.73,2.6s2.52-1.44,2.89-4a5.71,5.71,0,0,1-.92-3.08,1.41,1.41,0,0,1,1.42-1.54c.71,0,1.31.42,1.31,1.56a12.49,12.49,0,0,1-.44,3.06,2.43,2.43,0,0,0,1.94.65A4.33,4.33,0,0,0,223,83.53Z"/><path class="cls-3" d="M230,80.65c0,2.29-3.12,3.27-5.85,3.81a3,3,0,0,0,3.12,2.77,2.27,2.27,0,0,0,2-.87c.25,0,.38.13.33.37-.15.9-1.54,2.15-3.62,2.15a4.3,4.3,0,0,1-4.5-4.52,5.68,5.68,0,0,1,5.5-5.89C229.2,78.46,230,79.53,230,80.65Zm-5.85,2.83c2.54-.6,3.62-1.9,3.62-3.21a.69.69,0,0,0-.75-.77C225.7,79.51,224.38,81.17,224.18,83.48Z"/></svg>