<svg xmlns="http://www.w3.org/2000/svg" viewBox="0 0 375 667"><title>-</title><path d="M69.06,294.59c.31,0,.46.19.4.56a4,4,0,0,1-3.67,3.06c-1.31,0-2.33-.71-3-3.12l-.77-3c-2.1,1.89-2.92,3.37-2.92,5.39a1.92,1.92,0,0,0,.13.75,2.52,2.52,0,0,1-.85.19c-1.06,0-1.6-.5-1.6-1.39,0-1.42,1-2.52,4.08-5.46l.83-.79-1.79-7c-1.73.08-2.56,1.06-2.56,2.23,0,.58.31,1,.83,1a.85.85,0,0,0,.35-.06.65.65,0,0,1,0,.19c0,.5-.52,1.17-1.58,1.17a2,2,0,0,1-2.19-2.08c0-2.06,1.9-3.56,5.25-3.56h.67a1.87,1.87,0,0,1,2.17,1.6l1.17,4.52c2.08-1.87,2.9-3.35,2.9-5.37a1.93,1.93,0,0,0-.12-.75,2.52,2.52,0,0,1,.85-.19c1.06,0,1.6.5,1.6,1.39,0,1.42-.94,2.48-4.08,5.46l-.81.77,1.23,4.73c.29,1.1.6,1.64,1.33,1.64C68.12,296.4,69.06,294.59,69.06,294.59Z" style="fill:#fff;stroke:#000;stroke-miterlimit:10;stroke-width:0.5px"/><path d="M77.83,291.78a8.8,8.8,0,0,1-.1,1.31,4.15,4.15,0,0,0,2.52-1.62c.27,0,.42.21.38.52-.12.73-1.44,1.85-3.1,2.06a5.43,5.43,0,0,1-5.46,4.17,3.64,3.64,0,0,1-3.83-4c0-3.77,2.21-6.44,5.77-6.44A3.63,3.63,0,0,1,77.83,291.78Zm-2.69-1.36c-.1-1-.58-1.6-1.35-1.6-1,0-2.12,1.06-2.71,4.17a15.2,15.2,0,0,0-.19,2.14c0,1.31.5,2,1.38,2,1.12,0,2.06-1.19,2.6-3.69a2,2,0,0,1-.79-1.64A1.35,1.35,0,0,1,75.15,290.42Z" style="fill:#fff;stroke:#000;stroke-miterlimit:10;stroke-width:0.5px"/><path d="M80.15,288a2.28,2.28,0,0,1,1.08-.19c1.6,0,1.81.6,1.54,2.06l-.52,2.73c-.23,1.25.1,1.73.67,1.73s1-.46,1.65-1.37a9,9,0,0,0,1.4-3.5,2.84,2.84,0,0,0,0-1.46A2.28,2.28,0,0,1,87,287.8c1.6,0,1.79.6,1.54,2.06l-.81,4.71c-.21,1.25.15,1.83.9,1.83a2.89,2.89,0,0,0,2.19-1.81c.27,0,.46.17.4.54a4.23,4.23,0,0,1-3.73,3.08,2.34,2.34,0,0,1-2.44-2.6,13.12,13.12,0,0,1,.17-1.9,4.1,4.1,0,0,1-3.37,2.42,2.19,2.19,0,0,1-2.25-2.42,22.15,22.15,0,0,1,.52-3.94A3.56,3.56,0,0,0,80.15,288Z" style="fill:#fff;stroke:#000;stroke-miterlimit:10;stroke-width:0.5px"/><path d="M90.42,293.71A5.69,5.69,0,0,1,96,287.8c2.12,0,3,1.1,3,2.17,0,1.89-2.19,3.14-5.85,3.83a2.86,2.86,0,0,0,3,2.77,4.64,4.64,0,0,0,4.06-2c.27,0,.42.17.33.54-.19.92-2.19,3.08-5.37,3.08C92.4,298.21,90.42,296.53,90.42,293.71Zm2.73-.89c2.54-.61,3.6-1.87,3.6-3.25a.69.69,0,0,0-.73-.73C94.83,288.84,93.38,290.22,93.15,292.82Z" style="fill:#fff;stroke:#000;stroke-miterlimit:10;stroke-width:0.5px"/><path d="M117.39,295.13a4.23,4.23,0,0,1-3.73,3.08,2.34,2.34,0,0,1-2.44-2.6v-.12c-.17.31-.33.63-.52.92a3.18,3.18,0,0,1-2.81,1.81,2.21,2.21,0,0,1-2.27-2.42v-.31a7.86,7.86,0,0,1-.52.92,3.18,3.18,0,0,1-2.81,1.81A2.21,2.21,0,0,1,100,295.8a13.87,13.87,0,0,1,.25-2.56l.6-3.46a3.56,3.56,0,0,0,0-1.79,2.29,2.29,0,0,1,1.08-.19c1.6,0,1.79.6,1.54,2.06l-.83,4.81c-.23,1.27,0,1.73.58,1.73s.92-.4,1.42-1.33a18.12,18.12,0,0,0,1.83-5.54,2.81,2.81,0,0,0,0-1.54,2.28,2.28,0,0,1,1.08-.19c1.6,0,1.79.6,1.54,2.06l-.83,4.81c-.23,1.27,0,1.73.58,1.73s.92-.4,1.42-1.33a18.11,18.11,0,0,0,1.83-5.54,2.81,2.81,0,0,0,0-1.54,2.29,2.29,0,0,1,1.08-.19c1.6,0,1.79.6,1.54,2.06l-.81,4.71c-.21,1.25.15,1.83.9,1.83a2.89,2.89,0,0,0,2.19-1.81C117.27,294.59,117.46,294.76,117.39,295.13Z" style="fill:#fff;stroke:#000;stroke-miterlimit:10;stroke-width:0.5px"/><path d="M116.79,294.86a9.89,9.89,0,0,1,.15-1.5l.65-3.58a3.56,3.56,0,0,0,0-1.79,2.29,2.29,0,0,1,1.08-.19c1.6,0,1.79.6,1.54,2.06l-.19,1.06a4.51,4.51,0,0,1,2-.44c1.94,0,3.29,1.15,3.29,3a4.62,4.62,0,0,1-4.94,4.77C118.06,298.21,116.79,296.9,116.79,294.86Zm2.69-.69a10,10,0,0,0-.15,1.63c0,.81.42,1.38,1.21,1.38,1.17,0,2.17-1.29,2.17-3.81,0-1.1-.56-1.62-1.44-1.62a2.17,2.17,0,0,0-1.5.69Z" style="fill:#fff;stroke:#000;stroke-miterlimit:10;stroke-width:0.5px"/><path d="M140.1,296.46a15.72,15.72,0,0,0,3.4-1.87.37.37,0,0,1,.4.48c0,.21-.27.44-.69.75a22.87,22.87,0,0,1-3.31,1.92l0,.25c-.81,4.83-2.75,7.52-5.83,7.52a2.14,2.14,0,0,1-2.33-2.19,4.41,4.41,0,0,1,1.75-3.23,17,17,0,0,1,3.81-2.36l.44-2.69a12.46,12.46,0,0,1-.85,1.39,3.59,3.59,0,0,1-2.94,1.77,2.21,2.21,0,0,1-2.27-2.42,14,14,0,0,1,.25-2.56l.6-3.46a3.56,3.56,0,0,0,0-1.79,2.29,2.29,0,0,1,1.08-.19c1.6,0,1.79.6,1.54,2.06l-.83,4.81c-.21,1.21.08,1.73.69,1.73s1-.56,1.54-1.4a15.62,15.62,0,0,0,2.06-5.23,3.26,3.26,0,0,0,0-1.79,2.28,2.28,0,0,1,1.08-.19c1.6,0,1.79.6,1.54,2.06ZM137,299a12.55,12.55,0,0,0-2.94,1.92,3.25,3.25,0,0,0-1.23,2.23.87.87,0,0,0,1,.94C135.29,304.13,136.42,302.38,137,299Z" style="fill:#fff;stroke:#000;stroke-miterlimit:10;stroke-width:0.5px"/><path d="M143.5,293.88a17.56,17.56,0,0,1,2.77-9.39c1.48-2.37,3.4-3.56,5.29-3.56s2.81,1,2.81,2.67-.71,3.21-3.42,5.06a3.36,3.36,0,0,1,2.17,3.46,7.5,7.5,0,0,1-.06,1,4.16,4.16,0,0,0,2.46-1.62c.27,0,.42.21.38.52-.12.71-1.4,1.81-3,2a5.49,5.49,0,0,1-5.44,4.19C145,298.21,143.5,296.78,143.5,293.88Zm6.71-.33a2,2,0,0,1-.85-1.71,1.36,1.36,0,0,1,1-1.42,2.09,2.09,0,0,0-.48-1.14,25.58,25.58,0,0,1-3.21,1.31,21.56,21.56,0,0,0-.54,4.46c0,1.56.54,2.13,1.44,2.13C148.71,297.17,149.75,295.65,150.21,293.55ZM148,286.15a28,28,0,0,0-1,3.25c3.12-1.48,5.06-4.5,5.06-6.54a.78.78,0,0,0-.81-.89C150.29,282,148.92,283.82,148,286.15Z" style="fill:#fff;stroke:#000;stroke-miterlimit:10;stroke-width:0.5px"/><path d="M160.92,294.9a9.72,9.72,0,0,1-.94,1.54,3.59,3.59,0,0,1-2.94,1.77,2.21,2.21,0,0,1-2.27-2.42,14,14,0,0,1,.25-2.56l.6-3.46a3.56,3.56,0,0,0,0-1.79,2.29,2.29,0,0,1,1.08-.19c1.6,0,1.79.6,1.54,2.06l-.83,4.81c-.21,1.19.08,1.73.69,1.73s1-.56,1.54-1.4a15.75,15.75,0,0,0,2.1-5.44,3.2,3.2,0,0,0,0-1.58,2.28,2.28,0,0,1,1.08-.19c1.6,0,1.79.6,1.54,2.06l-.81,4.71c-.21,1.25.15,1.83.9,1.83a2.89,2.89,0,0,0,2.19-1.81c.27,0,.46.17.4.54a4.23,4.23,0,0,1-3.73,3.08,2.34,2.34,0,0,1-2.44-2.6C160.9,295.42,160.9,295.19,160.92,294.9Z" style="fill:#fff;stroke:#000;stroke-miterlimit:10;stroke-width:0.5px"/><path d="M174.87,296.46a15.72,15.72,0,0,0,3.4-1.87.37.37,0,0,1,.4.48c0,.21-.27.44-.69.75a22.87,22.87,0,0,1-3.31,1.92l0,.25c-.81,4.83-2.75,7.52-5.83,7.52a2.14,2.14,0,0,1-2.33-2.19,4.41,4.41,0,0,1,1.75-3.23,16.08,16.08,0,0,1,3.81-2.36l.25-1.48a3.65,3.65,0,0,1-3,2c-1.71,0-3.06-1.15-3.06-3.58,0-4.65,2.71-6.83,5.14-6.83a2.73,2.73,0,0,1,2.25,1c.33-.75.85-1,1.87-1a2.11,2.11,0,0,1,1,.21,3.65,3.65,0,0,0-.48,1.5ZM171.79,299a12.11,12.11,0,0,0-2.94,1.92,3.25,3.25,0,0,0-1.23,2.23.87.87,0,0,0,1,.94C170,304.13,171.17,302.38,171.79,299Zm1.33-7.85.19-1a1.51,1.51,0,0,0-1.37-1c-1.42,0-3,2.1-3,5.46,0,1.17.46,1.73,1.23,1.73C171.62,296.4,172.73,293.28,173.12,291.2Z" style="fill:#fff;stroke:#000;stroke-miterlimit:10;stroke-width:0.5px"/><path d="M177.85,293.71a5.69,5.69,0,0,1,5.58-5.91c2.12,0,3,1.1,3,2.17,0,1.89-2.19,3.14-5.85,3.83a2.86,2.86,0,0,0,3,2.77,4.64,4.64,0,0,0,4.06-2c.27,0,.42.17.33.54-.19.92-2.19,3.08-5.37,3.08C179.83,298.21,177.85,296.53,177.85,293.71Zm2.73-.89c2.54-.61,3.6-1.87,3.6-3.25a.69.69,0,0,0-.73-.73C182.27,288.84,180.81,290.22,180.58,292.82Z" style="fill:#fff;stroke:#000;stroke-miterlimit:10;stroke-width:0.5px"/><path d="M204.43,294.59c.27,0,.46.17.4.54a4.27,4.27,0,0,1-3.67,3.08,2.4,2.4,0,0,1-2.52-2.6,19.12,19.12,0,0,1,.31-2.37l.4-2.29c.17-1,0-1.31-.5-1.31-1.06,0-2.67,3-3.31,6.6a3.56,3.56,0,0,0,0,1.79,2.28,2.28,0,0,1-1.08.19c-1.6,0-1.79-.61-1.54-2.06l.92-5.21c.17-.9,0-1.31-.48-1.31-1,0-2.65,2.75-3.33,6.6a3.57,3.57,0,0,0,0,1.79,2.28,2.28,0,0,1-1.08.19c-1.6,0-1.79-.61-1.54-2.06l1.1-6.37a3.56,3.56,0,0,0,0-1.79,2.28,2.28,0,0,1,1.08-.19c1.6,0,1.79.6,1.54,2.06l-.08.5c.69-1.14,1.92-2.56,3.35-2.56a2,2,0,0,1,2.17,2.17c0,.14,0,.29,0,.46.67-1.19,1.94-2.62,3.42-2.62a2,2,0,0,1,2.15,2.14,11.31,11.31,0,0,1-.19,1.69l-.5,2.94c-.21,1.23.1,1.83.85,1.83A2.72,2.72,0,0,0,204.43,294.59Z" style="fill:#fff;stroke:#000;stroke-miterlimit:10;stroke-width:0.5px"/><path d="M204.23,294.86a9.77,9.77,0,0,1,.15-1.5l.65-3.58a3.55,3.55,0,0,0,0-1.79,2.28,2.28,0,0,1,1.08-.19c1.6,0,1.79.6,1.54,2.06l-.19,1.06a4.5,4.5,0,0,1,2-.44c1.94,0,3.29,1.15,3.29,3a4.62,4.62,0,0,1-4.94,4.77C205.5,298.21,204.23,296.9,204.23,294.86Zm2.69-.69a10,10,0,0,0-.15,1.63c0,.81.42,1.38,1.21,1.38,1.17,0,2.17-1.29,2.17-3.81,0-1.1-.56-1.62-1.44-1.62a2.17,2.17,0,0,0-1.5.69Z" style="fill:#fff;stroke:#000;stroke-miterlimit:10;stroke-width:0.5px"/><path d="M227.48,296.46a15.71,15.71,0,0,0,3.39-1.87.38.38,0,0,1,.4.48c0,.21-.27.44-.69.75a22.86,22.86,0,0,1-3.31,1.92l0,.25c-.81,4.83-2.75,7.52-5.83,7.52a2.14,2.14,0,0,1-2.33-2.19,4.41,4.41,0,0,1,1.75-3.23,16.08,16.08,0,0,1,3.81-2.36l.25-1.48a3.65,3.65,0,0,1-3,2c-1.71,0-3.06-1.15-3.06-3.58,0-4.65,2.71-6.83,5.14-6.83a2.73,2.73,0,0,1,2.25,1c.33-.75.85-1,1.87-1a2.11,2.11,0,0,1,1,.21,3.64,3.64,0,0,0-.48,1.5ZM224.39,299a12.12,12.12,0,0,0-2.94,1.92,3.25,3.25,0,0,0-1.23,2.23.87.87,0,0,0,1,.94C222.64,304.13,223.77,302.38,224.39,299Zm1.33-7.85.19-1a1.51,1.51,0,0,0-1.37-1c-1.42,0-3,2.1-3,5.46,0,1.17.46,1.73,1.23,1.73C224.23,296.4,225.33,293.28,225.73,291.2Z" style="fill:#fff;stroke:#000;stroke-miterlimit:10;stroke-width:0.5px"/><path d="M230.87,293.88a17.56,17.56,0,0,1,2.77-9.39c1.48-2.37,3.4-3.56,5.29-3.56s2.81,1,2.81,2.67-.71,3.21-3.42,5.06a3.36,3.36,0,0,1,2.17,3.46,7.41,7.41,0,0,1-.06,1,4.16,4.16,0,0,0,2.46-1.62c.27,0,.42.21.38.52-.12.71-1.4,1.81-3,2a5.49,5.49,0,0,1-5.44,4.19C232.35,298.21,230.87,296.78,230.87,293.88Zm6.71-.33a2,2,0,0,1-.85-1.71,1.36,1.36,0,0,1,1-1.42,2.09,2.09,0,0,0-.48-1.14,25.64,25.64,0,0,1-3.21,1.31,21.59,21.59,0,0,0-.54,4.46c0,1.56.54,2.13,1.44,2.13C236.08,297.17,237.12,295.65,237.58,293.55Zm-2.19-7.39a28.06,28.06,0,0,0-1,3.25c3.12-1.48,5.06-4.5,5.06-6.54a.78.78,0,0,0-.81-.89C237.66,282,236.29,283.82,235.39,286.15Z" style="fill:#fff;stroke:#000;stroke-miterlimit:10;stroke-width:0.5px"/><path d="M250.89,294.46c-.27,1.48.08,1.94.63,1.94a.86.86,0,0,0,.79-.58c.29,0,.44.23.4.61a2.36,2.36,0,0,1-2.42,1.79,2.17,2.17,0,0,1-2.1-2.33c-.87,1.52-2,2.33-3.19,2.33-1.71,0-3.06-1.15-3.06-3.58,0-4.65,2.71-6.83,5.14-6.83a2.73,2.73,0,0,1,2.25,1c.33-.75.85-1,1.87-1a2.11,2.11,0,0,1,1,.21,4.1,4.1,0,0,0-.48,1.5Zm-2.08-3.27.19-1a1.51,1.51,0,0,0-1.37-1c-1.42,0-3,2.1-3,5.46,0,1.17.46,1.73,1.23,1.73C247.31,296.4,248.41,293.28,248.81,291.2Z" style="fill:#fff;stroke:#000;stroke-miterlimit:10;stroke-width:0.5px"/><path d="M258.14,293.8a5.72,5.72,0,0,1,5.54-6c1.73,0,2.94,1,2.94,2.35s-.71,2.17-1.79,2.17a1.08,1.08,0,0,1-1-.5,2.69,2.69,0,0,0,.77-2,.91.91,0,0,0-1-1c-1.29,0-2.79,1.79-2.79,4.54a2.88,2.88,0,0,0,3.06,3.19,4.64,4.64,0,0,0,4-2c.27,0,.42.17.33.54-.21.92-2.15,3.08-5.37,3.08C260.1,298.21,258.14,296.49,258.14,293.8Z" style="fill:#fff;stroke:#000;stroke-miterlimit:10;stroke-width:0.5px"/><path d="M276.48,294.57c-.23,1.25.15,1.83.9,1.83a2.89,2.89,0,0,0,2.19-1.81c.27,0,.46.17.4.54a4.23,4.23,0,0,1-3.73,3.08,2.32,2.32,0,0,1-2.44-2.35c-.85,1.54-2,2.35-3.19,2.35-1.71,0-3.06-1.15-3.06-3.58,0-4.65,2.71-6.83,5.14-6.83a2.73,2.73,0,0,1,2.25,1c.33-.75.85-1,1.87-1a2.11,2.11,0,0,1,1,.21,4.1,4.1,0,0,0-.48,1.5Zm-2.06-3.37.19-1a1.51,1.51,0,0,0-1.37-1c-1.42,0-3,2.1-3,5.46,0,1.17.46,1.73,1.23,1.73C272.91,296.4,274,293.28,274.41,291.2Z" style="fill:#fff;stroke:#000;stroke-miterlimit:10;stroke-width:0.5px"/><path d="M285.43,287.8a1.45,1.45,0,0,1,1.6,1.64l.12,5.94,2.4-5.12a9.2,9.2,0,0,0,.83-2.27,2.28,2.28,0,0,1,1.08-.19c1.6,0,1.79.6,1.54,2.06l-.81,4.71c-.21,1.25.15,1.83.9,1.83a2.89,2.89,0,0,0,2.19-1.81c.27,0,.46.17.4.54a4.23,4.23,0,0,1-3.73,3.08,2.34,2.34,0,0,1-2.44-2.6,14.17,14.17,0,0,1,.19-2l.33-2-2.1,4.56a10.3,10.3,0,0,0-.62,1.69,1.88,1.88,0,0,1-1.15.31c-1,0-1.56-.67-1.6-2l-.12-4.71-1.15,3.89c-.56,1.94-1.46,2.83-2.81,2.83a1.91,1.91,0,0,1-2-2,1.73,1.73,0,0,1,1.63-1.89,1.48,1.48,0,0,1,1,.29,2.5,2.5,0,0,0-.33,1.17c0,.42.25.65.52.65s.71-.37,1-1.42l1.17-4.08A8.53,8.53,0,0,0,284,288,6.86,6.86,0,0,1,285.43,287.8Z" style="fill:#fff;stroke:#000;stroke-miterlimit:10;stroke-width:0.5px"/><path d="M295.08,294.86a9.77,9.77,0,0,1,.15-1.5l.65-3.58a3.55,3.55,0,0,0,0-1.79,2.28,2.28,0,0,1,1.08-.19c1.6,0,1.79.6,1.54,2.06l-.19,1.06a4.5,4.5,0,0,1,2-.44c1.94,0,3.29,1.15,3.29,3a4.62,4.62,0,0,1-4.94,4.77C296.35,298.21,295.08,296.9,295.08,294.86Zm2.69-.69a10,10,0,0,0-.15,1.63c0,.81.42,1.38,1.21,1.38,1.17,0,2.17-1.29,2.17-3.81,0-1.1-.56-1.62-1.44-1.62a2.17,2.17,0,0,0-1.5.69Zm7.77-4.39a3.55,3.55,0,0,0,0-1.79,2.29,2.29,0,0,1,1.08-.19c1.6,0,1.79.6,1.54,2.06l-.79,4.6c-.25,1.5.08,1.94.63,1.94a.86.86,0,0,0,.79-.58c.29,0,.44.23.4.61a2.35,2.35,0,0,1-2.42,1.79,2.2,2.2,0,0,1-2.1-2.46,12,12,0,0,1,.19-2.12Z" style="fill:#fff;stroke:#000;stroke-miterlimit:10;stroke-width:0.5px"/><path d="M313,295.24l-.27-.81-.42.29a3.19,3.19,0,0,0-1.42,2.71,2.11,2.11,0,0,0,.08.6,1.56,1.56,0,0,1-.79.19c-.83,0-1.21-.44-1.21-1.1s.4-1.5,1.92-2.6l1.52-1.11-1-3.14c-.23-.69-.44-1-.83-1a.81.81,0,0,0-.4.1,1,1,0,0,1,0-.27,1.49,1.49,0,0,1,1.65-1.31c1.1,0,1.63.33,2,1.54l.81,2.48.73-.52a3.18,3.18,0,0,0,1.42-2.71,2.1,2.1,0,0,0-.08-.6,1.56,1.56,0,0,1,.79-.19c.83,0,1.21.44,1.21,1.1s-.4,1.5-1.92,2.6L315,292.82l.58,1.71c.44,1.29,1,1.88,1.79,1.88a1,1,0,0,0,.92-.58c.29,0,.42.25.38.58a2.35,2.35,0,0,1-2.44,1.81C314.83,298.21,313.77,297.4,313,295.24Z" style="fill:#fff;stroke:#000;stroke-miterlimit:10;stroke-width:0.5px"/><path d="M87.85,315.95c.17-1,0-1.31-.5-1.31-1.31,0-3.29,3.1-3.94,6.6a3.57,3.57,0,0,0,0,1.79,2.28,2.28,0,0,1-1.08.19c-1.6,0-1.79-.61-1.54-2.06l1.1-6.37a3.55,3.55,0,0,0,0-1.79A2.28,2.28,0,0,1,83,312.8c1.6,0,1.79.6,1.54,2.06l-.17,1c.81-1.35,2.4-3,4.08-3a2,2,0,0,1,2.15,2.14,11.25,11.25,0,0,1-.19,1.69l-.5,2.94c-.19,1,0,1.83.85,1.83s1.65-.73,2.19-1.81c.27,0,.46.17.4.54a4.25,4.25,0,0,1-3.67,3.08,2.4,2.4,0,0,1-2.52-2.6,18.18,18.18,0,0,1,.31-2.37Z" style="fill:#fff;stroke:#000;stroke-miterlimit:10;stroke-width:0.5px"/><path d="M102.62,319.07h-.33c-.81,2.58-2.73,4.14-4.75,4.14a3.24,3.24,0,0,1-2.42-1L94,328.53a3.55,3.55,0,0,0,0,1.79,2.28,2.28,0,0,1-1.08.19c-1.6,0-1.79-.6-1.54-2.06l2.37-13.66a3.56,3.56,0,0,0,0-1.79,2.28,2.28,0,0,1,1.08-.19c1.6,0,1.79.6,1.54,2.06l-.06.38c.88-1.58,2-2.44,3.35-2.44,1.94,0,3,1.38,3,3.54a11,11,0,0,1-.19,1.89H103a7.1,7.1,0,0,0,2.29-.37c.21.15.17.5-.06.71A4.7,4.7,0,0,1,102.62,319.07Zm-7.14,1-.15.79a1.78,1.78,0,0,0,1.58.9c1.17,0,2.29-1.36,2.81-3.35a1.83,1.83,0,0,1-.79-1.6,1.36,1.36,0,0,1,1-1.42c-.12-.71-.48-1-1-1s-1.23.52-1.94,1.64A11.64,11.64,0,0,0,95.48,320.11Z" style="fill:#fff;stroke:#000;stroke-miterlimit:10;stroke-width:0.5px"/><path d="M104.15,318.71a5.69,5.69,0,0,1,5.58-5.91c2.12,0,3,1.1,3,2.17,0,1.89-2.19,3.14-5.85,3.83a2.86,2.86,0,0,0,3,2.77,4.64,4.64,0,0,0,4.06-2c.27,0,.42.17.33.54-.19.92-2.19,3.08-5.37,3.08C106.13,323.21,104.15,321.53,104.15,318.71Zm2.73-.89c2.54-.61,3.6-1.87,3.6-3.25a.69.69,0,0,0-.73-.73C108.56,313.84,107.1,315.22,106.88,317.82Z" style="fill:#fff;stroke:#000;stroke-miterlimit:10;stroke-width:0.5px"/><path d="M116.9,317.76h.83c.58,0,1-.69,1.25-1.19l.81-1.67c.83-1.69,1.5-2.1,2.4-2.1a1.29,1.29,0,0,1,1.35,1.42,1.89,1.89,0,0,1-.73,1.44,1,1,0,0,0-1-.75c-.62,0-1.08.46-1.46,1.25l-.35.75a2.34,2.34,0,0,1-.73.94,1.91,1.91,0,0,1,1.42,1.36l.23.73c.29,1,.71,1.48,1.56,1.48a2.88,2.88,0,0,0,2.23-1.81c.27,0,.46.17.4.54a4.28,4.28,0,0,1-3.73,3.08,2.93,2.93,0,0,1-2.9-2.44l-.33-1.1c-.17-.58-.44-.9-1-.9h-.44l-.42,2.46a3.57,3.57,0,0,0,0,1.79,2.28,2.28,0,0,1-1.08.19c-1.6,0-1.79-.61-1.54-2.06l1.1-6.37a3.55,3.55,0,0,0,0-1.79,2.28,2.28,0,0,1,1.08-.19c1.6,0,1.79.6,1.54,2.06Z" style="fill:#fff;stroke:#000;stroke-miterlimit:10;stroke-width:0.5px"/><path d="M128.1,315.24c.88-1.58,2-2.44,3.35-2.44,1.94,0,3,1.38,3,3.54a9.19,9.19,0,0,1-.17,1.75,4.06,4.06,0,0,0,2.58-1.62c.27,0,.42.21.38.52-.12.73-1.48,1.9-3.19,2.06-.81,2.6-2.73,4.17-4.75,4.17a3.24,3.24,0,0,1-2.42-1l-1.1,6.33a3.55,3.55,0,0,0,0,1.79,2.28,2.28,0,0,1-1.08.19c-1.6,0-1.79-.6-1.54-2.06l2.37-13.66a3.56,3.56,0,0,0,0-1.79,2.28,2.28,0,0,1,1.08-.19c1.6,0,1.79.58,1.54,2.06Zm3.65.19c-.12-.71-.48-1-1-1s-1.23.52-1.94,1.64a11.64,11.64,0,0,0-1.54,4.06l-.15.79a1.78,1.78,0,0,0,1.58.9c1.15,0,2.27-1.33,2.79-3.31a2,2,0,0,1-.77-1.64A1.36,1.36,0,0,1,131.75,315.42Z" style="fill:#fff;stroke:#000;stroke-miterlimit:10;stroke-width:0.5px"/><path d="M144.85,319.57c-.23,1.25.15,1.83.9,1.83a2.89,2.89,0,0,0,2.19-1.81c.27,0,.46.17.4.54a4.23,4.23,0,0,1-3.73,3.08,2.32,2.32,0,0,1-2.44-2.35c-.85,1.54-2,2.35-3.19,2.35-1.71,0-3.06-1.15-3.06-3.58,0-4.65,2.71-6.83,5.14-6.83a2.73,2.73,0,0,1,2.25,1c.33-.75.85-1,1.87-1a2.11,2.11,0,0,1,1,.21,4.12,4.12,0,0,0-.48,1.5Zm-2.06-3.37.19-1a1.51,1.51,0,0,0-1.37-1c-1.42,0-3,2.1-3,5.46,0,1.17.46,1.73,1.23,1.73C141.29,321.4,142.4,318.28,142.79,316.2Z" style="fill:#fff;stroke:#000;stroke-miterlimit:10;stroke-width:0.5px"/><path d="M147.52,318.8a5.72,5.72,0,0,1,5.54-6c1.73,0,2.94,1,2.94,2.35s-.71,2.17-1.79,2.17a1.08,1.08,0,0,1-1-.5,2.69,2.69,0,0,0,.77-2,.91.91,0,0,0-1-1c-1.29,0-2.79,1.79-2.79,4.54a2.88,2.88,0,0,0,3.06,3.19,4.64,4.64,0,0,0,4-2c.27,0,.42.17.33.54-.21.92-2.15,3.08-5.37,3.08C149.48,323.21,147.52,321.49,147.52,318.8Z" style="fill:#fff;stroke:#000;stroke-miterlimit:10;stroke-width:0.5px"/><path d="M169,319.59c.27,0,.46.17.4.54a4.23,4.23,0,0,1-3.73,3.08,2.34,2.34,0,0,1-2.44-2.6,12.56,12.56,0,0,1,.19-2H160.1l-.44,2.6a3.57,3.57,0,0,0,0,1.79,2.28,2.28,0,0,1-1.08.19c-1.6,0-1.79-.61-1.54-2.06l1.1-6.37a3.55,3.55,0,0,0,0-1.79,2.28,2.28,0,0,1,1.08-.19c1.6,0,1.79.6,1.54,2.06l-.48,2.73h3.33l.5-2.81a3.55,3.55,0,0,0,0-1.79,2.28,2.28,0,0,1,1.08-.19c1.6,0,1.79.6,1.54,2.06l-.81,4.71c-.21,1.23.15,1.83.9,1.83A2.89,2.89,0,0,0,169,319.59Z" style="fill:#fff;stroke:#000;stroke-miterlimit:10;stroke-width:0.5px"/><path d="M168.83,319.86a9.89,9.89,0,0,1,.15-1.5l.65-3.58a3.56,3.56,0,0,0,0-1.79,2.29,2.29,0,0,1,1.08-.19c1.6,0,1.79.6,1.54,2.06l-.19,1.06a4.51,4.51,0,0,1,2-.44c1.94,0,3.29,1.15,3.29,3a4.62,4.62,0,0,1-4.94,4.77C170.1,323.21,168.83,321.9,168.83,319.86Zm2.69-.69a10,10,0,0,0-.15,1.63c0,.81.42,1.38,1.21,1.38,1.17,0,2.17-1.29,2.17-3.81,0-1.1-.56-1.62-1.44-1.62a2.17,2.17,0,0,0-1.5.69Zm7.77-4.39a3.55,3.55,0,0,0,0-1.79,2.28,2.28,0,0,1,1.08-.19c1.6,0,1.79.6,1.54,2.06l-.79,4.6c-.25,1.5.08,1.94.62,1.94a.86.86,0,0,0,.79-.58c.29,0,.44.23.4.61a2.36,2.36,0,0,1-2.42,1.79,2.2,2.2,0,0,1-2.1-2.46,12.07,12.07,0,0,1,.19-2.12Z" style="fill:#fff;stroke:#000;stroke-miterlimit:10;stroke-width:0.5px"/><path d="M186.79,320.24l-.27-.81-.42.29a3.18,3.18,0,0,0-1.42,2.71,2.13,2.13,0,0,0,.08.6,1.56,1.56,0,0,1-.79.19c-.83,0-1.21-.44-1.21-1.1s.4-1.5,1.92-2.6l1.52-1.11-1-3.14c-.23-.69-.44-1-.83-1a.82.82,0,0,0-.4.1,1,1,0,0,1,0-.27,1.49,1.49,0,0,1,1.65-1.31c1.1,0,1.62.33,2,1.54l.81,2.48.73-.52a3.18,3.18,0,0,0,1.42-2.71,2.1,2.1,0,0,0-.08-.6,1.56,1.56,0,0,1,.79-.19c.83,0,1.21.44,1.21,1.1s-.4,1.5-1.92,2.6l-1.81,1.31.58,1.71c.44,1.29,1,1.88,1.79,1.88a1,1,0,0,0,.92-.58c.29,0,.42.25.38.58a2.35,2.35,0,0,1-2.44,1.81C188.58,323.21,187.52,322.4,186.79,320.24Z" style="fill:#fff;stroke:#000;stroke-miterlimit:10;stroke-width:0.5px"/><path d="M215.08,319.59c.27,0,.46.17.4.54a4.27,4.27,0,0,1-3.67,3.08,2.4,2.4,0,0,1-2.52-2.6,19.12,19.12,0,0,1,.31-2.37l.4-2.29c.17-1,0-1.31-.5-1.31-1.06,0-2.67,3-3.31,6.6a3.56,3.56,0,0,0,0,1.79,2.28,2.28,0,0,1-1.08.19c-1.6,0-1.79-.61-1.54-2.06l.92-5.21c.17-.9,0-1.31-.48-1.31-1,0-2.65,2.75-3.33,6.6a3.57,3.57,0,0,0,0,1.79,2.28,2.28,0,0,1-1.08.19c-1.6,0-1.79-.61-1.54-2.06l1.1-6.37a3.56,3.56,0,0,0,0-1.79,2.28,2.28,0,0,1,1.08-.19c1.6,0,1.79.6,1.54,2.06l-.08.5c.69-1.14,1.92-2.56,3.35-2.56a2,2,0,0,1,2.17,2.17c0,.14,0,.29,0,.46.67-1.19,1.94-2.62,3.42-2.62a2,2,0,0,1,2.15,2.14,11.31,11.31,0,0,1-.19,1.69l-.5,2.94c-.21,1.23.1,1.83.85,1.83A2.72,2.72,0,0,0,215.08,319.59Z" style="fill:#fff;stroke:#000;stroke-miterlimit:10;stroke-width:0.5px"/><path d="M215.08,318.88a17.56,17.56,0,0,1,2.77-9.39c1.48-2.37,3.4-3.56,5.29-3.56s2.81,1,2.81,2.67-.71,3.21-3.42,5.06a3.36,3.36,0,0,1,2.17,3.46,7.41,7.41,0,0,1-.06,1,4.16,4.16,0,0,0,2.46-1.62c.27,0,.42.21.38.52-.12.71-1.4,1.81-3,2a5.49,5.49,0,0,1-5.44,4.19C216.56,323.21,215.08,321.78,215.08,318.88Zm6.71-.33a2,2,0,0,1-.85-1.71,1.36,1.36,0,0,1,1-1.42,2.09,2.09,0,0,0-.48-1.14,25.64,25.64,0,0,1-3.21,1.31,21.59,21.59,0,0,0-.54,4.46c0,1.56.54,2.13,1.44,2.13C220.29,322.17,221.33,320.65,221.79,318.55Zm-2.19-7.39a28.06,28.06,0,0,0-1,3.25c3.12-1.48,5.06-4.5,5.06-6.54a.78.78,0,0,0-.81-.89C221.87,307,220.5,308.82,219.6,311.15Z" style="fill:#fff;stroke:#000;stroke-miterlimit:10;stroke-width:0.5px"/><path d="M235.75,316.78a8.8,8.8,0,0,1-.1,1.31,4.15,4.15,0,0,0,2.52-1.62c.27,0,.42.21.38.52-.12.73-1.44,1.85-3.1,2.06a5.43,5.43,0,0,1-5.46,4.17,3.64,3.64,0,0,1-3.83-4c0-3.77,2.21-6.44,5.77-6.44A3.63,3.63,0,0,1,235.75,316.78Zm-2.69-1.36c-.1-1-.58-1.6-1.35-1.6-1,0-2.12,1.06-2.71,4.17a15.13,15.13,0,0,0-.19,2.14c0,1.31.5,2,1.38,2,1.13,0,2.06-1.19,2.6-3.69a2,2,0,0,1-.79-1.64A1.35,1.35,0,0,1,233.06,315.42Z" style="fill:#fff;stroke:#000;stroke-miterlimit:10;stroke-width:0.5px"/><path d="M247.31,319.07H247c-.81,2.58-2.73,4.14-4.75,4.14a3.24,3.24,0,0,1-2.42-1l-1.1,6.33a3.56,3.56,0,0,0,0,1.79,2.28,2.28,0,0,1-1.08.19c-1.6,0-1.79-.6-1.54-2.06l2.38-13.66a3.56,3.56,0,0,0,0-1.79,2.28,2.28,0,0,1,1.08-.19c1.6,0,1.79.6,1.54,2.06l-.06.38c.88-1.58,2-2.44,3.35-2.44,1.94,0,3,1.38,3,3.54a11,11,0,0,1-.19,1.89h.46a7.1,7.1,0,0,0,2.29-.37c.21.15.17.5-.06.71A4.71,4.71,0,0,1,247.31,319.07Zm-7.14,1-.15.79a1.78,1.78,0,0,0,1.58.9c1.17,0,2.29-1.36,2.81-3.35a1.83,1.83,0,0,1-.79-1.6,1.36,1.36,0,0,1,1-1.42c-.12-.71-.48-1-1-1s-1.23.52-1.94,1.64A11.64,11.64,0,0,0,240.17,320.11Z" style="fill:#fff;stroke:#000;stroke-miterlimit:10;stroke-width:0.5px"/><path d="M248.83,318.71a5.69,5.69,0,0,1,5.58-5.91c2.13,0,3,1.1,3,2.17,0,1.89-2.19,3.14-5.85,3.83a2.86,2.86,0,0,0,3,2.77,4.64,4.64,0,0,0,4.06-2c.27,0,.42.17.33.54-.19.92-2.19,3.08-5.37,3.08C250.81,323.21,248.83,321.53,248.83,318.71Zm2.73-.89c2.54-.61,3.6-1.87,3.6-3.25a.69.69,0,0,0-.73-.73C253.25,313.84,251.79,315.22,251.56,317.82Z" style="fill:#fff;stroke:#000;stroke-miterlimit:10;stroke-width:0.5px"/><path d="M270.35,319.59c.27,0,.46.17.4.54a4.23,4.23,0,0,1-3.73,3.08,2.34,2.34,0,0,1-2.44-2.6,12.56,12.56,0,0,1,.19-2h-3.35l-.44,2.6a3.57,3.57,0,0,0,0,1.79,2.28,2.28,0,0,1-1.08.19c-1.6,0-1.79-.61-1.54-2.06l1.1-6.37a3.56,3.56,0,0,0,0-1.79,2.28,2.28,0,0,1,1.08-.19c1.6,0,1.79.6,1.54,2.06l-.48,2.73h3.33l.5-2.81a3.56,3.56,0,0,0,0-1.79,2.28,2.28,0,0,1,1.08-.19c1.6,0,1.79.6,1.54,2.06l-.81,4.71c-.21,1.23.15,1.83.9,1.83A2.89,2.89,0,0,0,270.35,319.59Z" style="fill:#fff;stroke:#000;stroke-miterlimit:10;stroke-width:0.5px"/><path d="M276.29,319.9a9.61,9.61,0,0,1-.94,1.54,3.58,3.58,0,0,1-2.94,1.77,2.21,2.21,0,0,1-2.27-2.42,14,14,0,0,1,.25-2.56l.6-3.46a3.55,3.55,0,0,0,0-1.79,2.28,2.28,0,0,1,1.08-.19c1.6,0,1.79.6,1.54,2.06l-.83,4.81c-.21,1.19.08,1.73.69,1.73s1-.56,1.54-1.4a15.76,15.76,0,0,0,2.1-5.44,3.2,3.2,0,0,0,0-1.58,2.28,2.28,0,0,1,1.08-.19c1.6,0,1.79.6,1.54,2.06l-.81,4.71c-.21,1.25.15,1.83.9,1.83a2.89,2.89,0,0,0,2.19-1.81c.27,0,.46.17.4.54a4.23,4.23,0,0,1-3.73,3.08,2.34,2.34,0,0,1-2.44-2.6C276.27,320.42,276.27,320.19,276.29,319.9Z" style="fill:#fff;stroke:#000;stroke-miterlimit:10;stroke-width:0.5px"/><path d="M291.14,315.2l-.73,4.27c-.25,1.5.08,1.94.62,1.94a.86.86,0,0,0,.79-.58c.29,0,.44.23.4.61a2.35,2.35,0,0,1-2.42,1.79,2.2,2.2,0,0,1-2.1-2.46,12.91,12.91,0,0,1,.08-1.48l-1.21,0-.52,1c-.92,1.85-1.71,2.85-3.06,2.85a1.88,1.88,0,0,1-2-2,1.74,1.74,0,0,1,1.67-1.94,1.3,1.3,0,0,1,.94.29,2.74,2.74,0,0,0-.33,1.17c0,.42.25.65.52.65s.81-.4,1.27-1.33l.38-.79c-2-.27-3-1.46-3-2.94,0-2,1.38-3.54,4.54-3.54a13.6,13.6,0,0,1,3.44.42C291.21,313.49,291.33,314.05,291.14,315.2ZM288,318.28l.54-3.17c.1-.64.17-1.1.17-1.1a4,4,0,0,0-1.19-.17,2.42,2.42,0,0,0-2.35,2.63A1.69,1.69,0,0,0,287,318.3C287.25,318.3,287.71,318.3,288,318.28Z" style="fill:#fff;stroke:#000;stroke-miterlimit:10;stroke-width:0.5px"/><path d="M86,344.59c.27,0,.46.17.4.54a4.23,4.23,0,0,1-3.73,3.08,2.34,2.34,0,0,1-2.44-2.6,12.56,12.56,0,0,1,.19-2H77.07l-.44,2.6a3.57,3.57,0,0,0,0,1.79,2.28,2.28,0,0,1-1.08.19c-1.6,0-1.79-.61-1.54-2.06l1.1-6.37a3.55,3.55,0,0,0,0-1.79,2.28,2.28,0,0,1,1.08-.19c1.6,0,1.79.6,1.54,2.06l-.48,2.73h3.33l.5-2.81a3.55,3.55,0,0,0,0-1.79,2.28,2.28,0,0,1,1.08-.19c1.6,0,1.79.6,1.54,2.06l-.81,4.71c-.21,1.23.15,1.83.9,1.83A2.89,2.89,0,0,0,86,344.59Z" style="fill:#fff;stroke:#000;stroke-miterlimit:10;stroke-width:0.5px"/><path d="M94.55,344.46c-.27,1.48.08,1.94.63,1.94a.86.86,0,0,0,.79-.58c.29,0,.44.23.4.61a2.36,2.36,0,0,1-2.42,1.79,2.17,2.17,0,0,1-2.1-2.33c-.87,1.52-2,2.33-3.19,2.33-1.71,0-3.06-1.15-3.06-3.58,0-4.65,2.71-6.83,5.14-6.83a2.73,2.73,0,0,1,2.25,1c.33-.75.85-1,1.87-1a2.11,2.11,0,0,1,1,.21,4.12,4.12,0,0,0-.48,1.5Zm-2.08-3.27.19-1a1.51,1.51,0,0,0-1.37-1c-1.42,0-3,2.1-3,5.46,0,1.17.46,1.73,1.23,1.73C91,346.4,92.07,343.28,92.47,341.2Z" style="fill:#fff;stroke:#000;stroke-miterlimit:10;stroke-width:0.5px"/><path d="M102.87,345.15c-.08-.71.21-1.12.67-1a2.62,2.62,0,0,0,2.87,2.29,3.36,3.36,0,0,0,3.71-3.42,2.28,2.28,0,0,0-1.46-2.35H108c-.75,0-1-.31-1-.79a1.35,1.35,0,0,1,0-.23,3.7,3.7,0,0,0,4-3.69,2.11,2.11,0,0,0-2.27-2.19,2.66,2.66,0,0,0-2.62,2.79,1.92,1.92,0,0,0,.29,1.13,1.41,1.41,0,0,1-1.23.5,1.36,1.36,0,0,1-1.42-1.54c0-2.4,2.58-4,5.29-4,2.87,0,4.85,1.58,4.85,3.73,0,1.87-1.5,3.29-3.44,3.94a3.26,3.26,0,0,1,2.48,3.25c0,2.46-2.12,4.71-5.81,4.71C104.7,348.21,103.07,346.74,102.87,345.15Z" style="fill:#fff;stroke:#000;stroke-miterlimit:10;stroke-width:0.5px"/><path d="M115,343.71a5.69,5.69,0,0,1,5.58-5.91c2.12,0,3,1.1,3,2.17,0,1.89-2.19,3.14-5.85,3.83a2.86,2.86,0,0,0,3,2.77,4.64,4.64,0,0,0,4.06-2c.27,0,.42.17.33.54-.19.92-2.19,3.08-5.37,3.08C117,348.21,115,346.53,115,343.71Zm2.73-.89c2.54-.61,3.6-1.87,3.6-3.25a.69.69,0,0,0-.73-.73C119.43,338.84,118,340.22,117.74,342.82Z" style="fill:#fff;stroke:#000;stroke-miterlimit:10;stroke-width:0.5px"/><path d="M130.7,337.8a1.45,1.45,0,0,1,1.6,1.64l.13,5.94,2.4-5.12a9.25,9.25,0,0,0,.83-2.27,2.28,2.28,0,0,1,1.08-.19c1.6,0,1.79.6,1.54,2.06l-.81,4.71c-.21,1.25.15,1.83.9,1.83a2.89,2.89,0,0,0,2.19-1.81c.27,0,.46.17.4.54a4.23,4.23,0,0,1-3.73,3.08,2.34,2.34,0,0,1-2.44-2.6,14.17,14.17,0,0,1,.19-2l.33-2-2.1,4.56a10.38,10.38,0,0,0-.62,1.69,1.88,1.88,0,0,1-1.15.31c-1,0-1.56-.67-1.6-2l-.12-4.71-1.15,3.89c-.56,1.94-1.46,2.83-2.81,2.83a1.91,1.91,0,0,1-2-2,1.73,1.73,0,0,1,1.62-1.89,1.48,1.48,0,0,1,1,.29,2.5,2.5,0,0,0-.33,1.17c0,.42.25.65.52.65s.71-.37,1-1.42l1.17-4.08a8.55,8.55,0,0,0,.52-2.92A6.86,6.86,0,0,1,130.7,337.8Z" style="fill:#fff;stroke:#000;stroke-miterlimit:10;stroke-width:0.5px"/><path d="M147.61,339.78a8.26,8.26,0,0,0,.1-.92c-1.06.1-1.79.89-2.29,2.58l-1.1,3.83c-.54,1.9-1.42,2.94-2.85,2.94a1.91,1.91,0,0,1-2-2,1.72,1.72,0,0,1,1.62-1.87,1.48,1.48,0,0,1,1,.29,2.66,2.66,0,0,0-.33,1.08c0,.5.23.73.52.73s.73-.42,1-1.42l1.08-3.85a4,4,0,0,1,4.19-3.33c1.77,0,1.94.6,1.69,2.06l-.81,4.71c-.21,1.25.15,1.83.9,1.83a2.89,2.89,0,0,0,2.19-1.81c.27,0,.46.17.4.54a4.23,4.23,0,0,1-3.73,3.08,2.34,2.34,0,0,1-2.44-2.6,12.09,12.09,0,0,1,.19-2Z" style="fill:#fff;stroke:#000;stroke-miterlimit:10;stroke-width:0.5px"/><path d="M160.68,340c0,2.29-3.12,3.27-5.85,3.81a3,3,0,0,0,3.12,2.77,2.27,2.27,0,0,0,2-.87c.25,0,.38.13.33.38-.15.9-1.54,2.15-3.62,2.15a4.3,4.3,0,0,1-4.5-4.52,5.68,5.68,0,0,1,5.5-5.89C159.84,337.8,160.68,338.86,160.68,340Zm-5.85,2.83c2.54-.61,3.62-1.9,3.62-3.21a.69.69,0,0,0-.75-.77C156.34,338.84,155,340.51,154.82,342.82Z" style="fill:#fff;stroke:#000;stroke-miterlimit:10;stroke-width:0.5px"/><path d="M166.91,339.63a5.75,5.75,0,0,0,1.79-3.92,1.79,1.79,0,0,0-1.92-2,2.48,2.48,0,0,0-2.31,2.67,2,2,0,0,0,.37,1.27,1.35,1.35,0,0,1-1.21.5c-.9,0-1.5-.58-1.5-1.71,0-2,2.06-3.83,5.06-3.85s4.4,1.56,4.4,3.31c0,1.94-.83,2.88-3,4.6a6,6,0,0,0-2.08,3,2.3,2.3,0,0,0-.1,1.13.89.89,0,0,1-.52.15c-.56,0-.73-.37-.73-1A6.09,6.09,0,0,1,166.91,339.63Zm-1.29,6a1.24,1.24,0,0,1,1.29,1.31,1.45,1.45,0,0,1-1.5,1.44,1.19,1.19,0,0,1-1.25-1.25A1.47,1.47,0,0,1,165.61,345.67Z" style="fill:#fff;stroke:#000;stroke-miterlimit:10;stroke-width:0.5px"/><path d="M187.42,340.42a3.46,3.46,0,0,1,3.15,3.33c0,2.46-2,4.46-6.25,4.46-2.17,0-3.31-.48-3.79-1a1.48,1.48,0,0,1-.37-1.08,6.16,6.16,0,0,1,.13-1.06l1.79-10.27a7.35,7.35,0,0,0,.1-1H182c-1.9,0-2.83,1.06-2.83,2.25,0,.58.31,1,.83,1a.85.85,0,0,0,.35-.06.65.65,0,0,1,0,.19c0,.5-.52,1.17-1.58,1.17a2,2,0,0,1-2.19-2.08c0-2.06,1.9-3.56,5.25-3.56h2.79c4.9,0,6.6,1.75,6.6,4A3.91,3.91,0,0,1,187.42,340.42Zm-3.67.61-.77,4.39a5.72,5.72,0,0,0-.1,1.58,7.78,7.78,0,0,0,1.08.06,3.45,3.45,0,0,0,3.71-3.54,2.29,2.29,0,0,0-2.5-2.5Zm1.27-7.29-1.08,6.14h1.23a3.26,3.26,0,0,0,3.17-3.56,2.44,2.44,0,0,0-2.75-2.58Z" style="fill:#fff;stroke:#000;stroke-miterlimit:10;stroke-width:0.5px"/><path d="M202.09,341.78a8.8,8.8,0,0,1-.1,1.31,4.15,4.15,0,0,0,2.52-1.62c.27,0,.42.21.38.52-.12.73-1.44,1.85-3.1,2.06a5.43,5.43,0,0,1-5.46,4.17,3.64,3.64,0,0,1-3.83-4c0-3.77,2.21-6.44,5.77-6.44A3.63,3.63,0,0,1,202.09,341.78Zm-2.69-1.36c-.1-1-.58-1.6-1.35-1.6-1,0-2.12,1.06-2.71,4.17a15.13,15.13,0,0,0-.19,2.14c0,1.31.5,2,1.38,2,1.13,0,2.06-1.19,2.6-3.69a2,2,0,0,1-.79-1.64A1.35,1.35,0,0,1,199.4,340.42Z" style="fill:#fff;stroke:#000;stroke-miterlimit:10;stroke-width:0.5px"/><path d="M209.95,345.38a6.47,6.47,0,0,1-1.54,1,3.1,3.1,0,0,1,.85.63,18.4,18.4,0,0,0,4.54-2.46.37.37,0,0,1,.4.48c0,.21-.27.44-.69.75a26.29,26.29,0,0,1-3.62,2.1,4.24,4.24,0,0,1,.46,2,5.65,5.65,0,0,1-5.6,5.58c-1.81,0-2.65-.85-2.65-2.19a4.39,4.39,0,0,1,1.71-3.19,17.51,17.51,0,0,1,3.83-2.35,2.41,2.41,0,0,0-.31-.92,4.48,4.48,0,0,1-1.1.17c-.54,0-.81-.27-.81-.62a7.11,7.11,0,0,0,4-6.08,1.32,1.32,0,0,0-1.44-1.48c-1.25,0-2.73,1.67-2.73,3.67a1.59,1.59,0,0,0,0,.39,1.09,1.09,0,0,1-.5.11,1.34,1.34,0,0,1-1.46-1.42c0-2,2-3.79,4.73-3.79s3.83,1.5,3.83,3.48A5.5,5.5,0,0,1,209.95,345.38Zm-2.25,3.69v-.15a12.23,12.23,0,0,0-3.19,2,3.29,3.29,0,0,0-1.25,2.23.89.89,0,0,0,1,.94C206,354.13,207.7,351.8,207.7,349.07Z" style="fill:#fff;stroke:#000;stroke-miterlimit:10;stroke-width:0.5px"/><path d="M213.59,344.86a9.77,9.77,0,0,1,.15-1.5l.65-3.58a3.55,3.55,0,0,0,0-1.79,2.28,2.28,0,0,1,1.08-.19c1.6,0,1.79.6,1.54,2.06l-.19,1.06a4.5,4.5,0,0,1,2-.44c1.94,0,3.29,1.15,3.29,3a4.62,4.62,0,0,1-4.94,4.77C214.86,348.21,213.59,346.9,213.59,344.86Zm2.69-.69a10,10,0,0,0-.15,1.63c0,.81.42,1.38,1.21,1.38,1.17,0,2.17-1.29,2.17-3.81,0-1.1-.56-1.62-1.44-1.62a2.17,2.17,0,0,0-1.5.69Z" style="fill:#fff;stroke:#000;stroke-miterlimit:10;stroke-width:0.5px"/><path d="M229.92,337.8a1.45,1.45,0,0,1,1.6,1.64l.12,5.94,2.4-5.12a9.2,9.2,0,0,0,.83-2.27,2.28,2.28,0,0,1,1.08-.19c1.6,0,1.79.6,1.54,2.06l-.81,4.71c-.21,1.25.15,1.83.9,1.83a2.89,2.89,0,0,0,2.19-1.81c.27,0,.46.17.4.54a4.23,4.23,0,0,1-3.73,3.08,2.34,2.34,0,0,1-2.44-2.6,14.17,14.17,0,0,1,.19-2l.33-2-2.1,4.56a10.3,10.3,0,0,0-.62,1.69,1.88,1.88,0,0,1-1.15.31c-1,0-1.56-.67-1.6-2l-.12-4.71-1.15,3.89c-.56,1.94-1.46,2.83-2.81,2.83a1.91,1.91,0,0,1-2-2,1.73,1.73,0,0,1,1.63-1.89,1.48,1.48,0,0,1,1,.29,2.5,2.5,0,0,0-.33,1.17c0,.42.25.65.52.65s.71-.37,1-1.42L228,340.9a8.53,8.53,0,0,0,.52-2.92A6.86,6.86,0,0,1,229.92,337.8Z" style="fill:#fff;stroke:#000;stroke-miterlimit:10;stroke-width:0.5px"/><path d="M246.57,339.57a3.2,3.2,0,0,0,0-1.58,2.28,2.28,0,0,1,1.08-.19c1.6,0,1.79.6,1.54,2.06l-.79,4.6c-.25,1.5.08,1.94.62,1.94a.86.86,0,0,0,.79-.58c.29,0,.44.23.4.61a2.35,2.35,0,0,1-2.42,1.79,2.2,2.2,0,0,1-2.1-2.46c0-.27,0-.54,0-.85a9.61,9.61,0,0,1-.94,1.54,3.58,3.58,0,0,1-2.94,1.77,2.21,2.21,0,0,1-2.27-2.42,14,14,0,0,1,.25-2.56l.6-3.46a3.56,3.56,0,0,0,0-1.79,2.28,2.28,0,0,1,1.08-.19c1.6,0,1.79.6,1.54,2.06l-.83,4.81c-.21,1.21.08,1.73.69,1.73s1-.56,1.54-1.4A15.36,15.36,0,0,0,246.57,339.57Z" style="fill:#fff;stroke:#000;stroke-miterlimit:10;stroke-width:0.5px"/><path d="M259.47,340.24c.88-1.58,2-2.44,3.35-2.44,1.94,0,3,1.38,3,3.54a9.27,9.27,0,0,1-.17,1.75,4.06,4.06,0,0,0,2.58-1.62c.27,0,.42.21.38.52-.12.73-1.48,1.9-3.19,2.06-.81,2.6-2.73,4.17-4.75,4.17a3.24,3.24,0,0,1-2.42-1l-1.1,6.33a3.56,3.56,0,0,0,0,1.79,2.28,2.28,0,0,1-1.08.19c-1.6,0-1.79-.6-1.54-2.06l2.38-13.66a3.56,3.56,0,0,0,0-1.79,2.28,2.28,0,0,1,1.08-.19c1.6,0,1.79.58,1.54,2.06Zm3.65.19c-.12-.71-.48-1-1-1s-1.23.52-1.94,1.64a11.64,11.64,0,0,0-1.54,4.06l-.15.79a1.78,1.78,0,0,0,1.58.9c1.15,0,2.27-1.33,2.79-3.31a2,2,0,0,1-.77-1.64A1.36,1.36,0,0,1,263.11,340.42Z" style="fill:#fff;stroke:#000;stroke-miterlimit:10;stroke-width:0.5px"/><path d="M276.88,341.78a8.8,8.8,0,0,1-.1,1.31,4.15,4.15,0,0,0,2.52-1.62c.27,0,.42.21.38.52-.12.73-1.44,1.85-3.1,2.06a5.43,5.43,0,0,1-5.46,4.17,3.64,3.64,0,0,1-3.83-4c0-3.77,2.21-6.44,5.77-6.44A3.63,3.63,0,0,1,276.88,341.78Zm-2.69-1.36c-.1-1-.58-1.6-1.35-1.6-1,0-2.12,1.06-2.71,4.17a15.13,15.13,0,0,0-.19,2.14c0,1.31.5,2,1.38,2,1.13,0,2.06-1.19,2.6-3.69a2,2,0,0,1-.79-1.64A1.35,1.35,0,0,1,274.19,340.42Z" style="fill:#fff;stroke:#000;stroke-miterlimit:10;stroke-width:0.5px"/><path d="M284.74,345.38a6.47,6.47,0,0,1-1.54,1,3.1,3.1,0,0,1,.85.63,18.4,18.4,0,0,0,4.54-2.46.37.37,0,0,1,.4.48c0,.21-.27.44-.69.75a26.29,26.29,0,0,1-3.62,2.1,4.25,4.25,0,0,1,.46,2,5.65,5.65,0,0,1-5.6,5.58c-1.81,0-2.65-.85-2.65-2.19a4.39,4.39,0,0,1,1.71-3.19,17.51,17.51,0,0,1,3.83-2.35,2.41,2.41,0,0,0-.31-.92,4.48,4.48,0,0,1-1.1.17c-.54,0-.81-.27-.81-.62a7.11,7.11,0,0,0,4-6.08,1.32,1.32,0,0,0-1.44-1.48c-1.25,0-2.73,1.67-2.73,3.67a1.59,1.59,0,0,0,0,.39,1.09,1.09,0,0,1-.5.11,1.34,1.34,0,0,1-1.46-1.42c0-2,2-3.79,4.73-3.79s3.83,1.5,3.83,3.48A5.5,5.5,0,0,1,284.74,345.38Zm-2.25,3.69v-.15a12.24,12.24,0,0,0-3.19,2,3.29,3.29,0,0,0-1.25,2.23.89.89,0,0,0,1,.94C280.82,354.13,282.49,351.8,282.49,349.07Z" style="fill:#fff;stroke:#000;stroke-miterlimit:10;stroke-width:0.5px"/><path d="M296.61,348c-.81,4.83-2.75,7.52-5.83,7.52a2.14,2.14,0,0,1-2.33-2.19,4.41,4.41,0,0,1,1.75-3.23,16.08,16.08,0,0,1,3.81-2.36l.46-2.69a12.34,12.34,0,0,1-.87,1.39,3.58,3.58,0,0,1-2.94,1.77,2.21,2.21,0,0,1-2.27-2.42,14,14,0,0,1,.25-2.56l.6-3.46a3.55,3.55,0,0,0,0-1.79,2.28,2.28,0,0,1,1.08-.19c1.6,0,1.79.6,1.54,2.06l-.83,4.81c-.21,1.21.08,1.73.69,1.73s1-.56,1.54-1.4a15.3,15.3,0,0,0,2.06-5.23,3.25,3.25,0,0,0,0-1.79,2.28,2.28,0,0,1,1.08-.19c1.6,0,1.79.6,1.54,2.06ZM293.78,349a12.12,12.12,0,0,0-2.94,1.92,3.25,3.25,0,0,0-1.23,2.23.87.87,0,0,0,1,.94C292,354.13,293.15,352.38,293.78,349Z" style="fill:#fff;stroke:#000;stroke-miterlimit:10;stroke-width:0.5px"/><path d="M95.16,364.57a3.2,3.2,0,0,0,0-1.58,2.29,2.29,0,0,1,1.08-.19c1.6,0,1.79.6,1.54,2.06l-.79,4.6c-.25,1.5.08,1.94.63,1.94a.86.86,0,0,0,.79-.58c.29,0,.44.23.4.61a2.35,2.35,0,0,1-2.42,1.79,2.2,2.2,0,0,1-2.1-2.46c0-.27,0-.54,0-.85a9.72,9.72,0,0,1-.94,1.54,3.59,3.59,0,0,1-2.94,1.77,2.21,2.21,0,0,1-2.27-2.42,14,14,0,0,1,.25-2.56l.6-3.46A3.56,3.56,0,0,0,89,363a2.29,2.29,0,0,1,1.08-.19c1.6,0,1.79.6,1.54,2.06l-.83,4.81c-.21,1.21.08,1.73.69,1.73s1-.56,1.54-1.4A15.34,15.34,0,0,0,95.16,364.57Z" style="fill:#fff;stroke:#000;stroke-miterlimit:10;stroke-width:0.5px"/><path d="M111.43,365.95c.17-1,0-1.31-.5-1.31-1.31,0-3.29,3.1-3.94,6.6a3.57,3.57,0,0,0,0,1.79,2.28,2.28,0,0,1-1.08.19c-1.6,0-1.79-.61-1.54-2.06l1.1-6.37a3.55,3.55,0,0,0,0-1.79,2.28,2.28,0,0,1,1.08-.19c1.6,0,1.79.6,1.54,2.06l-.17,1c.81-1.35,2.4-3,4.08-3a2,2,0,0,1,2.15,2.14,11.25,11.25,0,0,1-.19,1.69l-.5,2.94c-.19,1,0,1.83.85,1.83s1.65-.73,2.19-1.81c.27,0,.46.17.4.54a4.25,4.25,0,0,1-3.67,3.08,2.4,2.4,0,0,1-2.52-2.6,18.18,18.18,0,0,1,.31-2.37Z" style="fill:#fff;stroke:#000;stroke-miterlimit:10;stroke-width:0.5px"/><path d="M125.7,366.78a8.8,8.8,0,0,1-.1,1.31,4.15,4.15,0,0,0,2.52-1.62c.27,0,.42.21.38.52-.12.73-1.44,1.85-3.1,2.06a5.43,5.43,0,0,1-5.46,4.17,3.64,3.64,0,0,1-3.83-4c0-3.77,2.21-6.44,5.77-6.44A3.63,3.63,0,0,1,125.7,366.78ZM123,365.42c-.1-1-.58-1.6-1.35-1.6-1,0-2.12,1.06-2.71,4.17a15.2,15.2,0,0,0-.19,2.14c0,1.31.5,2,1.38,2,1.12,0,2.06-1.19,2.6-3.69a2,2,0,0,1-.79-1.64A1.35,1.35,0,0,1,123,365.42Z" style="fill:#fff;stroke:#000;stroke-miterlimit:10;stroke-width:0.5px"/><path d="M135.78,371.46a15.72,15.72,0,0,0,3.4-1.87.37.37,0,0,1,.4.48c0,.21-.27.44-.69.75a22.87,22.87,0,0,1-3.31,1.92l0,.25c-.81,4.83-2.75,7.52-5.83,7.52a2.14,2.14,0,0,1-2.33-2.19,4.41,4.41,0,0,1,1.75-3.23,16.08,16.08,0,0,1,3.81-2.36l.25-1.48a3.65,3.65,0,0,1-3,2c-1.71,0-3.06-1.15-3.06-3.58,0-4.65,2.71-6.83,5.14-6.83a2.73,2.73,0,0,1,2.25,1c.33-.75.85-1,1.87-1a2.11,2.11,0,0,1,1,.21,3.65,3.65,0,0,0-.48,1.5ZM132.7,374a12.11,12.11,0,0,0-2.94,1.92,3.25,3.25,0,0,0-1.23,2.23.87.87,0,0,0,1,.94C130.95,379.13,132.07,377.38,132.7,374ZM134,366.2l.19-1a1.51,1.51,0,0,0-1.37-1c-1.42,0-3,2.1-3,5.46,0,1.17.46,1.73,1.23,1.73C132.53,371.4,133.63,368.28,134,366.2Z" style="fill:#fff;stroke:#000;stroke-miterlimit:10;stroke-width:0.5px"/><path d="M148.36,366.78a8.8,8.8,0,0,1-.1,1.31,4.15,4.15,0,0,0,2.52-1.62c.27,0,.42.21.38.52-.12.73-1.44,1.85-3.1,2.06a5.43,5.43,0,0,1-5.46,4.17,3.64,3.64,0,0,1-3.83-4c0-3.77,2.21-6.44,5.77-6.44A3.63,3.63,0,0,1,148.36,366.78Zm-2.69-1.36c-.1-1-.58-1.6-1.35-1.6-1,0-2.12,1.06-2.71,4.17a15.2,15.2,0,0,0-.19,2.14c0,1.31.5,2,1.38,2,1.12,0,2.06-1.19,2.6-3.69a2,2,0,0,1-.79-1.64A1.35,1.35,0,0,1,145.68,365.42Z" style="fill:#fff;stroke:#000;stroke-miterlimit:10;stroke-width:0.5px"/><path d="M156.18,369.9a9.72,9.72,0,0,1-.94,1.54,3.59,3.59,0,0,1-2.94,1.77A2.21,2.21,0,0,1,150,370.8a14,14,0,0,1,.25-2.56l.6-3.46a3.56,3.56,0,0,0,0-1.79,2.29,2.29,0,0,1,1.08-.19c1.6,0,1.79.6,1.54,2.06l-.83,4.81c-.21,1.19.08,1.73.69,1.73s1-.56,1.54-1.4a15.75,15.75,0,0,0,2.1-5.44,3.2,3.2,0,0,0,0-1.58,2.29,2.29,0,0,1,1.08-.19c1.6,0,1.79.6,1.54,2.06l-.81,4.71c-.21,1.25.15,1.83.9,1.83a2.89,2.89,0,0,0,2.19-1.81c.27,0,.46.17.4.54a4.23,4.23,0,0,1-3.73,3.08,2.34,2.34,0,0,1-2.44-2.6C156.16,370.42,156.16,370.19,156.18,369.9Zm2.21-11.52c.27,0,.46.15.4.54a3,3,0,0,1-3.15,2.21c-1.71,0-2.65-.92-2.65-2.15a1.44,1.44,0,0,1,1.56-1.52,1.49,1.49,0,0,1,1,.33,1.28,1.28,0,0,0-.25.83,1.1,1.1,0,0,0,1.25,1.13A2,2,0,0,0,158.38,358.38Z" style="fill:#fff;stroke:#000;stroke-miterlimit:10;stroke-width:0.5px"/><path d="M170.13,371.46a15.72,15.72,0,0,0,3.4-1.87.37.37,0,0,1,.4.48c0,.21-.27.44-.69.75a22.84,22.84,0,0,1-3.31,1.92l0,.25c-.81,4.83-2.75,7.52-5.83,7.52a2.14,2.14,0,0,1-2.33-2.19,4.41,4.41,0,0,1,1.75-3.23,16.08,16.08,0,0,1,3.81-2.36l.25-1.48a3.65,3.65,0,0,1-3,2c-1.71,0-3.06-1.15-3.06-3.58,0-4.65,2.71-6.83,5.14-6.83a2.73,2.73,0,0,1,2.25,1c.33-.75.85-1,1.87-1a2.11,2.11,0,0,1,1,.21,3.65,3.65,0,0,0-.48,1.5ZM167.05,374a12.11,12.11,0,0,0-2.94,1.92,3.25,3.25,0,0,0-1.23,2.23.87.87,0,0,0,1,.94C165.3,379.13,166.43,377.38,167.05,374Zm1.33-7.85.19-1a1.51,1.51,0,0,0-1.37-1c-1.42,0-3,2.1-3,5.46,0,1.17.46,1.73,1.23,1.73C166.88,371.4,168,368.28,168.38,366.2Z" style="fill:#fff;stroke:#000;stroke-miterlimit:10;stroke-width:0.5px"/><path d="M180.32,364.57a3.2,3.2,0,0,0,0-1.58,2.28,2.28,0,0,1,1.08-.19c1.6,0,1.79.6,1.54,2.06l-.79,4.6c-.25,1.5.08,1.94.63,1.94a.86.86,0,0,0,.79-.58c.29,0,.44.23.4.61a2.35,2.35,0,0,1-2.42,1.79,2.2,2.2,0,0,1-2.1-2.46c0-.27,0-.54,0-.85a9.72,9.72,0,0,1-.94,1.54,3.59,3.59,0,0,1-2.94,1.77,2.21,2.21,0,0,1-2.27-2.42,14,14,0,0,1,.25-2.56l.6-3.46a3.56,3.56,0,0,0,0-1.79,2.29,2.29,0,0,1,1.08-.19c1.6,0,1.79.6,1.54,2.06l-.83,4.81c-.21,1.21.08,1.73.69,1.73s1-.56,1.54-1.4A15.34,15.34,0,0,0,180.32,364.57Z" style="fill:#fff;stroke:#000;stroke-miterlimit:10;stroke-width:0.5px"/><path d="M192.76,367.76h.81c.6,0,1-.67,1.27-1.19l.81-1.67c.83-1.69,1.5-2.1,2.39-2.1a1.29,1.29,0,0,1,1.35,1.42,1.89,1.89,0,0,1-.73,1.44,1,1,0,0,0-1-.75c-.62,0-1.08.44-1.46,1.25l-.35.75a2.34,2.34,0,0,1-.73.94,1.91,1.91,0,0,1,1.42,1.36l.23.73c.27.89.6,1.48,1.27,1.48a1,1,0,0,0,.88-.58c.23,0,.44.17.38.61a2.41,2.41,0,0,1-2.44,1.79c-1.25,0-2-.77-2.52-2.44l-.33-1.1c-.19-.58-.44-.9-1-.9h-.44l-.42,2.46a3.57,3.57,0,0,0,0,1.79,2.28,2.28,0,0,1-1.08.19c-1.6,0-1.79-.61-1.54-2.06l1.1-6.37a3.56,3.56,0,0,0,0-1.79,2.28,2.28,0,0,1,1.08-.19c1.6,0,1.79.6,1.54,2.06Z" style="fill:#fff;stroke:#000;stroke-miterlimit:10;stroke-width:0.5px"/><path d="M211.11,370.38a6.47,6.47,0,0,1-1.54,1,3.1,3.1,0,0,1,.85.63,18.4,18.4,0,0,0,4.54-2.46.37.37,0,0,1,.4.48c0,.21-.27.44-.69.75a26.29,26.29,0,0,1-3.62,2.1,4.25,4.25,0,0,1,.46,2,5.65,5.65,0,0,1-5.6,5.58c-1.81,0-2.65-.85-2.65-2.19a4.39,4.39,0,0,1,1.71-3.19,17.51,17.51,0,0,1,3.83-2.35,2.41,2.41,0,0,0-.31-.92,4.48,4.48,0,0,1-1.1.17c-.54,0-.81-.27-.81-.62a7.11,7.11,0,0,0,4-6.08,1.32,1.32,0,0,0-1.44-1.48c-1.25,0-2.73,1.67-2.73,3.67a1.59,1.59,0,0,0,0,.39,1.09,1.09,0,0,1-.5.11,1.34,1.34,0,0,1-1.46-1.42c0-2,2-3.79,4.73-3.79s3.83,1.5,3.83,3.48A5.5,5.5,0,0,1,211.11,370.38Zm-2.25,3.69v-.15a12.24,12.24,0,0,0-3.19,2,3.29,3.29,0,0,0-1.25,2.23.89.89,0,0,0,1,.94C207.2,379.13,208.86,376.8,208.86,374.07Z" style="fill:#fff;stroke:#000;stroke-miterlimit:10;stroke-width:0.5px"/><path d="M214.55,368.71a5.69,5.69,0,0,1,5.58-5.91c2.13,0,3,1.1,3,2.17,0,1.89-2.19,3.14-5.85,3.83a2.86,2.86,0,0,0,3,2.77,4.64,4.64,0,0,0,4.06-2c.27,0,.42.17.33.54-.19.92-2.19,3.08-5.37,3.08C216.53,373.21,214.55,371.53,214.55,368.71Zm2.73-.89c2.54-.61,3.6-1.87,3.6-3.25a.69.69,0,0,0-.73-.73C219,363.84,217.51,365.22,217.28,367.82Z" style="fill:#fff;stroke:#000;stroke-miterlimit:10;stroke-width:0.5px"/><path d="M227.76,365.24c.88-1.58,2-2.44,3.35-2.44,1.94,0,3,1.38,3,3.54a9.27,9.27,0,0,1-.17,1.75,4.06,4.06,0,0,0,2.58-1.62c.27,0,.42.21.38.52-.12.73-1.48,1.9-3.19,2.06-.81,2.6-2.73,4.17-4.75,4.17a3.24,3.24,0,0,1-2.42-1l-1.1,6.33a3.56,3.56,0,0,0,0,1.79,2.28,2.28,0,0,1-1.08.19c-1.6,0-1.79-.6-1.54-2.06l2.38-13.66a3.56,3.56,0,0,0,0-1.79,2.28,2.28,0,0,1,1.08-.19c1.6,0,1.79.58,1.54,2.06Zm3.65.19c-.12-.71-.48-1-1-1s-1.23.52-1.94,1.64a11.64,11.64,0,0,0-1.54,4.06l-.15.79a1.78,1.78,0,0,0,1.58.9c1.15,0,2.27-1.33,2.79-3.31a2,2,0,0,1-.77-1.64A1.36,1.36,0,0,1,231.4,365.42Z" style="fill:#fff;stroke:#000;stroke-miterlimit:10;stroke-width:0.5px"/><path d="M238.93,367.76h.83c.58,0,1-.69,1.25-1.19l.81-1.67c.83-1.69,1.5-2.1,2.39-2.1a1.29,1.29,0,0,1,1.35,1.42,1.89,1.89,0,0,1-.73,1.44,1,1,0,0,0-1-.75c-.62,0-1.08.46-1.46,1.25l-.35.75a2.34,2.34,0,0,1-.73.94,1.91,1.91,0,0,1,1.42,1.36l.23.73c.29,1,.71,1.48,1.56,1.48a2.88,2.88,0,0,0,2.23-1.81c.27,0,.46.17.4.54a4.28,4.28,0,0,1-3.73,3.08,2.93,2.93,0,0,1-2.9-2.44l-.33-1.1c-.17-.58-.44-.9-1-.9h-.44l-.42,2.46a3.57,3.57,0,0,0,0,1.79,2.28,2.28,0,0,1-1.08.19c-1.6,0-1.79-.61-1.54-2.06l1.1-6.37a3.56,3.56,0,0,0,0-1.79,2.28,2.28,0,0,1,1.08-.19c1.6,0,1.79.6,1.54,2.06Z" style="fill:#fff;stroke:#000;stroke-miterlimit:10;stroke-width:0.5px"/><path d="M255.26,369.57c-.23,1.25.15,1.83.9,1.83a2.89,2.89,0,0,0,2.19-1.81c.27,0,.46.17.4.54a4.23,4.23,0,0,1-3.73,3.08,2.32,2.32,0,0,1-2.44-2.35c-.85,1.54-2,2.35-3.19,2.35-1.71,0-3.06-1.15-3.06-3.58,0-4.65,2.71-6.83,5.14-6.83a2.73,2.73,0,0,1,2.25,1c.33-.75.85-1,1.87-1a2.11,2.11,0,0,1,1,.21,4.1,4.1,0,0,0-.48,1.5Zm-2.06-3.37.19-1a1.51,1.51,0,0,0-1.37-1c-1.42,0-3,2.1-3,5.46,0,1.17.46,1.73,1.23,1.73C251.7,371.4,252.8,368.28,253.2,366.2Z" style="fill:#fff;stroke:#000;stroke-miterlimit:10;stroke-width:0.5px"/><path d="M265.4,364.78a8.48,8.48,0,0,0,.1-.92c-1.06.1-1.79.89-2.29,2.58l-1.1,3.83c-.54,1.9-1.42,2.94-2.85,2.94a1.91,1.91,0,0,1-2-2,1.72,1.72,0,0,1,1.63-1.87,1.48,1.48,0,0,1,1,.29,2.66,2.66,0,0,0-.33,1.08c0,.5.23.73.52.73s.73-.42,1-1.42l1.08-3.85a4,4,0,0,1,4.19-3.33c1.77,0,1.94.6,1.69,2.06l-.81,4.71c-.21,1.25.15,1.83.9,1.83a2.89,2.89,0,0,0,2.19-1.81c.27,0,.46.17.4.54a4.23,4.23,0,0,1-3.73,3.08,2.34,2.34,0,0,1-2.44-2.6,12.14,12.14,0,0,1,.19-2Z" style="fill:#fff;stroke:#000;stroke-miterlimit:10;stroke-width:0.5px"/><path d="M278.34,373c-.81,4.83-2.75,7.52-5.83,7.52a2.14,2.14,0,0,1-2.33-2.19,4.41,4.41,0,0,1,1.75-3.23,16.08,16.08,0,0,1,3.81-2.36l.46-2.69a12.34,12.34,0,0,1-.87,1.39,3.58,3.58,0,0,1-2.94,1.77,2.21,2.21,0,0,1-2.27-2.42,14,14,0,0,1,.25-2.56l.6-3.46a3.55,3.55,0,0,0,0-1.79,2.28,2.28,0,0,1,1.08-.19c1.6,0,1.79.6,1.54,2.06l-.83,4.81c-.21,1.21.08,1.73.69,1.73s1-.56,1.54-1.4a15.3,15.3,0,0,0,2.06-5.23,3.25,3.25,0,0,0,0-1.79,2.28,2.28,0,0,1,1.08-.19c1.6,0,1.79.6,1.54,2.06ZM275.51,374a12.12,12.12,0,0,0-2.94,1.92,3.25,3.25,0,0,0-1.23,2.23.87.87,0,0,0,1,.94C273.76,379.13,274.88,377.38,275.51,374Z" style="fill:#fff;stroke:#000;stroke-miterlimit:10;stroke-width:0.5px"/><path d="M283.05,370.67a1.24,1.24,0,0,1,1.29,1.31,1.45,1.45,0,0,1-1.5,1.44,1.19,1.19,0,0,1-1.25-1.25A1.47,1.47,0,0,1,283.05,370.67Z" style="fill:#fff;stroke:#000;stroke-miterlimit:10;stroke-width:0.5px"/><path d="M13.44,34.55a.93.93,0,0,1,.12.9,1.12,1.12,0,0,1-.77.52,2,2,0,0,1-.95,0,1.48,1.48,0,0,1-.8-.53,3.13,3.13,0,0,1-.59-1.81A3.4,3.4,0,0,1,11,31.75a3.91,3.91,0,0,1,1.37-1.35,4.07,4.07,0,0,1,1.86-.51,5.3,5.3,0,0,1,3.57,1.2,5.4,5.4,0,0,1,1.92,3.24,6,6,0,0,1,.1,1.9,6.49,6.49,0,0,1-.47,1.85,7.56,7.56,0,0,1-5.79,4.46l.07-.32,4.82,3,.92.57-1.06-.26a8.48,8.48,0,0,0-1.1-.18,9.37,9.37,0,0,0-1.12,0,7.56,7.56,0,0,0-1.11.1l-.55.1c-.18,0-.36.09-.54.14a5.5,5.5,0,0,0-.52.19,4.78,4.78,0,0,0-.5.25,5.16,5.16,0,0,0-.47.3,5,5,0,0,0-.43.36,5,5,0,0,0-.39.4c-.11.15-.24.29-.34.45a4.72,4.72,0,0,0-.29.49c-.09.16-.16.34-.25.51.07-.18.13-.36.21-.53a4.79,4.79,0,0,1,.26-.51,5,5,0,0,1,.31-.48,5.26,5.26,0,0,1,.8-.84,5.37,5.37,0,0,1,.47-.34,5,5,0,0,1,.51-.29,5.77,5.77,0,0,1,.54-.23,6,6,0,0,1,1.13-.3,8.4,8.4,0,0,1,1.16-.1,9.72,9.72,0,0,1,1.16.05,8.77,8.77,0,0,1,1.15.19l-.14.32-4.82-3L13,42.26l.47-.07A7.21,7.21,0,0,0,19,37.95a6.14,6.14,0,0,0,.45-1.75,5.7,5.7,0,0,0-.1-1.8,5.11,5.11,0,0,0-.63-1.68,5.17,5.17,0,0,0-1.17-1.35,5,5,0,0,0-3.33-1.12,4.34,4.34,0,0,0-.88.13,2.81,2.81,0,0,0-.42.13,3.39,3.39,0,0,0-.4.2,3.52,3.52,0,0,0-1.25,1.23,3.75,3.75,0,0,0-.53,1.68,2.89,2.89,0,0,0,.44,1.71,1.61,1.61,0,0,0,1.6.56,1.05,1.05,0,0,0,.75-.45A.91.91,0,0,0,13.44,34.55Z" style="fill:#fff"/><path d="M13.57,72.67a1.19,1.19,0,0,0,.2-1.08A1.12,1.12,0,0,0,12.9,71a1.49,1.49,0,0,0-1.06.21,1.42,1.42,0,0,0-.39.38,3.33,3.33,0,0,0-.28.49A3.26,3.26,0,0,0,11,74.22a4,4,0,0,0,1.1,1.87,3.33,3.33,0,0,0,.91.6l.13.05.12,0,.27.07A4,4,0,0,0,14,77a4.71,4.71,0,0,0,2.18-.27,5.11,5.11,0,0,0,3-3.06,4.46,4.46,0,0,0,.16-.53c0-.09,0-.18.06-.28s0-.17,0-.26a3.33,3.33,0,0,0-.13-1.08,7.9,7.9,0,0,0-1-2,35.49,35.49,0,0,0-2.77-3.64c-1-1.18-2-2.35-2.89-3.59a20.86,20.86,0,0,1-1.28-1.94,10.22,10.22,0,0,1-.95-2.13l-.24-.81.55.66a4.64,4.64,0,0,0,.34.36l.38.34a9.2,9.2,0,0,0,.81.6,10.08,10.08,0,0,0,.88.51c.3.16.61.29.92.42l-.2.27a20.89,20.89,0,0,1-1.56-2.37c-.23-.41-.45-.83-.66-1.25a11.18,11.18,0,0,1-.53-1.31c-.08-.22-.15-.45-.21-.68s-.13-.46-.17-.69a8.86,8.86,0,0,1-.21-1.4c0-.24,0-.47,0-.71a6.38,6.38,0,0,1,.06-.7,5.1,5.1,0,0,1,.14-.69A5.8,5.8,0,0,1,11,50a5.78,5.78,0,0,0-.19.68,5,5,0,0,0-.1.69,6.28,6.28,0,0,0,0,.7c0,.23,0,.46.05.69a8.66,8.66,0,0,0,.28,1.36c.06.22.13.44.21.66s.16.44.25.65c.18.43.37.85.56,1.27s.41.83.64,1.23a20.59,20.59,0,0,0,1.53,2.32l.4.52-.6-.25c-.32-.13-.64-.27-1-.44a10.42,10.42,0,0,1-.91-.53,9.54,9.54,0,0,1-.85-.63l-.39-.35a4.88,4.88,0,0,1-.37-.39l.3-.16a9.89,9.89,0,0,0,.92,2.06A20.51,20.51,0,0,0,13,62c.9,1.23,1.9,2.4,2.88,3.58a35.77,35.77,0,0,1,2.8,3.68,8.23,8.23,0,0,1,1,2.12,3.68,3.68,0,0,1,.14,1.19,3,3,0,0,1,0,.31c0,.09,0,.19-.06.29a4.8,4.8,0,0,1-.17.57A5.45,5.45,0,0,1,16.34,77,5.05,5.05,0,0,1,14,77.3a4.36,4.36,0,0,1-.59-.11l-.28-.08-.15,0L12.83,77a3.68,3.68,0,0,1-1-.67,3.76,3.76,0,0,1-1.15-2.06,3.43,3.43,0,0,1,.65-2.81,1.57,1.57,0,0,1,.44-.4,1.59,1.59,0,0,1,1.15-.19,1.18,1.18,0,0,1,.89.7A1.21,1.21,0,0,1,13.57,72.67Z" style="fill:#fff"/><path d="M16.81,51.21v.09c0,.06,0,.15,0,.27a1.54,1.54,0,0,0,.24,1,.88.88,0,0,0,.57.35,1.27,1.27,0,0,0,.78-.14,1.56,1.56,0,0,0,.65-.64,3.24,3.24,0,0,0,.38-1A4,4,0,0,0,19.46,50a3.42,3.42,0,0,0-.33-1.14,3.54,3.54,0,0,0-1.84-1.73A4.89,4.89,0,0,0,14.53,47a5.07,5.07,0,0,0-2.48,1.43,4,4,0,0,0-1.11,2.58,5.44,5.44,0,0,0,.75,2.68,14.51,14.51,0,0,0,1.51,2.21c.54.67,1.09,1.27,1.6,1.81l.75.77c.25.24.48.47.68.69l1.09,1.16c.61.64.92,1,.92,1L18,61.17l-.76-.68-1.2-1c-.23-.2-.47-.43-.71-.67L14.55,58c-.52-.55-1.08-1.15-1.62-1.83a14.85,14.85,0,0,1-1.54-2.27A5.77,5.77,0,0,1,10.59,51a4.34,4.34,0,0,1,1.21-2.81,5.41,5.41,0,0,1,2.65-1.53,5.22,5.22,0,0,1,3,.11,3.88,3.88,0,0,1,2,1.91,3.45,3.45,0,0,1,.26,2.48,3.5,3.5,0,0,1-.49,1,1.83,1.83,0,0,1-.76.67,1.42,1.42,0,0,1-.88.11,1,1,0,0,1-.62-.42,1.59,1.59,0,0,1-.19-1c0-.12,0-.21,0-.27Z" style="fill:#fff"/><path d="M13.44,89.91a2.21,2.21,0,0,0,0-.93.91.91,0,0,0-.6-.63,1.66,1.66,0,0,0-1.61.6,2.57,2.57,0,0,0-.62,1.66,3.45,3.45,0,0,0,.5,1.7,4,4,0,0,0,1.23,1.31,3.26,3.26,0,0,0,.8.4,4.37,4.37,0,0,0,.89.18,4.91,4.91,0,0,0,3.42-1,5.13,5.13,0,0,0,1.23-1.33,5,5,0,0,0,.68-1.68,5.88,5.88,0,0,0,.14-1.82A6,6,0,0,0,19,86.6a7,7,0,0,0-2.21-2.89,7.2,7.2,0,0,0-1.58-.94,7,7,0,0,0-1.76-.5l-.4-.06.32-.25,5.25-4,.17.3a10.41,10.41,0,0,1-1.17.33,11.5,11.5,0,0,1-1.19.2,10,10,0,0,1-1.21.07,5.84,5.84,0,0,1-.61,0c-.2,0-.4-.06-.6-.1a5.21,5.21,0,0,1-.59-.16,5.74,5.74,0,0,1-.57-.22,5,5,0,0,1-.53-.29,3.83,3.83,0,0,1-.49-.36l-.22-.2-.2-.22a3.91,3.91,0,0,1-.36-.48l-.15-.26-.13-.27c-.09-.18-.15-.37-.22-.55.09.18.16.36.26.53l.15.26.17.24a4.27,4.27,0,0,0,.38.45l.21.2.23.18a4.54,4.54,0,0,0,2.13.86,7.78,7.78,0,0,0,1.16.08,9,9,0,0,0,1.16-.06,11.16,11.16,0,0,0,1.15-.2,10.12,10.12,0,0,0,1.12-.31l1-.36-.86.66-5.25,4-.08-.31a7.29,7.29,0,0,1,1.85.53,7.55,7.55,0,0,1,1.65,1,7.67,7.67,0,0,1,1.36,1.36,7.14,7.14,0,0,1,1,1.67,6.37,6.37,0,0,1,.45,1.88,6.24,6.24,0,0,1-.14,1.92,5.35,5.35,0,0,1-.73,1.8,5.48,5.48,0,0,1-1.32,1.42,5.25,5.25,0,0,1-3.66,1.06,4.75,4.75,0,0,1-1-.19,3.58,3.58,0,0,1-.89-.44,4.45,4.45,0,0,1-1.34-1.42,3.3,3.3,0,0,1-.48-1.89,2.8,2.8,0,0,1,.77-1.76,2.1,2.1,0,0,1,.81-.54,1.44,1.44,0,0,1,1,0,1,1,0,0,1,.62.71A2.23,2.23,0,0,1,13.44,89.91Z" style="fill:#fff"/><path d="M22.42,25.3a.91.91,0,0,0,.87.08,1.05,1.05,0,0,0,.45-.75,1.61,1.61,0,0,0-.56-1.6,2.89,2.89,0,0,0-1.71-.44,3.75,3.75,0,0,0-1.68.53,3.52,3.52,0,0,0-1.23,1.25,3.39,3.39,0,0,0-.2.4,2.81,2.81,0,0,0-.13.42,4.33,4.33,0,0,0-.13.88,5,5,0,0,0,1.12,3.33,5.17,5.17,0,0,0,1.35,1.17,5.11,5.11,0,0,0,1.68.63,5.7,5.7,0,0,0,1.8.1,6.14,6.14,0,0,0,1.75-.45,7.21,7.21,0,0,0,4.25-5.52l.07-.47.25.41,3,4.82-.32.14a8.77,8.77,0,0,1-.19-1.15,9.72,9.72,0,0,1-.05-1.16,8.4,8.4,0,0,1,.1-1.16,6,6,0,0,1,.3-1.13,5.77,5.77,0,0,1,.23-.54,5,5,0,0,1,.29-.51,5.37,5.37,0,0,1,.34-.47,5.26,5.26,0,0,1,.84-.8,5,5,0,0,1,.48-.31,4.79,4.79,0,0,1,.51-.26c.17-.08.36-.14.53-.21-.17.08-.35.15-.51.25a4.73,4.73,0,0,0-.49.29c-.16.1-.3.22-.45.34a5,5,0,0,0-.4.39,4.94,4.94,0,0,0-.36.43,5.16,5.16,0,0,0-.3.47,4.78,4.78,0,0,0-.25.5,5.5,5.5,0,0,0-.19.52c-.05.18-.1.36-.14.54s-.07.36-.1.55a7.56,7.56,0,0,0-.1,1.11,9.37,9.37,0,0,0,0,1.12,8.48,8.48,0,0,0,.18,1.1l.26,1.06-.57-.92-3-4.82.32-.07A7.56,7.56,0,0,1,26,31.17a6.49,6.49,0,0,1-1.85.47,6.05,6.05,0,0,1-1.9-.1A5.4,5.4,0,0,1,19,29.62a5.3,5.3,0,0,1-1.2-3.57,4.07,4.07,0,0,1,.51-1.86,3.91,3.91,0,0,1,1.35-1.37,3.4,3.4,0,0,1,1.85-.51,3.13,3.13,0,0,1,1.81.59,1.48,1.48,0,0,1,.53.8,2,2,0,0,1,0,.95,1.12,1.12,0,0,1-.52.77A.93.93,0,0,1,22.42,25.3Z" style="fill:#fff"/><path d="M60.55,25.43a1.21,1.21,0,0,1-1.09.23,1.18,1.18,0,0,1-.7-.89,1.59,1.59,0,0,1,.19-1.15,1.57,1.57,0,0,1,.4-.44,3.43,3.43,0,0,1,2.81-.65,3.76,3.76,0,0,1,2.06,1.15,3.68,3.68,0,0,1,.67,1l.06.14A1.39,1.39,0,0,1,65,25c0,.09.06.18.08.28a4.36,4.36,0,0,1,.11.59,5.05,5.05,0,0,1-.29,2.34,5.45,5.45,0,0,1-3.27,3.24,4.79,4.79,0,0,1-.57.17l-.29.06-.31,0a3.68,3.68,0,0,1-1.19-.14,8.23,8.23,0,0,1-2.12-1,35.77,35.77,0,0,1-3.68-2.8c-1.18-1-2.35-2-3.58-2.88A20.52,20.52,0,0,0,48,23.65a9.89,9.89,0,0,0-2.06-.92l.16-.3a4.87,4.87,0,0,1,.39.37q.18.19.35.39a9.54,9.54,0,0,1,.63.85,10.44,10.44,0,0,1,.53.91c.16.31.3.63.44,1l.25.6-.52-.4a20.59,20.59,0,0,0-2.32-1.53c-.4-.23-.81-.45-1.23-.64s-.84-.39-1.27-.56l-.65-.25c-.22-.07-.44-.15-.66-.21a8.66,8.66,0,0,0-1.36-.28c-.23,0-.46,0-.69-.05a6.28,6.28,0,0,0-.7,0,5,5,0,0,0-.69.1,5.78,5.78,0,0,0-.68.19,5.8,5.8,0,0,1,.67-.22,5.09,5.09,0,0,1,.69-.14,6.38,6.38,0,0,1,.7-.06c.24,0,.47,0,.71,0a8.85,8.85,0,0,1,1.4.21c.23,0,.46.11.69.17l.68.21a11.17,11.17,0,0,1,1.31.53c.42.21.84.42,1.25.66a20.89,20.89,0,0,1,2.37,1.56l-.27.2c-.13-.31-.27-.62-.42-.92a10.08,10.08,0,0,0-.51-.88,9.2,9.2,0,0,0-.6-.81L46.22,23a4.65,4.65,0,0,0-.36-.34l-.66-.55.81.24a10.23,10.23,0,0,1,2.13.95,20.85,20.85,0,0,1,1.94,1.28c1.24.91,2.42,1.91,3.59,2.89a35.49,35.49,0,0,0,3.64,2.77,7.9,7.9,0,0,0,2,1,3.33,3.33,0,0,0,1.08.13l.26,0,.28-.06a4.45,4.45,0,0,0,.53-.16,5.11,5.11,0,0,0,3.06-3,4.71,4.71,0,0,0,.27-2.18,4,4,0,0,0-.1-.54c0-.09,0-.18-.07-.27a1.07,1.07,0,0,0,0-.12l-.05-.13a3.33,3.33,0,0,0-.6-.91,4,4,0,0,0-1.87-1.1,3.26,3.26,0,0,0-2.17.19,3.33,3.33,0,0,0-.49.28,1.42,1.42,0,0,0-.38.39,1.49,1.49,0,0,0-.21,1.06,1.11,1.11,0,0,0,.63.87A1.19,1.19,0,0,0,60.55,25.43Z" style="fill:#fff"/><path d="M39.09,28.68l.09,0,.27,0a1.59,1.59,0,0,1,1,.19,1,1,0,0,1,.42.62,1.42,1.42,0,0,1-.11.88,1.83,1.83,0,0,1-.67.76,3.5,3.5,0,0,1-1,.49,3.45,3.45,0,0,1-2.48-.26,3.88,3.88,0,0,1-1.91-2,5.22,5.22,0,0,1-.11-3,5.41,5.41,0,0,1,1.53-2.65,4.34,4.34,0,0,1,2.81-1.21,5.77,5.77,0,0,1,2.85.79A14.85,14.85,0,0,1,44,24.79c.68.55,1.28,1.1,1.83,1.62l.78.76c.25.24.48.47.67.71l1,1.2.68.76.25.26s-.4-.31-1-.92L47.09,28.1c-.23-.2-.46-.44-.69-.68l-.77-.75c-.54-.52-1.14-1.07-1.81-1.6a14.51,14.51,0,0,0-2.21-1.51,5.44,5.44,0,0,0-2.68-.75,4,4,0,0,0-2.58,1.11,5.07,5.07,0,0,0-1.43,2.48A4.89,4.89,0,0,0,35,29.15,3.54,3.54,0,0,0,36.75,31a3.42,3.42,0,0,0,1.14.33A4,4,0,0,0,39,31.27a3.24,3.24,0,0,0,1-.38,1.56,1.56,0,0,0,.64-.65,1.27,1.27,0,0,0,.14-.78.88.88,0,0,0-.35-.57,1.54,1.54,0,0,0-1-.24l-.27,0Z" style="fill:#fff"/><path d="M77.78,25.3a2.23,2.23,0,0,1-.94,0,1,1,0,0,1-.71-.62,1.44,1.44,0,0,1,0-1,2.1,2.1,0,0,1,.54-.81,2.8,2.8,0,0,1,1.76-.77,3.3,3.3,0,0,1,1.89.48A4.45,4.45,0,0,1,81.79,24a3.58,3.58,0,0,1,.44.89,4.74,4.74,0,0,1,.19,1,5.25,5.25,0,0,1-1.06,3.66,5.48,5.48,0,0,1-1.42,1.32,5.35,5.35,0,0,1-1.8.73,6.24,6.24,0,0,1-1.92.14,6.37,6.37,0,0,1-1.88-.45,7.14,7.14,0,0,1-1.67-1,7.67,7.67,0,0,1-1.36-1.36,7.55,7.55,0,0,1-1-1.65,7.29,7.29,0,0,1-.53-1.85l.31.08-4,5.25-.66.86.36-1a10.12,10.12,0,0,0,.31-1.12,11.16,11.16,0,0,0,.2-1.15,9,9,0,0,0,.06-1.16A7.78,7.78,0,0,0,66.26,26a4.54,4.54,0,0,0-.86-2.13l-.18-.23-.2-.21a4.27,4.27,0,0,0-.45-.38l-.24-.17-.26-.15c-.17-.1-.35-.17-.53-.26.18.08.38.13.55.22l.27.13.26.15a3.91,3.91,0,0,1,.48.36l.22.2.2.22a3.83,3.83,0,0,1,.36.49,5,5,0,0,1,.29.53,5.76,5.76,0,0,1,.22.57,5.21,5.21,0,0,1,.16.59c0,.2.07.4.1.6a5.83,5.83,0,0,1,0,.61,10,10,0,0,1-.07,1.21,11.5,11.5,0,0,1-.2,1.19,10.41,10.41,0,0,1-.33,1.17l-.3-.17,4-5.25.25-.32.06.4a6.94,6.94,0,0,0,.5,1.76,7.2,7.2,0,0,0,.94,1.58,7,7,0,0,0,2.89,2.21,6,6,0,0,0,1.78.42,5.88,5.88,0,0,0,1.82-.14,5,5,0,0,0,1.68-.68,5.13,5.13,0,0,0,1.33-1.23,4.91,4.91,0,0,0,1-3.42,4.37,4.37,0,0,0-.18-.89,3.26,3.26,0,0,0-.4-.8,4,4,0,0,0-1.31-1.23,3.45,3.45,0,0,0-1.7-.5,2.57,2.57,0,0,0-1.66.62,1.66,1.66,0,0,0-.6,1.61.91.91,0,0,0,.63.6A2.21,2.21,0,0,0,77.78,25.3Z" style="fill:#fff"/><path d="M361,34.7a.91.91,0,0,0-.08.87,1.05,1.05,0,0,0,.75.45,1.61,1.61,0,0,0,1.6-.56,2.89,2.89,0,0,0,.44-1.71,3.75,3.75,0,0,0-.53-1.68,3.52,3.52,0,0,0-1.25-1.23,3.39,3.39,0,0,0-.4-.2,2.81,2.81,0,0,0-.42-.13,4.34,4.34,0,0,0-.88-.13,5,5,0,0,0-3.33,1.12,5.17,5.17,0,0,0-1.17,1.35,5.11,5.11,0,0,0-.63,1.68,5.7,5.7,0,0,0-.1,1.8,6.14,6.14,0,0,0,.45,1.75,7.21,7.21,0,0,0,5.52,4.25l.47.07-.41.25-4.82,3-.14-.32a8.77,8.77,0,0,1,1.15-.19,9.72,9.72,0,0,1,1.16-.05,8.4,8.4,0,0,1,1.16.1,6,6,0,0,1,1.13.3,5.77,5.77,0,0,1,.54.23,5,5,0,0,1,.51.29,5.36,5.36,0,0,1,.47.34,5.11,5.11,0,0,1,.42.4,5.17,5.17,0,0,1,.38.44,5,5,0,0,1,.31.48,4.78,4.78,0,0,1,.26.51c.08.17.14.36.21.53-.08-.17-.15-.35-.25-.51a4.73,4.73,0,0,0-.29-.49c-.1-.16-.22-.3-.34-.45a5,5,0,0,0-.39-.4,4.94,4.94,0,0,0-.43-.36,5.16,5.16,0,0,0-.47-.3,4.78,4.78,0,0,0-.5-.25,5.5,5.5,0,0,0-.52-.19c-.18-.05-.36-.1-.54-.14l-.55-.1a7.56,7.56,0,0,0-1.11-.1,9.37,9.37,0,0,0-1.12,0,8.48,8.48,0,0,0-1.1.18l-1.06.26.92-.57,4.82-3,.07.32a7.56,7.56,0,0,1-5.79-4.46,6.49,6.49,0,0,1-.47-1.85,6,6,0,0,1,.1-1.9,5.4,5.4,0,0,1,1.92-3.24,5.3,5.3,0,0,1,3.57-1.2,4.07,4.07,0,0,1,1.86.51,3.91,3.91,0,0,1,1.37,1.35,3.4,3.4,0,0,1,.51,1.85,3.13,3.13,0,0,1-.59,1.81,1.48,1.48,0,0,1-.8.53,2,2,0,0,1-.95,0,1.12,1.12,0,0,1-.77-.52A.93.93,0,0,1,361,34.7Z" style="fill:#fff"/><path d="M360.85,72.83a1.21,1.21,0,0,1-.23-1.09,1.18,1.18,0,0,1,.89-.7,1.59,1.59,0,0,1,1.15.19,1.57,1.57,0,0,1,.44.4,3.43,3.43,0,0,1,.65,2.81,3.76,3.76,0,0,1-1.15,2.06,3.68,3.68,0,0,1-1,.67l-.14.06-.15,0-.28.08a4.36,4.36,0,0,1-.59.11,5.05,5.05,0,0,1-2.34-.29,5.45,5.45,0,0,1-3.24-3.27,4.78,4.78,0,0,1-.17-.57c0-.1,0-.19-.06-.29a3,3,0,0,1,0-.31,3.68,3.68,0,0,1,.14-1.19,8.23,8.23,0,0,1,1-2.12,35.78,35.78,0,0,1,2.8-3.68c1-1.18,2-2.35,2.88-3.58a20.52,20.52,0,0,0,1.26-1.9,9.89,9.89,0,0,0,.92-2.06l.3.16a4.87,4.87,0,0,1-.37.39l-.39.35a9.54,9.54,0,0,1-.85.63,10.42,10.42,0,0,1-.91.53c-.31.16-.63.3-1,.44l-.6.25.4-.52a20.6,20.6,0,0,0,1.53-2.32c.23-.4.45-.81.64-1.23s.39-.84.56-1.27c.09-.21.17-.43.25-.65s.15-.44.21-.66a8.66,8.66,0,0,0,.28-1.36c0-.23,0-.46.05-.69a6.26,6.26,0,0,0,0-.7,5,5,0,0,0-.1-.69,5.78,5.78,0,0,0-.19-.68,5.81,5.81,0,0,1,.22.67,5.11,5.11,0,0,1,.14.69,6.38,6.38,0,0,1,.06.7c0,.24,0,.47,0,.71a8.85,8.85,0,0,1-.21,1.4c0,.23-.11.46-.17.69s-.14.45-.21.68a11.16,11.16,0,0,1-.53,1.31c-.21.42-.42.84-.66,1.25a20.91,20.91,0,0,1-1.56,2.37l-.2-.27c.31-.13.62-.27.92-.42a10.08,10.08,0,0,0,.88-.51,9.19,9.19,0,0,0,.81-.6l.38-.34a4.65,4.65,0,0,0,.34-.36l.55-.66-.24.81a10.22,10.22,0,0,1-.95,2.13,20.86,20.86,0,0,1-1.28,1.94c-.91,1.24-1.91,2.42-2.89,3.59A35.49,35.49,0,0,0,356,69.6a7.9,7.9,0,0,0-1,2,3.33,3.33,0,0,0-.13,1.08c0,.09,0,.17,0,.26s0,.19.06.28a4.46,4.46,0,0,0,.16.53,5.11,5.11,0,0,0,3,3.06,4.71,4.71,0,0,0,2.18.27,4,4,0,0,0,.54-.1l.27-.07.12,0,.13-.05a3.33,3.33,0,0,0,.91-.6,4,4,0,0,0,1.1-1.87,3.26,3.26,0,0,0-.19-2.17,3.33,3.33,0,0,0-.28-.49,1.42,1.42,0,0,0-.39-.38,1.49,1.49,0,0,0-1.06-.21,1.12,1.12,0,0,0-.87.63A1.19,1.19,0,0,0,360.85,72.83Z" style="fill:#fff"/><path d="M357.61,51.37l0,.09c0,.06,0,.15,0,.27a1.59,1.59,0,0,1-.19,1,1,1,0,0,1-.62.42A1.42,1.42,0,0,1,356,53a1.83,1.83,0,0,1-.76-.67,3.5,3.5,0,0,1-.49-1,3.45,3.45,0,0,1,.26-2.48A3.88,3.88,0,0,1,357,47a5.22,5.22,0,0,1,3-.11,5.41,5.41,0,0,1,2.65,1.53,4.34,4.34,0,0,1,1.21,2.81A5.77,5.77,0,0,1,363,54a14.85,14.85,0,0,1-1.54,2.27c-.55.68-1.1,1.28-1.62,1.83l-.76.78c-.24.25-.47.48-.71.67l-1.2,1-.76.68-.26.25s.31-.4.92-1l1.09-1.16c.2-.23.44-.46.68-.69l.75-.77c.52-.54,1.07-1.14,1.6-1.81a14.51,14.51,0,0,0,1.51-2.21,5.44,5.44,0,0,0,.75-2.68,4,4,0,0,0-1.11-2.58,5.07,5.07,0,0,0-2.48-1.43,4.89,4.89,0,0,0-2.76.09A3.54,3.54,0,0,0,355.29,49a3.42,3.42,0,0,0-.33,1.14,4,4,0,0,0,.06,1.11,3.24,3.24,0,0,0,.38,1,1.56,1.56,0,0,0,.65.64,1.27,1.27,0,0,0,.78.14.88.88,0,0,0,.57-.35,1.54,1.54,0,0,0,.24-1c0-.12,0-.21,0-.27Z" style="fill:#fff"/><path d="M361,90.06a2.23,2.23,0,0,1,0-.94,1,1,0,0,1,.62-.71,1.44,1.44,0,0,1,1,0,2.1,2.1,0,0,1,.81.54,2.8,2.8,0,0,1,.77,1.76,3.3,3.3,0,0,1-.48,1.89,4.45,4.45,0,0,1-1.34,1.42,3.58,3.58,0,0,1-.89.44,4.75,4.75,0,0,1-1,.19,5.25,5.25,0,0,1-3.66-1.06,5.48,5.48,0,0,1-1.32-1.42,5.35,5.35,0,0,1-.73-1.8,6.25,6.25,0,0,1-.14-1.92,6.38,6.38,0,0,1,.45-1.88A7.14,7.14,0,0,1,356,85a7.67,7.67,0,0,1,1.36-1.36,7.55,7.55,0,0,1,1.65-1,7.29,7.29,0,0,1,1.85-.53l-.08.31-5.25-4-.86-.66,1,.36a10.12,10.12,0,0,0,1.12.31,11.15,11.15,0,0,0,1.15.2,9,9,0,0,0,1.16.06,7.78,7.78,0,0,0,1.16-.08,4.54,4.54,0,0,0,2.13-.86l.23-.18.21-.2a4.26,4.26,0,0,0,.38-.45l.17-.24.15-.26c.1-.17.17-.35.26-.53-.08.18-.13.38-.22.55l-.13.27-.15.26a3.9,3.9,0,0,1-.36.48l-.2.22-.22.2a3.83,3.83,0,0,1-.49.36,5,5,0,0,1-.53.29,5.74,5.74,0,0,1-.57.22,5.21,5.21,0,0,1-.59.16c-.2,0-.4.07-.6.1a5.84,5.84,0,0,1-.61,0A10,10,0,0,1,358,78.9a11.5,11.5,0,0,1-1.19-.2,10.41,10.41,0,0,1-1.17-.33l.17-.3,5.25,4,.32.25-.4.06a7,7,0,0,0-1.76.5,7.2,7.2,0,0,0-1.58.94,7,7,0,0,0-2.21,2.89,6,6,0,0,0-.43,1.78,5.88,5.88,0,0,0,.14,1.82,5,5,0,0,0,.68,1.68A5.13,5.13,0,0,0,357,93.37a4.91,4.91,0,0,0,3.42,1,4.37,4.37,0,0,0,.89-.18,3.26,3.26,0,0,0,.8-.4,4,4,0,0,0,1.23-1.31,3.45,3.45,0,0,0,.5-1.7,2.57,2.57,0,0,0-.62-1.66,1.66,1.66,0,0,0-1.61-.6.91.91,0,0,0-.6.63A2.21,2.21,0,0,0,361,90.06Z" style="fill:#fff"/><path d="M352,25.45a.93.93,0,0,1-.9.12,1.12,1.12,0,0,1-.52-.77,2,2,0,0,1,0-.95,1.48,1.48,0,0,1,.53-.8,3.13,3.13,0,0,1,1.81-.59,3.4,3.4,0,0,1,1.85.51,3.91,3.91,0,0,1,1.35,1.37,4.07,4.07,0,0,1,.51,1.86,5.3,5.3,0,0,1-1.2,3.57,5.4,5.4,0,0,1-3.24,1.92,6.05,6.05,0,0,1-1.9.1,6.49,6.49,0,0,1-1.85-.47A7.56,7.56,0,0,1,344,25.54l.32.07-3,4.82-.57.92.26-1.06a8.47,8.47,0,0,0,.18-1.1,9.37,9.37,0,0,0,0-1.12,7.56,7.56,0,0,0-.1-1.11c0-.18-.06-.37-.1-.55s-.09-.36-.14-.54a5.5,5.5,0,0,0-.19-.52,4.77,4.77,0,0,0-.25-.5,5.13,5.13,0,0,0-.3-.47,4.94,4.94,0,0,0-.36-.43,5,5,0,0,0-.4-.39c-.15-.11-.29-.24-.45-.34a4.73,4.73,0,0,0-.49-.29c-.16-.09-.34-.16-.51-.25.18.07.36.13.53.21a4.79,4.79,0,0,1,.51.26,5,5,0,0,1,.48.31,5.17,5.17,0,0,1,.44.38,5.11,5.11,0,0,1,.4.42,5.35,5.35,0,0,1,.34.47,5,5,0,0,1,.29.51,5.78,5.78,0,0,1,.23.54,6,6,0,0,1,.3,1.13,8.41,8.41,0,0,1,.1,1.16,9.72,9.72,0,0,1-.05,1.16,8.77,8.77,0,0,1-.19,1.15l-.32-.14,3-4.82.25-.41.07.47A7.21,7.21,0,0,0,348.6,31a6.14,6.14,0,0,0,1.75.45,5.7,5.7,0,0,0,1.8-.1,5.11,5.11,0,0,0,1.68-.63,5.17,5.17,0,0,0,1.35-1.17,5,5,0,0,0,1.12-3.33,4.34,4.34,0,0,0-.13-.88,2.81,2.81,0,0,0-.13-.42,3.39,3.39,0,0,0-.2-.4,3.52,3.52,0,0,0-1.23-1.25,3.75,3.75,0,0,0-1.68-.53,2.89,2.89,0,0,0-1.71.44,1.61,1.61,0,0,0-.56,1.6,1.05,1.05,0,0,0,.45.75A.91.91,0,0,0,352,25.45Z" style="fill:#fff"/><path d="M313.87,25.58a1.19,1.19,0,0,0,1.08.2,1.12,1.12,0,0,0,.63-.87,1.49,1.49,0,0,0-.21-1.06,1.42,1.42,0,0,0-.38-.39,3.33,3.33,0,0,0-.49-.28,3.26,3.26,0,0,0-2.17-.19,4,4,0,0,0-1.87,1.1,3.33,3.33,0,0,0-.6.91l-.05.13a1.06,1.06,0,0,0,0,.12c0,.09-.06.18-.07.27a4,4,0,0,0-.1.54,4.71,4.71,0,0,0,.27,2.18,5.11,5.11,0,0,0,3.06,3,4.45,4.45,0,0,0,.53.16l.28.06.26,0a3.33,3.33,0,0,0,1.08-.13,7.9,7.9,0,0,0,2-1,35.49,35.49,0,0,0,3.64-2.77c1.18-1,2.35-2,3.59-2.89a20.85,20.85,0,0,1,1.94-1.28,10.22,10.22,0,0,1,2.13-.95l.81-.24-.66.55a4.64,4.64,0,0,0-.36.34l-.34.38a9.21,9.21,0,0,0-.6.81,10.09,10.09,0,0,0-.51.88c-.16.3-.29.61-.42.92l-.27-.2a20.9,20.9,0,0,1,2.37-1.56c.41-.23.83-.45,1.25-.66a11.17,11.17,0,0,1,1.31-.53l.68-.21c.23-.06.46-.13.69-.17a8.85,8.85,0,0,1,1.4-.21c.24,0,.47,0,.71,0a6.38,6.38,0,0,1,.7.06,5.09,5.09,0,0,1,.69.14,5.81,5.81,0,0,1,.67.22,5.78,5.78,0,0,0-.68-.19,5,5,0,0,0-.69-.1,6.28,6.28,0,0,0-.7,0c-.23,0-.46,0-.69.05a8.66,8.66,0,0,0-1.36.28c-.22.06-.44.13-.66.21l-.65.25c-.43.18-.85.37-1.27.56s-.83.41-1.23.64a20.59,20.59,0,0,0-2.32,1.53l-.52.4.25-.6c.13-.32.27-.64.44-1a10.42,10.42,0,0,1,.53-.91,9.54,9.54,0,0,1,.63-.85q.17-.2.35-.39a4.88,4.88,0,0,1,.39-.37l.16.3a9.89,9.89,0,0,0-2.06.92,20.51,20.51,0,0,0-1.9,1.26c-1.23.9-2.4,1.9-3.58,2.88a35.78,35.78,0,0,1-3.68,2.8,8.23,8.23,0,0,1-2.12,1,3.68,3.68,0,0,1-1.19.14l-.31,0-.29-.06a4.79,4.79,0,0,1-.57-.17,5.45,5.45,0,0,1-3.27-3.24,5.05,5.05,0,0,1-.29-2.34,4.37,4.37,0,0,1,.11-.59c0-.1,0-.19.08-.28a1.4,1.4,0,0,1,0-.15l.06-.14a3.68,3.68,0,0,1,.67-1,3.76,3.76,0,0,1,2.06-1.15,3.43,3.43,0,0,1,2.81.65,1.57,1.57,0,0,1,.4.44,1.59,1.59,0,0,1,.19,1.15,1.18,1.18,0,0,1-.7.89A1.21,1.21,0,0,1,313.87,25.58Z" style="fill:#fff"/><path d="M335.33,28.83h-.09l-.27,0a1.54,1.54,0,0,0-1,.24.88.88,0,0,0-.35.57,1.27,1.27,0,0,0,.14.78,1.56,1.56,0,0,0,.64.65,3.24,3.24,0,0,0,1,.38,4,4,0,0,0,1.11.06,3.42,3.42,0,0,0,1.14-.33,3.54,3.54,0,0,0,1.73-1.84,4.89,4.89,0,0,0,.09-2.76,5.07,5.07,0,0,0-1.43-2.48A4,4,0,0,0,335.49,23a5.44,5.44,0,0,0-2.68.75,14.52,14.52,0,0,0-2.21,1.51c-.67.54-1.27,1.09-1.81,1.6l-.77.75c-.24.25-.47.48-.69.68l-1.16,1.09c-.64.61-1,.92-1,.92l.25-.26.68-.76,1-1.2c.2-.23.43-.47.67-.71l.78-.76c.55-.52,1.15-1.08,1.83-1.62a14.85,14.85,0,0,1,2.27-1.54,5.77,5.77,0,0,1,2.85-.79,4.34,4.34,0,0,1,2.81,1.21,5.41,5.41,0,0,1,1.53,2.65,5.22,5.22,0,0,1-.11,3,3.88,3.88,0,0,1-1.91,2,3.45,3.45,0,0,1-2.48.26,3.5,3.5,0,0,1-1-.49,1.83,1.83,0,0,1-.67-.76,1.42,1.42,0,0,1-.11-.88A1,1,0,0,1,334,29a1.59,1.59,0,0,1,1-.19l.27,0Z" style="fill:#fff"/><path d="M296.64,25.45a2.21,2.21,0,0,0,.93,0,.91.91,0,0,0,.63-.6,1.66,1.66,0,0,0-.6-1.61,2.57,2.57,0,0,0-1.66-.62,3.45,3.45,0,0,0-1.7.5,4,4,0,0,0-1.31,1.23,3.26,3.26,0,0,0-.4.8,4.37,4.37,0,0,0-.18.89,4.91,4.91,0,0,0,1,3.42,5.13,5.13,0,0,0,1.33,1.23,5,5,0,0,0,1.68.68,5.88,5.88,0,0,0,1.82.14,6,6,0,0,0,1.78-.42,7,7,0,0,0,2.89-2.21,7.21,7.21,0,0,0,.94-1.58,6.94,6.94,0,0,0,.5-1.76l.06-.4.25.32,4,5.25-.3.17a10.41,10.41,0,0,1-.33-1.17,11.5,11.5,0,0,1-.2-1.19,10,10,0,0,1-.07-1.21,5.83,5.83,0,0,1,0-.61c0-.2.06-.4.1-.6a5.21,5.21,0,0,1,.16-.59,5.74,5.74,0,0,1,.22-.57,5,5,0,0,1,.29-.53,3.83,3.83,0,0,1,.36-.49l.2-.22.22-.2a3.91,3.91,0,0,1,.48-.36l.26-.15.27-.13c.18-.09.37-.15.55-.22-.18.09-.36.16-.53.26l-.26.15-.24.17a4.27,4.27,0,0,0-.45.38l-.2.21L309,24a4.54,4.54,0,0,0-.86,2.13,7.78,7.78,0,0,0-.08,1.16,8.94,8.94,0,0,0,.06,1.16,11.15,11.15,0,0,0,.2,1.15,10.13,10.13,0,0,0,.31,1.12l.36,1-.66-.86-4-5.25.31-.08a7.29,7.29,0,0,1-.53,1.85,7.55,7.55,0,0,1-1,1.65,7.67,7.67,0,0,1-1.36,1.36,7.14,7.14,0,0,1-1.67,1,6.37,6.37,0,0,1-1.88.45,6.24,6.24,0,0,1-1.92-.14,5.35,5.35,0,0,1-1.8-.73,5.48,5.48,0,0,1-1.42-1.32A5.25,5.25,0,0,1,292,26a4.74,4.74,0,0,1,.19-1,3.58,3.58,0,0,1,.44-.89,4.45,4.45,0,0,1,1.42-1.34,3.3,3.3,0,0,1,1.89-.48,2.8,2.8,0,0,1,1.76.77,2.1,2.1,0,0,1,.54.81,1.44,1.44,0,0,1,0,1,1,1,0,0,1-.71.62A2.23,2.23,0,0,1,296.64,25.45Z" style="fill:#fff"/><path d="M13.28,643.46a.91.91,0,0,0,.08-.87,1.05,1.05,0,0,0-.75-.45,1.61,1.61,0,0,0-1.6.56,2.89,2.89,0,0,0-.44,1.71,3.75,3.75,0,0,0,.53,1.68,3.52,3.52,0,0,0,1.25,1.23,3.39,3.39,0,0,0,.4.2,2.81,2.81,0,0,0,.42.13,4.34,4.34,0,0,0,.88.13,5,5,0,0,0,3.33-1.12,5.17,5.17,0,0,0,1.17-1.35,5.11,5.11,0,0,0,.63-1.68,5.7,5.7,0,0,0,.1-1.8,6.14,6.14,0,0,0-.45-1.75,7.21,7.21,0,0,0-5.52-4.25l-.47-.07.41-.25,4.82-3,.14.32a8.77,8.77,0,0,1-1.15.19,9.72,9.72,0,0,1-1.16.05,8.39,8.39,0,0,1-1.16-.1,6,6,0,0,1-1.13-.3,5.78,5.78,0,0,1-.54-.23,5,5,0,0,1-.51-.29,5.37,5.37,0,0,1-.47-.34,5.26,5.26,0,0,1-.8-.84,5,5,0,0,1-.31-.48,4.78,4.78,0,0,1-.26-.51c-.08-.17-.14-.36-.21-.53.08.17.15.35.25.51a4.72,4.72,0,0,0,.29.49c.1.16.22.3.34.45a5,5,0,0,0,.39.4,5,5,0,0,0,.43.36,5.15,5.15,0,0,0,.47.3,4.77,4.77,0,0,0,.5.25,5.5,5.5,0,0,0,.52.19c.18.05.36.1.54.14l.55.1a7.56,7.56,0,0,0,1.11.1,9.38,9.38,0,0,0,1.12,0,8.48,8.48,0,0,0,1.1-.18l1.06-.26-.92.57-4.82,3-.07-.32a7.56,7.56,0,0,1,5.79,4.46,6.49,6.49,0,0,1,.47,1.85,6.05,6.05,0,0,1-.1,1.9,5.4,5.4,0,0,1-1.92,3.24,5.3,5.3,0,0,1-3.57,1.2,4.07,4.07,0,0,1-1.86-.51,3.91,3.91,0,0,1-1.37-1.35,3.4,3.4,0,0,1-.51-1.85,3.13,3.13,0,0,1,.59-1.81,1.48,1.48,0,0,1,.8-.53,2,2,0,0,1,.95,0,1.12,1.12,0,0,1,.77.52A.93.93,0,0,1,13.28,643.46Z" style="fill:#fff"/><path d="M13.41,605.34a1.21,1.21,0,0,1,.23,1.09,1.18,1.18,0,0,1-.89.7,1.59,1.59,0,0,1-1.15-.19,1.57,1.57,0,0,1-.44-.4,3.43,3.43,0,0,1-.65-2.81,3.76,3.76,0,0,1,1.15-2.06,3.68,3.68,0,0,1,1-.67l.14-.06.15,0,.28-.08a4.37,4.37,0,0,1,.59-.11,5.05,5.05,0,0,1,2.34.29,5.45,5.45,0,0,1,3.24,3.27,4.8,4.8,0,0,1,.17.57c0,.1,0,.19.06.29a3,3,0,0,1,0,.31,3.68,3.68,0,0,1-.14,1.19,8.23,8.23,0,0,1-1,2.12,35.77,35.77,0,0,1-2.8,3.68c-1,1.18-2,2.35-2.88,3.58a20.51,20.51,0,0,0-1.26,1.9,9.89,9.89,0,0,0-.92,2.06l-.3-.16a4.88,4.88,0,0,1,.37-.39l.39-.35a9.55,9.55,0,0,1,.85-.63,10.42,10.42,0,0,1,.91-.53c.31-.16.63-.3,1-.44l.6-.25-.4.52a20.6,20.6,0,0,0-1.53,2.32c-.23.4-.45.81-.64,1.23s-.39.84-.56,1.27c-.09.21-.17.43-.25.65s-.15.44-.21.66a8.66,8.66,0,0,0-.28,1.36c0,.23,0,.46-.05.69a6.28,6.28,0,0,0,0,.7,5,5,0,0,0,.1.69,5.78,5.78,0,0,0,.19.68,5.8,5.8,0,0,1-.22-.67,5.09,5.09,0,0,1-.14-.69,6.37,6.37,0,0,1-.06-.7c0-.24,0-.47,0-.71a8.86,8.86,0,0,1,.21-1.4c0-.23.11-.46.17-.69s.14-.45.21-.68a11.18,11.18,0,0,1,.53-1.31c.21-.42.42-.84.66-1.25a20.89,20.89,0,0,1,1.56-2.37l.2.27c-.31.13-.62.27-.92.42a10.08,10.08,0,0,0-.88.51,9.2,9.2,0,0,0-.81.6l-.38.34a4.64,4.64,0,0,0-.34.36l-.55.66.24-.81a10.22,10.22,0,0,1,.95-2.13,20.85,20.85,0,0,1,1.28-1.94c.91-1.24,1.91-2.42,2.89-3.59a35.5,35.5,0,0,0,2.77-3.64,7.9,7.9,0,0,0,1-2,3.33,3.33,0,0,0,.13-1.08c0-.09,0-.17,0-.26s0-.19-.06-.28a4.46,4.46,0,0,0-.16-.53,5.11,5.11,0,0,0-3-3.06,4.71,4.71,0,0,0-2.18-.27,4,4,0,0,0-.54.1l-.27.07-.12,0-.13.05a3.33,3.33,0,0,0-.91.6,4,4,0,0,0-1.1,1.87A3.26,3.26,0,0,0,11,606a3.33,3.33,0,0,0,.28.49,1.42,1.42,0,0,0,.39.38,1.49,1.49,0,0,0,1.06.21,1.11,1.11,0,0,0,.87-.63A1.19,1.19,0,0,0,13.41,605.34Z" style="fill:#fff"/><path d="M16.65,626.8l0-.09c0-.06,0-.15,0-.27a1.59,1.59,0,0,1,.19-1,1,1,0,0,1,.62-.42,1.42,1.42,0,0,1,.88.11,1.83,1.83,0,0,1,.76.67,3.5,3.5,0,0,1,.49,1,3.45,3.45,0,0,1-.26,2.48,3.88,3.88,0,0,1-2,1.91,5.22,5.22,0,0,1-3,.11,5.41,5.41,0,0,1-2.65-1.53A4.34,4.34,0,0,1,10.43,627a5.77,5.77,0,0,1,.79-2.85,14.84,14.84,0,0,1,1.54-2.27c.55-.68,1.1-1.28,1.62-1.83l.76-.78c.24-.25.47-.48.71-.67l1.2-1,.76-.68.26-.25s-.31.4-.92,1l-1.09,1.16c-.2.23-.44.46-.68.69l-.75.77c-.52.54-1.07,1.14-1.6,1.81a14.51,14.51,0,0,0-1.51,2.21,5.44,5.44,0,0,0-.75,2.68,4,4,0,0,0,1.11,2.58A5.07,5.07,0,0,0,14.37,631a4.89,4.89,0,0,0,2.76-.09A3.54,3.54,0,0,0,19,629.14,3.42,3.42,0,0,0,19.3,628a4,4,0,0,0-.06-1.11,3.24,3.24,0,0,0-.38-1,1.56,1.56,0,0,0-.65-.64,1.27,1.27,0,0,0-.78-.14.88.88,0,0,0-.57.35,1.54,1.54,0,0,0-.24,1c0,.12,0,.21,0,.27Z" style="fill:#fff"/><path d="M13.27,588.1a2.23,2.23,0,0,1,0,.94,1,1,0,0,1-.62.71,1.44,1.44,0,0,1-1,0,2.1,2.1,0,0,1-.81-.54,2.8,2.8,0,0,1-.77-1.76,3.3,3.3,0,0,1,.48-1.89,4.45,4.45,0,0,1,1.34-1.42,3.58,3.58,0,0,1,.89-.44,4.75,4.75,0,0,1,1-.19,5.25,5.25,0,0,1,3.66,1.06,5.48,5.48,0,0,1,1.32,1.42,5.35,5.35,0,0,1,.73,1.8,6.24,6.24,0,0,1,.14,1.92,6.37,6.37,0,0,1-.45,1.88,7.14,7.14,0,0,1-1,1.67,7.67,7.67,0,0,1-1.36,1.36,7.55,7.55,0,0,1-1.65,1,7.29,7.29,0,0,1-1.85.53l.08-.31,5.25,4,.86.66-1-.36a10.12,10.12,0,0,0-1.12-.31,11.14,11.14,0,0,0-1.15-.2,9,9,0,0,0-1.16-.06,7.78,7.78,0,0,0-1.16.08,4.54,4.54,0,0,0-2.13.86l-.23.18-.21.2a4.28,4.28,0,0,0-.38.45l-.17.24-.15.26c-.1.17-.17.35-.26.53.08-.18.13-.38.22-.55l.13-.27.15-.26a3.91,3.91,0,0,1,.36-.48l.2-.22.22-.2a3.82,3.82,0,0,1,.49-.36,5,5,0,0,1,.53-.29,5.74,5.74,0,0,1,.57-.22,5.21,5.21,0,0,1,.59-.16c.2,0,.4-.07.6-.1a5.84,5.84,0,0,1,.61,0,10.05,10.05,0,0,1,1.21.07,11.5,11.5,0,0,1,1.19.2,10.41,10.41,0,0,1,1.17.33l-.17.3-5.25-4-.32-.25.4-.06a7,7,0,0,0,1.76-.5,7.2,7.2,0,0,0,1.58-.94,7,7,0,0,0,2.21-2.89,6,6,0,0,0,.42-1.78,5.87,5.87,0,0,0-.14-1.82,5,5,0,0,0-.68-1.68,5.13,5.13,0,0,0-1.23-1.33,4.91,4.91,0,0,0-3.42-1,4.37,4.37,0,0,0-.89.18,3.26,3.26,0,0,0-.8.4,4,4,0,0,0-1.23,1.31,3.45,3.45,0,0,0-.5,1.7,2.57,2.57,0,0,0,.62,1.66,1.66,1.66,0,0,0,1.61.6.91.91,0,0,0,.6-.63A2.21,2.21,0,0,0,13.27,588.1Z" style="fill:#fff"/><path d="M22.26,652.71a.93.93,0,0,1,.9-.12,1.12,1.12,0,0,1,.52.77,2,2,0,0,1,0,.95,1.48,1.48,0,0,1-.53.8,3.13,3.13,0,0,1-1.81.59,3.4,3.4,0,0,1-1.85-.51,3.91,3.91,0,0,1-1.35-1.37A4.07,4.07,0,0,1,17.6,652a5.3,5.3,0,0,1,1.2-3.57A5.4,5.4,0,0,1,22,646.47a6.05,6.05,0,0,1,1.9-.1,6.49,6.49,0,0,1,1.85.47,7.56,7.56,0,0,1,4.46,5.79l-.32-.07,3-4.82.57-.92-.26,1.06a8.47,8.47,0,0,0-.18,1.1,9.37,9.37,0,0,0,0,1.12,7.56,7.56,0,0,0,.1,1.11c0,.18.06.37.1.55s.09.36.14.54a5.5,5.5,0,0,0,.19.52,4.78,4.78,0,0,0,.25.5,5.16,5.16,0,0,0,.3.47,5,5,0,0,0,.36.43,5,5,0,0,0,.4.39c.15.11.29.24.45.34a4.73,4.73,0,0,0,.49.29c.16.09.34.16.51.25-.18-.07-.36-.13-.53-.21a4.79,4.79,0,0,1-.51-.26,5,5,0,0,1-.48-.31,5.16,5.16,0,0,1-.44-.38,5.1,5.1,0,0,1-.4-.42,5.37,5.37,0,0,1-.34-.47,5,5,0,0,1-.29-.51,5.77,5.77,0,0,1-.23-.54,6,6,0,0,1-.3-1.13,8.4,8.4,0,0,1-.1-1.16,9.72,9.72,0,0,1,.05-1.16,8.77,8.77,0,0,1,.19-1.15l.32.14-3,4.82-.25.41-.07-.47a7.21,7.21,0,0,0-4.25-5.52,6.14,6.14,0,0,0-1.75-.45,5.7,5.7,0,0,0-1.8.1,5.11,5.11,0,0,0-1.68.63,5.17,5.17,0,0,0-1.35,1.17A5,5,0,0,0,18,651.94a4.34,4.34,0,0,0,.13.88,2.81,2.81,0,0,0,.13.42,3.39,3.39,0,0,0,.2.4,3.52,3.52,0,0,0,1.23,1.25,3.75,3.75,0,0,0,1.68.53A2.89,2.89,0,0,0,23,655a1.61,1.61,0,0,0,.56-1.6,1.05,1.05,0,0,0-.45-.75A.91.91,0,0,0,22.26,652.71Z" style="fill:#fff"/><path d="M60.39,652.58a1.19,1.19,0,0,0-1.08-.2,1.12,1.12,0,0,0-.63.87,1.49,1.49,0,0,0,.21,1.06,1.42,1.42,0,0,0,.38.39,3.33,3.33,0,0,0,.49.28,3.26,3.26,0,0,0,2.17.19,4,4,0,0,0,1.87-1.1,3.33,3.33,0,0,0,.6-.91l.05-.13a1.06,1.06,0,0,0,0-.12c0-.09.06-.18.07-.27a4,4,0,0,0,.1-.54,4.71,4.71,0,0,0-.27-2.18,5.11,5.11,0,0,0-3.06-3,4.44,4.44,0,0,0-.53-.16l-.28-.06-.26,0a3.33,3.33,0,0,0-1.08.13,7.9,7.9,0,0,0-2,1,35.49,35.49,0,0,0-3.64,2.77c-1.18,1-2.35,2-3.59,2.89A20.85,20.85,0,0,1,48,654.67a10.23,10.23,0,0,1-2.13.95l-.81.24.66-.55a4.64,4.64,0,0,0,.36-.34l.34-.38a9.2,9.2,0,0,0,.6-.81,10.09,10.09,0,0,0,.51-.88c.16-.3.29-.61.42-.92l.27.2a20.9,20.9,0,0,1-2.37,1.56c-.41.23-.83.45-1.25.66a11.18,11.18,0,0,1-1.31.53l-.68.21c-.23.06-.46.13-.69.17a8.85,8.85,0,0,1-1.4.21c-.24,0-.47,0-.71,0a6.37,6.37,0,0,1-.7-.06,5.09,5.09,0,0,1-.69-.14,5.8,5.8,0,0,1-.67-.22,5.78,5.78,0,0,0,.68.19,5,5,0,0,0,.69.1,6.28,6.28,0,0,0,.7,0c.23,0,.46,0,.69-.05a8.66,8.66,0,0,0,1.36-.28c.22-.06.44-.13.66-.21l.65-.25c.43-.18.85-.37,1.27-.56s.83-.41,1.23-.64A20.59,20.59,0,0,0,48,651.91l.52-.4-.25.6c-.13.32-.27.64-.44,1a10.43,10.43,0,0,1-.53.91,9.55,9.55,0,0,1-.63.85q-.17.2-.35.39a4.89,4.89,0,0,1-.39.37l-.16-.3a9.88,9.88,0,0,0,2.06-.92,20.5,20.5,0,0,0,1.9-1.26c1.23-.9,2.4-1.9,3.58-2.88a35.78,35.78,0,0,1,3.68-2.8,8.23,8.23,0,0,1,2.12-1,3.67,3.67,0,0,1,1.19-.14l.31,0,.29.06a4.78,4.78,0,0,1,.57.17,5.45,5.45,0,0,1,3.27,3.24,5.05,5.05,0,0,1,.29,2.34,4.36,4.36,0,0,1-.11.59c0,.1,0,.19-.08.28a1.4,1.4,0,0,1,0,.15l-.06.14a3.68,3.68,0,0,1-.67,1A3.76,3.76,0,0,1,62,655.47a3.43,3.43,0,0,1-2.81-.65,1.58,1.58,0,0,1-.4-.44,1.59,1.59,0,0,1-.19-1.15,1.18,1.18,0,0,1,.7-.89A1.21,1.21,0,0,1,60.39,652.58Z" style="fill:#fff"/><path d="M38.92,649.34H39l.27,0a1.54,1.54,0,0,0,1-.24.88.88,0,0,0,.35-.57,1.27,1.27,0,0,0-.14-.78,1.56,1.56,0,0,0-.64-.65,3.24,3.24,0,0,0-1-.38,4,4,0,0,0-1.11-.06,3.42,3.42,0,0,0-1.14.33,3.54,3.54,0,0,0-1.73,1.84,4.89,4.89,0,0,0-.09,2.76,5.07,5.07,0,0,0,1.43,2.48,4,4,0,0,0,2.58,1.11,5.44,5.44,0,0,0,2.68-.75A14.51,14.51,0,0,0,43.66,653c.67-.54,1.27-1.09,1.81-1.6l.77-.75c.24-.25.47-.48.69-.68l1.16-1.09c.64-.61,1-.92,1-.92l-.25.26-.68.76-1,1.2c-.2.23-.43.47-.67.71l-.78.76c-.55.52-1.15,1.08-1.83,1.62a14.85,14.85,0,0,1-2.27,1.54,5.77,5.77,0,0,1-2.85.79,4.34,4.34,0,0,1-2.81-1.21,5.41,5.41,0,0,1-1.53-2.65,5.22,5.22,0,0,1,.11-3,3.88,3.88,0,0,1,1.91-2,3.45,3.45,0,0,1,2.48-.26,3.5,3.5,0,0,1,1,.49,1.83,1.83,0,0,1,.67.76,1.42,1.42,0,0,1,.11.88,1,1,0,0,1-.42.62,1.59,1.59,0,0,1-1,.19l-.27,0Z" style="fill:#fff"/><path d="M77.62,652.72a2.21,2.21,0,0,0-.93,0,.91.91,0,0,0-.63.6,1.66,1.66,0,0,0,.6,1.61,2.57,2.57,0,0,0,1.66.62,3.45,3.45,0,0,0,1.7-.5,4,4,0,0,0,1.31-1.23,3.26,3.26,0,0,0,.4-.8,4.37,4.37,0,0,0,.18-.89,4.91,4.91,0,0,0-1-3.42,5.13,5.13,0,0,0-1.33-1.23,5,5,0,0,0-1.68-.68,5.87,5.87,0,0,0-1.82-.14,6,6,0,0,0-1.78.42,7,7,0,0,0-2.89,2.21,7.21,7.21,0,0,0-.94,1.58,7,7,0,0,0-.5,1.76l-.06.4-.25-.32-4-5.25.3-.17a10.41,10.41,0,0,1,.33,1.17,11.5,11.5,0,0,1,.2,1.19,10,10,0,0,1,.07,1.21,5.83,5.83,0,0,1,0,.61c0,.2-.06.4-.1.6a5.22,5.22,0,0,1-.16.59,5.75,5.75,0,0,1-.22.57,5,5,0,0,1-.29.53,3.83,3.83,0,0,1-.36.49l-.2.22-.22.2a3.91,3.91,0,0,1-.48.36l-.26.15-.27.13c-.18.09-.37.15-.55.22.18-.09.36-.16.53-.26l.26-.15.24-.17a4.27,4.27,0,0,0,.45-.38l.2-.21.18-.23a4.54,4.54,0,0,0,.86-2.13,7.78,7.78,0,0,0,.08-1.16,9,9,0,0,0-.06-1.16,11.16,11.16,0,0,0-.2-1.15,10.12,10.12,0,0,0-.31-1.12l-.36-1,.66.86,4,5.25-.31.08a7.29,7.29,0,0,1,.53-1.85,7.55,7.55,0,0,1,1-1.65,7.67,7.67,0,0,1,1.36-1.36,7.14,7.14,0,0,1,1.67-1,6.37,6.37,0,0,1,1.88-.45,6.25,6.25,0,0,1,1.92.14,5.35,5.35,0,0,1,1.8.73,5.48,5.48,0,0,1,1.42,1.32,5.25,5.25,0,0,1,1.06,3.66,4.74,4.74,0,0,1-.19,1,3.58,3.58,0,0,1-.44.89,4.45,4.45,0,0,1-1.42,1.34,3.3,3.3,0,0,1-1.89.48,2.8,2.8,0,0,1-1.76-.77,2.1,2.1,0,0,1-.54-.81,1.44,1.44,0,0,1,0-1,1,1,0,0,1,.71-.62A2.23,2.23,0,0,1,77.62,652.72Z" style="fill:#fff"/><path d="M360.82,643.31a.93.93,0,0,1-.12-.9,1.12,1.12,0,0,1,.77-.52,2,2,0,0,1,.95,0,1.48,1.48,0,0,1,.8.53,3.13,3.13,0,0,1,.59,1.81,3.4,3.4,0,0,1-.51,1.85,3.91,3.91,0,0,1-1.37,1.35,4.07,4.07,0,0,1-1.86.51,5.3,5.3,0,0,1-3.57-1.2,5.4,5.4,0,0,1-1.92-3.24,6.05,6.05,0,0,1-.1-1.9,6.49,6.49,0,0,1,.47-1.85,7.56,7.56,0,0,1,5.79-4.46l-.07.32-4.82-3-.92-.57,1.06.26a8.48,8.48,0,0,0,1.1.18,9.38,9.38,0,0,0,1.12,0,7.56,7.56,0,0,0,1.11-.1l.55-.1c.18,0,.36-.09.54-.14a5.49,5.49,0,0,0,.52-.19,4.77,4.77,0,0,0,.5-.25,5.16,5.16,0,0,0,.47-.3,4.94,4.94,0,0,0,.43-.36,5,5,0,0,0,.39-.4c.11-.15.24-.29.34-.45a4.71,4.71,0,0,0,.29-.49c.09-.16.16-.34.25-.51-.07.18-.13.36-.21.53a4.8,4.8,0,0,1-.26.51,5,5,0,0,1-.31.48,5.26,5.26,0,0,1-.8.84,5.36,5.36,0,0,1-.47.34,5,5,0,0,1-.51.29,5.78,5.78,0,0,1-.54.23,6,6,0,0,1-1.13.3,8.4,8.4,0,0,1-1.16.1,9.72,9.72,0,0,1-1.16-.05,8.77,8.77,0,0,1-1.15-.19l.14-.32,4.82,3,.41.25-.47.07a7.21,7.21,0,0,0-5.52,4.25,6.14,6.14,0,0,0-.45,1.75,5.69,5.69,0,0,0,.1,1.8,5.11,5.11,0,0,0,.63,1.68,5.17,5.17,0,0,0,1.17,1.35,5,5,0,0,0,3.33,1.12,4.34,4.34,0,0,0,.88-.13,2.81,2.81,0,0,0,.42-.13,3.4,3.4,0,0,0,.4-.2,3.52,3.52,0,0,0,1.25-1.23,3.75,3.75,0,0,0,.53-1.68,2.89,2.89,0,0,0-.44-1.71,1.61,1.61,0,0,0-1.6-.56,1.05,1.05,0,0,0-.75.45A.91.91,0,0,0,360.82,643.31Z" style="fill:#fff"/><path d="M360.69,605.19a1.19,1.19,0,0,0-.2,1.08,1.12,1.12,0,0,0,.87.63,1.49,1.49,0,0,0,1.06-.21,1.42,1.42,0,0,0,.39-.38,3.33,3.33,0,0,0,.28-.49,3.26,3.26,0,0,0,.19-2.17,4,4,0,0,0-1.1-1.87,3.33,3.33,0,0,0-.91-.6l-.13-.05-.12,0-.27-.07a4,4,0,0,0-.54-.1,4.71,4.71,0,0,0-2.18.27,5.11,5.11,0,0,0-3,3.06,4.43,4.43,0,0,0-.16.53c0,.09,0,.18-.06.28s0,.17,0,.26a3.33,3.33,0,0,0,.13,1.08,7.91,7.91,0,0,0,1,2,35.49,35.49,0,0,0,2.77,3.64c1,1.18,2,2.35,2.89,3.59a20.83,20.83,0,0,1,1.28,1.94,10.22,10.22,0,0,1,.95,2.13l.24.81-.55-.66a4.65,4.65,0,0,0-.34-.36l-.38-.34a9.21,9.21,0,0,0-.81-.6,10.08,10.08,0,0,0-.88-.51c-.3-.16-.61-.29-.92-.42l.2-.27a20.89,20.89,0,0,1,1.56,2.37c.23.41.45.83.66,1.25a11.18,11.18,0,0,1,.53,1.31c.08.22.15.45.21.68s.13.46.17.69a8.85,8.85,0,0,1,.21,1.4c0,.24,0,.47,0,.71a6.38,6.38,0,0,1-.06.7,5.09,5.09,0,0,1-.14.69,5.82,5.82,0,0,1-.22.67,5.78,5.78,0,0,0,.19-.68,5,5,0,0,0,.1-.69,6.28,6.28,0,0,0,0-.7c0-.23,0-.46-.05-.69a8.66,8.66,0,0,0-.28-1.36c-.06-.22-.13-.44-.21-.66s-.16-.44-.25-.65c-.18-.43-.37-.85-.56-1.27s-.41-.83-.64-1.23a20.59,20.59,0,0,0-1.53-2.32l-.4-.52.6.25c.32.13.64.27,1,.44a10.42,10.42,0,0,1,.91.53,9.53,9.53,0,0,1,.85.63l.39.35a4.89,4.89,0,0,1,.37.39l-.3.16a9.89,9.89,0,0,0-.92-2.06,20.52,20.52,0,0,0-1.26-1.9c-.9-1.23-1.9-2.4-2.88-3.58a35.79,35.79,0,0,1-2.8-3.68,8.23,8.23,0,0,1-1-2.12,3.68,3.68,0,0,1-.14-1.19,3,3,0,0,1,0-.31c0-.09,0-.19.06-.29a4.78,4.78,0,0,1,.17-.57,5.45,5.45,0,0,1,3.24-3.27,5.05,5.05,0,0,1,2.34-.29,4.37,4.37,0,0,1,.59.11l.28.08.15,0,.14.06a3.68,3.68,0,0,1,1,.67,3.76,3.76,0,0,1,1.15,2.06,3.43,3.43,0,0,1-.65,2.81,1.57,1.57,0,0,1-.44.4,1.59,1.59,0,0,1-1.15.19,1.18,1.18,0,0,1-.89-.7A1.21,1.21,0,0,1,360.69,605.19Z" style="fill:#fff"/><path d="M357.44,626.65v-.09c0-.06,0-.15,0-.27a1.54,1.54,0,0,0-.24-1,.88.88,0,0,0-.57-.35,1.27,1.27,0,0,0-.78.14,1.56,1.56,0,0,0-.65.64,3.24,3.24,0,0,0-.38,1,4,4,0,0,0-.06,1.11,3.42,3.42,0,0,0,.33,1.14,3.54,3.54,0,0,0,1.84,1.73,4.89,4.89,0,0,0,2.76.09,5.07,5.07,0,0,0,2.48-1.43,4,4,0,0,0,1.11-2.58,5.44,5.44,0,0,0-.75-2.68,14.51,14.51,0,0,0-1.51-2.21c-.54-.67-1.09-1.27-1.6-1.81l-.75-.77c-.25-.24-.48-.47-.68-.69l-1.09-1.16c-.61-.64-.92-1-.92-1l.26.25.76.68,1.2,1c.23.2.47.43.71.67l.76.78c.52.55,1.08,1.15,1.62,1.83a14.85,14.85,0,0,1,1.54,2.27,5.77,5.77,0,0,1,.79,2.85,4.34,4.34,0,0,1-1.21,2.81,5.41,5.41,0,0,1-2.65,1.53,5.22,5.22,0,0,1-3-.11,3.88,3.88,0,0,1-2-1.91,3.45,3.45,0,0,1-.26-2.48,3.5,3.5,0,0,1,.49-1,1.83,1.83,0,0,1,.76-.67,1.42,1.42,0,0,1,.88-.11,1,1,0,0,1,.62.42,1.59,1.59,0,0,1,.19,1c0,.12,0,.21,0,.27Z" style="fill:#fff"/><path d="M360.82,588a2.21,2.21,0,0,0,0,.93.91.91,0,0,0,.6.63,1.66,1.66,0,0,0,1.61-.6,2.57,2.57,0,0,0,.62-1.66,3.45,3.45,0,0,0-.5-1.7,4,4,0,0,0-1.23-1.31,3.26,3.26,0,0,0-.8-.4,4.37,4.37,0,0,0-.89-.18,4.91,4.91,0,0,0-3.42,1,5.13,5.13,0,0,0-1.23,1.33,5,5,0,0,0-.68,1.68,5.87,5.87,0,0,0-.14,1.82,6,6,0,0,0,.42,1.78,7,7,0,0,0,2.21,2.89,7.21,7.21,0,0,0,1.58.94,7,7,0,0,0,1.76.5l.4.06-.32.25-5.25,4-.17-.3a10.42,10.42,0,0,1,1.17-.33,11.5,11.5,0,0,1,1.19-.2A10,10,0,0,1,359,599a5.84,5.84,0,0,1,.61,0c.2,0,.4.06.6.1a5.2,5.2,0,0,1,.59.16,5.74,5.74,0,0,1,.57.22,5,5,0,0,1,.53.29,3.83,3.83,0,0,1,.49.36l.22.2.2.22a3.91,3.91,0,0,1,.36.48l.15.26.13.27c.09.18.15.37.22.55-.09-.18-.16-.36-.26-.53l-.15-.26-.17-.24a4.28,4.28,0,0,0-.38-.45l-.21-.2-.23-.18a4.54,4.54,0,0,0-2.13-.86,7.78,7.78,0,0,0-1.16-.08,9,9,0,0,0-1.16.06,11.15,11.15,0,0,0-1.15.2,10.13,10.13,0,0,0-1.12.31l-1,.36.86-.66,5.25-4,.08.31a7.29,7.29,0,0,1-1.85-.53,7.55,7.55,0,0,1-1.65-1,7.67,7.67,0,0,1-1.36-1.36,7.14,7.14,0,0,1-1-1.67,6.37,6.37,0,0,1-.45-1.88,6.24,6.24,0,0,1,.14-1.92,5.35,5.35,0,0,1,.73-1.8,5.48,5.48,0,0,1,1.32-1.42,5.25,5.25,0,0,1,3.66-1.06,4.75,4.75,0,0,1,1,.19,3.58,3.58,0,0,1,.89.44,4.45,4.45,0,0,1,1.34,1.42,3.3,3.3,0,0,1,.48,1.89,2.8,2.8,0,0,1-.77,1.76,2.1,2.1,0,0,1-.81.54,1.44,1.44,0,0,1-1,0,1,1,0,0,1-.62-.71A2.23,2.23,0,0,1,360.82,588Z" style="fill:#fff"/><path d="M351.84,652.56a.91.91,0,0,0-.87-.08,1.05,1.05,0,0,0-.45.75,1.61,1.61,0,0,0,.56,1.6,2.89,2.89,0,0,0,1.71.44,3.75,3.75,0,0,0,1.68-.53,3.52,3.52,0,0,0,1.23-1.25,3.4,3.4,0,0,0,.2-.4,2.81,2.81,0,0,0,.13-.42,4.33,4.33,0,0,0,.13-.88,5,5,0,0,0-1.12-3.33,5.17,5.17,0,0,0-1.35-1.17,5.11,5.11,0,0,0-1.68-.63,5.7,5.7,0,0,0-1.8-.1,6.14,6.14,0,0,0-1.75.45,7.21,7.21,0,0,0-4.25,5.52l-.07.47-.25-.41-3-4.82.32-.14a8.77,8.77,0,0,1,.19,1.15,9.7,9.7,0,0,1,.05,1.16,8.39,8.39,0,0,1-.1,1.16,6,6,0,0,1-.3,1.13,5.78,5.78,0,0,1-.23.54,5,5,0,0,1-.29.51,5.37,5.37,0,0,1-.34.47,5.26,5.26,0,0,1-.84.8,5,5,0,0,1-.48.31,4.79,4.79,0,0,1-.51.26c-.17.08-.36.14-.53.21.17-.08.35-.15.51-.25a4.72,4.72,0,0,0,.49-.29c.16-.1.3-.22.45-.34a5,5,0,0,0,.4-.39,5,5,0,0,0,.36-.43,5.16,5.16,0,0,0,.3-.47,4.79,4.79,0,0,0,.25-.5,5.5,5.5,0,0,0,.19-.52c.05-.18.1-.36.14-.54s.07-.36.1-.55a7.56,7.56,0,0,0,.1-1.11,9.39,9.39,0,0,0,0-1.12,8.48,8.48,0,0,0-.18-1.1l-.26-1.06.57.92,3,4.82-.32.07a7.56,7.56,0,0,1,4.46-5.79,6.49,6.49,0,0,1,1.85-.47,6.05,6.05,0,0,1,1.9.1,5.4,5.4,0,0,1,3.24,1.92,5.3,5.3,0,0,1,1.2,3.57,4.07,4.07,0,0,1-.51,1.86,3.91,3.91,0,0,1-1.35,1.37,3.4,3.4,0,0,1-1.85.51A3.13,3.13,0,0,1,351,655a1.48,1.48,0,0,1-.53-.8,2,2,0,0,1,0-.95,1.12,1.12,0,0,1,.52-.77A.93.93,0,0,1,351.84,652.56Z" style="fill:#fff"/><path d="M313.71,652.43a1.21,1.21,0,0,1,1.09-.23,1.18,1.18,0,0,1,.7.89,1.59,1.59,0,0,1-.19,1.15,1.58,1.58,0,0,1-.4.44,3.43,3.43,0,0,1-2.81.65,3.76,3.76,0,0,1-2.06-1.15,3.68,3.68,0,0,1-.67-1l-.06-.14a1.4,1.4,0,0,1,0-.15c0-.09-.06-.18-.08-.28a4.36,4.36,0,0,1-.11-.59,5.05,5.05,0,0,1,.29-2.34,5.45,5.45,0,0,1,3.27-3.24,4.8,4.8,0,0,1,.57-.17l.29-.06.31,0a3.67,3.67,0,0,1,1.19.14,8.23,8.23,0,0,1,2.12,1,35.77,35.77,0,0,1,3.68,2.8c1.18,1,2.35,2,3.58,2.88a20.5,20.5,0,0,0,1.9,1.26,9.89,9.89,0,0,0,2.06.92l-.16.3a4.88,4.88,0,0,1-.39-.37q-.18-.19-.35-.39a9.55,9.55,0,0,1-.63-.85,10.43,10.43,0,0,1-.53-.91c-.16-.31-.3-.63-.44-1l-.25-.6.52.4a20.59,20.59,0,0,0,2.32,1.53c.4.23.81.45,1.23.64s.84.39,1.27.56l.65.25c.22.07.44.15.66.21a8.66,8.66,0,0,0,1.36.28c.23,0,.46,0,.69.05a6.28,6.28,0,0,0,.7,0,5,5,0,0,0,.69-.1,5.78,5.78,0,0,0,.68-.19,5.8,5.8,0,0,1-.67.22,5.09,5.09,0,0,1-.69.14,6.37,6.37,0,0,1-.7.06c-.24,0-.47,0-.71,0a8.85,8.85,0,0,1-1.4-.21c-.23,0-.46-.11-.69-.17l-.68-.21a11.18,11.18,0,0,1-1.31-.53c-.42-.21-.84-.42-1.25-.66A20.89,20.89,0,0,1,325.9,652l.27-.2c.13.31.27.62.42.92a10.09,10.09,0,0,0,.51.88,9.2,9.2,0,0,0,.6.81l.34.38a4.64,4.64,0,0,0,.36.34l.66.55-.81-.24a10.23,10.23,0,0,1-2.13-.95,20.86,20.86,0,0,1-1.94-1.28c-1.24-.91-2.42-1.91-3.59-2.89a35.49,35.49,0,0,0-3.64-2.77,7.9,7.9,0,0,0-2-1,3.33,3.33,0,0,0-1.08-.13l-.26,0-.28.06a4.44,4.44,0,0,0-.53.16,5.11,5.11,0,0,0-3.06,3,4.71,4.71,0,0,0-.27,2.18,4,4,0,0,0,.1.54c0,.09,0,.18.07.27a1.06,1.06,0,0,0,0,.12l.05.13a3.33,3.33,0,0,0,.6.91,4,4,0,0,0,1.87,1.1,3.26,3.26,0,0,0,2.17-.19,3.33,3.33,0,0,0,.49-.28,1.42,1.42,0,0,0,.38-.39,1.49,1.49,0,0,0,.21-1.06,1.12,1.12,0,0,0-.63-.87A1.19,1.19,0,0,0,313.71,652.43Z" style="fill:#fff"/><path d="M335.17,649.18l-.09,0-.27,0a1.59,1.59,0,0,1-1-.19,1,1,0,0,1-.42-.62,1.42,1.42,0,0,1,.11-.88,1.83,1.83,0,0,1,.67-.76,3.5,3.5,0,0,1,1-.49,3.45,3.45,0,0,1,2.48.26,3.88,3.88,0,0,1,1.91,2,5.22,5.22,0,0,1,.11,3,5.41,5.41,0,0,1-1.53,2.65,4.34,4.34,0,0,1-2.81,1.21,5.77,5.77,0,0,1-2.85-.79,14.84,14.84,0,0,1-2.27-1.54c-.68-.55-1.28-1.1-1.83-1.62l-.78-.76c-.25-.24-.48-.47-.67-.71l-1-1.2-.68-.76-.25-.26s.4.31,1,.92l1.16,1.09c.23.2.46.44.69.68l.77.75c.54.52,1.14,1.07,1.81,1.6a14.51,14.51,0,0,0,2.21,1.51,5.44,5.44,0,0,0,2.68.75,4,4,0,0,0,2.58-1.11,5.07,5.07,0,0,0,1.43-2.48,4.89,4.89,0,0,0-.09-2.76,3.54,3.54,0,0,0-1.73-1.84,3.42,3.42,0,0,0-1.14-.33,4,4,0,0,0-1.11.06,3.24,3.24,0,0,0-1,.38,1.56,1.56,0,0,0-.64.65,1.27,1.27,0,0,0-.14.78.88.88,0,0,0,.35.57,1.54,1.54,0,0,0,1,.24l.27,0Z" style="fill:#fff"/><path d="M296.48,652.56a2.23,2.23,0,0,1,.94,0,1,1,0,0,1,.71.62,1.44,1.44,0,0,1,0,1,2.1,2.1,0,0,1-.54.81,2.8,2.8,0,0,1-1.76.77,3.3,3.3,0,0,1-1.89-.48,4.45,4.45,0,0,1-1.42-1.34A3.58,3.58,0,0,1,292,653a4.74,4.74,0,0,1-.19-1,5.25,5.25,0,0,1,1.06-3.66,5.48,5.48,0,0,1,1.42-1.32,5.35,5.35,0,0,1,1.8-.73,6.24,6.24,0,0,1,1.92-.14,6.37,6.37,0,0,1,1.88.45,7.14,7.14,0,0,1,1.67,1A7.67,7.67,0,0,1,303,649a7.55,7.55,0,0,1,1,1.65,7.29,7.29,0,0,1,.53,1.85l-.31-.08,4-5.25.66-.86-.36,1a10.12,10.12,0,0,0-.31,1.12,11.16,11.16,0,0,0-.2,1.15,9,9,0,0,0-.06,1.16,7.78,7.78,0,0,0,.08,1.16,4.54,4.54,0,0,0,.86,2.13l.18.23.2.21a4.27,4.27,0,0,0,.45.38l.24.17.26.15c.17.1.35.17.53.26-.18-.08-.38-.13-.55-.22l-.27-.13-.26-.15a3.91,3.91,0,0,1-.48-.36l-.22-.2-.2-.22a3.83,3.83,0,0,1-.36-.49,5,5,0,0,1-.29-.53,5.75,5.75,0,0,1-.22-.57,5.22,5.22,0,0,1-.16-.59c0-.2-.07-.4-.1-.6a5.83,5.83,0,0,1,0-.61,10,10,0,0,1,.07-1.21,11.5,11.5,0,0,1,.2-1.19,10.41,10.41,0,0,1,.33-1.17l.3.17-4,5.25-.25.32-.06-.4a7,7,0,0,0-.5-1.76,7.21,7.21,0,0,0-.94-1.58,7,7,0,0,0-2.89-2.21,6,6,0,0,0-1.78-.42,5.87,5.87,0,0,0-1.82.14,5,5,0,0,0-1.68.68,5.13,5.13,0,0,0-1.33,1.23,4.91,4.91,0,0,0-1,3.42,4.37,4.37,0,0,0,.18.89,3.26,3.26,0,0,0,.4.8,4,4,0,0,0,1.31,1.23,3.45,3.45,0,0,0,1.7.5,2.57,2.57,0,0,0,1.66-.62,1.66,1.66,0,0,0,.6-1.61.91.91,0,0,0-.63-.6A2.21,2.21,0,0,0,296.48,652.56Z" style="fill:#fff"/><rect x="82.27" y="26.72" width="209.92" height="0.35" style="fill:#fff"/><rect x="14.86" y="94.35" width="0.35" height="489.32" style="fill:#fff"/><rect x="82.07" y="650.95" width="209.91" height="0.35" style="fill:#fff"/><rect x="359.06" y="94.47" width="0.35" height="488.61" style="fill:#fff"/><path d="M181.85,138.16l.16-.2c.05-.06.11-.15.2-.23l.3-.29c.12-.1.26-.2.41-.32s.33-.21.52-.32a4.64,4.64,0,0,1,1.4-.46,4.83,4.83,0,0,1,1.75.06,4.55,4.55,0,0,1,1.77.83,4.61,4.61,0,0,1,1.34,1.62,4.79,4.79,0,0,1,.51,2.12c0,.18,0,.35,0,.53a4.64,4.64,0,0,1-.1.55,3.78,3.78,0,0,1-.16.52,3.57,3.57,0,0,1-.22.5,4.61,4.61,0,0,1-1.34,1.62,4.54,4.54,0,0,1-1.77.83,4.84,4.84,0,0,1-1.74.07,4.62,4.62,0,0,1-1.4-.46c-.19-.11-.37-.21-.52-.32s-.29-.22-.41-.32l-.3-.29c-.08-.09-.14-.17-.2-.24l-.16-.2.17.19c.06.06.12.14.21.22l.31.27c.12.1.27.19.42.29l.53.28a5,5,0,0,0,1.36.38,4.5,4.5,0,0,0,3.31-.94,4.3,4.3,0,0,0,1.23-1.52,3.26,3.26,0,0,0,.2-.47,3.47,3.47,0,0,0,.14-.49,4.36,4.36,0,0,0,.09-.49c0-.17,0-.35,0-.53a4.48,4.48,0,0,0-.46-2,4.3,4.3,0,0,0-1.23-1.52,4.61,4.61,0,0,0-1.65-.82,3,3,0,0,0-.42-.09,2.78,2.78,0,0,0-.43,0h-.41a4,4,0,0,0-.4,0,5,5,0,0,0-1.37.38l-.53.28c-.15.11-.3.2-.42.29l-.31.27c-.09.08-.15.16-.21.22Z" style="fill:#fff"/><path d="M198.2,138.63l-.17-.19c-.06-.06-.12-.14-.21-.22l-.31-.27c-.12-.1-.27-.19-.42-.29l-.53-.28a5,5,0,0,0-1.37-.38,4,4,0,0,0-.4,0h-.41a2.78,2.78,0,0,0-.43,0,3,3,0,0,0-.42.09,4.61,4.61,0,0,0-1.65.82,4.3,4.3,0,0,0-1.23,1.52,4.48,4.48,0,0,0-.46,2c0,.18,0,.36,0,.53a4.36,4.36,0,0,0,.09.49,3.47,3.47,0,0,0,.14.49,3.26,3.26,0,0,0,.2.47,4.3,4.3,0,0,0,1.23,1.52,4.5,4.5,0,0,0,3.31.94,5,5,0,0,0,1.36-.38l.53-.28c.15-.11.3-.2.42-.29l.31-.27c.09-.08.15-.16.21-.22l.17-.19-.16.2c-.05.06-.11.15-.2.24l-.3.29c-.12.1-.26.2-.41.32s-.33.21-.52.32a4.62,4.62,0,0,1-1.4.46,4.84,4.84,0,0,1-1.74-.07,4.54,4.54,0,0,1-1.77-.83,4.61,4.61,0,0,1-1.34-1.62,3.56,3.56,0,0,1-.22-.5,3.78,3.78,0,0,1-.16-.52,4.64,4.64,0,0,1-.1-.55c0-.18,0-.36,0-.53a4.79,4.79,0,0,1,.51-2.12,4.61,4.61,0,0,1,1.34-1.62,4.55,4.55,0,0,1,1.77-.83,4.83,4.83,0,0,1,1.75-.06,4.64,4.64,0,0,1,1.4.46c.19.11.37.21.52.32s.29.22.41.32l.3.29c.08.09.14.17.2.23Z" style="fill:#fff"/><path d="M185,139.25l.1-.12a2.42,2.42,0,0,1,.3-.33l.25-.2.32-.2a2.82,2.82,0,0,1,.87-.29,3.05,3.05,0,0,1,1.09,0,2.9,2.9,0,0,1,2,1.5,3,3,0,0,1,.33,1.34c0,.11,0,.21,0,.33a2.84,2.84,0,0,1-.06.35,2.78,2.78,0,0,1-.24.64,2.9,2.9,0,0,1-2,1.5,3.06,3.06,0,0,1-1.08,0,2.8,2.8,0,0,1-.87-.29l-.32-.2-.25-.2a2.43,2.43,0,0,1-.3-.33l-.1-.12.11.11a3.07,3.07,0,0,0,.33.29l.26.17.33.16a3.19,3.19,0,0,0,.83.21,2.75,2.75,0,0,0,2-.58,2.64,2.64,0,0,0,.74-.91,2.45,2.45,0,0,0,.21-.57,2.54,2.54,0,0,0,.05-.29c0-.1,0-.21,0-.32a2.66,2.66,0,0,0-1-2.08,2.82,2.82,0,0,0-1-.5,2.45,2.45,0,0,0-.51-.09,2.82,2.82,0,0,0-.49,0,3.18,3.18,0,0,0-.84.22l-.33.16-.26.17a3,3,0,0,0-.33.29Z" style="fill:#fff"/><path d="M195.08,139.25l-.11-.11a3,3,0,0,0-.33-.29l-.26-.17-.33-.16a3.18,3.18,0,0,0-.84-.22,2.82,2.82,0,0,0-.49,0,2.45,2.45,0,0,0-.51.09,2.82,2.82,0,0,0-1,.5,2.66,2.66,0,0,0-1,2.08c0,.11,0,.22,0,.32a2.54,2.54,0,0,0,.05.29,2.45,2.45,0,0,0,.21.57,2.64,2.64,0,0,0,.74.91,2.75,2.75,0,0,0,2,.58,3.19,3.19,0,0,0,.83-.21l.33-.16.26-.17a3.07,3.07,0,0,0,.33-.29l.11-.11-.1.12a2.43,2.43,0,0,1-.3.33l-.25.2-.32.2a2.8,2.8,0,0,1-.87.29,3.06,3.06,0,0,1-1.08,0,2.9,2.9,0,0,1-2-1.5,2.78,2.78,0,0,1-.24-.64,2.83,2.83,0,0,1-.06-.35c0-.12,0-.22,0-.33a3,3,0,0,1,.33-1.34,2.9,2.9,0,0,1,2-1.5,3.05,3.05,0,0,1,1.09,0,2.82,2.82,0,0,1,.87.29l.32.2.25.2a2.42,2.42,0,0,1,.3.33Z" style="fill:#fff"/><path d="M187.5,141,186,141l-4.05.06-5.73.05-6.57,0-6.57,0-5.73-.05-4.05-.06-1.54,0,1.54,0,4.05-.06,5.73-.05,6.57,0,6.57,0,5.73.05,4.05.06Z" style="fill:#fff"/><path d="M228.31,141l-1.54,0-4.05.06-5.73.05-6.57,0-6.57,0-5.73-.05-4.05-.06-1.54,0,1.54,0,4.05-.06,5.73-.05,6.57,0,6.57,0,5.73.05,4.05.06Z" style="fill:#fff"/><path d="M156.06,81.09a3.46,3.46,0,0,1,3.15,3.33c0,2.46-2,4.46-6.25,4.46-2.17,0-3.31-.48-3.79-1a1.47,1.47,0,0,1-.37-1.08,6.16,6.16,0,0,1,.13-1.06l1.79-10.27a7.33,7.33,0,0,0,.1-1h-.19c-1.9,0-2.83,1.06-2.83,2.25,0,.58.31,1,.83,1a.85.85,0,0,0,.35-.06.65.65,0,0,1,0,.19c0,.5-.52,1.17-1.58,1.17a2,2,0,0,1-2.19-2.08c0-2.06,1.9-3.56,5.25-3.56h2.79c4.89,0,6.6,1.75,6.6,4A3.92,3.92,0,0,1,156.06,81.09Zm-3.67.6-.77,4.39a5.72,5.72,0,0,0-.1,1.58,7.94,7.94,0,0,0,1.08.06,3.45,3.45,0,0,0,3.71-3.54,2.29,2.29,0,0,0-2.5-2.5Zm1.27-7.29-1.08,6.14h1.23A3.26,3.26,0,0,0,157,77a2.44,2.44,0,0,0-2.75-2.58Z" style="fill:#fff"/><path d="M161.13,84.38a5.69,5.69,0,0,1,5.58-5.92c2.12,0,3,1.1,3,2.17,0,1.9-2.19,3.15-5.85,3.83a2.86,2.86,0,0,0,3,2.77,4.64,4.64,0,0,0,4.06-2c.27,0,.42.17.33.54-.19.92-2.19,3.08-5.37,3.08C163.1,88.88,161.13,87.19,161.13,84.38Zm2.73-.9c2.54-.6,3.6-1.87,3.6-3.25a.69.69,0,0,0-.73-.73C165.54,79.51,164.08,80.88,163.85,83.48Z" style="fill:#fff"/><path d="M179.46,85.23c-.23,1.25.15,1.83.9,1.83a2.89,2.89,0,0,0,2.19-1.81c.27,0,.46.17.4.54a4.23,4.23,0,0,1-3.73,3.08,2.32,2.32,0,0,1-2.44-2.35c-.85,1.54-2,2.35-3.19,2.35-1.71,0-3.06-1.15-3.06-3.58,0-4.64,2.71-6.83,5.14-6.83a2.73,2.73,0,0,1,2.25,1c.33-.75.85-1,1.87-1a2.1,2.1,0,0,1,1,.21,4.12,4.12,0,0,0-.48,1.5Zm-2.06-3.37.19-1a1.51,1.51,0,0,0-1.37-1c-1.42,0-3,2.1-3,5.46,0,1.17.46,1.73,1.23,1.73C175.9,87.07,177,83.94,177.4,81.86Z" style="fill:#fff"/><path d="M188.48,85.57a9.77,9.77,0,0,1-.94,1.54,3.58,3.58,0,0,1-2.94,1.77,2.21,2.21,0,0,1-2.27-2.42,14,14,0,0,1,.25-2.56l.6-3.46a3.56,3.56,0,0,0,0-1.79,2.29,2.29,0,0,1,1.08-.19c1.6,0,1.79.6,1.54,2.06L185,85.34c-.21,1.19.08,1.73.69,1.73s1-.56,1.54-1.4a15.76,15.76,0,0,0,2.1-5.44,3.21,3.21,0,0,0,0-1.58,2.28,2.28,0,0,1,1.08-.19c1.6,0,1.79.6,1.54,2.06l-.81,4.71c-.21,1.25.15,1.83.9,1.83a2.89,2.89,0,0,0,2.19-1.81c.27,0,.46.17.4.54a4.23,4.23,0,0,1-3.73,3.08,2.34,2.34,0,0,1-2.44-2.6C188.46,86.09,188.46,85.86,188.48,85.57Z" style="fill:#fff"/><path d="M195.29,78.46l.21-1.12a3.26,3.26,0,0,0,0-1.79,2.28,2.28,0,0,1,1.08-.19c1.6,0,1.81.6,1.54,2.06l-.19,1H200a.71.71,0,0,1,.15.44c0,.35-.25.6-.71.6h-1.69l-1,5.73c-.21,1.15.21,1.83,1.19,1.83a3,3,0,0,0,2.5-1.81c.27,0,.46.19.37.54a4.53,4.53,0,0,1-4,3.08,2.65,2.65,0,0,1-2.75-2.75,12.68,12.68,0,0,1,.23-2.23l.77-4.39h-1.35a.71.71,0,0,1-.15-.44c0-.35.25-.6.71-.6Z" style="fill:#fff"/><path d="M201.08,80.44a3.51,3.51,0,0,0,0-1.79,2.29,2.29,0,0,1,1.08-.19c1.6,0,1.79.6,1.54,2.06l-.81,4.71c-.21,1.25.15,1.83.9,1.83A2.89,2.89,0,0,0,206,85.25c.27,0,.46.17.4.54a4.23,4.23,0,0,1-3.73,3.08,2.34,2.34,0,0,1-2.44-2.6,12.12,12.12,0,0,1,.19-2Zm2.19-6.6a1.24,1.24,0,0,1,1.29,1.31,1.45,1.45,0,0,1-1.5,1.44,1.19,1.19,0,0,1-1.25-1.25A1.47,1.47,0,0,1,203.27,73.84Z" style="fill:#fff"/><path d="M207.17,78.46l.35-2c.6-3.52,2.23-4.83,4.6-4.83,1.87,0,2.81,1.1,2.81,2.35a1.93,1.93,0,0,1-1.83,2.17,1.14,1.14,0,0,1-1-.5,3.2,3.2,0,0,0,.85-2.06c0-.65-.33-.92-.81-.92-.65,0-1.42.69-1.79,2.92l-.5,2.92h2.08a.71.71,0,0,1,.15.44c0,.35-.25.6-.71.6h-1.71l-2.29,13c-.48,2.73-1.65,3.67-3.42,3.67-1.08,0-1.69-.52-1.69-1.19a.78.78,0,0,1,.17-.58,1.09,1.09,0,0,0,.73.27c.77,0,1.29-.52,1.58-2.19l2.25-13h-1.33a.71.71,0,0,1-.15-.44c0-.35.25-.6.71-.6Z" style="fill:#fff"/><path d="M218.16,85.57a9.77,9.77,0,0,1-.94,1.54,3.58,3.58,0,0,1-2.94,1.77A2.21,2.21,0,0,1,212,86.46a14,14,0,0,1,.25-2.56l.6-3.46a3.56,3.56,0,0,0,0-1.79,2.29,2.29,0,0,1,1.08-.19c1.6,0,1.79.6,1.54,2.06l-.83,4.81c-.21,1.19.08,1.73.69,1.73s1-.56,1.54-1.4a15.76,15.76,0,0,0,2.1-5.44,3.21,3.21,0,0,0,0-1.58,2.28,2.28,0,0,1,1.08-.19c1.6,0,1.79.6,1.54,2.06l-.81,4.71c-.21,1.25.15,1.83.9,1.83a2.89,2.89,0,0,0,2.19-1.81c.27,0,.46.17.4.54a4.23,4.23,0,0,1-3.73,3.08,2.34,2.34,0,0,1-2.44-2.6C218.14,86.09,218.14,85.86,218.16,85.57Z" style="fill:#fff"/><path d="M225.77,73.57a3.56,3.56,0,0,0,0-1.79,2.28,2.28,0,0,1,1.08-.19c1.6,0,1.79.6,1.54,2.06l-2,11.48c-.25,1.5.08,1.94.63,1.94a.86.86,0,0,0,.79-.58c.29,0,.44.23.4.6a2.35,2.35,0,0,1-2.42,1.79,2.2,2.2,0,0,1-2.1-2.46,12,12,0,0,1,.19-2.12Z" style="fill:#fff"/></svg>