<svg id="Слой_1" data-name="Слой 1" xmlns="http://www.w3.org/2000/svg" viewBox="0 0 375 667"><defs><style>.cls-1,.cls-3{fill:#fff;}.cls-1{stroke:#000;stroke-miterlimit:10;stroke-width:0.5px;}.cls-2{fill:#c4ae96;}</style></defs><title>-</title><path class="cls-1" d="M109.82,272.54c.33,0,.4.19.35.46-.25,1.08-2.83,3.17-6.5,3.17a6.06,6.06,0,0,1-6.29-6.48c0-5.48,3.42-9.14,7.73-9.14,2.6,0,4,1.69,4,3.54s-1.25,3-2.54,3a1.45,1.45,0,0,1-1.35-.71,3,3,0,0,0,1.56-3,1.61,1.61,0,0,0-1.71-1.75c-2.4,0-4.77,3.48-4.77,7.77,0,3.21,1.71,5,4.5,5A6.91,6.91,0,0,0,109.82,272.54Z"/><path class="cls-1" d="M116.63,267.73a8.26,8.26,0,0,0,.1-.92c-1.06.1-1.79.9-2.29,2.58l-1.1,3.83c-.54,1.9-1.42,2.94-2.85,2.94a1.91,1.91,0,0,1-2-2,1.72,1.72,0,0,1,1.62-1.87,1.48,1.48,0,0,1,1,.29,2.65,2.65,0,0,0-.33,1.08c0,.5.23.73.52.73s.73-.42,1-1.42l1.08-3.85a4,4,0,0,1,4.19-3.33c1.77,0,1.94.6,1.69,2.06l-.81,4.71c-.21,1.25.15,1.83.9,1.83a2.89,2.89,0,0,0,2.19-1.81c.27,0,.46.17.4.54a4.23,4.23,0,0,1-3.73,3.08,2.34,2.34,0,0,1-2.44-2.6,12.11,12.11,0,0,1,.19-2Z"/><path class="cls-1" d="M129.82,274.42a15.74,15.74,0,0,0,3.4-1.87.37.37,0,0,1,.4.48c0,.21-.27.44-.69.75a23,23,0,0,1-3.31,1.92l0,.25c-.81,4.83-2.75,7.52-5.83,7.52a2.14,2.14,0,0,1-2.33-2.19,4.41,4.41,0,0,1,1.75-3.23,17,17,0,0,1,3.81-2.35l.44-2.69a12.38,12.38,0,0,1-.85,1.4,3.58,3.58,0,0,1-2.94,1.77,2.21,2.21,0,0,1-2.27-2.42,14,14,0,0,1,.25-2.56l.6-3.46a3.56,3.56,0,0,0,0-1.79,2.29,2.29,0,0,1,1.08-.19c1.6,0,1.79.6,1.54,2.06l-.83,4.81c-.21,1.21.08,1.73.69,1.73s1-.56,1.54-1.4a15.63,15.63,0,0,0,2.06-5.23,3.26,3.26,0,0,0,0-1.79,2.28,2.28,0,0,1,1.08-.19c1.6,0,1.79.6,1.54,2.06ZM126.74,277a12.52,12.52,0,0,0-2.94,1.92,3.25,3.25,0,0,0-1.23,2.23.87.87,0,0,0,1,.94C125,282.08,126.14,280.33,126.74,277Z"/><path class="cls-1" d="M150.38,273.09a4.23,4.23,0,0,1-3.73,3.08,2.34,2.34,0,0,1-2.44-2.6v-.12c-.17.31-.33.63-.52.92a3.18,3.18,0,0,1-2.81,1.81,2.21,2.21,0,0,1-2.27-2.42v-.31a7.86,7.86,0,0,1-.52.92,3.18,3.18,0,0,1-2.81,1.81,2.21,2.21,0,0,1-2.27-2.42,13.86,13.86,0,0,1,.25-2.56l.6-3.46a3.56,3.56,0,0,0,0-1.79,2.29,2.29,0,0,1,1.08-.19c1.6,0,1.79.6,1.54,2.06l-.83,4.81c-.23,1.27,0,1.73.58,1.73s.92-.4,1.42-1.33a18.13,18.13,0,0,0,1.83-5.54,2.81,2.81,0,0,0,0-1.54,2.28,2.28,0,0,1,1.08-.19c1.6,0,1.79.6,1.54,2.06l-.83,4.81c-.23,1.27,0,1.73.58,1.73s.92-.4,1.42-1.33a18.12,18.12,0,0,0,1.83-5.54,2.81,2.81,0,0,0,0-1.54,2.28,2.28,0,0,1,1.08-.19c1.6,0,1.79.6,1.54,2.06l-.81,4.71c-.21,1.25.15,1.83.9,1.83a2.89,2.89,0,0,0,2.19-1.81C150.26,272.54,150.44,272.71,150.38,273.09Z"/><path class="cls-1" d="M158.51,272.52c-.23,1.25.15,1.83.9,1.83a2.89,2.89,0,0,0,2.19-1.81c.27,0,.46.17.4.54a4.23,4.23,0,0,1-3.73,3.08,2.32,2.32,0,0,1-2.44-2.35c-.85,1.54-2,2.35-3.19,2.35-1.71,0-3.06-1.15-3.06-3.58,0-4.65,2.71-6.83,5.14-6.83a2.73,2.73,0,0,1,2.25,1c.33-.75.85-1,1.87-1a2.1,2.1,0,0,1,1,.21,4.12,4.12,0,0,0-.48,1.5Zm-2.06-3.37.19-1a1.51,1.51,0,0,0-1.37-1c-1.42,0-3,2.1-3,5.46,0,1.17.46,1.73,1.23,1.73C154.95,274.36,156.05,271.23,156.45,269.15Z"/><path class="cls-1" d="M168.38,267.53a3.21,3.21,0,0,0,0-1.58,2.28,2.28,0,0,1,1.08-.19c1.6,0,1.79.6,1.54,2.06l-.79,4.6c-.25,1.5.08,1.94.63,1.94a.86.86,0,0,0,.79-.58c.29,0,.44.23.4.6a2.35,2.35,0,0,1-2.42,1.79,2.2,2.2,0,0,1-2.1-2.46c0-.27,0-.54,0-.85a9.77,9.77,0,0,1-.94,1.54,3.58,3.58,0,0,1-2.94,1.77,2.21,2.21,0,0,1-2.27-2.42,14,14,0,0,1,.25-2.56l.6-3.46a3.56,3.56,0,0,0,0-1.79,2.29,2.29,0,0,1,1.08-.19c1.6,0,1.79.6,1.54,2.06l-.83,4.81c-.21,1.21.08,1.73.69,1.73s1-.56,1.54-1.4A15.35,15.35,0,0,0,168.38,267.53Zm1.35-6.19c.27,0,.46.15.4.54a3,3,0,0,1-3.15,2.21c-1.71,0-2.65-.92-2.65-2.15a1.44,1.44,0,0,1,1.56-1.52,1.49,1.49,0,0,1,1,.33,1.27,1.27,0,0,0-.25.83,1.1,1.1,0,0,0,1.25,1.13A2,2,0,0,0,169.74,261.34Z"/><path class="cls-1" d="M175.39,273.63a1.33,1.33,0,0,1,1.35,1.46c0,1.44-1.33,3.29-2.27,3.29a.46.46,0,0,1-.52-.44,2.89,2.89,0,0,0,.85-1.6,1.18,1.18,0,0,1-.87-1.21A1.47,1.47,0,0,1,175.39,273.63Z"/><path class="cls-1" d="M194.9,272.54c.27,0,.46.17.4.54a4.23,4.23,0,0,1-3.73,3.08,2.34,2.34,0,0,1-2.44-2.6,12.57,12.57,0,0,1,.19-2H186l-.44,2.6a3.56,3.56,0,0,0,0,1.79,2.28,2.28,0,0,1-1.08.19c-1.6,0-1.79-.6-1.54-2.06l1.1-6.37a3.55,3.55,0,0,0,0-1.79,2.28,2.28,0,0,1,1.08-.19c1.6,0,1.79.6,1.54,2.06l-.48,2.73h3.33l.5-2.81a3.56,3.56,0,0,0,0-1.79,2.28,2.28,0,0,1,1.08-.19c1.6,0,1.79.6,1.54,2.06l-.81,4.71c-.21,1.23.15,1.83.9,1.83A2.89,2.89,0,0,0,194.9,272.54Z"/><path class="cls-1" d="M203,267.94c0,2.29-3.12,3.27-5.85,3.81a3,3,0,0,0,3.12,2.77,2.27,2.27,0,0,0,2-.87c.25,0,.38.13.33.38-.15.9-1.54,2.15-3.62,2.15a4.3,4.3,0,0,1-4.5-4.52,5.68,5.68,0,0,1,5.5-5.89C202.22,265.75,203,266.82,203,267.94Zm-5.85,2.83c2.54-.6,3.62-1.9,3.62-3.21a.69.69,0,0,0-.75-.77C198.72,266.8,197.41,268.46,197.2,270.77Z"/><path class="cls-1" d="M214.86,273.34a6.47,6.47,0,0,1-1.54,1,3.13,3.13,0,0,1,.85.63,18.4,18.4,0,0,0,4.54-2.46.37.37,0,0,1,.4.48c0,.21-.27.44-.69.75a26.39,26.39,0,0,1-3.62,2.1,4.23,4.23,0,0,1,.46,2,5.65,5.65,0,0,1-5.6,5.58c-1.81,0-2.65-.85-2.65-2.19a4.39,4.39,0,0,1,1.71-3.19,17.51,17.51,0,0,1,3.83-2.35,2.41,2.41,0,0,0-.31-.92,4.48,4.48,0,0,1-1.1.17c-.54,0-.81-.27-.81-.62a7.1,7.1,0,0,0,4-6.08,1.32,1.32,0,0,0-1.44-1.48c-1.25,0-2.73,1.67-2.73,3.67a1.6,1.6,0,0,0,0,.4,1.1,1.1,0,0,1-.5.1,1.34,1.34,0,0,1-1.46-1.42c0-2,2-3.79,4.73-3.79s3.83,1.5,3.83,3.48A5.5,5.5,0,0,1,214.86,273.34ZM212.61,277v-.15a12.2,12.2,0,0,0-3.19,2,3.28,3.28,0,0,0-1.25,2.23.89.89,0,0,0,1,.94C210.95,282.08,212.61,279.75,212.61,277Z"/><path class="cls-1" d="M230.42,272.54c.27,0,.46.17.4.54a4.23,4.23,0,0,1-3.73,3.08,2.34,2.34,0,0,1-2.44-2.6,12.57,12.57,0,0,1,.19-2h-3.35l-.44,2.6a3.57,3.57,0,0,0,0,1.79,2.28,2.28,0,0,1-1.08.19c-1.6,0-1.79-.6-1.54-2.06l1.1-6.37a3.56,3.56,0,0,0,0-1.79,2.28,2.28,0,0,1,1.08-.19c1.6,0,1.79.6,1.54,2.06l-.48,2.73H225l.5-2.81a3.56,3.56,0,0,0,0-1.79,2.28,2.28,0,0,1,1.08-.19c1.6,0,1.79.6,1.54,2.06l-.81,4.71c-.21,1.23.15,1.83.9,1.83A2.89,2.89,0,0,0,230.42,272.54Z"/><path class="cls-1" d="M238.94,272.52c-.23,1.25.15,1.83.9,1.83a2.89,2.89,0,0,0,2.19-1.81c.27,0,.46.17.4.54a4.23,4.23,0,0,1-3.73,3.08,2.32,2.32,0,0,1-2.44-2.35c-.85,1.54-2,2.35-3.19,2.35-1.71,0-3.06-1.15-3.06-3.58,0-4.65,2.71-6.83,5.14-6.83a2.73,2.73,0,0,1,2.25,1c.33-.75.85-1,1.87-1a2.11,2.11,0,0,1,1,.21,4.1,4.1,0,0,0-.48,1.5Zm-2.06-3.37.19-1a1.51,1.51,0,0,0-1.37-1c-1.42,0-3,2.1-3,5.46,0,1.17.46,1.73,1.23,1.73C235.38,274.36,236.49,271.23,236.88,269.15Z"/><path class="cls-1" d="M241.61,271.67a5.69,5.69,0,0,1,5.58-5.92c2.13,0,3,1.1,3,2.17,0,1.9-2.19,3.15-5.85,3.83a2.86,2.86,0,0,0,3,2.77,4.64,4.64,0,0,0,4.06-2c.27,0,.42.17.33.54-.19.92-2.19,3.08-5.37,3.08C243.59,276.17,241.61,274.48,241.61,271.67Zm2.73-.9c2.54-.6,3.6-1.87,3.6-3.25a.69.69,0,0,0-.73-.73C246,266.8,244.57,268.17,244.34,270.77Z"/><path class="cls-1" d="M268.59,273.09a4.23,4.23,0,0,1-3.73,3.08,2.34,2.34,0,0,1-2.44-2.6v-.12c-.17.31-.33.63-.52.92a3.18,3.18,0,0,1-2.81,1.81,2.2,2.2,0,0,1-2.27-2.42v-.31a8.15,8.15,0,0,1-.52.92,3.18,3.18,0,0,1-2.81,1.81,2.21,2.21,0,0,1-2.27-2.42,13.86,13.86,0,0,1,.25-2.56l.6-3.46a3.56,3.56,0,0,0,0-1.79,2.28,2.28,0,0,1,1.08-.19c1.6,0,1.79.6,1.54,2.06l-.83,4.81c-.23,1.27,0,1.73.58,1.73s.92-.4,1.42-1.33a18.12,18.12,0,0,0,1.83-5.54,2.8,2.8,0,0,0,0-1.54,2.29,2.29,0,0,1,1.08-.19c1.6,0,1.79.6,1.54,2.06l-.83,4.81c-.23,1.27,0,1.73.58,1.73s.92-.4,1.42-1.33a18.12,18.12,0,0,0,1.83-5.54,2.81,2.81,0,0,0,0-1.54,2.28,2.28,0,0,1,1.08-.19c1.6,0,1.79.6,1.54,2.06l-.81,4.71c-.21,1.25.15,1.83.9,1.83a2.89,2.89,0,0,0,2.19-1.81C268.46,272.54,268.65,272.71,268.59,273.09Z"/><path class="cls-1" d="M268,272.82a9.75,9.75,0,0,1,.15-1.5l.65-3.58a3.55,3.55,0,0,0,0-1.79,2.28,2.28,0,0,1,1.08-.19c1.6,0,1.79.6,1.54,2.06l-.19,1.06a4.49,4.49,0,0,1,2-.44c1.94,0,3.29,1.15,3.29,3a4.62,4.62,0,0,1-4.94,4.77C269.26,276.17,268,274.86,268,272.82Zm2.69-.69a10,10,0,0,0-.15,1.63c0,.81.42,1.38,1.21,1.38,1.17,0,2.17-1.29,2.17-3.81,0-1.1-.56-1.62-1.44-1.62a2.17,2.17,0,0,0-1.5.69Z"/><path class="cls-1" d="M92.33,292.3l.81,2.48.73-.52a3.18,3.18,0,0,0,1.42-2.71,2.1,2.1,0,0,0-.08-.6,1.56,1.56,0,0,1,.79-.19c.83,0,1.21.44,1.21,1.1s-.4,1.5-1.92,2.6l-1.81,1.31.58,1.71c.44,1.29,1,1.87,2,1.87s1.73-.54,2.42-1.81c.27,0,.46.17.4.54a4.22,4.22,0,0,1-3.9,3.08c-1.71,0-2.77-.9-3.44-3l-.27-.81-.42.29a3.18,3.18,0,0,0-1.42,2.71,2.11,2.11,0,0,0,.08.6,1.56,1.56,0,0,1-.79.19c-.83,0-1.21-.44-1.21-1.1s.4-1.5,1.92-2.6l1.52-1.1-1-3.14c-.23-.77-.44-1-.83-1a.81.81,0,0,0-.4.1,1,1,0,0,1,0-.27,1.49,1.49,0,0,1,1.65-1.31C91.42,290.75,91.94,291.09,92.33,292.3Z"/><path class="cls-1" d="M107.64,294.73a8.8,8.8,0,0,1-.1,1.31,4.15,4.15,0,0,0,2.52-1.62c.27,0,.42.21.38.52-.12.73-1.44,1.85-3.1,2.06a5.43,5.43,0,0,1-5.46,4.17,3.64,3.64,0,0,1-3.83-4c0-3.77,2.21-6.44,5.77-6.44A3.63,3.63,0,0,1,107.64,294.73ZM105,293.38c-.1-1-.58-1.6-1.35-1.6-1,0-2.12,1.06-2.71,4.17a15.19,15.19,0,0,0-.19,2.14c0,1.31.5,2,1.38,2,1.12,0,2.06-1.19,2.6-3.69a2,2,0,0,1-.79-1.65A1.34,1.34,0,0,1,105,293.38Z"/><path class="cls-1" d="M112.92,293.19c.88-1.58,2-2.44,3.35-2.44,1.94,0,3,1.38,3,3.54a9.2,9.2,0,0,1-.17,1.75,4.06,4.06,0,0,0,2.58-1.62c.27,0,.42.21.38.52-.12.73-1.48,1.9-3.19,2.06-.81,2.6-2.73,4.17-4.75,4.17a3.24,3.24,0,0,1-2.42-1l-1.1,6.33a3.56,3.56,0,0,0,0,1.79,2.28,2.28,0,0,1-1.08.19c-1.6,0-1.79-.6-1.54-2.06l2.37-13.66a3.56,3.56,0,0,0,0-1.79,2.28,2.28,0,0,1,1.08-.19c1.6,0,1.79.58,1.54,2.06Zm3.65.19c-.12-.71-.48-1-1-1s-1.23.52-1.94,1.65a11.64,11.64,0,0,0-1.54,4.06l-.15.79a1.78,1.78,0,0,0,1.58.9c1.15,0,2.27-1.33,2.79-3.31a2,2,0,0,1-.77-1.65A1.36,1.36,0,0,1,116.56,293.38Z"/><path class="cls-1" d="M130.33,294.73a8.8,8.8,0,0,1-.1,1.31,4.15,4.15,0,0,0,2.52-1.62c.27,0,.42.21.38.52-.12.73-1.44,1.85-3.1,2.06a5.43,5.43,0,0,1-5.46,4.17,3.64,3.64,0,0,1-3.83-4c0-3.77,2.21-6.44,5.77-6.44A3.63,3.63,0,0,1,130.33,294.73Zm-2.69-1.35c-.1-1-.58-1.6-1.35-1.6-1,0-2.12,1.06-2.71,4.17a15.19,15.19,0,0,0-.19,2.14c0,1.31.5,2,1.38,2,1.12,0,2.06-1.19,2.6-3.69a2,2,0,0,1-.79-1.65A1.34,1.34,0,0,1,127.65,293.38Z"/><path class="cls-1" d="M149.37,298.09a4.23,4.23,0,0,1-3.73,3.08,2.34,2.34,0,0,1-2.44-2.6v-.12c-.17.31-.33.63-.52.92a3.18,3.18,0,0,1-2.81,1.81,2.21,2.21,0,0,1-2.27-2.42v-.31a7.86,7.86,0,0,1-.52.92,3.18,3.18,0,0,1-2.81,1.81,2.21,2.21,0,0,1-2.27-2.42,13.86,13.86,0,0,1,.25-2.56l.6-3.46a3.56,3.56,0,0,0,0-1.79,2.29,2.29,0,0,1,1.08-.19c1.6,0,1.79.6,1.54,2.06l-.83,4.81c-.23,1.27,0,1.73.58,1.73s.92-.4,1.42-1.33a18.13,18.13,0,0,0,1.83-5.54,2.81,2.81,0,0,0,0-1.54,2.28,2.28,0,0,1,1.08-.19c1.6,0,1.79.6,1.54,2.06l-.83,4.81c-.23,1.27,0,1.73.58,1.73s.92-.4,1.42-1.33a18.12,18.12,0,0,0,1.83-5.54,2.81,2.81,0,0,0,0-1.54,2.29,2.29,0,0,1,1.08-.19c1.6,0,1.79.6,1.54,2.06l-.81,4.71c-.21,1.25.15,1.83.9,1.83a2.89,2.89,0,0,0,2.19-1.81C149.25,297.54,149.43,297.71,149.37,298.09Z"/><path class="cls-1" d="M148.56,296.67a5.69,5.69,0,0,1,5.58-5.92c2.12,0,3,1.1,3,2.17,0,1.9-2.19,3.15-5.85,3.83.08,1.83,1.17,2.77,2.5,2.77,1.83,0,2.75-1.42,3.6-3.39a25.65,25.65,0,0,1,1.94-4,2.94,2.94,0,0,1,2.54-1.33,2,2,0,0,1,2.25,2.08,4.82,4.82,0,0,1-.44,1.77l-1.27,2.71c-.54,1.17-.27,2,.73,2a2.91,2.91,0,0,0,2.46-1.81c.35,0,.46.23.4.56a4.53,4.53,0,0,1-3.9,3.06,2.45,2.45,0,0,1-2.67-2.71,5.33,5.33,0,0,1,.46-1.94l1.37-3a2,2,0,0,0,.19-.71.56.56,0,0,0-.6-.62c-.35,0-.73.25-1.19,1.23-.6,1.27-.79,1.69-1.52,3.42-1.1,2.65-2.6,4.35-5,4.35A4.29,4.29,0,0,1,148.56,296.67Zm2.73-.9c2.54-.6,3.6-1.87,3.6-3.25a.69.69,0,0,0-.73-.73C153,291.8,151.52,293.17,151.29,295.77Z"/><path class="cls-1" d="M174.77,294.73c0,3.67-2.12,6.44-5.77,6.44a3.64,3.64,0,0,1-3.83-4c0-3.77,2.21-6.44,5.77-6.44A3.63,3.63,0,0,1,174.77,294.73Zm-6.94,3.35c0,1.31.5,2,1.38,2,1.21,0,2.17-1.35,2.71-4.17a12.26,12.26,0,0,0,.19-2.15c0-1.33-.5-2-1.37-2-1,0-2.12,1.06-2.71,4.17A15.19,15.19,0,0,0,167.83,298.09Z"/><path class="cls-1" d="M190.41,294.73a8.8,8.8,0,0,1-.1,1.31,4.15,4.15,0,0,0,2.52-1.62c.27,0,.42.21.38.52-.12.73-1.44,1.85-3.1,2.06a5.43,5.43,0,0,1-5.46,4.17,3.64,3.64,0,0,1-3.83-4c0-3.77,2.21-6.44,5.77-6.44A3.63,3.63,0,0,1,190.41,294.73Zm-2.69-1.35c-.1-1-.58-1.6-1.35-1.6-1,0-2.12,1.06-2.71,4.17a15.19,15.19,0,0,0-.19,2.14c0,1.31.5,2,1.38,2,1.12,0,2.06-1.19,2.6-3.69a2,2,0,0,1-.79-1.65A1.34,1.34,0,0,1,187.73,293.38Z"/><path class="cls-1" d="M195.23,295.71h.83c.58,0,1-.69,1.25-1.19l.81-1.67c.83-1.69,1.5-2.1,2.39-2.1a1.29,1.29,0,0,1,1.35,1.42,1.89,1.89,0,0,1-.73,1.44,1,1,0,0,0-1-.75c-.62,0-1.08.46-1.46,1.25l-.35.75a2.34,2.34,0,0,1-.73.94,1.91,1.91,0,0,1,1.42,1.35l.23.73c.29,1,.71,1.48,1.56,1.48a2.88,2.88,0,0,0,2.23-1.81c.27,0,.46.17.4.54a4.28,4.28,0,0,1-3.73,3.08,2.93,2.93,0,0,1-2.9-2.44l-.33-1.1c-.17-.58-.44-.9-1-.9H195l-.42,2.46a3.57,3.57,0,0,0,0,1.79,2.28,2.28,0,0,1-1.08.19c-1.6,0-1.79-.6-1.54-2.06l1.1-6.37a3.56,3.56,0,0,0,0-1.79,2.28,2.28,0,0,1,1.08-.19c1.6,0,1.79.6,1.54,2.06Z"/><path class="cls-1" d="M211.31,299.42a15.73,15.73,0,0,0,3.39-1.87.37.37,0,0,1,.4.48c0,.21-.27.44-.69.75a23,23,0,0,1-3.31,1.92l0,.25c-.81,4.83-2.75,7.52-5.83,7.52a2.14,2.14,0,0,1-2.33-2.19,4.41,4.41,0,0,1,1.75-3.23,17,17,0,0,1,3.81-2.35l.44-2.69a12.24,12.24,0,0,1-.85,1.4,3.58,3.58,0,0,1-2.94,1.77,2.21,2.21,0,0,1-2.27-2.42,14,14,0,0,1,.25-2.56l.6-3.46a3.56,3.56,0,0,0,0-1.79,2.28,2.28,0,0,1,1.08-.19c1.6,0,1.79.6,1.54,2.06l-.83,4.81c-.21,1.21.08,1.73.69,1.73s1-.56,1.54-1.4a15.66,15.66,0,0,0,2.06-5.23,3.25,3.25,0,0,0,0-1.79,2.28,2.28,0,0,1,1.08-.19c1.6,0,1.79.6,1.54,2.06ZM208.23,302a12.53,12.53,0,0,0-2.94,1.92,3.25,3.25,0,0,0-1.23,2.23.87.87,0,0,0,1,.94C206.5,307.08,207.62,305.33,208.23,302Z"/><path class="cls-1" d="M220.94,292.73a8.48,8.48,0,0,0,.1-.92c-1.06.1-1.79.9-2.29,2.58l-1.1,3.83c-.54,1.9-1.42,2.94-2.85,2.94a1.91,1.91,0,0,1-2-2,1.72,1.72,0,0,1,1.63-1.87,1.48,1.48,0,0,1,1,.29,2.65,2.65,0,0,0-.33,1.08c0,.5.23.73.52.73s.73-.42,1-1.42l1.08-3.85a4,4,0,0,1,4.19-3.33c1.77,0,1.94.6,1.69,2.06l-.81,4.71c-.21,1.25.15,1.83.9,1.83a2.89,2.89,0,0,0,2.19-1.81c.27,0,.46.17.4.54a4.23,4.23,0,0,1-3.73,3.08,2.34,2.34,0,0,1-2.44-2.6,12.16,12.16,0,0,1,.19-2Z"/><path class="cls-1" d="M231.79,297.86a9.66,9.66,0,0,1-.94,1.54,3.58,3.58,0,0,1-2.94,1.77,2.21,2.21,0,0,1-2.27-2.42,14,14,0,0,1,.25-2.56l.6-3.46a3.55,3.55,0,0,0,0-1.79,2.28,2.28,0,0,1,1.08-.19c1.6,0,1.79.6,1.54,2.06l-.83,4.81c-.21,1.19.08,1.73.69,1.73s1-.56,1.54-1.4a15.76,15.76,0,0,0,2.1-5.44,3.21,3.21,0,0,0,0-1.58,2.28,2.28,0,0,1,1.08-.19c1.6,0,1.79.6,1.54,2.06l-.81,4.71c-.21,1.25.15,1.83.9,1.83a2.89,2.89,0,0,0,2.19-1.81c.27,0,.46.17.4.54a4.23,4.23,0,0,1-3.73,3.08,2.34,2.34,0,0,1-2.44-2.6C231.77,298.38,231.77,298.15,231.79,297.86Z"/><path class="cls-1" d="M237.13,296.75a5.72,5.72,0,0,1,5.54-6c1.73,0,2.94,1,2.94,2.35s-.71,2.17-1.79,2.17a1.08,1.08,0,0,1-1-.5,2.69,2.69,0,0,0,.77-2,.91.91,0,0,0-1-1c-1.29,0-2.79,1.79-2.79,4.54a2.88,2.88,0,0,0,3.06,3.19,4.64,4.64,0,0,0,4-2c.27,0,.42.17.33.54-.21.92-2.15,3.08-5.37,3.08C239.08,301.17,237.13,299.44,237.13,296.75Z"/><path class="cls-1" d="M263.71,297.54c.27,0,.46.17.4.54a4.27,4.27,0,0,1-3.67,3.08,2.4,2.4,0,0,1-2.52-2.6,19.13,19.13,0,0,1,.31-2.37l.4-2.29c.17-1,0-1.31-.5-1.31-1.06,0-2.67,3-3.31,6.6a3.56,3.56,0,0,0,0,1.79,2.28,2.28,0,0,1-1.08.19c-1.6,0-1.79-.6-1.54-2.06l.92-5.21c.17-.9,0-1.31-.48-1.31-1,0-2.65,2.75-3.33,6.6a3.57,3.57,0,0,0,0,1.79,2.28,2.28,0,0,1-1.08.19c-1.6,0-1.79-.6-1.54-2.06l1.1-6.37a3.56,3.56,0,0,0,0-1.79,2.28,2.28,0,0,1,1.08-.19c1.6,0,1.79.6,1.54,2.06l-.08.5c.69-1.15,1.92-2.56,3.35-2.56a2,2,0,0,1,2.17,2.17c0,.15,0,.29,0,.46.67-1.19,1.94-2.62,3.42-2.62a2,2,0,0,1,2.15,2.15,11.31,11.31,0,0,1-.19,1.69l-.5,2.94c-.21,1.23.1,1.83.85,1.83A2.71,2.71,0,0,0,263.71,297.54Z"/><path class="cls-1" d="M272.25,297.42c-.27,1.48.08,1.94.63,1.94a.86.86,0,0,0,.79-.58c.29,0,.44.23.4.6a2.35,2.35,0,0,1-2.42,1.79,2.17,2.17,0,0,1-2.1-2.33c-.87,1.52-2,2.33-3.19,2.33-1.71,0-3.06-1.15-3.06-3.58,0-4.65,2.71-6.83,5.14-6.83a2.73,2.73,0,0,1,2.25,1c.33-.75.85-1,1.87-1a2.11,2.11,0,0,1,1,.21,4.1,4.1,0,0,0-.48,1.5Zm-2.08-3.27.19-1a1.51,1.51,0,0,0-1.37-1c-1.42,0-3,2.1-3,5.46,0,1.17.46,1.73,1.23,1.73C268.67,299.36,269.77,296.23,270.17,294.15Z"/><path class="cls-1" d="M280.31,292.59a5.75,5.75,0,0,0,1.79-3.92,1.79,1.79,0,0,0-1.92-2,2.48,2.48,0,0,0-2.31,2.67,2,2,0,0,0,.38,1.27,1.35,1.35,0,0,1-1.21.5c-.9,0-1.5-.58-1.5-1.71,0-2,2.06-3.83,5.06-3.85s4.39,1.56,4.39,3.31c0,1.94-.83,2.87-3,4.6a6,6,0,0,0-2.08,3,2.3,2.3,0,0,0-.1,1.13.9.9,0,0,1-.52.15c-.56,0-.73-.37-.73-1A6.09,6.09,0,0,1,280.31,292.59Zm-1.29,6a1.24,1.24,0,0,1,1.29,1.31,1.45,1.45,0,0,1-1.5,1.44,1.19,1.19,0,0,1-1.25-1.25A1.47,1.47,0,0,1,279,298.63Z"/><path class="cls-1" d="M81,311a5.05,5.05,0,0,0,1.94-.33,1,1,0,0,1,.23.69c0,1.08-.69,2.17-2.58,2.17L79,322.63c-.21,1.21.23,1.73.94,1.73,1,0,1.9-1.23,2.19-1.81.31,0,.44.21.4.54a4.17,4.17,0,0,1-3.77,3.08,2.4,2.4,0,0,1-2.5-2.58,16.41,16.41,0,0,1,.29-2.89L77.83,313a31.13,31.13,0,0,0-4-1.21L71.67,324a3.94,3.94,0,0,0,0,2,2.43,2.43,0,0,1-1.19.21c-1.54,0-1.83-.67-1.56-2.27l2-11.18a7.34,7.34,0,0,0,.1-1h-.19c-1.9,0-2.83,1.06-2.83,2.25,0,.58.31,1,.83,1a.85.85,0,0,0,.35-.06.65.65,0,0,1,0,.19c0,.5-.52,1.17-1.58,1.17a2,2,0,0,1-2.19-2.08c0-2.06,1.83-3.56,5.85-3.56C74.58,310.55,77.4,311,81,311Z"/><path class="cls-1" d="M91.27,319.73c0,3.67-2.12,6.44-5.77,6.44a3.64,3.64,0,0,1-3.83-4c0-3.77,2.21-6.44,5.77-6.44A3.63,3.63,0,0,1,91.27,319.73Zm-6.94,3.35c0,1.31.5,2,1.38,2,1.21,0,2.17-1.35,2.71-4.17a12.26,12.26,0,0,0,.19-2.15c0-1.33-.5-2-1.37-2-1,0-2.12,1.06-2.71,4.17A15.19,15.19,0,0,0,84.33,323.09Z"/><path class="cls-1" d="M96.52,317.3l.81,2.48.73-.52a3.18,3.18,0,0,0,1.42-2.71,2.1,2.1,0,0,0-.08-.6,1.56,1.56,0,0,1,.79-.19c.83,0,1.21.44,1.21,1.1s-.4,1.5-1.92,2.6l-1.81,1.31.58,1.71c.44,1.29,1,1.87,2,1.87s1.73-.54,2.42-1.81c.27,0,.46.17.4.54a4.22,4.22,0,0,1-3.9,3.08c-1.71,0-2.77-.9-3.44-3l-.27-.81-.42.29a3.18,3.18,0,0,0-1.42,2.71,2.12,2.12,0,0,0,.08.6,1.56,1.56,0,0,1-.79.19c-.83,0-1.21-.44-1.21-1.1s.4-1.5,1.92-2.6l1.52-1.1-1-3.14c-.23-.77-.44-1-.83-1a.81.81,0,0,0-.4.1,1,1,0,0,1,0-.27,1.49,1.49,0,0,1,1.65-1.31C95.61,315.75,96.13,316.09,96.52,317.3Z"/><path class="cls-1" d="M111.83,319.73c0,3.67-2.12,6.44-5.77,6.44a3.64,3.64,0,0,1-3.83-4c0-3.77,2.21-6.44,5.77-6.44A3.63,3.63,0,0,1,111.83,319.73Zm-6.94,3.35c0,1.31.5,2,1.38,2,1.21,0,2.17-1.35,2.71-4.17a12.26,12.26,0,0,0,.19-2.15c0-1.33-.5-2-1.37-2-1,0-2.12,1.06-2.71,4.17A15.19,15.19,0,0,0,104.9,323.09Z"/><path class="cls-1" d="M119.44,320.71l.52-3a3.56,3.56,0,0,0,0-1.79,2.28,2.28,0,0,1,1.08-.19c1.6,0,1.79.6,1.54,2.06l-.5,2.9h.62c.56,0,1-.69,1.25-1.19l.81-1.67c.83-1.69,1.5-2.1,2.4-2.1a1.29,1.29,0,0,1,1.35,1.42,1.89,1.89,0,0,1-.73,1.44,1,1,0,0,0-1-.75c-.62,0-1.08.44-1.46,1.25l-.35.75a2.33,2.33,0,0,1-.73.94,1.91,1.91,0,0,1,1.42,1.35l.23.73c.35,1.13.87,1.48,1.6,1.48,1,0,1.77-1,2.19-1.81.29,0,.46.19.4.54a4.25,4.25,0,0,1-3.69,3.08c-1.58,0-2.46-.85-2.94-2.44l-.33-1.1a1,1,0,0,0-1.12-.9h-.1l-.42,2.46a3.56,3.56,0,0,0,0,1.79,2.28,2.28,0,0,1-1.08.19c-1.6,0-1.79-.6-1.54-2.06l.4-2.37a1.49,1.49,0,0,0-1.56.92l-.54,1.08c-.75,1.5-1.5,2.44-3,2.44a1.93,1.93,0,0,1-1.85-2.17c0-1.06.52-1.52,1-1.52a.9.9,0,0,1,.42.08,3.83,3.83,0,0,0-.19,1c0,.44.15.65.38.65s.46-.29.83-1l.56-1.06a2.39,2.39,0,0,1,2.29-1.31,1.88,1.88,0,0,1-.52-.94l-.19-.75c-.21-.81-.58-1.25-1.21-1.25a1.37,1.37,0,0,0-1.17.75,1.5,1.5,0,0,1-.48-1.1,1.7,1.7,0,0,1,1.71-1.75c.9,0,1.42.42,1.9,2.1l.46,1.67c.15.5.48,1.19,1.08,1.19Z"/><path class="cls-1" d="M137.85,317.94c0,2.29-3.12,3.27-5.85,3.81a3,3,0,0,0,3.12,2.77,2.27,2.27,0,0,0,2-.87c.25,0,.38.13.33.38-.15.9-1.54,2.15-3.62,2.15a4.3,4.3,0,0,1-4.5-4.52,5.68,5.68,0,0,1,5.5-5.89C137,315.75,137.85,316.82,137.85,317.94ZM132,320.77c2.54-.6,3.62-1.9,3.62-3.21a.69.69,0,0,0-.75-.77C133.52,316.8,132.21,318.46,132,320.77Z"/><path class="cls-1" d="M151.71,325.94c-.81,4.83-2.75,7.52-5.83,7.52a2.14,2.14,0,0,1-2.33-2.19,4.41,4.41,0,0,1,1.75-3.23,16.08,16.08,0,0,1,3.81-2.35l.46-2.69a12.34,12.34,0,0,1-.87,1.4,3.59,3.59,0,0,1-2.94,1.77,2.21,2.21,0,0,1-2.27-2.42,14,14,0,0,1,.25-2.56l.6-3.46a3.56,3.56,0,0,0,0-1.79,2.29,2.29,0,0,1,1.08-.19c1.6,0,1.79.6,1.54,2.06l-.83,4.81c-.21,1.21.08,1.73.69,1.73s1-.56,1.54-1.4a15.28,15.28,0,0,0,2.06-5.23,3.26,3.26,0,0,0,0-1.79,2.28,2.28,0,0,1,1.08-.19c1.6,0,1.79.6,1.54,2.06ZM148.88,327a12.08,12.08,0,0,0-2.94,1.92,3.25,3.25,0,0,0-1.23,2.23.87.87,0,0,0,1,.94C147.13,332.08,148.25,330.33,148.88,327Z"/><path class="cls-1" d="M165.83,315.75a1.45,1.45,0,0,1,1.6,1.65l.13,5.94,2.4-5.12a9.26,9.26,0,0,0,.83-2.27,2.28,2.28,0,0,1,1.08-.19c1.6,0,1.79.6,1.54,2.06l-.81,4.71c-.21,1.25.15,1.83.9,1.83a2.89,2.89,0,0,0,2.19-1.81c.27,0,.46.17.4.54a4.23,4.23,0,0,1-3.73,3.08,2.34,2.34,0,0,1-2.44-2.6,14.2,14.2,0,0,1,.19-2l.33-2-2.1,4.56a10.35,10.35,0,0,0-.62,1.69,1.87,1.87,0,0,1-1.15.31c-1,0-1.56-.67-1.6-2l-.12-4.71-1.15,3.89c-.56,1.94-1.46,2.83-2.81,2.83a1.91,1.91,0,0,1-2-2,1.73,1.73,0,0,1,1.62-1.9,1.48,1.48,0,0,1,1,.29,2.5,2.5,0,0,0-.33,1.17c0,.42.25.65.52.65s.71-.37,1-1.42l1.17-4.08a8.55,8.55,0,0,0,.52-2.92A6.86,6.86,0,0,1,165.83,315.75Z"/><path class="cls-1" d="M175.27,321.67a5.69,5.69,0,0,1,5.58-5.92c2.12,0,3,1.1,3,2.17,0,1.9-2.19,3.15-5.85,3.83a2.86,2.86,0,0,0,3,2.77,4.64,4.64,0,0,0,4.06-2c.27,0,.42.17.33.54-.19.92-2.19,3.08-5.37,3.08C177.25,326.17,175.27,324.48,175.27,321.67Zm2.73-.9c2.54-.6,3.6-1.87,3.6-3.25a.69.69,0,0,0-.73-.73C179.69,316.8,178.23,318.17,178,320.77Z"/><path class="cls-1" d="M196.79,322.54c.27,0,.46.17.4.54a4.23,4.23,0,0,1-3.73,3.08,2.34,2.34,0,0,1-2.44-2.6,12.45,12.45,0,0,1,.19-2h-3.35l-.44,2.6a3.56,3.56,0,0,0,0,1.79,2.28,2.28,0,0,1-1.08.19c-1.6,0-1.79-.6-1.54-2.06l1.1-6.37a3.55,3.55,0,0,0,0-1.79,2.28,2.28,0,0,1,1.08-.19c1.6,0,1.79.6,1.54,2.06l-.48,2.73h3.33l.5-2.81a3.56,3.56,0,0,0,0-1.79,2.28,2.28,0,0,1,1.08-.19c1.6,0,1.79.6,1.54,2.06l-.81,4.71c-.21,1.23.15,1.83.9,1.83A2.89,2.89,0,0,0,196.79,322.54Z"/><path class="cls-1" d="M205.89,318.15l-.73,4.27c-.25,1.5.08,1.94.62,1.94a.86.86,0,0,0,.79-.58c.29,0,.44.23.4.6a2.35,2.35,0,0,1-2.42,1.79,2.2,2.2,0,0,1-2.1-2.46,12.9,12.9,0,0,1,.08-1.48l-1.21,0-.52,1c-.92,1.85-1.71,2.85-3.06,2.85a1.88,1.88,0,0,1-2-2,1.74,1.74,0,0,1,1.67-1.94,1.3,1.3,0,0,1,.94.29,2.73,2.73,0,0,0-.33,1.17c0,.42.25.65.52.65s.81-.4,1.27-1.33l.38-.79c-2-.27-3-1.46-3-2.94,0-2,1.38-3.54,4.54-3.54a13.56,13.56,0,0,1,3.44.42C206,316.44,206.08,317,205.89,318.15Zm-3.19,3.08.54-3.17c.1-.65.17-1.1.17-1.1a4,4,0,0,0-1.19-.17,2.42,2.42,0,0,0-2.35,2.63,1.69,1.69,0,0,0,1.83,1.83C202,321.25,202.46,321.25,202.71,321.23Z"/><path class="cls-1" d="M212.42,321.75a5.72,5.72,0,0,1,5.54-6c1.73,0,2.94,1,2.94,2.35s-.71,2.17-1.79,2.17a1.08,1.08,0,0,1-1-.5,2.69,2.69,0,0,0,.77-2,.91.91,0,0,0-1-1c-1.29,0-2.79,1.79-2.79,4.54a2.88,2.88,0,0,0,3.06,3.19,4.64,4.64,0,0,0,4-2c.27,0,.42.17.33.54-.21.92-2.15,3.08-5.37,3.08C214.38,326.17,212.42,324.44,212.42,321.75Z"/><path class="cls-1" d="M221.81,321.67a5.69,5.69,0,0,1,5.58-5.92c2.13,0,3,1.1,3,2.17,0,1.9-2.19,3.15-5.85,3.83a2.86,2.86,0,0,0,3,2.77,4.64,4.64,0,0,0,4.06-2c.27,0,.42.17.33.54-.19.92-2.19,3.08-5.37,3.08C223.79,326.17,221.81,324.48,221.81,321.67Zm2.73-.9c2.54-.6,3.6-1.87,3.6-3.25a.69.69,0,0,0-.73-.73C226.23,316.8,224.77,318.17,224.54,320.77Z"/><path class="cls-1" d="M235,318.19c.88-1.58,2-2.44,3.35-2.44,1.94,0,3,1.38,3,3.54a9.28,9.28,0,0,1-.17,1.75,4.06,4.06,0,0,0,2.58-1.62c.27,0,.42.21.38.52-.12.73-1.48,1.9-3.19,2.06-.81,2.6-2.73,4.17-4.75,4.17a3.24,3.24,0,0,1-2.42-1l-1.1,6.33a3.56,3.56,0,0,0,0,1.79,2.28,2.28,0,0,1-1.08.19c-1.6,0-1.79-.6-1.54-2.06l2.38-13.66a3.56,3.56,0,0,0,0-1.79,2.28,2.28,0,0,1,1.08-.19c1.6,0,1.79.58,1.54,2.06Zm3.65.19c-.12-.71-.48-1-1-1s-1.23.52-1.94,1.65a11.64,11.64,0,0,0-1.54,4.06l-.15.79a1.78,1.78,0,0,0,1.58.9c1.15,0,2.27-1.33,2.79-3.31a2,2,0,0,1-.77-1.65A1.36,1.36,0,0,1,238.67,318.38Z"/><path class="cls-1" d="M243,322.82a9.75,9.75,0,0,1,.15-1.5l.65-3.58a3.55,3.55,0,0,0,0-1.79,2.28,2.28,0,0,1,1.08-.19c1.6,0,1.79.6,1.54,2.06l-.19,1.06a4.49,4.49,0,0,1,2-.44c1.94,0,3.29,1.15,3.29,3a4.62,4.62,0,0,1-4.94,4.77C244.31,326.17,243,324.86,243,322.82Zm2.69-.69a10,10,0,0,0-.15,1.63c0,.81.42,1.38,1.21,1.38,1.17,0,2.17-1.29,2.17-3.81,0-1.1-.56-1.62-1.44-1.62a2.17,2.17,0,0,0-1.5.69Z"/><path class="cls-1" d="M253.08,321.67a5.69,5.69,0,0,1,5.58-5.92c2.13,0,3,1.1,3,2.17,0,1.9-2.19,3.15-5.85,3.83a2.86,2.86,0,0,0,3,2.77,4.64,4.64,0,0,0,4.06-2c.27,0,.42.17.33.54-.19.92-2.19,3.08-5.37,3.08C255.06,326.17,253.08,324.48,253.08,321.67Zm2.73-.9c2.54-.6,3.6-1.87,3.6-3.25a.69.69,0,0,0-.73-.73C257.5,316.8,256,318.17,255.81,320.77Zm1.54-9.48a1.09,1.09,0,0,1,1.13,1.12,1.3,1.3,0,0,1-1.33,1.31,1.07,1.07,0,0,1-1.1-1.1A1.31,1.31,0,0,1,257.35,311.3Zm3.65,0a1.1,1.1,0,0,1,1.13,1.12,1.31,1.31,0,0,1-1.33,1.31,1.07,1.07,0,0,1-1.1-1.1A1.3,1.3,0,0,1,261,311.3Z"/><path class="cls-1" d="M268.87,323.34a6.47,6.47,0,0,1-1.54,1,3.13,3.13,0,0,1,.85.63,18.4,18.4,0,0,0,4.54-2.46.37.37,0,0,1,.4.48c0,.21-.27.44-.69.75a26.39,26.39,0,0,1-3.62,2.1,4.24,4.24,0,0,1,.46,2,5.65,5.65,0,0,1-5.6,5.58c-1.81,0-2.65-.85-2.65-2.19a4.39,4.39,0,0,1,1.71-3.19,17.51,17.51,0,0,1,3.83-2.35,2.41,2.41,0,0,0-.31-.92,4.48,4.48,0,0,1-1.1.17c-.54,0-.81-.27-.81-.62a7.1,7.1,0,0,0,4-6.08,1.32,1.32,0,0,0-1.44-1.48c-1.25,0-2.73,1.67-2.73,3.67a1.6,1.6,0,0,0,0,.4,1.1,1.1,0,0,1-.5.1,1.34,1.34,0,0,1-1.46-1.42c0-2,2-3.79,4.73-3.79s3.83,1.5,3.83,3.48A5.5,5.5,0,0,1,268.87,323.34ZM266.62,327v-.15a12.22,12.22,0,0,0-3.19,2,3.28,3.28,0,0,0-1.25,2.23.89.89,0,0,0,1,.94C265,332.08,266.62,329.75,266.62,327Z"/><path class="cls-1" d="M284.43,322.54c.27,0,.46.17.4.54a4.23,4.23,0,0,1-3.73,3.08,2.34,2.34,0,0,1-2.44-2.6,12.57,12.57,0,0,1,.19-2H275.5l-.44,2.6a3.57,3.57,0,0,0,0,1.79,2.28,2.28,0,0,1-1.08.19c-1.6,0-1.79-.6-1.54-2.06l1.1-6.37a3.56,3.56,0,0,0,0-1.79,2.28,2.28,0,0,1,1.08-.19c1.6,0,1.79.6,1.54,2.06l-.48,2.73H279l.5-2.81a3.56,3.56,0,0,0,0-1.79,2.28,2.28,0,0,1,1.08-.19c1.6,0,1.79.6,1.54,2.06l-.81,4.71c-.21,1.23.15,1.83.9,1.83A2.89,2.89,0,0,0,284.43,322.54Z"/><path class="cls-1" d="M284.23,322.82a9.75,9.75,0,0,1,.15-1.5l.65-3.58a3.55,3.55,0,0,0,0-1.79,2.28,2.28,0,0,1,1.08-.19c1.6,0,1.79.6,1.54,2.06l-.19,1.06a4.49,4.49,0,0,1,2-.44c1.94,0,3.29,1.15,3.29,3a4.62,4.62,0,0,1-4.94,4.77C285.5,326.17,284.23,324.86,284.23,322.82Zm2.69-.69a10,10,0,0,0-.15,1.63c0,.81.42,1.38,1.21,1.38,1.17,0,2.17-1.29,2.17-3.81,0-1.1-.56-1.62-1.44-1.62a2.17,2.17,0,0,0-1.5.69Zm7.77-4.39a3.55,3.55,0,0,0,0-1.79,2.29,2.29,0,0,1,1.08-.19c1.6,0,1.79.6,1.54,2.06l-.81,4.71c-.21,1.25.15,1.83.9,1.83a2.89,2.89,0,0,0,2.19-1.81c.27,0,.46.17.4.54a4.23,4.23,0,0,1-3.73,3.08,2.34,2.34,0,0,1-2.44-2.6,12.05,12.05,0,0,1,.19-2Z"/><path class="cls-1" d="M307.75,317.94c0,2.29-3.12,3.27-5.85,3.81a3,3,0,0,0,3.12,2.77,2.27,2.27,0,0,0,2-.87c.25,0,.38.13.33.38-.15.9-1.54,2.15-3.62,2.15a4.3,4.3,0,0,1-4.5-4.52,5.68,5.68,0,0,1,5.5-5.89C306.91,315.75,307.75,316.82,307.75,317.94Zm-5.85,2.83c2.54-.6,3.62-1.9,3.62-3.21a.69.69,0,0,0-.75-.77C303.42,316.8,302.1,318.46,301.89,320.77Z"/><path class="cls-1" d="M60.56,343.9c.17-1,0-1.31-.5-1.31-1.31,0-3.29,3.1-3.94,6.6a3.56,3.56,0,0,0,0,1.79,2.28,2.28,0,0,1-1.08.19c-1.6,0-1.79-.6-1.54-2.06l1.1-6.37a3.55,3.55,0,0,0,0-1.79,2.28,2.28,0,0,1,1.08-.19c1.6,0,1.79.6,1.54,2.06l-.17,1c.81-1.35,2.4-3,4.08-3a2,2,0,0,1,2.15,2.15,11.25,11.25,0,0,1-.19,1.69l-.5,2.94c-.19,1,0,1.83.85,1.83s1.65-.73,2.19-1.81c.27,0,.46.17.4.54a4.25,4.25,0,0,1-3.67,3.08,2.4,2.4,0,0,1-2.52-2.6,18.16,18.16,0,0,1,.31-2.37Z"/><path class="cls-1" d="M69,343.19c.88-1.58,2-2.44,3.35-2.44,1.94,0,3,1.38,3,3.54a9.2,9.2,0,0,1-.17,1.75,4.06,4.06,0,0,0,2.58-1.62c.27,0,.42.21.38.52-.12.73-1.48,1.9-3.19,2.06-.81,2.6-2.73,4.17-4.75,4.17a3.24,3.24,0,0,1-2.42-1l-1.1,6.33a3.56,3.56,0,0,0,0,1.79,2.28,2.28,0,0,1-1.08.19c-1.6,0-1.79-.6-1.54-2.06l2.37-13.66a3.56,3.56,0,0,0,0-1.79,2.28,2.28,0,0,1,1.08-.19c1.6,0,1.79.58,1.54,2.06Zm3.65.19c-.12-.71-.48-1-1-1s-1.23.52-1.94,1.65a11.64,11.64,0,0,0-1.54,4.06l-.15.79a1.78,1.78,0,0,0,1.58.9c1.15,0,2.27-1.33,2.79-3.31a2,2,0,0,1-.77-1.65A1.36,1.36,0,0,1,72.69,343.38Z"/><path class="cls-1" d="M86.46,344.73a8.8,8.8,0,0,1-.1,1.31,4.15,4.15,0,0,0,2.52-1.62c.27,0,.42.21.38.52-.12.73-1.44,1.85-3.1,2.06a5.43,5.43,0,0,1-5.46,4.17,3.64,3.64,0,0,1-3.83-4c0-3.77,2.21-6.44,5.77-6.44A3.63,3.63,0,0,1,86.46,344.73Zm-2.69-1.35c-.1-1-.58-1.6-1.35-1.6-1,0-2.12,1.06-2.71,4.17a15.19,15.19,0,0,0-.19,2.14c0,1.31.5,2,1.38,2,1.12,0,2.06-1.19,2.6-3.69a2,2,0,0,1-.79-1.65A1.34,1.34,0,0,1,83.77,343.38Z"/><path class="cls-1" d="M98.67,348.61a4.54,4.54,0,0,1-1.58-.29,5.34,5.34,0,0,1-4.89,2.85c-2.73,0-3.85-1.92-3.85-4,0-5.06,1.9-9.87,5.15-12,1.71-1.12,4.46-.83,6.94-1.69a.72.72,0,0,1,.15.5c0,1.13-.62,1.9-2.25,1.9-1,0-1.85-.44-2.52-.44-.92,0-1.46.35-2.15,1.56A19.37,19.37,0,0,0,92,341.46a4.25,4.25,0,0,1,2.4-.71A3.57,3.57,0,0,1,98,344.59a8.43,8.43,0,0,1-.46,2.79,3.41,3.41,0,0,0,1.52.38,2.76,2.76,0,0,0,.92-.17c.21.15.17.46-.06.69A1.74,1.74,0,0,1,98.67,348.61Zm-3.73-1.87a3.19,3.19,0,0,1-.75-1.94,1.34,1.34,0,0,1,1.06-1.42c-.17-1.08-.71-1.52-1.54-1.52a2.94,2.94,0,0,0-2.1,1.1,24.75,24.75,0,0,0-.6,5c0,1.27.42,2.15,1.42,2.15C93.67,350.13,94.5,348.46,94.94,346.73Z"/><path class="cls-1" d="M106.58,342.73a8.26,8.26,0,0,0,.1-.92c-1.06.1-1.79.9-2.29,2.58l-1.1,3.83c-.54,1.9-1.42,2.94-2.85,2.94a1.91,1.91,0,0,1-2-2,1.72,1.72,0,0,1,1.62-1.87,1.48,1.48,0,0,1,1,.29,2.65,2.65,0,0,0-.33,1.08c0,.5.23.73.52.73s.73-.42,1-1.42l1.08-3.85a4,4,0,0,1,4.19-3.33c1.77,0,1.94.6,1.69,2.06l-.81,4.71c-.21,1.25.15,1.83.9,1.83a2.89,2.89,0,0,0,2.19-1.81c.27,0,.46.17.4.54a4.23,4.23,0,0,1-3.73,3.08,2.34,2.34,0,0,1-2.44-2.6,12.11,12.11,0,0,1,.19-2Z"/><path class="cls-1" d="M111.08,346.67a5.69,5.69,0,0,1,5.58-5.92c2.12,0,3,1.1,3,2.17,0,1.9-2.19,3.15-5.85,3.83a2.86,2.86,0,0,0,3,2.77,4.64,4.64,0,0,0,4.06-2c.27,0,.42.17.33.54-.19.92-2.19,3.08-5.37,3.08C113.06,351.17,111.08,349.48,111.08,346.67Zm2.73-.9c2.54-.6,3.6-1.87,3.6-3.25a.69.69,0,0,0-.73-.73C115.5,341.8,114,343.17,113.81,345.77Z"/><path class="cls-1" d="M126.77,340.75a1.45,1.45,0,0,1,1.6,1.65l.13,5.94,2.4-5.12a9.26,9.26,0,0,0,.83-2.27,2.28,2.28,0,0,1,1.08-.19c1.6,0,1.79.6,1.54,2.06l-.81,4.71c-.21,1.25.15,1.83.9,1.83a2.89,2.89,0,0,0,2.19-1.81c.27,0,.46.17.4.54a4.23,4.23,0,0,1-3.73,3.08,2.34,2.34,0,0,1-2.44-2.6,14.2,14.2,0,0,1,.19-2l.33-2-2.1,4.56a10.35,10.35,0,0,0-.62,1.69,1.87,1.87,0,0,1-1.15.31c-1,0-1.56-.67-1.6-2l-.12-4.71-1.15,3.89c-.56,1.94-1.46,2.83-2.81,2.83a1.91,1.91,0,0,1-2-2,1.73,1.73,0,0,1,1.62-1.9,1.48,1.48,0,0,1,1,.29,2.5,2.5,0,0,0-.33,1.17c0,.42.25.65.52.65s.71-.37,1-1.42l1.17-4.08a8.55,8.55,0,0,0,.52-2.92A6.86,6.86,0,0,1,126.77,340.75Z"/><path class="cls-1" d="M136.42,347.82a9.86,9.86,0,0,1,.15-1.5l.65-3.58a3.56,3.56,0,0,0,0-1.79,2.29,2.29,0,0,1,1.08-.19c1.6,0,1.79.6,1.54,2.06l-.19,1.06a4.49,4.49,0,0,1,2-.44c1.94,0,3.29,1.15,3.29,3a4.62,4.62,0,0,1-4.94,4.77C137.69,351.17,136.42,349.86,136.42,347.82Zm2.69-.69a10,10,0,0,0-.15,1.63c0,.81.42,1.38,1.21,1.38,1.17,0,2.17-1.29,2.17-3.81,0-1.1-.56-1.62-1.44-1.62a2.17,2.17,0,0,0-1.5.69Zm7.77-4.39a3.55,3.55,0,0,0,0-1.79,2.28,2.28,0,0,1,1.08-.19c1.6,0,1.79.6,1.54,2.06l-.79,4.6c-.25,1.5.08,1.94.62,1.94a.86.86,0,0,0,.79-.58c.29,0,.44.23.4.6a2.35,2.35,0,0,1-2.42,1.79,2.2,2.2,0,0,1-2.1-2.46,12.08,12.08,0,0,1,.19-2.12Z"/><path class="cls-1" d="M156,346.75a5.65,5.65,0,0,1,5.52-6c1.79,0,3,1,3,2.35s-.71,2.17-1.79,2.17a1.08,1.08,0,0,1-1-.5,2.85,2.85,0,0,0,.77-1.9c0-.69-.33-1.08-1-1.08-1.29,0-2.79,1.75-2.79,4.48,0,2.15,1,3.25,2.85,3.25a2.86,2.86,0,0,0,2.23-.87c.27,0,.38.13.33.38-.12.75-1.4,2.15-3.6,2.15A4.27,4.27,0,0,1,156,346.75Z"/><path class="cls-1" d="M171,348.46a5.33,5.33,0,0,1,.46-1.94l1.37-3a2,2,0,0,0,.19-.71.57.57,0,0,0-.62-.62c-.58,0-1.31.67-1.79,2.08a.37.37,0,0,1-.15,0c-.29,0-.48-.21-.4-.67a3.46,3.46,0,0,1,3.27-2.85,2.08,2.08,0,0,1,2.35,2.08,4.82,4.82,0,0,1-.44,1.77L174,347.32c-.54,1.17-.27,2,.73,2a2.91,2.91,0,0,0,2.46-1.81c.35,0,.46.23.4.56a4.53,4.53,0,0,1-3.9,3.06A2.45,2.45,0,0,1,171,348.46Z"/><path class="cls-1" d="M184.27,342.73a8.26,8.26,0,0,0,.1-.92c-1.06.1-1.79.9-2.29,2.58l-1.1,3.83c-.54,1.9-1.42,2.94-2.85,2.94a1.91,1.91,0,0,1-2-2,1.72,1.72,0,0,1,1.62-1.87,1.48,1.48,0,0,1,1,.29,2.65,2.65,0,0,0-.33,1.08c0,.5.23.73.52.73s.73-.42,1-1.42l1.08-3.85a4,4,0,0,1,4.19-3.33c1.77,0,1.94.6,1.69,2.06l-.81,4.71c-.21,1.25.15,1.83.9,1.83a2.89,2.89,0,0,0,2.19-1.81c.27,0,.46.17.4.54a4.23,4.23,0,0,1-3.73,3.08,2.34,2.34,0,0,1-2.44-2.6,12.11,12.11,0,0,1,.19-2Z"/><path class="cls-1" d="M197.71,347.52c-.23,1.25.15,1.83.9,1.83a2.89,2.89,0,0,0,2.19-1.81c.27,0,.46.17.4.54a4.23,4.23,0,0,1-3.73,3.08,2.32,2.32,0,0,1-2.44-2.35c-.85,1.54-2,2.35-3.19,2.35-1.71,0-3.06-1.15-3.06-3.58,0-4.65,2.71-6.83,5.14-6.83a2.73,2.73,0,0,1,2.25,1c.33-.75.85-1,1.87-1a2.11,2.11,0,0,1,1,.21,4.1,4.1,0,0,0-.48,1.5Zm-2.06-3.37.19-1a1.51,1.51,0,0,0-1.37-1c-1.42,0-3,2.1-3,5.46,0,1.17.46,1.73,1.23,1.73C194.14,349.36,195.25,346.23,195.64,344.15Z"/><path class="cls-1" d="M206.77,348.34a6.47,6.47,0,0,1-1.54,1,3.13,3.13,0,0,1,.85.63,18.4,18.4,0,0,0,4.54-2.46.37.37,0,0,1,.4.48c0,.21-.27.44-.69.75a26.39,26.39,0,0,1-3.62,2.1,4.23,4.23,0,0,1,.46,2,5.65,5.65,0,0,1-5.6,5.58c-1.81,0-2.65-.85-2.65-2.19a4.39,4.39,0,0,1,1.71-3.19,17.51,17.51,0,0,1,3.83-2.35,2.41,2.41,0,0,0-.31-.92,4.48,4.48,0,0,1-1.1.17c-.54,0-.81-.27-.81-.62a7.1,7.1,0,0,0,4-6.08,1.32,1.32,0,0,0-1.44-1.48c-1.25,0-2.73,1.67-2.73,3.67a1.6,1.6,0,0,0,0,.4,1.1,1.1,0,0,1-.5.1,1.34,1.34,0,0,1-1.46-1.42c0-2,2-3.79,4.73-3.79s3.83,1.5,3.83,3.48A5.5,5.5,0,0,1,206.77,348.34ZM204.52,352v-.15a12.2,12.2,0,0,0-3.19,2,3.28,3.28,0,0,0-1.25,2.23.89.89,0,0,0,1,.94C202.85,357.08,204.52,354.75,204.52,352Z"/><path class="cls-1" d="M219.14,347.52c-.23,1.25.15,1.83.9,1.83a2.89,2.89,0,0,0,2.19-1.81c.27,0,.46.17.4.54a4.23,4.23,0,0,1-3.73,3.08,2.32,2.32,0,0,1-2.44-2.35c-.85,1.54-2,2.35-3.19,2.35-1.71,0-3.06-1.15-3.06-3.58,0-4.65,2.71-6.83,5.14-6.83a2.73,2.73,0,0,1,2.25,1c.33-.75.85-1,1.87-1a2.11,2.11,0,0,1,1,.21,4.1,4.1,0,0,0-.48,1.5Zm-2.06-3.37.19-1a1.51,1.51,0,0,0-1.37-1c-1.42,0-3,2.1-3,5.46,0,1.17.46,1.73,1.23,1.73C215.58,349.36,216.68,346.23,217.08,344.15Z"/><path class="cls-1" d="M228.1,340.75a1.45,1.45,0,0,1,1.6,1.65l.12,5.94,2.4-5.12a9.21,9.21,0,0,0,.83-2.27,2.28,2.28,0,0,1,1.08-.19c1.6,0,1.79.6,1.54,2.06l-.81,4.71c-.21,1.25.15,1.83.9,1.83a2.89,2.89,0,0,0,2.19-1.81c.27,0,.46.17.4.54a4.23,4.23,0,0,1-3.73,3.08,2.34,2.34,0,0,1-2.44-2.6,14.2,14.2,0,0,1,.19-2l.33-2-2.1,4.56a10.27,10.27,0,0,0-.62,1.69,1.87,1.87,0,0,1-1.15.31c-1,0-1.56-.67-1.6-2l-.12-4.71L226,348.34c-.56,1.94-1.46,2.83-2.81,2.83a1.91,1.91,0,0,1-2-2,1.73,1.73,0,0,1,1.63-1.9,1.48,1.48,0,0,1,1,.29,2.5,2.5,0,0,0-.33,1.17c0,.42.25.65.52.65s.71-.37,1-1.42l1.17-4.08a8.53,8.53,0,0,0,.52-2.92A6.86,6.86,0,0,1,228.1,340.75Z"/><path class="cls-1" d="M244.75,342.53a3.21,3.21,0,0,0,0-1.58,2.28,2.28,0,0,1,1.08-.19c1.6,0,1.79.6,1.54,2.06l-.79,4.6c-.25,1.5.08,1.94.62,1.94a.86.86,0,0,0,.79-.58c.29,0,.44.23.4.6a2.35,2.35,0,0,1-2.42,1.79,2.2,2.2,0,0,1-2.1-2.46c0-.27,0-.54,0-.85a9.66,9.66,0,0,1-.94,1.54,3.58,3.58,0,0,1-2.94,1.77,2.21,2.21,0,0,1-2.27-2.42,14,14,0,0,1,.25-2.56l.6-3.46a3.56,3.56,0,0,0,0-1.79,2.28,2.28,0,0,1,1.08-.19c1.6,0,1.79.6,1.54,2.06l-.83,4.81c-.21,1.21.08,1.73.69,1.73s1-.56,1.54-1.4A15.37,15.37,0,0,0,244.75,342.53Z"/><path class="cls-1" d="M251.75,348.63a1.24,1.24,0,0,1,1.29,1.31,1.45,1.45,0,0,1-1.5,1.44,1.19,1.19,0,0,1-1.25-1.25A1.47,1.47,0,0,1,251.75,348.63Z"/><path class="cls-1" d="M270.7,344.07h-4.25L265.6,349a3.94,3.94,0,0,0,0,2,2.44,2.44,0,0,1-1.19.21c-1.54,0-1.83-.67-1.56-2.27l2-11.18a7.34,7.34,0,0,0,.1-1h-.21c-1.89,0-2.83,1.06-2.83,2.25,0,.58.31,1,.83,1a.85.85,0,0,0,.35-.06.64.64,0,0,1,0,.19c0,.5-.52,1.17-1.58,1.17a2,2,0,0,1-2.19-2.08c0-2.06,1.9-3.56,5.25-3.56H266c1.54,0,1.83.67,1.56,2.27l-.9,5.1h4.25l.92-5.21a3.87,3.87,0,0,0,0-2,2.44,2.44,0,0,1,1.19-.21c1.54,0,1.83.67,1.56,2.27l-1.71,9.81c-.21,1.21.23,1.73.94,1.73,1,0,1.9-1.23,2.19-1.81.31,0,.44.21.4.54a4.17,4.17,0,0,1-3.77,3.08,2.4,2.4,0,0,1-2.5-2.58,16.41,16.41,0,0,1,.29-2.89Z"/><path class="cls-1" d="M282,347.86a9.66,9.66,0,0,1-.94,1.54,3.58,3.58,0,0,1-2.94,1.77,2.21,2.21,0,0,1-2.27-2.42,14,14,0,0,1,.25-2.56l.6-3.46a3.55,3.55,0,0,0,0-1.79,2.28,2.28,0,0,1,1.08-.19c1.6,0,1.79.6,1.54,2.06l-.83,4.81c-.21,1.19.08,1.73.69,1.73s1-.56,1.54-1.4a15.76,15.76,0,0,0,2.1-5.44,3.21,3.21,0,0,0,0-1.58,2.28,2.28,0,0,1,1.08-.19c1.6,0,1.79.6,1.54,2.06l-.81,4.71c-.21,1.25.15,1.83.9,1.83a2.89,2.89,0,0,0,2.19-1.81c.27,0,.46.17.4.54a4.23,4.23,0,0,1-3.73,3.08,2.34,2.34,0,0,1-2.44-2.6C281.93,348.38,281.93,348.15,282,347.86Z"/><path class="cls-1" d="M290.64,345.71h.83c.58,0,1-.69,1.25-1.19l.81-1.67c.83-1.69,1.5-2.1,2.39-2.1a1.29,1.29,0,0,1,1.35,1.42,1.89,1.89,0,0,1-.73,1.44,1,1,0,0,0-1-.75c-.62,0-1.08.46-1.46,1.25l-.35.75a2.34,2.34,0,0,1-.73.94,1.91,1.91,0,0,1,1.42,1.35l.23.73c.29,1,.71,1.48,1.56,1.48a2.88,2.88,0,0,0,2.23-1.81c.27,0,.46.17.4.54a4.28,4.28,0,0,1-3.73,3.08,2.93,2.93,0,0,1-2.9-2.44l-.33-1.1c-.17-.58-.44-.9-1-.9h-.44l-.42,2.46a3.57,3.57,0,0,0,0,1.79,2.28,2.28,0,0,1-1.08.19c-1.6,0-1.79-.6-1.54-2.06l1.1-6.37a3.56,3.56,0,0,0,0-1.79,2.28,2.28,0,0,1,1.08-.19c1.6,0,1.79.6,1.54,2.06Z"/><path class="cls-1" d="M307,347.52c-.23,1.25.15,1.83.9,1.83a2.89,2.89,0,0,0,2.19-1.81c.27,0,.46.17.4.54a4.23,4.23,0,0,1-3.73,3.08,2.32,2.32,0,0,1-2.44-2.35c-.85,1.54-2,2.35-3.19,2.35-1.71,0-3.06-1.15-3.06-3.58,0-4.65,2.71-6.83,5.14-6.83a2.73,2.73,0,0,1,2.25,1c.33-.75.85-1,1.87-1a2.11,2.11,0,0,1,1,.21,4.1,4.1,0,0,0-.48,1.5Zm-2.06-3.37.19-1a1.51,1.51,0,0,0-1.37-1c-1.42,0-3,2.1-3,5.46,0,1.17.46,1.73,1.23,1.73C303.41,349.36,304.52,346.23,304.91,344.15Z"/><path class="cls-1" d="M313,345.71h.81c.6,0,1-.67,1.27-1.19l.81-1.67c.83-1.69,1.5-2.1,2.39-2.1a1.29,1.29,0,0,1,1.35,1.42,1.89,1.89,0,0,1-.73,1.44,1,1,0,0,0-1-.75c-.62,0-1.08.44-1.46,1.25l-.35.75a2.34,2.34,0,0,1-.73.94,1.91,1.91,0,0,1,1.42,1.35l.23.73c.27.9.6,1.48,1.27,1.48a1,1,0,0,0,.88-.58c.23,0,.44.17.38.6a2.41,2.41,0,0,1-2.44,1.79c-1.25,0-2-.77-2.52-2.44l-.33-1.1c-.19-.58-.44-.9-1-.9h-.44l-.42,2.46a3.57,3.57,0,0,0,0,1.79,2.28,2.28,0,0,1-1.08.19c-1.6,0-1.79-.6-1.54-2.06l1.1-6.37a3.56,3.56,0,0,0,0-1.79,2.28,2.28,0,0,1,1.08-.19c1.6,0,1.79.6,1.54,2.06Z"/><path class="cls-1" d="M110.85,372.54c.27,0,.46.17.4.54a4.23,4.23,0,0,1-3.73,3.08,2.34,2.34,0,0,1-2.44-2.6,12.57,12.57,0,0,1,.19-2h-3.35l-.44,2.6a3.56,3.56,0,0,0,0,1.79,2.28,2.28,0,0,1-1.08.19c-1.6,0-1.79-.6-1.54-2.06l1.1-6.37a3.55,3.55,0,0,0,0-1.79,2.28,2.28,0,0,1,1.08-.19c1.6,0,1.79.6,1.54,2.06l-.48,2.73h3.33l.5-2.81a3.55,3.55,0,0,0,0-1.79,2.28,2.28,0,0,1,1.08-.19c1.6,0,1.79.6,1.54,2.06l-.81,4.71c-.21,1.23.15,1.83.9,1.83A2.89,2.89,0,0,0,110.85,372.54Z"/><path class="cls-1" d="M119,367.94c0,2.29-3.12,3.27-5.85,3.81a3,3,0,0,0,3.12,2.77,2.27,2.27,0,0,0,2-.87c.25,0,.38.13.33.38-.15.9-1.54,2.15-3.62,2.15a4.3,4.3,0,0,1-4.5-4.52,5.68,5.68,0,0,1,5.5-5.89C118.17,365.75,119,366.82,119,367.94Zm-5.85,2.83c2.54-.6,3.62-1.9,3.62-3.21a.69.69,0,0,0-.75-.77C114.67,366.8,113.35,368.46,113.15,370.77Z"/><path class="cls-1" d="M130.71,365.75a1.45,1.45,0,0,1,1.6,1.65l.13,5.94,2.4-5.12a9.26,9.26,0,0,0,.83-2.27,2.28,2.28,0,0,1,1.08-.19c1.6,0,1.79.6,1.54,2.06l-.81,4.71c-.21,1.25.15,1.83.9,1.83a2.89,2.89,0,0,0,2.19-1.81c.27,0,.46.17.4.54a4.23,4.23,0,0,1-3.73,3.08,2.34,2.34,0,0,1-2.44-2.6,14.2,14.2,0,0,1,.19-2l.33-2-2.1,4.56a10.35,10.35,0,0,0-.62,1.69,1.87,1.87,0,0,1-1.15.31c-1,0-1.56-.67-1.6-2l-.12-4.71-1.15,3.89c-.56,1.94-1.46,2.83-2.81,2.83a1.91,1.91,0,0,1-2-2,1.73,1.73,0,0,1,1.62-1.9,1.48,1.48,0,0,1,1,.29,2.5,2.5,0,0,0-.33,1.17c0,.42.25.65.52.65s.71-.37,1-1.42l1.17-4.08a8.55,8.55,0,0,0,.52-2.92A6.86,6.86,0,0,1,130.71,365.75Z"/><path class="cls-1" d="M149.75,369.73a8.59,8.59,0,0,1-.06,1.06,4.34,4.34,0,0,0,1.83-2.52c.44,0,.67.31.48.9a4.26,4.26,0,0,1-2.52,2.69,5.43,5.43,0,0,1-5.5,4.31,3.64,3.64,0,0,1-3.83-4c0-3.77,2.21-6.44,5.77-6.44A3.63,3.63,0,0,1,149.75,369.73Zm-2.69-1.35c-.1-1-.58-1.6-1.35-1.6-1,0-2.12,1.06-2.71,4.17a15.19,15.19,0,0,0-.19,2.14c0,1.31.5,2,1.38,2,1.1,0,2-1.17,2.58-3.56a2.09,2.09,0,0,1-.77-1.77A1.34,1.34,0,0,1,147.06,368.38Z"/><path class="cls-1" d="M152.38,373.46a5.34,5.34,0,0,1,.46-1.94l1.38-3a2,2,0,0,0,.19-.71.57.57,0,0,0-.62-.62c-.58,0-1.31.67-1.79,2.08a.37.37,0,0,1-.15,0c-.29,0-.48-.21-.4-.67a3.46,3.46,0,0,1,3.27-2.85,2.08,2.08,0,0,1,2.35,2.08,4.82,4.82,0,0,1-.44,1.77l-1.27,2.71c-.54,1.17-.27,2,.73,2a2.91,2.91,0,0,0,2.46-1.81c.35,0,.46.23.4.56a4.53,4.53,0,0,1-3.9,3.06A2.45,2.45,0,0,1,152.38,373.46Z"/><path class="cls-1" d="M166.56,375.94c-.81,4.83-2.75,7.52-5.83,7.52a2.14,2.14,0,0,1-2.33-2.19,4.41,4.41,0,0,1,1.75-3.23,16.08,16.08,0,0,1,3.81-2.35l.46-2.69a12.34,12.34,0,0,1-.87,1.4,3.59,3.59,0,0,1-2.94,1.77,2.21,2.21,0,0,1-2.27-2.42,14,14,0,0,1,.25-2.56l.6-3.46a3.56,3.56,0,0,0,0-1.79,2.29,2.29,0,0,1,1.08-.19c1.6,0,1.79.6,1.54,2.06l-.83,4.81c-.21,1.21.08,1.73.69,1.73s1-.56,1.54-1.4a15.28,15.28,0,0,0,2.06-5.23,3.26,3.26,0,0,0,0-1.79,2.28,2.28,0,0,1,1.08-.19c1.6,0,1.79.6,1.54,2.06ZM163.73,377a12.08,12.08,0,0,0-2.94,1.92,3.25,3.25,0,0,0-1.23,2.23.87.87,0,0,0,1,.94C162,382.08,163.1,380.33,163.73,377Z"/><path class="cls-1" d="M184,369.73a8.8,8.8,0,0,1-.1,1.31,4.15,4.15,0,0,0,2.52-1.62c.27,0,.42.21.38.52-.12.73-1.44,1.85-3.1,2.06a5.43,5.43,0,0,1-5.46,4.17,3.64,3.64,0,0,1-3.83-4c0-3.77,2.21-6.44,5.77-6.44A3.63,3.63,0,0,1,184,369.73Zm-2.69-1.35c-.1-1-.58-1.6-1.35-1.6-1,0-2.12,1.06-2.71,4.17a15.19,15.19,0,0,0-.19,2.14c0,1.31.5,2,1.38,2,1.12,0,2.06-1.19,2.6-3.69a2,2,0,0,1-.79-1.65A1.34,1.34,0,0,1,181.31,368.38Z"/><path class="cls-1" d="M202.64,372.54c.27,0,.46.17.4.54a4.27,4.27,0,0,1-3.67,3.08,2.4,2.4,0,0,1-2.52-2.6,19.13,19.13,0,0,1,.31-2.37l.4-2.29c.17-1,0-1.31-.5-1.31-1.06,0-2.67,3-3.31,6.6a3.56,3.56,0,0,0,0,1.79,2.28,2.28,0,0,1-1.08.19c-1.6,0-1.79-.6-1.54-2.06l.92-5.21c.17-.9,0-1.31-.48-1.31-1,0-2.65,2.75-3.33,6.6a3.56,3.56,0,0,0,0,1.79,2.28,2.28,0,0,1-1.08.19c-1.6,0-1.79-.6-1.54-2.06l1.1-6.37a3.55,3.55,0,0,0,0-1.79,2.28,2.28,0,0,1,1.08-.19c1.6,0,1.79.6,1.54,2.06l-.08.5c.69-1.15,1.92-2.56,3.35-2.56a2,2,0,0,1,2.17,2.17c0,.15,0,.29,0,.46.67-1.19,1.94-2.62,3.42-2.62a2,2,0,0,1,2.15,2.15,11.31,11.31,0,0,1-.19,1.69l-.5,2.94c-.21,1.23.1,1.83.85,1.83A2.71,2.71,0,0,0,202.64,372.54Z"/><path class="cls-1" d="M211.83,369.73a8.8,8.8,0,0,1-.1,1.31,4.15,4.15,0,0,0,2.52-1.62c.27,0,.42.21.38.52-.12.73-1.44,1.85-3.1,2.06a5.43,5.43,0,0,1-5.46,4.17,3.64,3.64,0,0,1-3.83-4c0-3.77,2.21-6.44,5.77-6.44A3.63,3.63,0,0,1,211.83,369.73Zm-2.69-1.35c-.1-1-.58-1.6-1.35-1.6-1,0-2.12,1.06-2.71,4.17a15.12,15.12,0,0,0-.19,2.14c0,1.31.5,2,1.38,2,1.13,0,2.06-1.19,2.6-3.69a2,2,0,0,1-.79-1.65A1.34,1.34,0,0,1,209.14,368.38Z"/><path class="cls-1" d="M217.1,368.19c.88-1.58,2-2.44,3.35-2.44,1.94,0,3,1.38,3,3.54a9.28,9.28,0,0,1-.17,1.75,4.06,4.06,0,0,0,2.58-1.62c.27,0,.42.21.38.52-.12.73-1.48,1.9-3.19,2.06-.81,2.6-2.73,4.17-4.75,4.17a3.24,3.24,0,0,1-2.42-1l-1.1,6.33a3.56,3.56,0,0,0,0,1.79,2.28,2.28,0,0,1-1.08.19c-1.6,0-1.79-.6-1.54-2.06l2.38-13.66a3.56,3.56,0,0,0,0-1.79,2.28,2.28,0,0,1,1.08-.19c1.6,0,1.79.58,1.54,2.06Zm3.65.19c-.12-.71-.48-1-1-1s-1.23.52-1.94,1.65a11.64,11.64,0,0,0-1.54,4.06l-.15.79a1.78,1.78,0,0,0,1.58.9c1.15,0,2.27-1.33,2.79-3.31a2,2,0,0,1-.77-1.65A1.36,1.36,0,0,1,220.75,368.38Z"/><path class="cls-1" d="M225.33,371.84a17.56,17.56,0,0,1,2.77-9.39c1.48-2.37,3.4-3.56,5.29-3.56s2.81,1,2.81,2.67-.71,3.21-3.42,5.06a3.36,3.36,0,0,1,2.17,3.46,7.42,7.42,0,0,1-.06,1,4.16,4.16,0,0,0,2.46-1.62c.27,0,.42.21.38.52-.12.71-1.4,1.81-3,2a5.49,5.49,0,0,1-5.44,4.19C226.81,376.17,225.33,374.73,225.33,371.84Zm6.71-.33a2,2,0,0,1-.85-1.71,1.36,1.36,0,0,1,1-1.42,2.1,2.1,0,0,0-.48-1.15,25.49,25.49,0,0,1-3.21,1.31A21.59,21.59,0,0,0,228,373c0,1.56.54,2.13,1.44,2.13C230.54,375.13,231.58,373.61,232,371.5Zm-2.19-7.39a28,28,0,0,0-1,3.25c3.12-1.48,5.06-4.5,5.06-6.54a.78.78,0,0,0-.81-.9C232.12,359.92,230.75,361.78,229.85,364.11Z"/><path class="cls-1" d="M245.33,372.52c-.23,1.25.15,1.83.9,1.83a2.89,2.89,0,0,0,2.19-1.81c.27,0,.46.17.4.54a4.23,4.23,0,0,1-3.73,3.08,2.32,2.32,0,0,1-2.44-2.35c-.85,1.54-2,2.35-3.19,2.35-1.71,0-3.06-1.15-3.06-3.58,0-4.65,2.71-6.83,5.14-6.83a2.73,2.73,0,0,1,2.25,1c.33-.75.85-1,1.87-1a2.11,2.11,0,0,1,1,.21,4.1,4.1,0,0,0-.48,1.5Zm-2.06-3.37.19-1a1.51,1.51,0,0,0-1.37-1c-1.42,0-3,2.1-3,5.46,0,1.17.46,1.73,1.23,1.73C241.77,374.36,242.87,371.23,243.27,369.15Z"/><path class="cls-1" d="M265.18,372.54c.27,0,.46.17.4.54a4.27,4.27,0,0,1-3.67,3.08,2.4,2.4,0,0,1-2.52-2.6,19.13,19.13,0,0,1,.31-2.37l.4-2.29c.17-1,0-1.31-.5-1.31-1.06,0-2.67,3-3.31,6.6a3.56,3.56,0,0,0,0,1.79,2.28,2.28,0,0,1-1.08.19c-1.6,0-1.79-.6-1.54-2.06l.92-5.21c.17-.9,0-1.31-.48-1.31-1,0-2.65,2.75-3.33,6.6a3.57,3.57,0,0,0,0,1.79,2.28,2.28,0,0,1-1.08.19c-1.6,0-1.79-.6-1.54-2.06l1.1-6.37a3.56,3.56,0,0,0,0-1.79,2.28,2.28,0,0,1,1.08-.19c1.6,0,1.79.6,1.54,2.06l-.08.5c.69-1.15,1.92-2.56,3.35-2.56a2,2,0,0,1,2.17,2.17c0,.15,0,.29,0,.46.67-1.19,1.94-2.62,3.42-2.62a2,2,0,0,1,2.15,2.15,11.31,11.31,0,0,1-.19,1.69l-.5,2.94c-.21,1.23.1,1.83.85,1.83A2.71,2.71,0,0,0,265.18,372.54Z"/><path class="cls-1" d="M265,372.82a9.75,9.75,0,0,1,.15-1.5l.65-3.58a3.55,3.55,0,0,0,0-1.79,2.28,2.28,0,0,1,1.08-.19c1.6,0,1.79.6,1.54,2.06l-.19,1.06a4.49,4.49,0,0,1,2-.44c1.94,0,3.29,1.15,3.29,3a4.62,4.62,0,0,1-4.94,4.77C266.25,376.17,265,374.86,265,372.82Zm2.69-.69a10,10,0,0,0-.15,1.63c0,.81.42,1.38,1.21,1.38,1.17,0,2.17-1.29,2.17-3.81,0-1.1-.56-1.62-1.44-1.62a2.17,2.17,0,0,0-1.5.69Z"/><path class="cls-1" d="M137.93,392.53a3.21,3.21,0,0,0,0-1.58,2.29,2.29,0,0,1,1.08-.19c1.6,0,1.79.6,1.54,2.06l-.79,4.6c-.25,1.5.08,1.94.63,1.94a.86.86,0,0,0,.79-.58c.29,0,.44.23.4.6a2.35,2.35,0,0,1-2.42,1.79,2.2,2.2,0,0,1-2.1-2.46c0-.27,0-.54,0-.85a9.77,9.77,0,0,1-.94,1.54,3.59,3.59,0,0,1-2.94,1.77,2.21,2.21,0,0,1-2.27-2.42,14,14,0,0,1,.25-2.56l.6-3.46a3.56,3.56,0,0,0,0-1.79,2.29,2.29,0,0,1,1.08-.19c1.6,0,1.79.6,1.54,2.06l-.83,4.81c-.21,1.21.08,1.73.69,1.73s1-.56,1.54-1.4A15.35,15.35,0,0,0,137.93,392.53Z"/><path class="cls-1" d="M145.41,398.19l-.27-.81-.42.29a3.18,3.18,0,0,0-1.42,2.71,2.12,2.12,0,0,0,.08.6,1.56,1.56,0,0,1-.79.19c-.83,0-1.21-.44-1.21-1.1s.4-1.5,1.92-2.6l1.52-1.1-1-3.14c-.23-.69-.44-1-.83-1a.81.81,0,0,0-.4.1,1,1,0,0,1,0-.27,1.49,1.49,0,0,1,1.65-1.31c1.1,0,1.62.33,2,1.54l.81,2.48.73-.52a3.18,3.18,0,0,0,1.42-2.71,2.1,2.1,0,0,0-.08-.6,1.56,1.56,0,0,1,.79-.19c.83,0,1.21.44,1.21,1.1s-.4,1.5-1.92,2.6l-1.81,1.31.58,1.71c.44,1.29,1,1.87,1.79,1.87a1,1,0,0,0,.92-.58c.29,0,.42.25.37.58a2.35,2.35,0,0,1-2.44,1.81C147.2,401.17,146.14,400.36,145.41,398.19Z"/><path class="cls-1" d="M166.11,394.73A8.8,8.8,0,0,1,166,396a4.15,4.15,0,0,0,2.52-1.62c.27,0,.42.21.38.52-.12.73-1.44,1.85-3.1,2.06a5.43,5.43,0,0,1-5.46,4.17,3.64,3.64,0,0,1-3.83-4c0-3.77,2.21-6.44,5.77-6.44A3.63,3.63,0,0,1,166.11,394.73Zm-2.69-1.35c-.1-1-.58-1.6-1.35-1.6-1,0-2.12,1.06-2.71,4.17a15.19,15.19,0,0,0-.19,2.14c0,1.31.5,2,1.38,2,1.12,0,2.06-1.19,2.6-3.69a2,2,0,0,1-.79-1.65A1.34,1.34,0,0,1,163.43,393.38Z"/><path class="cls-1" d="M179.67,393.9c.17-1,0-1.31-.5-1.31-1.06,0-2.69,3.14-3.31,6.6a3.56,3.56,0,0,0,0,1.79,2.28,2.28,0,0,1-1.08.19c-1.6,0-1.79-.6-1.54-2.06l.92-5.21c.17-.9,0-1.31-.48-1.31-1,0-2.62,2.81-3.33,6.6a3.26,3.26,0,0,0,0,1.79,2.28,2.28,0,0,1-1.08.19c-1.6,0-1.79-.6-1.54-2.06l1.1-6.37a3.55,3.55,0,0,0,0-1.79,2.28,2.28,0,0,1,1.08-.19c1.6,0,1.79.6,1.54,2.06l-.08.5c.69-1.15,1.87-2.56,3.35-2.56a2,2,0,0,1,2.17,2.17c0,.15,0,.29,0,.46.67-1.19,1.94-2.62,3.42-2.62a2,2,0,0,1,2.15,2.15,11.25,11.25,0,0,1-.19,1.69l-.5,2.83c-.27,1.5.08,1.94.63,1.94a.86.86,0,0,0,.79-.58c.29,0,.44.23.4.6a2.35,2.35,0,0,1-2.42,1.79,2.2,2.2,0,0,1-2.1-2.46,12.08,12.08,0,0,1,.19-2.12Z"/><path class="cls-1" d="M206.15,397.54c.27,0,.46.17.4.54a4.27,4.27,0,0,1-3.67,3.08,2.4,2.4,0,0,1-2.52-2.6,19.13,19.13,0,0,1,.31-2.37l.4-2.29c.17-1,0-1.31-.5-1.31-1.06,0-2.67,3-3.31,6.6a3.56,3.56,0,0,0,0,1.79,2.28,2.28,0,0,1-1.08.19c-1.6,0-1.79-.6-1.54-2.06l.92-5.21c.17-.9,0-1.31-.48-1.31-1,0-2.65,2.75-3.33,6.6a3.57,3.57,0,0,0,0,1.79,2.28,2.28,0,0,1-1.08.19c-1.6,0-1.79-.6-1.54-2.06l1.1-6.37a3.56,3.56,0,0,0,0-1.79,2.28,2.28,0,0,1,1.08-.19c1.6,0,1.79.6,1.54,2.06l-.08.5c.69-1.15,1.92-2.56,3.35-2.56a2,2,0,0,1,2.17,2.17c0,.15,0,.29,0,.46.67-1.19,1.94-2.62,3.42-2.62a2,2,0,0,1,2.15,2.15,11.31,11.31,0,0,1-.19,1.69l-.5,2.94c-.21,1.23.1,1.83.85,1.83A2.71,2.71,0,0,0,206.15,397.54Z"/><path class="cls-1" d="M205.74,396.67a5.69,5.69,0,0,1,5.58-5.92c2.13,0,3,1.1,3,2.17,0,1.9-2.19,3.15-5.85,3.83a2.86,2.86,0,0,0,3,2.77,4.64,4.64,0,0,0,4.06-2c.27,0,.42.17.33.54-.19.92-2.19,3.08-5.37,3.08C207.72,401.17,205.74,399.48,205.74,396.67Zm2.73-.9c2.54-.6,3.6-1.87,3.6-3.25a.69.69,0,0,0-.73-.73C210.16,391.8,208.7,393.17,208.47,395.77Z"/><path class="cls-1" d="M225.88,398.61a4.53,4.53,0,0,1-1.58-.29,5.34,5.34,0,0,1-4.9,2.85c-2.73,0-3.85-1.92-3.85-4,0-5.06,1.9-9.87,5.14-12,1.71-1.12,4.46-.83,6.94-1.69a.72.72,0,0,1,.15.5c0,1.13-.62,1.9-2.25,1.9-1,0-1.85-.44-2.52-.44-.92,0-1.46.35-2.15,1.56a19.42,19.42,0,0,0-1.67,4.48,4.25,4.25,0,0,1,2.4-.71,3.57,3.57,0,0,1,3.58,3.83,8.42,8.42,0,0,1-.46,2.79,3.41,3.41,0,0,0,1.52.38,2.75,2.75,0,0,0,.92-.17c.21.15.17.46-.06.69A1.74,1.74,0,0,1,225.88,398.61Zm-3.73-1.87a3.19,3.19,0,0,1-.75-1.94,1.34,1.34,0,0,1,1.06-1.42c-.17-1.08-.71-1.52-1.54-1.52a2.94,2.94,0,0,0-2.1,1.1,24.72,24.72,0,0,0-.6,5c0,1.27.42,2.15,1.42,2.15C220.88,400.13,221.72,398.46,222.15,396.73Z"/><path class="cls-1" d="M235.84,393.15l-.73,4.27c-.25,1.5.08,1.94.62,1.94a.86.86,0,0,0,.79-.58c.29,0,.44.23.4.6a2.35,2.35,0,0,1-2.42,1.79,2.2,2.2,0,0,1-2.1-2.46,12.9,12.9,0,0,1,.08-1.48l-1.21,0-.52,1c-.92,1.85-1.71,2.85-3.06,2.85a1.88,1.88,0,0,1-2-2,1.74,1.74,0,0,1,1.67-1.94,1.3,1.3,0,0,1,.94.29,2.73,2.73,0,0,0-.33,1.17c0,.42.25.65.52.65s.81-.4,1.27-1.33l.38-.79c-2-.27-3-1.46-3-2.94,0-2,1.38-3.54,4.54-3.54a13.56,13.56,0,0,1,3.44.42C235.9,391.44,236,392,235.84,393.15Zm-3.19,3.08.54-3.17c.1-.65.17-1.1.17-1.1a4,4,0,0,0-1.19-.17,2.42,2.42,0,0,0-2.35,2.63,1.69,1.69,0,0,0,1.83,1.83C231.95,396.25,232.4,396.25,232.65,396.23Z"/><path class="cls-1" d="M240.28,398.63a1.24,1.24,0,0,1,1.29,1.31,1.45,1.45,0,0,1-1.5,1.44,1.19,1.19,0,0,1-1.25-1.25A1.47,1.47,0,0,1,240.28,398.63Z"/><path class="cls-2" d="M13.44,34.55a.93.93,0,0,1,.12.9,1.12,1.12,0,0,1-.77.52,2,2,0,0,1-.95,0,1.48,1.48,0,0,1-.8-.53,3.13,3.13,0,0,1-.59-1.81A3.4,3.4,0,0,1,11,31.75a3.91,3.91,0,0,1,1.37-1.35,4.07,4.07,0,0,1,1.86-.51,5.3,5.3,0,0,1,3.57,1.2,5.4,5.4,0,0,1,1.92,3.24,6,6,0,0,1,.1,1.9,6.49,6.49,0,0,1-.47,1.85,7.56,7.56,0,0,1-5.79,4.46l.07-.32,4.82,3,.92.57-1.06-.26a8.48,8.48,0,0,0-1.1-.18,9.37,9.37,0,0,0-1.12,0,7.56,7.56,0,0,0-1.11.1l-.55.1c-.18,0-.36.09-.54.14a5.5,5.5,0,0,0-.52.19,4.78,4.78,0,0,0-.5.25,5.16,5.16,0,0,0-.47.3,5,5,0,0,0-.43.36,5,5,0,0,0-.39.4c-.11.15-.24.29-.34.45a4.72,4.72,0,0,0-.29.49c-.09.16-.16.34-.25.51.07-.18.13-.36.21-.53a4.79,4.79,0,0,1,.26-.51,5,5,0,0,1,.31-.48,5.26,5.26,0,0,1,.8-.84,5.37,5.37,0,0,1,.47-.34,5,5,0,0,1,.51-.29,5.77,5.77,0,0,1,.54-.23,6,6,0,0,1,1.13-.3,8.4,8.4,0,0,1,1.16-.1,9.72,9.72,0,0,1,1.16.05,8.77,8.77,0,0,1,1.15.19l-.14.32-4.82-3L13,42.26l.47-.07A7.21,7.21,0,0,0,19,37.95a6.14,6.14,0,0,0,.45-1.75,5.7,5.7,0,0,0-.1-1.8,5.11,5.11,0,0,0-.63-1.68,5.17,5.17,0,0,0-1.17-1.35,5,5,0,0,0-3.33-1.12,4.34,4.34,0,0,0-.88.13,2.81,2.81,0,0,0-.42.13,3.39,3.39,0,0,0-.4.2,3.52,3.52,0,0,0-1.25,1.23,3.75,3.75,0,0,0-.53,1.68,2.89,2.89,0,0,0,.44,1.71,1.61,1.61,0,0,0,1.6.56,1.05,1.05,0,0,0,.75-.45A.91.91,0,0,0,13.44,34.55Z"/><path class="cls-2" d="M13.57,72.67a1.19,1.19,0,0,0,.2-1.08A1.12,1.12,0,0,0,12.9,71a1.49,1.49,0,0,0-1.06.21,1.42,1.42,0,0,0-.39.38,3.33,3.33,0,0,0-.28.49A3.26,3.26,0,0,0,11,74.22a4,4,0,0,0,1.1,1.87,3.33,3.33,0,0,0,.91.6l.13.05.12,0,.27.07A4,4,0,0,0,14,77a4.71,4.71,0,0,0,2.18-.27,5.11,5.11,0,0,0,3-3.06,4.46,4.46,0,0,0,.16-.53c0-.09,0-.18.06-.28s0-.17,0-.26a3.33,3.33,0,0,0-.13-1.08,7.9,7.9,0,0,0-1-2,35.49,35.49,0,0,0-2.77-3.64c-1-1.18-2-2.35-2.89-3.59a20.86,20.86,0,0,1-1.28-1.94,10.22,10.22,0,0,1-.95-2.13l-.24-.81.55.66a4.64,4.64,0,0,0,.34.36l.38.34a9.2,9.2,0,0,0,.81.6,10.08,10.08,0,0,0,.88.51c.3.16.61.29.92.42l-.2.27a20.89,20.89,0,0,1-1.56-2.37c-.23-.41-.45-.83-.66-1.25a11.18,11.18,0,0,1-.53-1.31c-.08-.22-.15-.45-.21-.68s-.13-.46-.17-.69a8.86,8.86,0,0,1-.21-1.4c0-.24,0-.47,0-.71a6.38,6.38,0,0,1,.06-.7,5.1,5.1,0,0,1,.14-.69A5.8,5.8,0,0,1,11,50a5.78,5.78,0,0,0-.19.68,5,5,0,0,0-.1.69,6.28,6.28,0,0,0,0,.7c0,.23,0,.46.05.69a8.66,8.66,0,0,0,.28,1.36c.06.22.13.44.21.66s.16.44.25.65c.18.43.37.85.56,1.27s.41.83.64,1.23a20.59,20.59,0,0,0,1.53,2.32l.4.52-.6-.25c-.32-.13-.64-.27-1-.44a10.42,10.42,0,0,1-.91-.53,9.54,9.54,0,0,1-.85-.63l-.39-.35a4.88,4.88,0,0,1-.37-.39l.3-.16a9.89,9.89,0,0,0,.92,2.06A20.51,20.51,0,0,0,13,62c.9,1.23,1.9,2.4,2.88,3.58a35.77,35.77,0,0,1,2.8,3.68,8.23,8.23,0,0,1,1,2.12,3.68,3.68,0,0,1,.14,1.19,3,3,0,0,1,0,.31c0,.09,0,.19-.06.29a4.8,4.8,0,0,1-.17.57A5.45,5.45,0,0,1,16.34,77,5.05,5.05,0,0,1,14,77.3a4.36,4.36,0,0,1-.59-.11l-.28-.08-.15,0L12.83,77a3.68,3.68,0,0,1-1-.67,3.76,3.76,0,0,1-1.15-2.06,3.43,3.43,0,0,1,.65-2.81,1.57,1.57,0,0,1,.44-.4,1.59,1.59,0,0,1,1.15-.19,1.18,1.18,0,0,1,.89.7A1.21,1.21,0,0,1,13.57,72.67Z"/><path class="cls-2" d="M16.81,51.21v.09c0,.06,0,.15,0,.27a1.54,1.54,0,0,0,.24,1,.88.88,0,0,0,.57.35,1.27,1.27,0,0,0,.78-.14,1.56,1.56,0,0,0,.65-.64,3.24,3.24,0,0,0,.38-1A4,4,0,0,0,19.46,50a3.42,3.42,0,0,0-.33-1.14,3.54,3.54,0,0,0-1.84-1.73A4.89,4.89,0,0,0,14.53,47a5.07,5.07,0,0,0-2.48,1.43,4,4,0,0,0-1.11,2.58,5.44,5.44,0,0,0,.75,2.68,14.51,14.51,0,0,0,1.51,2.21c.54.67,1.09,1.27,1.6,1.81l.75.77c.25.24.48.47.68.69l1.09,1.16c.61.64.92,1,.92,1L18,61.17l-.76-.68-1.2-1c-.23-.2-.47-.43-.71-.67L14.55,58c-.52-.55-1.08-1.15-1.62-1.83a14.85,14.85,0,0,1-1.54-2.27A5.77,5.77,0,0,1,10.59,51a4.34,4.34,0,0,1,1.21-2.81,5.41,5.41,0,0,1,2.65-1.53,5.22,5.22,0,0,1,3,.11,3.88,3.88,0,0,1,2,1.91,3.45,3.45,0,0,1,.26,2.48,3.5,3.5,0,0,1-.49,1,1.83,1.83,0,0,1-.76.67,1.42,1.42,0,0,1-.88.11,1,1,0,0,1-.62-.42,1.59,1.59,0,0,1-.19-1c0-.12,0-.21,0-.27Z"/><path class="cls-2" d="M13.44,89.91a2.21,2.21,0,0,0,0-.93.91.91,0,0,0-.6-.63,1.66,1.66,0,0,0-1.61.6,2.57,2.57,0,0,0-.62,1.66,3.45,3.45,0,0,0,.5,1.7,4,4,0,0,0,1.23,1.31,3.26,3.26,0,0,0,.8.4,4.37,4.37,0,0,0,.89.18,4.91,4.91,0,0,0,3.42-1,5.13,5.13,0,0,0,1.23-1.33,5,5,0,0,0,.68-1.68,5.88,5.88,0,0,0,.14-1.82A6,6,0,0,0,19,86.6a7,7,0,0,0-2.21-2.89,7.2,7.2,0,0,0-1.58-.94,7,7,0,0,0-1.76-.5l-.4-.06.32-.25,5.25-4,.17.3a10.41,10.41,0,0,1-1.17.33,11.5,11.5,0,0,1-1.19.2,10,10,0,0,1-1.21.07,5.84,5.84,0,0,1-.61,0c-.2,0-.4-.06-.6-.1a5.21,5.21,0,0,1-.59-.16,5.74,5.74,0,0,1-.57-.22,5,5,0,0,1-.53-.29,3.83,3.83,0,0,1-.49-.36l-.22-.2-.2-.22a3.91,3.91,0,0,1-.36-.48l-.15-.26-.13-.27c-.09-.18-.15-.37-.22-.55.09.18.16.36.26.53l.15.26.17.24a4.27,4.27,0,0,0,.38.45l.21.2.23.18a4.54,4.54,0,0,0,2.13.86,7.78,7.78,0,0,0,1.16.08,9,9,0,0,0,1.16-.06,11.16,11.16,0,0,0,1.15-.2,10.12,10.12,0,0,0,1.12-.31l1-.36-.86.66-5.25,4-.08-.31a7.29,7.29,0,0,1,1.85.53,7.55,7.55,0,0,1,1.65,1,7.67,7.67,0,0,1,1.36,1.36,7.14,7.14,0,0,1,1,1.67,6.37,6.37,0,0,1,.45,1.88,6.24,6.24,0,0,1-.14,1.92,5.35,5.35,0,0,1-.73,1.8,5.48,5.48,0,0,1-1.32,1.42,5.25,5.25,0,0,1-3.66,1.06,4.75,4.75,0,0,1-1-.19,3.58,3.58,0,0,1-.89-.44,4.45,4.45,0,0,1-1.34-1.42,3.3,3.3,0,0,1-.48-1.89,2.8,2.8,0,0,1,.77-1.76,2.1,2.1,0,0,1,.81-.54,1.44,1.44,0,0,1,1,0,1,1,0,0,1,.62.71A2.23,2.23,0,0,1,13.44,89.91Z"/><path class="cls-2" d="M22.42,25.3a.91.91,0,0,0,.87.08,1.05,1.05,0,0,0,.45-.75,1.61,1.61,0,0,0-.56-1.6,2.89,2.89,0,0,0-1.71-.44,3.75,3.75,0,0,0-1.68.53,3.52,3.52,0,0,0-1.23,1.25,3.39,3.39,0,0,0-.2.4,2.81,2.81,0,0,0-.13.42,4.33,4.33,0,0,0-.13.88,5,5,0,0,0,1.12,3.33,5.17,5.17,0,0,0,1.35,1.17,5.11,5.11,0,0,0,1.68.63,5.7,5.7,0,0,0,1.8.1,6.14,6.14,0,0,0,1.75-.45,7.21,7.21,0,0,0,4.25-5.52l.07-.47.25.41,3,4.82-.32.14a8.77,8.77,0,0,1-.19-1.15,9.72,9.72,0,0,1-.05-1.16,8.4,8.4,0,0,1,.1-1.16,6,6,0,0,1,.3-1.13,5.77,5.77,0,0,1,.23-.54,5,5,0,0,1,.29-.51,5.37,5.37,0,0,1,.34-.47,5.26,5.26,0,0,1,.84-.8,5,5,0,0,1,.48-.31,4.79,4.79,0,0,1,.51-.26c.17-.08.36-.14.53-.21-.17.08-.35.15-.51.25a4.73,4.73,0,0,0-.49.29c-.16.1-.3.22-.45.34a5,5,0,0,0-.4.39,4.94,4.94,0,0,0-.36.43,5.16,5.16,0,0,0-.3.47,4.78,4.78,0,0,0-.25.5,5.5,5.5,0,0,0-.19.52c-.05.18-.1.36-.14.54s-.07.36-.1.55a7.56,7.56,0,0,0-.1,1.11,9.37,9.37,0,0,0,0,1.12,8.48,8.48,0,0,0,.18,1.1l.26,1.06-.57-.92-3-4.82.32-.07A7.56,7.56,0,0,1,26,31.17a6.49,6.49,0,0,1-1.85.47,6.05,6.05,0,0,1-1.9-.1A5.4,5.4,0,0,1,19,29.62a5.3,5.3,0,0,1-1.2-3.57,4.07,4.07,0,0,1,.51-1.86,3.91,3.91,0,0,1,1.35-1.37,3.4,3.4,0,0,1,1.85-.51,3.13,3.13,0,0,1,1.81.59,1.48,1.48,0,0,1,.53.8,2,2,0,0,1,0,.95,1.12,1.12,0,0,1-.52.77A.93.93,0,0,1,22.42,25.3Z"/><path class="cls-2" d="M60.55,25.43a1.21,1.21,0,0,1-1.09.23,1.18,1.18,0,0,1-.7-.89,1.59,1.59,0,0,1,.19-1.15,1.57,1.57,0,0,1,.4-.44,3.43,3.43,0,0,1,2.81-.65,3.76,3.76,0,0,1,2.06,1.15,3.68,3.68,0,0,1,.67,1l.06.14A1.39,1.39,0,0,1,65,25c0,.09.06.18.08.28a4.36,4.36,0,0,1,.11.59,5.05,5.05,0,0,1-.29,2.34,5.45,5.45,0,0,1-3.27,3.24,4.79,4.79,0,0,1-.57.17l-.29.06-.31,0a3.68,3.68,0,0,1-1.19-.14,8.23,8.23,0,0,1-2.12-1,35.77,35.77,0,0,1-3.68-2.8c-1.18-1-2.35-2-3.58-2.88A20.52,20.52,0,0,0,48,23.65a9.89,9.89,0,0,0-2.06-.92l.16-.3a4.87,4.87,0,0,1,.39.37q.18.19.35.39a9.54,9.54,0,0,1,.63.85,10.44,10.44,0,0,1,.53.91c.16.31.3.63.44,1l.25.6-.52-.4a20.59,20.59,0,0,0-2.32-1.53c-.4-.23-.81-.45-1.23-.64s-.84-.39-1.27-.56l-.65-.25c-.22-.07-.44-.15-.66-.21a8.66,8.66,0,0,0-1.36-.28c-.23,0-.46,0-.69-.05a6.28,6.28,0,0,0-.7,0,5,5,0,0,0-.69.1,5.78,5.78,0,0,0-.68.19,5.8,5.8,0,0,1,.67-.22,5.09,5.09,0,0,1,.69-.14,6.38,6.38,0,0,1,.7-.06c.24,0,.47,0,.71,0a8.85,8.85,0,0,1,1.4.21c.23,0,.46.11.69.17l.68.21a11.17,11.17,0,0,1,1.31.53c.42.21.84.42,1.25.66a20.89,20.89,0,0,1,2.37,1.56l-.27.2c-.13-.31-.27-.62-.42-.92a10.08,10.08,0,0,0-.51-.88,9.2,9.2,0,0,0-.6-.81L46.22,23a4.65,4.65,0,0,0-.36-.34l-.66-.55.81.24a10.23,10.23,0,0,1,2.13.95,20.85,20.85,0,0,1,1.94,1.28c1.24.91,2.42,1.91,3.59,2.89a35.49,35.49,0,0,0,3.64,2.77,7.9,7.9,0,0,0,2,1,3.33,3.33,0,0,0,1.08.13l.26,0,.28-.06a4.45,4.45,0,0,0,.53-.16,5.11,5.11,0,0,0,3.06-3,4.71,4.71,0,0,0,.27-2.18,4,4,0,0,0-.1-.54c0-.09,0-.18-.07-.27a1.07,1.07,0,0,0,0-.12l-.05-.13a3.33,3.33,0,0,0-.6-.91,4,4,0,0,0-1.87-1.1,3.26,3.26,0,0,0-2.17.19,3.33,3.33,0,0,0-.49.28,1.42,1.42,0,0,0-.38.39,1.49,1.49,0,0,0-.21,1.06,1.11,1.11,0,0,0,.63.87A1.19,1.19,0,0,0,60.55,25.43Z"/><path class="cls-2" d="M39.09,28.68l.09,0,.27,0a1.59,1.59,0,0,1,1,.19,1,1,0,0,1,.42.62,1.42,1.42,0,0,1-.11.88,1.83,1.83,0,0,1-.67.76,3.5,3.5,0,0,1-1,.49,3.45,3.45,0,0,1-2.48-.26,3.88,3.88,0,0,1-1.91-2,5.22,5.22,0,0,1-.11-3,5.41,5.41,0,0,1,1.53-2.65,4.34,4.34,0,0,1,2.81-1.21,5.77,5.77,0,0,1,2.85.79A14.85,14.85,0,0,1,44,24.79c.68.55,1.28,1.1,1.83,1.62l.78.76c.25.24.48.47.67.71l1,1.2.68.76.25.26s-.4-.31-1-.92L47.09,28.1c-.23-.2-.46-.44-.69-.68l-.77-.75c-.54-.52-1.14-1.07-1.81-1.6a14.51,14.51,0,0,0-2.21-1.51,5.44,5.44,0,0,0-2.68-.75,4,4,0,0,0-2.58,1.11,5.07,5.07,0,0,0-1.43,2.48A4.89,4.89,0,0,0,35,29.15,3.54,3.54,0,0,0,36.75,31a3.42,3.42,0,0,0,1.14.33A4,4,0,0,0,39,31.27a3.24,3.24,0,0,0,1-.38,1.56,1.56,0,0,0,.64-.65,1.27,1.27,0,0,0,.14-.78.88.88,0,0,0-.35-.57,1.54,1.54,0,0,0-1-.24l-.27,0Z"/><path class="cls-2" d="M77.78,25.3a2.23,2.23,0,0,1-.94,0,1,1,0,0,1-.71-.62,1.44,1.44,0,0,1,0-1,2.1,2.1,0,0,1,.54-.81,2.8,2.8,0,0,1,1.76-.77,3.3,3.3,0,0,1,1.89.48A4.45,4.45,0,0,1,81.79,24a3.58,3.58,0,0,1,.44.89,4.74,4.74,0,0,1,.19,1,5.25,5.25,0,0,1-1.06,3.66,5.48,5.48,0,0,1-1.42,1.32,5.35,5.35,0,0,1-1.8.73,6.24,6.24,0,0,1-1.92.14,6.37,6.37,0,0,1-1.88-.45,7.14,7.14,0,0,1-1.67-1,7.67,7.67,0,0,1-1.36-1.36,7.55,7.55,0,0,1-1-1.65,7.29,7.29,0,0,1-.53-1.85l.31.08-4,5.25-.66.86.36-1a10.12,10.12,0,0,0,.31-1.12,11.16,11.16,0,0,0,.2-1.15,9,9,0,0,0,.06-1.16A7.78,7.78,0,0,0,66.26,26a4.54,4.54,0,0,0-.86-2.13l-.18-.23-.2-.21a4.27,4.27,0,0,0-.45-.38l-.24-.17-.26-.15c-.17-.1-.35-.17-.53-.26.18.08.38.13.55.22l.27.13.26.15a3.91,3.91,0,0,1,.48.36l.22.2.2.22a3.83,3.83,0,0,1,.36.49,5,5,0,0,1,.29.53,5.76,5.76,0,0,1,.22.57,5.21,5.21,0,0,1,.16.59c0,.2.07.4.1.6a5.83,5.83,0,0,1,0,.61,10,10,0,0,1-.07,1.21,11.5,11.5,0,0,1-.2,1.19,10.41,10.41,0,0,1-.33,1.17l-.3-.17,4-5.25.25-.32.06.4a6.94,6.94,0,0,0,.5,1.76,7.2,7.2,0,0,0,.94,1.58,7,7,0,0,0,2.89,2.21,6,6,0,0,0,1.78.42,5.88,5.88,0,0,0,1.82-.14,5,5,0,0,0,1.68-.68,5.13,5.13,0,0,0,1.33-1.23,4.91,4.91,0,0,0,1-3.42,4.37,4.37,0,0,0-.18-.89,3.26,3.26,0,0,0-.4-.8,4,4,0,0,0-1.31-1.23,3.45,3.45,0,0,0-1.7-.5,2.57,2.57,0,0,0-1.66.62,1.66,1.66,0,0,0-.6,1.61.91.91,0,0,0,.63.6A2.21,2.21,0,0,0,77.78,25.3Z"/><path class="cls-2" d="M361,34.7a.91.91,0,0,0-.08.87,1.05,1.05,0,0,0,.75.45,1.61,1.61,0,0,0,1.6-.56,2.89,2.89,0,0,0,.44-1.71,3.75,3.75,0,0,0-.53-1.68,3.52,3.52,0,0,0-1.25-1.23,3.39,3.39,0,0,0-.4-.2,2.81,2.81,0,0,0-.42-.13,4.34,4.34,0,0,0-.88-.13,5,5,0,0,0-3.33,1.12,5.17,5.17,0,0,0-1.17,1.35,5.11,5.11,0,0,0-.63,1.68,5.7,5.7,0,0,0-.1,1.8,6.14,6.14,0,0,0,.45,1.75,7.21,7.21,0,0,0,5.52,4.25l.47.07-.41.25-4.82,3-.14-.32a8.77,8.77,0,0,1,1.15-.19,9.72,9.72,0,0,1,1.16-.05,8.4,8.4,0,0,1,1.16.1,6,6,0,0,1,1.13.3,5.77,5.77,0,0,1,.54.23,5,5,0,0,1,.51.29,5.36,5.36,0,0,1,.47.34,5.11,5.11,0,0,1,.42.4,5.17,5.17,0,0,1,.38.44,5,5,0,0,1,.31.48,4.78,4.78,0,0,1,.26.51c.08.17.14.36.21.53-.08-.17-.15-.35-.25-.51a4.73,4.73,0,0,0-.29-.49c-.1-.16-.22-.3-.34-.45a5,5,0,0,0-.39-.4,4.94,4.94,0,0,0-.43-.36,5.16,5.16,0,0,0-.47-.3,4.78,4.78,0,0,0-.5-.25,5.5,5.5,0,0,0-.52-.19c-.18-.05-.36-.1-.54-.14l-.55-.1a7.56,7.56,0,0,0-1.11-.1,9.37,9.37,0,0,0-1.12,0,8.48,8.48,0,0,0-1.1.18l-1.06.26.92-.57,4.82-3,.07.32a7.56,7.56,0,0,1-5.79-4.46,6.49,6.49,0,0,1-.47-1.85,6,6,0,0,1,.1-1.9,5.4,5.4,0,0,1,1.92-3.24,5.3,5.3,0,0,1,3.57-1.2,4.07,4.07,0,0,1,1.86.51,3.91,3.91,0,0,1,1.37,1.35,3.4,3.4,0,0,1,.51,1.85,3.13,3.13,0,0,1-.59,1.81,1.48,1.48,0,0,1-.8.53,2,2,0,0,1-.95,0,1.12,1.12,0,0,1-.77-.52A.93.93,0,0,1,361,34.7Z"/><path class="cls-2" d="M360.85,72.83a1.21,1.21,0,0,1-.23-1.09,1.18,1.18,0,0,1,.89-.7,1.59,1.59,0,0,1,1.15.19,1.57,1.57,0,0,1,.44.4,3.43,3.43,0,0,1,.65,2.81,3.76,3.76,0,0,1-1.15,2.06,3.68,3.68,0,0,1-1,.67l-.14.06-.15,0-.28.08a4.36,4.36,0,0,1-.59.11,5.05,5.05,0,0,1-2.34-.29,5.45,5.45,0,0,1-3.24-3.27,4.78,4.78,0,0,1-.17-.57c0-.1,0-.19-.06-.29a3,3,0,0,1,0-.31,3.68,3.68,0,0,1,.14-1.19,8.23,8.23,0,0,1,1-2.12,35.78,35.78,0,0,1,2.8-3.68c1-1.18,2-2.35,2.88-3.58a20.52,20.52,0,0,0,1.26-1.9,9.89,9.89,0,0,0,.92-2.06l.3.16a4.87,4.87,0,0,1-.37.39l-.39.35a9.54,9.54,0,0,1-.85.63,10.42,10.42,0,0,1-.91.53c-.31.16-.63.3-1,.44l-.6.25.4-.52a20.6,20.6,0,0,0,1.53-2.32c.23-.4.45-.81.64-1.23s.39-.84.56-1.27c.09-.21.17-.43.25-.65s.15-.44.21-.66a8.66,8.66,0,0,0,.28-1.36c0-.23,0-.46.05-.69a6.26,6.26,0,0,0,0-.7,5,5,0,0,0-.1-.69,5.78,5.78,0,0,0-.19-.68,5.81,5.81,0,0,1,.22.67,5.11,5.11,0,0,1,.14.69,6.38,6.38,0,0,1,.06.7c0,.24,0,.47,0,.71a8.85,8.85,0,0,1-.21,1.4c0,.23-.11.46-.17.69s-.14.45-.21.68a11.16,11.16,0,0,1-.53,1.31c-.21.42-.42.84-.66,1.25a20.91,20.91,0,0,1-1.56,2.37l-.2-.27c.31-.13.62-.27.92-.42a10.08,10.08,0,0,0,.88-.51,9.19,9.19,0,0,0,.81-.6l.38-.34a4.65,4.65,0,0,0,.34-.36l.55-.66-.24.81a10.22,10.22,0,0,1-.95,2.13,20.86,20.86,0,0,1-1.28,1.94c-.91,1.24-1.91,2.42-2.89,3.59A35.49,35.49,0,0,0,356,69.6a7.9,7.9,0,0,0-1,2,3.33,3.33,0,0,0-.13,1.08c0,.09,0,.17,0,.26s0,.19.06.28a4.46,4.46,0,0,0,.16.53,5.11,5.11,0,0,0,3,3.06,4.71,4.71,0,0,0,2.18.27,4,4,0,0,0,.54-.1l.27-.07.12,0,.13-.05a3.33,3.33,0,0,0,.91-.6,4,4,0,0,0,1.1-1.87,3.26,3.26,0,0,0-.19-2.17,3.33,3.33,0,0,0-.28-.49,1.42,1.42,0,0,0-.39-.38,1.49,1.49,0,0,0-1.06-.21,1.12,1.12,0,0,0-.87.63A1.19,1.19,0,0,0,360.85,72.83Z"/><path class="cls-2" d="M357.61,51.37l0,.09c0,.06,0,.15,0,.27a1.59,1.59,0,0,1-.19,1,1,1,0,0,1-.62.42A1.42,1.42,0,0,1,356,53a1.83,1.83,0,0,1-.76-.67,3.5,3.5,0,0,1-.49-1,3.45,3.45,0,0,1,.26-2.48A3.88,3.88,0,0,1,357,47a5.22,5.22,0,0,1,3-.11,5.41,5.41,0,0,1,2.65,1.53,4.34,4.34,0,0,1,1.21,2.81A5.77,5.77,0,0,1,363,54a14.85,14.85,0,0,1-1.54,2.27c-.55.68-1.1,1.28-1.62,1.83l-.76.78c-.24.25-.47.48-.71.67l-1.2,1-.76.68-.26.25s.31-.4.92-1l1.09-1.16c.2-.23.44-.46.68-.69l.75-.77c.52-.54,1.07-1.14,1.6-1.81a14.51,14.51,0,0,0,1.51-2.21,5.44,5.44,0,0,0,.75-2.68,4,4,0,0,0-1.11-2.58,5.07,5.07,0,0,0-2.48-1.43,4.89,4.89,0,0,0-2.76.09A3.54,3.54,0,0,0,355.29,49a3.42,3.42,0,0,0-.33,1.14,4,4,0,0,0,.06,1.11,3.24,3.24,0,0,0,.38,1,1.56,1.56,0,0,0,.65.64,1.27,1.27,0,0,0,.78.14.88.88,0,0,0,.57-.35,1.54,1.54,0,0,0,.24-1c0-.12,0-.21,0-.27Z"/><path class="cls-2" d="M361,90.06a2.23,2.23,0,0,1,0-.94,1,1,0,0,1,.62-.71,1.44,1.44,0,0,1,1,0,2.1,2.1,0,0,1,.81.54,2.8,2.8,0,0,1,.77,1.76,3.3,3.3,0,0,1-.48,1.89,4.45,4.45,0,0,1-1.34,1.42,3.58,3.58,0,0,1-.89.44,4.75,4.75,0,0,1-1,.19,5.25,5.25,0,0,1-3.66-1.06,5.48,5.48,0,0,1-1.32-1.42,5.35,5.35,0,0,1-.73-1.8,6.25,6.25,0,0,1-.14-1.92,6.38,6.38,0,0,1,.45-1.88A7.14,7.14,0,0,1,356,85a7.67,7.67,0,0,1,1.36-1.36,7.55,7.55,0,0,1,1.65-1,7.29,7.29,0,0,1,1.85-.53l-.08.31-5.25-4-.86-.66,1,.36a10.12,10.12,0,0,0,1.12.31,11.15,11.15,0,0,0,1.15.2,9,9,0,0,0,1.16.06,7.78,7.78,0,0,0,1.16-.08,4.54,4.54,0,0,0,2.13-.86l.23-.18.21-.2a4.26,4.26,0,0,0,.38-.45l.17-.24.15-.26c.1-.17.17-.35.26-.53-.08.18-.13.38-.22.55l-.13.27-.15.26a3.9,3.9,0,0,1-.36.48l-.2.22-.22.2a3.83,3.83,0,0,1-.49.36,5,5,0,0,1-.53.29,5.74,5.74,0,0,1-.57.22,5.21,5.21,0,0,1-.59.16c-.2,0-.4.07-.6.1a5.84,5.84,0,0,1-.61,0A10,10,0,0,1,358,78.9a11.5,11.5,0,0,1-1.19-.2,10.41,10.41,0,0,1-1.17-.33l.17-.3,5.25,4,.32.25-.4.06a7,7,0,0,0-1.76.5,7.2,7.2,0,0,0-1.58.94,7,7,0,0,0-2.21,2.89,6,6,0,0,0-.43,1.78,5.88,5.88,0,0,0,.14,1.82,5,5,0,0,0,.68,1.68A5.13,5.13,0,0,0,357,93.37a4.91,4.91,0,0,0,3.42,1,4.37,4.37,0,0,0,.89-.18,3.26,3.26,0,0,0,.8-.4,4,4,0,0,0,1.23-1.31,3.45,3.45,0,0,0,.5-1.7,2.57,2.57,0,0,0-.62-1.66,1.66,1.66,0,0,0-1.61-.6.91.91,0,0,0-.6.63A2.21,2.21,0,0,0,361,90.06Z"/><path class="cls-2" d="M352,25.45a.93.93,0,0,1-.9.12,1.12,1.12,0,0,1-.52-.77,2,2,0,0,1,0-.95,1.48,1.48,0,0,1,.53-.8,3.13,3.13,0,0,1,1.81-.59,3.4,3.4,0,0,1,1.85.51,3.91,3.91,0,0,1,1.35,1.37,4.07,4.07,0,0,1,.51,1.86,5.3,5.3,0,0,1-1.2,3.57,5.4,5.4,0,0,1-3.24,1.92,6.05,6.05,0,0,1-1.9.1,6.49,6.49,0,0,1-1.85-.47A7.56,7.56,0,0,1,344,25.54l.32.07-3,4.82-.57.92.26-1.06a8.47,8.47,0,0,0,.18-1.1,9.37,9.37,0,0,0,0-1.12,7.56,7.56,0,0,0-.1-1.11c0-.18-.06-.37-.1-.55s-.09-.36-.14-.54a5.5,5.5,0,0,0-.19-.52,4.77,4.77,0,0,0-.25-.5,5.13,5.13,0,0,0-.3-.47,4.94,4.94,0,0,0-.36-.43,5,5,0,0,0-.4-.39c-.15-.11-.29-.24-.45-.34a4.73,4.73,0,0,0-.49-.29c-.16-.09-.34-.16-.51-.25.18.07.36.13.53.21a4.79,4.79,0,0,1,.51.26,5,5,0,0,1,.48.31,5.17,5.17,0,0,1,.44.38,5.11,5.11,0,0,1,.4.42,5.35,5.35,0,0,1,.34.47,5,5,0,0,1,.29.51,5.78,5.78,0,0,1,.23.54,6,6,0,0,1,.3,1.13,8.41,8.41,0,0,1,.1,1.16,9.72,9.72,0,0,1-.05,1.16,8.77,8.77,0,0,1-.19,1.15l-.32-.14,3-4.82.25-.41.07.47A7.21,7.21,0,0,0,348.6,31a6.14,6.14,0,0,0,1.75.45,5.7,5.7,0,0,0,1.8-.1,5.11,5.11,0,0,0,1.68-.63,5.17,5.17,0,0,0,1.35-1.17,5,5,0,0,0,1.12-3.33,4.34,4.34,0,0,0-.13-.88,2.81,2.81,0,0,0-.13-.42,3.39,3.39,0,0,0-.2-.4,3.52,3.52,0,0,0-1.23-1.25,3.75,3.75,0,0,0-1.68-.53,2.89,2.89,0,0,0-1.71.44,1.61,1.61,0,0,0-.56,1.6,1.05,1.05,0,0,0,.45.75A.91.91,0,0,0,352,25.45Z"/><path class="cls-2" d="M313.87,25.58a1.19,1.19,0,0,0,1.08.2,1.12,1.12,0,0,0,.63-.87,1.49,1.49,0,0,0-.21-1.06,1.42,1.42,0,0,0-.38-.39,3.33,3.33,0,0,0-.49-.28,3.26,3.26,0,0,0-2.17-.19,4,4,0,0,0-1.87,1.1,3.33,3.33,0,0,0-.6.91l-.05.13a1.06,1.06,0,0,0,0,.12c0,.09-.06.18-.07.27a4,4,0,0,0-.1.54,4.71,4.71,0,0,0,.27,2.18,5.11,5.11,0,0,0,3.06,3,4.45,4.45,0,0,0,.53.16l.28.06.26,0a3.33,3.33,0,0,0,1.08-.13,7.9,7.9,0,0,0,2-1,35.49,35.49,0,0,0,3.64-2.77c1.18-1,2.35-2,3.59-2.89a20.85,20.85,0,0,1,1.94-1.28,10.22,10.22,0,0,1,2.13-.95l.81-.24-.66.55a4.64,4.64,0,0,0-.36.34l-.34.38a9.21,9.21,0,0,0-.6.81,10.09,10.09,0,0,0-.51.88c-.16.3-.29.61-.42.92l-.27-.2a20.9,20.9,0,0,1,2.37-1.56c.41-.23.83-.45,1.25-.66a11.17,11.17,0,0,1,1.31-.53l.68-.21c.23-.06.46-.13.69-.17a8.85,8.85,0,0,1,1.4-.21c.24,0,.47,0,.71,0a6.38,6.38,0,0,1,.7.06,5.09,5.09,0,0,1,.69.14,5.81,5.81,0,0,1,.67.22,5.78,5.78,0,0,0-.68-.19,5,5,0,0,0-.69-.1,6.28,6.28,0,0,0-.7,0c-.23,0-.46,0-.69.05a8.66,8.66,0,0,0-1.36.28c-.22.06-.44.13-.66.21l-.65.25c-.43.18-.85.37-1.27.56s-.83.41-1.23.64a20.59,20.59,0,0,0-2.32,1.53l-.52.4.25-.6c.13-.32.27-.64.44-1a10.42,10.42,0,0,1,.53-.91,9.54,9.54,0,0,1,.63-.85q.17-.2.35-.39a4.88,4.88,0,0,1,.39-.37l.16.3a9.89,9.89,0,0,0-2.06.92,20.51,20.51,0,0,0-1.9,1.26c-1.23.9-2.4,1.9-3.58,2.88a35.78,35.78,0,0,1-3.68,2.8,8.23,8.23,0,0,1-2.12,1,3.68,3.68,0,0,1-1.19.14l-.31,0-.29-.06a4.79,4.79,0,0,1-.57-.17,5.45,5.45,0,0,1-3.27-3.24,5.05,5.05,0,0,1-.29-2.34,4.37,4.37,0,0,1,.11-.59c0-.1,0-.19.08-.28a1.4,1.4,0,0,1,0-.15l.06-.14a3.68,3.68,0,0,1,.67-1,3.76,3.76,0,0,1,2.06-1.15,3.43,3.43,0,0,1,2.81.65,1.57,1.57,0,0,1,.4.44,1.59,1.59,0,0,1,.19,1.15,1.18,1.18,0,0,1-.7.89A1.21,1.21,0,0,1,313.87,25.58Z"/><path class="cls-2" d="M335.33,28.83h-.09l-.27,0a1.54,1.54,0,0,0-1,.24.88.88,0,0,0-.35.57,1.27,1.27,0,0,0,.14.78,1.56,1.56,0,0,0,.64.65,3.24,3.24,0,0,0,1,.38,4,4,0,0,0,1.11.06,3.42,3.42,0,0,0,1.14-.33,3.54,3.54,0,0,0,1.73-1.84,4.89,4.89,0,0,0,.09-2.76,5.07,5.07,0,0,0-1.43-2.48A4,4,0,0,0,335.49,23a5.44,5.44,0,0,0-2.68.75,14.52,14.52,0,0,0-2.21,1.51c-.67.54-1.27,1.09-1.81,1.6l-.77.75c-.24.25-.47.48-.69.68l-1.16,1.09c-.64.61-1,.92-1,.92l.25-.26.68-.76,1-1.2c.2-.23.43-.47.67-.71l.78-.76c.55-.52,1.15-1.08,1.83-1.62a14.85,14.85,0,0,1,2.27-1.54,5.77,5.77,0,0,1,2.85-.79,4.34,4.34,0,0,1,2.81,1.21,5.41,5.41,0,0,1,1.53,2.65,5.22,5.22,0,0,1-.11,3,3.88,3.88,0,0,1-1.91,2,3.45,3.45,0,0,1-2.48.26,3.5,3.5,0,0,1-1-.49,1.83,1.83,0,0,1-.67-.76,1.42,1.42,0,0,1-.11-.88A1,1,0,0,1,334,29a1.59,1.59,0,0,1,1-.19l.27,0Z"/><path class="cls-2" d="M296.64,25.45a2.21,2.21,0,0,0,.93,0,.91.91,0,0,0,.63-.6,1.66,1.66,0,0,0-.6-1.61,2.57,2.57,0,0,0-1.66-.62,3.45,3.45,0,0,0-1.7.5,4,4,0,0,0-1.31,1.23,3.26,3.26,0,0,0-.4.8,4.37,4.37,0,0,0-.18.89,4.91,4.91,0,0,0,1,3.42,5.13,5.13,0,0,0,1.33,1.23,5,5,0,0,0,1.68.68,5.88,5.88,0,0,0,1.82.14,6,6,0,0,0,1.78-.42,7,7,0,0,0,2.89-2.21,7.21,7.21,0,0,0,.94-1.58,6.94,6.94,0,0,0,.5-1.76l.06-.4.25.32,4,5.25-.3.17a10.41,10.41,0,0,1-.33-1.17,11.5,11.5,0,0,1-.2-1.19,10,10,0,0,1-.07-1.21,5.83,5.83,0,0,1,0-.61c0-.2.06-.4.1-.6a5.21,5.21,0,0,1,.16-.59,5.74,5.74,0,0,1,.22-.57,5,5,0,0,1,.29-.53,3.83,3.83,0,0,1,.36-.49l.2-.22.22-.2a3.91,3.91,0,0,1,.48-.36l.26-.15.27-.13c.18-.09.37-.15.55-.22-.18.09-.36.16-.53.26l-.26.15-.24.17a4.27,4.27,0,0,0-.45.38l-.2.21L309,24a4.54,4.54,0,0,0-.86,2.13,7.78,7.78,0,0,0-.08,1.16,8.94,8.94,0,0,0,.06,1.16,11.15,11.15,0,0,0,.2,1.15,10.13,10.13,0,0,0,.31,1.12l.36,1-.66-.86-4-5.25.31-.08a7.29,7.29,0,0,1-.53,1.85,7.55,7.55,0,0,1-1,1.65,7.67,7.67,0,0,1-1.36,1.36,7.14,7.14,0,0,1-1.67,1,6.37,6.37,0,0,1-1.88.45,6.24,6.24,0,0,1-1.92-.14,5.35,5.35,0,0,1-1.8-.73,5.48,5.48,0,0,1-1.42-1.32A5.25,5.25,0,0,1,292,26a4.74,4.74,0,0,1,.19-1,3.58,3.58,0,0,1,.44-.89,4.45,4.45,0,0,1,1.42-1.34,3.3,3.3,0,0,1,1.89-.48,2.8,2.8,0,0,1,1.76.77,2.1,2.1,0,0,1,.54.81,1.44,1.44,0,0,1,0,1,1,1,0,0,1-.71.62A2.23,2.23,0,0,1,296.64,25.45Z"/><path class="cls-2" d="M13.28,643.46a.91.91,0,0,0,.08-.87,1.05,1.05,0,0,0-.75-.45,1.61,1.61,0,0,0-1.6.56,2.89,2.89,0,0,0-.44,1.71,3.75,3.75,0,0,0,.53,1.68,3.52,3.52,0,0,0,1.25,1.23,3.39,3.39,0,0,0,.4.2,2.81,2.81,0,0,0,.42.13,4.34,4.34,0,0,0,.88.13,5,5,0,0,0,3.33-1.12,5.17,5.17,0,0,0,1.17-1.35,5.11,5.11,0,0,0,.63-1.68,5.7,5.7,0,0,0,.1-1.8,6.14,6.14,0,0,0-.45-1.75,7.21,7.21,0,0,0-5.52-4.25l-.47-.07.41-.25,4.82-3,.14.32a8.77,8.77,0,0,1-1.15.19,9.72,9.72,0,0,1-1.16.05,8.39,8.39,0,0,1-1.16-.1,6,6,0,0,1-1.13-.3,5.78,5.78,0,0,1-.54-.23,5,5,0,0,1-.51-.29,5.37,5.37,0,0,1-.47-.34,5.26,5.26,0,0,1-.8-.84,5,5,0,0,1-.31-.48,4.78,4.78,0,0,1-.26-.51c-.08-.17-.14-.36-.21-.53.08.17.15.35.25.51a4.72,4.72,0,0,0,.29.49c.1.16.22.3.34.45a5,5,0,0,0,.39.4,5,5,0,0,0,.43.36,5.15,5.15,0,0,0,.47.3,4.77,4.77,0,0,0,.5.25,5.5,5.5,0,0,0,.52.19c.18.05.36.1.54.14l.55.1a7.56,7.56,0,0,0,1.11.1,9.38,9.38,0,0,0,1.12,0,8.48,8.48,0,0,0,1.1-.18l1.06-.26-.92.57-4.82,3-.07-.32a7.56,7.56,0,0,1,5.79,4.46,6.49,6.49,0,0,1,.47,1.85,6.05,6.05,0,0,1-.1,1.9,5.4,5.4,0,0,1-1.92,3.24,5.3,5.3,0,0,1-3.57,1.2,4.07,4.07,0,0,1-1.86-.51,3.91,3.91,0,0,1-1.37-1.35,3.4,3.4,0,0,1-.51-1.85,3.13,3.13,0,0,1,.59-1.81,1.48,1.48,0,0,1,.8-.53,2,2,0,0,1,.95,0,1.12,1.12,0,0,1,.77.52A.93.93,0,0,1,13.28,643.46Z"/><path class="cls-2" d="M13.41,605.34a1.21,1.21,0,0,1,.23,1.09,1.18,1.18,0,0,1-.89.7,1.59,1.59,0,0,1-1.15-.19,1.57,1.57,0,0,1-.44-.4,3.43,3.43,0,0,1-.65-2.81,3.76,3.76,0,0,1,1.15-2.06,3.68,3.68,0,0,1,1-.67l.14-.06.15,0,.28-.08a4.37,4.37,0,0,1,.59-.11,5.05,5.05,0,0,1,2.34.29,5.45,5.45,0,0,1,3.24,3.27,4.8,4.8,0,0,1,.17.57c0,.1,0,.19.06.29a3,3,0,0,1,0,.31,3.68,3.68,0,0,1-.14,1.19,8.23,8.23,0,0,1-1,2.12,35.77,35.77,0,0,1-2.8,3.68c-1,1.18-2,2.35-2.88,3.58a20.51,20.51,0,0,0-1.26,1.9,9.89,9.89,0,0,0-.92,2.06l-.3-.16a4.88,4.88,0,0,1,.37-.39l.39-.35a9.55,9.55,0,0,1,.85-.63,10.42,10.42,0,0,1,.91-.53c.31-.16.63-.3,1-.44l.6-.25-.4.52a20.6,20.6,0,0,0-1.53,2.32c-.23.4-.45.81-.64,1.23s-.39.84-.56,1.27c-.09.21-.17.43-.25.65s-.15.44-.21.66a8.66,8.66,0,0,0-.28,1.36c0,.23,0,.46-.05.69a6.28,6.28,0,0,0,0,.7,5,5,0,0,0,.1.69,5.78,5.78,0,0,0,.19.68,5.8,5.8,0,0,1-.22-.67,5.09,5.09,0,0,1-.14-.69,6.37,6.37,0,0,1-.06-.7c0-.24,0-.47,0-.71a8.86,8.86,0,0,1,.21-1.4c0-.23.11-.46.17-.69s.14-.45.21-.68a11.18,11.18,0,0,1,.53-1.31c.21-.42.42-.84.66-1.25a20.89,20.89,0,0,1,1.56-2.37l.2.27c-.31.13-.62.27-.92.42a10.08,10.08,0,0,0-.88.51,9.2,9.2,0,0,0-.81.6l-.38.34a4.64,4.64,0,0,0-.34.36l-.55.66.24-.81a10.22,10.22,0,0,1,.95-2.13,20.85,20.85,0,0,1,1.28-1.94c.91-1.24,1.91-2.42,2.89-3.59a35.5,35.5,0,0,0,2.77-3.64,7.9,7.9,0,0,0,1-2,3.33,3.33,0,0,0,.13-1.08c0-.09,0-.17,0-.26s0-.19-.06-.28a4.46,4.46,0,0,0-.16-.53,5.11,5.11,0,0,0-3-3.06,4.71,4.71,0,0,0-2.18-.27,4,4,0,0,0-.54.1l-.27.07-.12,0-.13.05a3.33,3.33,0,0,0-.91.6,4,4,0,0,0-1.1,1.87A3.26,3.26,0,0,0,11,606a3.33,3.33,0,0,0,.28.49,1.42,1.42,0,0,0,.39.38,1.49,1.49,0,0,0,1.06.21,1.11,1.11,0,0,0,.87-.63A1.19,1.19,0,0,0,13.41,605.34Z"/><path class="cls-2" d="M16.65,626.8l0-.09c0-.06,0-.15,0-.27a1.59,1.59,0,0,1,.19-1,1,1,0,0,1,.62-.42,1.42,1.42,0,0,1,.88.11,1.83,1.83,0,0,1,.76.67,3.5,3.5,0,0,1,.49,1,3.45,3.45,0,0,1-.26,2.48,3.88,3.88,0,0,1-2,1.91,5.22,5.22,0,0,1-3,.11,5.41,5.41,0,0,1-2.65-1.53A4.34,4.34,0,0,1,10.43,627a5.77,5.77,0,0,1,.79-2.85,14.84,14.84,0,0,1,1.54-2.27c.55-.68,1.1-1.28,1.62-1.83l.76-.78c.24-.25.47-.48.71-.67l1.2-1,.76-.68.26-.25s-.31.4-.92,1l-1.09,1.16c-.2.23-.44.46-.68.69l-.75.77c-.52.54-1.07,1.14-1.6,1.81a14.51,14.51,0,0,0-1.51,2.21,5.44,5.44,0,0,0-.75,2.68,4,4,0,0,0,1.11,2.58A5.07,5.07,0,0,0,14.37,631a4.89,4.89,0,0,0,2.76-.09A3.54,3.54,0,0,0,19,629.14,3.42,3.42,0,0,0,19.3,628a4,4,0,0,0-.06-1.11,3.24,3.24,0,0,0-.38-1,1.56,1.56,0,0,0-.65-.64,1.27,1.27,0,0,0-.78-.14.88.88,0,0,0-.57.35,1.54,1.54,0,0,0-.24,1c0,.12,0,.21,0,.27Z"/><path class="cls-2" d="M13.27,588.1a2.23,2.23,0,0,1,0,.94,1,1,0,0,1-.62.71,1.44,1.44,0,0,1-1,0,2.1,2.1,0,0,1-.81-.54,2.8,2.8,0,0,1-.77-1.76,3.3,3.3,0,0,1,.48-1.89,4.45,4.45,0,0,1,1.34-1.42,3.58,3.58,0,0,1,.89-.44,4.75,4.75,0,0,1,1-.19,5.25,5.25,0,0,1,3.66,1.06,5.48,5.48,0,0,1,1.32,1.42,5.35,5.35,0,0,1,.73,1.8,6.24,6.24,0,0,1,.14,1.92,6.37,6.37,0,0,1-.45,1.88,7.14,7.14,0,0,1-1,1.67,7.67,7.67,0,0,1-1.36,1.36,7.55,7.55,0,0,1-1.65,1,7.29,7.29,0,0,1-1.85.53l.08-.31,5.25,4,.86.66-1-.36a10.12,10.12,0,0,0-1.12-.31,11.14,11.14,0,0,0-1.15-.2,9,9,0,0,0-1.16-.06,7.78,7.78,0,0,0-1.16.08,4.54,4.54,0,0,0-2.13.86l-.23.18-.21.2a4.28,4.28,0,0,0-.38.45l-.17.24-.15.26c-.1.17-.17.35-.26.53.08-.18.13-.38.22-.55l.13-.27.15-.26a3.91,3.91,0,0,1,.36-.48l.2-.22.22-.2a3.82,3.82,0,0,1,.49-.36,5,5,0,0,1,.53-.29,5.74,5.74,0,0,1,.57-.22,5.21,5.21,0,0,1,.59-.16c.2,0,.4-.07.6-.1a5.84,5.84,0,0,1,.61,0,10.05,10.05,0,0,1,1.21.07,11.5,11.5,0,0,1,1.19.2,10.41,10.41,0,0,1,1.17.33l-.17.3-5.25-4-.32-.25.4-.06a7,7,0,0,0,1.76-.5,7.2,7.2,0,0,0,1.58-.94,7,7,0,0,0,2.21-2.89,6,6,0,0,0,.42-1.78,5.87,5.87,0,0,0-.14-1.82,5,5,0,0,0-.68-1.68,5.13,5.13,0,0,0-1.23-1.33,4.91,4.91,0,0,0-3.42-1,4.37,4.37,0,0,0-.89.18,3.26,3.26,0,0,0-.8.4,4,4,0,0,0-1.23,1.31,3.45,3.45,0,0,0-.5,1.7,2.57,2.57,0,0,0,.62,1.66,1.66,1.66,0,0,0,1.61.6.91.91,0,0,0,.6-.63A2.21,2.21,0,0,0,13.27,588.1Z"/><path class="cls-2" d="M22.26,652.71a.93.93,0,0,1,.9-.12,1.12,1.12,0,0,1,.52.77,2,2,0,0,1,0,.95,1.48,1.48,0,0,1-.53.8,3.13,3.13,0,0,1-1.81.59,3.4,3.4,0,0,1-1.85-.51,3.91,3.91,0,0,1-1.35-1.37A4.07,4.07,0,0,1,17.6,652a5.3,5.3,0,0,1,1.2-3.57A5.4,5.4,0,0,1,22,646.47a6.05,6.05,0,0,1,1.9-.1,6.49,6.49,0,0,1,1.85.47,7.56,7.56,0,0,1,4.46,5.79l-.32-.07,3-4.82.57-.92-.26,1.06a8.47,8.47,0,0,0-.18,1.1,9.37,9.37,0,0,0,0,1.12,7.56,7.56,0,0,0,.1,1.11c0,.18.06.37.1.55s.09.36.14.54a5.5,5.5,0,0,0,.19.52,4.78,4.78,0,0,0,.25.5,5.16,5.16,0,0,0,.3.47,5,5,0,0,0,.36.43,5,5,0,0,0,.4.39c.15.11.29.24.45.34a4.73,4.73,0,0,0,.49.29c.16.09.34.16.51.25-.18-.07-.36-.13-.53-.21a4.79,4.79,0,0,1-.51-.26,5,5,0,0,1-.48-.31,5.16,5.16,0,0,1-.44-.38,5.1,5.1,0,0,1-.4-.42,5.37,5.37,0,0,1-.34-.47,5,5,0,0,1-.29-.51,5.77,5.77,0,0,1-.23-.54,6,6,0,0,1-.3-1.13,8.4,8.4,0,0,1-.1-1.16,9.72,9.72,0,0,1,.05-1.16,8.77,8.77,0,0,1,.19-1.15l.32.14-3,4.82-.25.41-.07-.47a7.21,7.21,0,0,0-4.25-5.52,6.14,6.14,0,0,0-1.75-.45,5.7,5.7,0,0,0-1.8.1,5.11,5.11,0,0,0-1.68.63,5.17,5.17,0,0,0-1.35,1.17A5,5,0,0,0,18,651.94a4.34,4.34,0,0,0,.13.88,2.81,2.81,0,0,0,.13.42,3.39,3.39,0,0,0,.2.4,3.52,3.52,0,0,0,1.23,1.25,3.75,3.75,0,0,0,1.68.53A2.89,2.89,0,0,0,23,655a1.61,1.61,0,0,0,.56-1.6,1.05,1.05,0,0,0-.45-.75A.91.91,0,0,0,22.26,652.71Z"/><path class="cls-2" d="M60.39,652.58a1.19,1.19,0,0,0-1.08-.2,1.12,1.12,0,0,0-.63.87,1.49,1.49,0,0,0,.21,1.06,1.42,1.42,0,0,0,.38.39,3.33,3.33,0,0,0,.49.28,3.26,3.26,0,0,0,2.17.19,4,4,0,0,0,1.87-1.1,3.33,3.33,0,0,0,.6-.91l.05-.13a1.06,1.06,0,0,0,0-.12c0-.09.06-.18.07-.27a4,4,0,0,0,.1-.54,4.71,4.71,0,0,0-.27-2.18,5.11,5.11,0,0,0-3.06-3,4.44,4.44,0,0,0-.53-.16l-.28-.06-.26,0a3.33,3.33,0,0,0-1.08.13,7.9,7.9,0,0,0-2,1,35.49,35.49,0,0,0-3.64,2.77c-1.18,1-2.35,2-3.59,2.89A20.85,20.85,0,0,1,48,654.67a10.23,10.23,0,0,1-2.13.95l-.81.24.66-.55a4.64,4.64,0,0,0,.36-.34l.34-.38a9.2,9.2,0,0,0,.6-.81,10.09,10.09,0,0,0,.51-.88c.16-.3.29-.61.42-.92l.27.2a20.9,20.9,0,0,1-2.37,1.56c-.41.23-.83.45-1.25.66a11.18,11.18,0,0,1-1.31.53l-.68.21c-.23.06-.46.13-.69.17a8.85,8.85,0,0,1-1.4.21c-.24,0-.47,0-.71,0a6.37,6.37,0,0,1-.7-.06,5.09,5.09,0,0,1-.69-.14,5.8,5.8,0,0,1-.67-.22,5.78,5.78,0,0,0,.68.19,5,5,0,0,0,.69.1,6.28,6.28,0,0,0,.7,0c.23,0,.46,0,.69-.05a8.66,8.66,0,0,0,1.36-.28c.22-.06.44-.13.66-.21l.65-.25c.43-.18.85-.37,1.27-.56s.83-.41,1.23-.64A20.59,20.59,0,0,0,48,651.91l.52-.4-.25.6c-.13.32-.27.64-.44,1a10.43,10.43,0,0,1-.53.91,9.55,9.55,0,0,1-.63.85q-.17.2-.35.39a4.89,4.89,0,0,1-.39.37l-.16-.3a9.88,9.88,0,0,0,2.06-.92,20.5,20.5,0,0,0,1.9-1.26c1.23-.9,2.4-1.9,3.58-2.88a35.78,35.78,0,0,1,3.68-2.8,8.23,8.23,0,0,1,2.12-1,3.67,3.67,0,0,1,1.19-.14l.31,0,.29.06a4.78,4.78,0,0,1,.57.17,5.45,5.45,0,0,1,3.27,3.24,5.05,5.05,0,0,1,.29,2.34,4.36,4.36,0,0,1-.11.59c0,.1,0,.19-.08.28a1.4,1.4,0,0,1,0,.15l-.06.14a3.68,3.68,0,0,1-.67,1A3.76,3.76,0,0,1,62,655.47a3.43,3.43,0,0,1-2.81-.65,1.58,1.58,0,0,1-.4-.44,1.59,1.59,0,0,1-.19-1.15,1.18,1.18,0,0,1,.7-.89A1.21,1.21,0,0,1,60.39,652.58Z"/><path class="cls-2" d="M38.92,649.34H39l.27,0a1.54,1.54,0,0,0,1-.24.88.88,0,0,0,.35-.57,1.27,1.27,0,0,0-.14-.78,1.56,1.56,0,0,0-.64-.65,3.24,3.24,0,0,0-1-.38,4,4,0,0,0-1.11-.06,3.42,3.42,0,0,0-1.14.33,3.54,3.54,0,0,0-1.73,1.84,4.89,4.89,0,0,0-.09,2.76,5.07,5.07,0,0,0,1.43,2.48,4,4,0,0,0,2.58,1.11,5.44,5.44,0,0,0,2.68-.75A14.51,14.51,0,0,0,43.66,653c.67-.54,1.27-1.09,1.81-1.6l.77-.75c.24-.25.47-.48.69-.68l1.16-1.09c.64-.61,1-.92,1-.92l-.25.26-.68.76-1,1.2c-.2.23-.43.47-.67.71l-.78.76c-.55.52-1.15,1.08-1.83,1.62a14.85,14.85,0,0,1-2.27,1.54,5.77,5.77,0,0,1-2.85.79,4.34,4.34,0,0,1-2.81-1.21,5.41,5.41,0,0,1-1.53-2.65,5.22,5.22,0,0,1,.11-3,3.88,3.88,0,0,1,1.91-2,3.45,3.45,0,0,1,2.48-.26,3.5,3.5,0,0,1,1,.49,1.83,1.83,0,0,1,.67.76,1.42,1.42,0,0,1,.11.88,1,1,0,0,1-.42.62,1.59,1.59,0,0,1-1,.19l-.27,0Z"/><path class="cls-2" d="M77.62,652.72a2.21,2.21,0,0,0-.93,0,.91.91,0,0,0-.63.6,1.66,1.66,0,0,0,.6,1.61,2.57,2.57,0,0,0,1.66.62,3.45,3.45,0,0,0,1.7-.5,4,4,0,0,0,1.31-1.23,3.26,3.26,0,0,0,.4-.8,4.37,4.37,0,0,0,.18-.89,4.91,4.91,0,0,0-1-3.42,5.13,5.13,0,0,0-1.33-1.23,5,5,0,0,0-1.68-.68,5.87,5.87,0,0,0-1.82-.14,6,6,0,0,0-1.78.42,7,7,0,0,0-2.89,2.21,7.21,7.21,0,0,0-.94,1.58,7,7,0,0,0-.5,1.76l-.06.4-.25-.32-4-5.25.3-.17a10.41,10.41,0,0,1,.33,1.17,11.5,11.5,0,0,1,.2,1.19,10,10,0,0,1,.07,1.21,5.83,5.83,0,0,1,0,.61c0,.2-.06.4-.1.6a5.22,5.22,0,0,1-.16.59,5.75,5.75,0,0,1-.22.57,5,5,0,0,1-.29.53,3.83,3.83,0,0,1-.36.49l-.2.22-.22.2a3.91,3.91,0,0,1-.48.36l-.26.15-.27.13c-.18.09-.37.15-.55.22.18-.09.36-.16.53-.26l.26-.15.24-.17a4.27,4.27,0,0,0,.45-.38l.2-.21.18-.23a4.54,4.54,0,0,0,.86-2.13,7.78,7.78,0,0,0,.08-1.16,9,9,0,0,0-.06-1.16,11.16,11.16,0,0,0-.2-1.15,10.12,10.12,0,0,0-.31-1.12l-.36-1,.66.86,4,5.25-.31.08a7.29,7.29,0,0,1,.53-1.85,7.55,7.55,0,0,1,1-1.65,7.67,7.67,0,0,1,1.36-1.36,7.14,7.14,0,0,1,1.67-1,6.37,6.37,0,0,1,1.88-.45,6.25,6.25,0,0,1,1.92.14,5.35,5.35,0,0,1,1.8.73,5.48,5.48,0,0,1,1.42,1.32,5.25,5.25,0,0,1,1.06,3.66,4.74,4.74,0,0,1-.19,1,3.58,3.58,0,0,1-.44.89,4.45,4.45,0,0,1-1.42,1.34,3.3,3.3,0,0,1-1.89.48,2.8,2.8,0,0,1-1.76-.77,2.1,2.1,0,0,1-.54-.81,1.44,1.44,0,0,1,0-1,1,1,0,0,1,.71-.62A2.23,2.23,0,0,1,77.62,652.72Z"/><path class="cls-2" d="M360.82,643.31a.93.93,0,0,1-.12-.9,1.12,1.12,0,0,1,.77-.52,2,2,0,0,1,.95,0,1.48,1.48,0,0,1,.8.53,3.13,3.13,0,0,1,.59,1.81,3.4,3.4,0,0,1-.51,1.85,3.91,3.91,0,0,1-1.37,1.35,4.07,4.07,0,0,1-1.86.51,5.3,5.3,0,0,1-3.57-1.2,5.4,5.4,0,0,1-1.92-3.24,6.05,6.05,0,0,1-.1-1.9,6.49,6.49,0,0,1,.47-1.85,7.56,7.56,0,0,1,5.79-4.46l-.07.32-4.82-3-.92-.57,1.06.26a8.48,8.48,0,0,0,1.1.18,9.38,9.38,0,0,0,1.12,0,7.56,7.56,0,0,0,1.11-.1l.55-.1c.18,0,.36-.09.54-.14a5.49,5.49,0,0,0,.52-.19,4.77,4.77,0,0,0,.5-.25,5.16,5.16,0,0,0,.47-.3,4.94,4.94,0,0,0,.43-.36,5,5,0,0,0,.39-.4c.11-.15.24-.29.34-.45a4.71,4.71,0,0,0,.29-.49c.09-.16.16-.34.25-.51-.07.18-.13.36-.21.53a4.8,4.8,0,0,1-.26.51,5,5,0,0,1-.31.48,5.26,5.26,0,0,1-.8.84,5.36,5.36,0,0,1-.47.34,5,5,0,0,1-.51.29,5.78,5.78,0,0,1-.54.23,6,6,0,0,1-1.13.3,8.4,8.4,0,0,1-1.16.1,9.72,9.72,0,0,1-1.16-.05,8.77,8.77,0,0,1-1.15-.19l.14-.32,4.82,3,.41.25-.47.07a7.21,7.21,0,0,0-5.52,4.25,6.14,6.14,0,0,0-.45,1.75,5.69,5.69,0,0,0,.1,1.8,5.11,5.11,0,0,0,.63,1.68,5.17,5.17,0,0,0,1.17,1.35,5,5,0,0,0,3.33,1.12,4.34,4.34,0,0,0,.88-.13,2.81,2.81,0,0,0,.42-.13,3.4,3.4,0,0,0,.4-.2,3.52,3.52,0,0,0,1.25-1.23,3.75,3.75,0,0,0,.53-1.68,2.89,2.89,0,0,0-.44-1.71,1.61,1.61,0,0,0-1.6-.56,1.05,1.05,0,0,0-.75.45A.91.91,0,0,0,360.82,643.31Z"/><path class="cls-2" d="M360.69,605.19a1.19,1.19,0,0,0-.2,1.08,1.12,1.12,0,0,0,.87.63,1.49,1.49,0,0,0,1.06-.21,1.42,1.42,0,0,0,.39-.38,3.33,3.33,0,0,0,.28-.49,3.26,3.26,0,0,0,.19-2.17,4,4,0,0,0-1.1-1.87,3.33,3.33,0,0,0-.91-.6l-.13-.05-.12,0-.27-.07a4,4,0,0,0-.54-.1,4.71,4.71,0,0,0-2.18.27,5.11,5.11,0,0,0-3,3.06,4.43,4.43,0,0,0-.16.53c0,.09,0,.18-.06.28s0,.17,0,.26a3.33,3.33,0,0,0,.13,1.08,7.91,7.91,0,0,0,1,2,35.49,35.49,0,0,0,2.77,3.64c1,1.18,2,2.35,2.89,3.59a20.83,20.83,0,0,1,1.28,1.94,10.22,10.22,0,0,1,.95,2.13l.24.81-.55-.66a4.65,4.65,0,0,0-.34-.36l-.38-.34a9.21,9.21,0,0,0-.81-.6,10.08,10.08,0,0,0-.88-.51c-.3-.16-.61-.29-.92-.42l.2-.27a20.89,20.89,0,0,1,1.56,2.37c.23.41.45.83.66,1.25a11.18,11.18,0,0,1,.53,1.31c.08.22.15.45.21.68s.13.46.17.69a8.85,8.85,0,0,1,.21,1.4c0,.24,0,.47,0,.71a6.38,6.38,0,0,1-.06.7,5.09,5.09,0,0,1-.14.69,5.82,5.82,0,0,1-.22.67,5.78,5.78,0,0,0,.19-.68,5,5,0,0,0,.1-.69,6.28,6.28,0,0,0,0-.7c0-.23,0-.46-.05-.69a8.66,8.66,0,0,0-.28-1.36c-.06-.22-.13-.44-.21-.66s-.16-.44-.25-.65c-.18-.43-.37-.85-.56-1.27s-.41-.83-.64-1.23a20.59,20.59,0,0,0-1.53-2.32l-.4-.52.6.25c.32.13.64.27,1,.44a10.42,10.42,0,0,1,.91.53,9.53,9.53,0,0,1,.85.63l.39.35a4.89,4.89,0,0,1,.37.39l-.3.16a9.89,9.89,0,0,0-.92-2.06,20.52,20.52,0,0,0-1.26-1.9c-.9-1.23-1.9-2.4-2.88-3.58a35.79,35.79,0,0,1-2.8-3.68,8.23,8.23,0,0,1-1-2.12,3.68,3.68,0,0,1-.14-1.19,3,3,0,0,1,0-.31c0-.09,0-.19.06-.29a4.78,4.78,0,0,1,.17-.57,5.45,5.45,0,0,1,3.24-3.27,5.05,5.05,0,0,1,2.34-.29,4.37,4.37,0,0,1,.59.11l.28.08.15,0,.14.06a3.68,3.68,0,0,1,1,.67,3.76,3.76,0,0,1,1.15,2.06,3.43,3.43,0,0,1-.65,2.81,1.57,1.57,0,0,1-.44.4,1.59,1.59,0,0,1-1.15.19,1.18,1.18,0,0,1-.89-.7A1.21,1.21,0,0,1,360.69,605.19Z"/><path class="cls-2" d="M357.44,626.65v-.09c0-.06,0-.15,0-.27a1.54,1.54,0,0,0-.24-1,.88.88,0,0,0-.57-.35,1.27,1.27,0,0,0-.78.14,1.56,1.56,0,0,0-.65.64,3.24,3.24,0,0,0-.38,1,4,4,0,0,0-.06,1.11,3.42,3.42,0,0,0,.33,1.14,3.54,3.54,0,0,0,1.84,1.73,4.89,4.89,0,0,0,2.76.09,5.07,5.07,0,0,0,2.48-1.43,4,4,0,0,0,1.11-2.58,5.44,5.44,0,0,0-.75-2.68,14.51,14.51,0,0,0-1.51-2.21c-.54-.67-1.09-1.27-1.6-1.81l-.75-.77c-.25-.24-.48-.47-.68-.69l-1.09-1.16c-.61-.64-.92-1-.92-1l.26.25.76.68,1.2,1c.23.2.47.43.71.67l.76.78c.52.55,1.08,1.15,1.62,1.83a14.85,14.85,0,0,1,1.54,2.27,5.77,5.77,0,0,1,.79,2.85,4.34,4.34,0,0,1-1.21,2.81,5.41,5.41,0,0,1-2.65,1.53,5.22,5.22,0,0,1-3-.11,3.88,3.88,0,0,1-2-1.91,3.45,3.45,0,0,1-.26-2.48,3.5,3.5,0,0,1,.49-1,1.83,1.83,0,0,1,.76-.67,1.42,1.42,0,0,1,.88-.11,1,1,0,0,1,.62.42,1.59,1.59,0,0,1,.19,1c0,.12,0,.21,0,.27Z"/><path class="cls-2" d="M360.82,588a2.21,2.21,0,0,0,0,.93.91.91,0,0,0,.6.63,1.66,1.66,0,0,0,1.61-.6,2.57,2.57,0,0,0,.62-1.66,3.45,3.45,0,0,0-.5-1.7,4,4,0,0,0-1.23-1.31,3.26,3.26,0,0,0-.8-.4,4.37,4.37,0,0,0-.89-.18,4.91,4.91,0,0,0-3.42,1,5.13,5.13,0,0,0-1.23,1.33,5,5,0,0,0-.68,1.68,5.87,5.87,0,0,0-.14,1.82,6,6,0,0,0,.42,1.78,7,7,0,0,0,2.21,2.89,7.21,7.21,0,0,0,1.58.94,7,7,0,0,0,1.76.5l.4.06-.32.25-5.25,4-.17-.3a10.42,10.42,0,0,1,1.17-.33,11.5,11.5,0,0,1,1.19-.2A10,10,0,0,1,359,599a5.84,5.84,0,0,1,.61,0c.2,0,.4.06.6.1a5.2,5.2,0,0,1,.59.16,5.74,5.74,0,0,1,.57.22,5,5,0,0,1,.53.29,3.83,3.83,0,0,1,.49.36l.22.2.2.22a3.91,3.91,0,0,1,.36.48l.15.26.13.27c.09.18.15.37.22.55-.09-.18-.16-.36-.26-.53l-.15-.26-.17-.24a4.28,4.28,0,0,0-.38-.45l-.21-.2-.23-.18a4.54,4.54,0,0,0-2.13-.86,7.78,7.78,0,0,0-1.16-.08,9,9,0,0,0-1.16.06,11.15,11.15,0,0,0-1.15.2,10.13,10.13,0,0,0-1.12.31l-1,.36.86-.66,5.25-4,.08.31a7.29,7.29,0,0,1-1.85-.53,7.55,7.55,0,0,1-1.65-1,7.67,7.67,0,0,1-1.36-1.36,7.14,7.14,0,0,1-1-1.67,6.37,6.37,0,0,1-.45-1.88,6.24,6.24,0,0,1,.14-1.92,5.35,5.35,0,0,1,.73-1.8,5.48,5.48,0,0,1,1.32-1.42,5.25,5.25,0,0,1,3.66-1.06,4.75,4.75,0,0,1,1,.19,3.58,3.58,0,0,1,.89.44,4.45,4.45,0,0,1,1.34,1.42,3.3,3.3,0,0,1,.48,1.89,2.8,2.8,0,0,1-.77,1.76,2.1,2.1,0,0,1-.81.54,1.44,1.44,0,0,1-1,0,1,1,0,0,1-.62-.71A2.23,2.23,0,0,1,360.82,588Z"/><path class="cls-2" d="M351.84,652.56a.91.91,0,0,0-.87-.08,1.05,1.05,0,0,0-.45.75,1.61,1.61,0,0,0,.56,1.6,2.89,2.89,0,0,0,1.71.44,3.75,3.75,0,0,0,1.68-.53,3.52,3.52,0,0,0,1.23-1.25,3.4,3.4,0,0,0,.2-.4,2.81,2.81,0,0,0,.13-.42,4.33,4.33,0,0,0,.13-.88,5,5,0,0,0-1.12-3.33,5.17,5.17,0,0,0-1.35-1.17,5.11,5.11,0,0,0-1.68-.63,5.7,5.7,0,0,0-1.8-.1,6.14,6.14,0,0,0-1.75.45,7.21,7.21,0,0,0-4.25,5.52l-.07.47-.25-.41-3-4.82.32-.14a8.77,8.77,0,0,1,.19,1.15,9.7,9.7,0,0,1,.05,1.16,8.39,8.39,0,0,1-.1,1.16,6,6,0,0,1-.3,1.13,5.78,5.78,0,0,1-.23.54,5,5,0,0,1-.29.51,5.37,5.37,0,0,1-.34.47,5.26,5.26,0,0,1-.84.8,5,5,0,0,1-.48.31,4.79,4.79,0,0,1-.51.26c-.17.08-.36.14-.53.21.17-.08.35-.15.51-.25a4.72,4.72,0,0,0,.49-.29c.16-.1.3-.22.45-.34a5,5,0,0,0,.4-.39,5,5,0,0,0,.36-.43,5.16,5.16,0,0,0,.3-.47,4.79,4.79,0,0,0,.25-.5,5.5,5.5,0,0,0,.19-.52c.05-.18.1-.36.14-.54s.07-.36.1-.55a7.56,7.56,0,0,0,.1-1.11,9.39,9.39,0,0,0,0-1.12,8.48,8.48,0,0,0-.18-1.1l-.26-1.06.57.92,3,4.82-.32.07a7.56,7.56,0,0,1,4.46-5.79,6.49,6.49,0,0,1,1.85-.47,6.05,6.05,0,0,1,1.9.1,5.4,5.4,0,0,1,3.24,1.92,5.3,5.3,0,0,1,1.2,3.57,4.07,4.07,0,0,1-.51,1.86,3.91,3.91,0,0,1-1.35,1.37,3.4,3.4,0,0,1-1.85.51A3.13,3.13,0,0,1,351,655a1.48,1.48,0,0,1-.53-.8,2,2,0,0,1,0-.95,1.12,1.12,0,0,1,.52-.77A.93.93,0,0,1,351.84,652.56Z"/><path class="cls-2" d="M313.71,652.43a1.21,1.21,0,0,1,1.09-.23,1.18,1.18,0,0,1,.7.89,1.59,1.59,0,0,1-.19,1.15,1.58,1.58,0,0,1-.4.44,3.43,3.43,0,0,1-2.81.65,3.76,3.76,0,0,1-2.06-1.15,3.68,3.68,0,0,1-.67-1l-.06-.14a1.4,1.4,0,0,1,0-.15c0-.09-.06-.18-.08-.28a4.36,4.36,0,0,1-.11-.59,5.05,5.05,0,0,1,.29-2.34,5.45,5.45,0,0,1,3.27-3.24,4.8,4.8,0,0,1,.57-.17l.29-.06.31,0a3.67,3.67,0,0,1,1.19.14,8.23,8.23,0,0,1,2.12,1,35.77,35.77,0,0,1,3.68,2.8c1.18,1,2.35,2,3.58,2.88a20.5,20.5,0,0,0,1.9,1.26,9.89,9.89,0,0,0,2.06.92l-.16.3a4.88,4.88,0,0,1-.39-.37q-.18-.19-.35-.39a9.55,9.55,0,0,1-.63-.85,10.43,10.43,0,0,1-.53-.91c-.16-.31-.3-.63-.44-1l-.25-.6.52.4a20.59,20.59,0,0,0,2.32,1.53c.4.23.81.45,1.23.64s.84.39,1.27.56l.65.25c.22.07.44.15.66.21a8.66,8.66,0,0,0,1.36.28c.23,0,.46,0,.69.05a6.28,6.28,0,0,0,.7,0,5,5,0,0,0,.69-.1,5.78,5.78,0,0,0,.68-.19,5.8,5.8,0,0,1-.67.22,5.09,5.09,0,0,1-.69.14,6.37,6.37,0,0,1-.7.06c-.24,0-.47,0-.71,0a8.85,8.85,0,0,1-1.4-.21c-.23,0-.46-.11-.69-.17l-.68-.21a11.18,11.18,0,0,1-1.31-.53c-.42-.21-.84-.42-1.25-.66A20.89,20.89,0,0,1,325.9,652l.27-.2c.13.31.27.62.42.92a10.09,10.09,0,0,0,.51.88,9.2,9.2,0,0,0,.6.81l.34.38a4.64,4.64,0,0,0,.36.34l.66.55-.81-.24a10.23,10.23,0,0,1-2.13-.95,20.86,20.86,0,0,1-1.94-1.28c-1.24-.91-2.42-1.91-3.59-2.89a35.49,35.49,0,0,0-3.64-2.77,7.9,7.9,0,0,0-2-1,3.33,3.33,0,0,0-1.08-.13l-.26,0-.28.06a4.44,4.44,0,0,0-.53.16,5.11,5.11,0,0,0-3.06,3,4.71,4.71,0,0,0-.27,2.18,4,4,0,0,0,.1.54c0,.09,0,.18.07.27a1.06,1.06,0,0,0,0,.12l.05.13a3.33,3.33,0,0,0,.6.91,4,4,0,0,0,1.87,1.1,3.26,3.26,0,0,0,2.17-.19,3.33,3.33,0,0,0,.49-.28,1.42,1.42,0,0,0,.38-.39,1.49,1.49,0,0,0,.21-1.06,1.12,1.12,0,0,0-.63-.87A1.19,1.19,0,0,0,313.71,652.43Z"/><path class="cls-2" d="M335.17,649.18l-.09,0-.27,0a1.59,1.59,0,0,1-1-.19,1,1,0,0,1-.42-.62,1.42,1.42,0,0,1,.11-.88,1.83,1.83,0,0,1,.67-.76,3.5,3.5,0,0,1,1-.49,3.45,3.45,0,0,1,2.48.26,3.88,3.88,0,0,1,1.91,2,5.22,5.22,0,0,1,.11,3,5.41,5.41,0,0,1-1.53,2.65,4.34,4.34,0,0,1-2.81,1.21,5.77,5.77,0,0,1-2.85-.79,14.84,14.84,0,0,1-2.27-1.54c-.68-.55-1.28-1.1-1.83-1.62l-.78-.76c-.25-.24-.48-.47-.67-.71l-1-1.2-.68-.76-.25-.26s.4.31,1,.92l1.16,1.09c.23.2.46.44.69.68l.77.75c.54.52,1.14,1.07,1.81,1.6a14.51,14.51,0,0,0,2.21,1.51,5.44,5.44,0,0,0,2.68.75,4,4,0,0,0,2.58-1.11,5.07,5.07,0,0,0,1.43-2.48,4.89,4.89,0,0,0-.09-2.76,3.54,3.54,0,0,0-1.73-1.84,3.42,3.42,0,0,0-1.14-.33,4,4,0,0,0-1.11.06,3.24,3.24,0,0,0-1,.38,1.56,1.56,0,0,0-.64.65,1.27,1.27,0,0,0-.14.78.88.88,0,0,0,.35.57,1.54,1.54,0,0,0,1,.24l.27,0Z"/><path class="cls-2" d="M296.48,652.56a2.23,2.23,0,0,1,.94,0,1,1,0,0,1,.71.62,1.44,1.44,0,0,1,0,1,2.1,2.1,0,0,1-.54.81,2.8,2.8,0,0,1-1.76.77,3.3,3.3,0,0,1-1.89-.48,4.45,4.45,0,0,1-1.42-1.34A3.58,3.58,0,0,1,292,653a4.74,4.74,0,0,1-.19-1,5.25,5.25,0,0,1,1.06-3.66,5.48,5.48,0,0,1,1.42-1.32,5.35,5.35,0,0,1,1.8-.73,6.24,6.24,0,0,1,1.92-.14,6.37,6.37,0,0,1,1.88.45,7.14,7.14,0,0,1,1.67,1A7.67,7.67,0,0,1,303,649a7.55,7.55,0,0,1,1,1.65,7.29,7.29,0,0,1,.53,1.85l-.31-.08,4-5.25.66-.86-.36,1a10.12,10.12,0,0,0-.31,1.12,11.16,11.16,0,0,0-.2,1.15,9,9,0,0,0-.06,1.16,7.78,7.78,0,0,0,.08,1.16,4.54,4.54,0,0,0,.86,2.13l.18.23.2.21a4.27,4.27,0,0,0,.45.38l.24.17.26.15c.17.1.35.17.53.26-.18-.08-.38-.13-.55-.22l-.27-.13-.26-.15a3.91,3.91,0,0,1-.48-.36l-.22-.2-.2-.22a3.83,3.83,0,0,1-.36-.49,5,5,0,0,1-.29-.53,5.75,5.75,0,0,1-.22-.57,5.22,5.22,0,0,1-.16-.59c0-.2-.07-.4-.1-.6a5.83,5.83,0,0,1,0-.61,10,10,0,0,1,.07-1.21,11.5,11.5,0,0,1,.2-1.19,10.41,10.41,0,0,1,.33-1.17l.3.17-4,5.25-.25.32-.06-.4a7,7,0,0,0-.5-1.76,7.21,7.21,0,0,0-.94-1.58,7,7,0,0,0-2.89-2.21,6,6,0,0,0-1.78-.42,5.87,5.87,0,0,0-1.82.14,5,5,0,0,0-1.68.68,5.13,5.13,0,0,0-1.33,1.23,4.91,4.91,0,0,0-1,3.42,4.37,4.37,0,0,0,.18.89,3.26,3.26,0,0,0,.4.8,4,4,0,0,0,1.31,1.23,3.45,3.45,0,0,0,1.7.5,2.57,2.57,0,0,0,1.66-.62,1.66,1.66,0,0,0,.6-1.61.91.91,0,0,0-.63-.6A2.21,2.21,0,0,0,296.48,652.56Z"/><rect class="cls-2" x="82.27" y="26.72" width="209.92" height="0.35"/><rect class="cls-2" x="14.86" y="94.35" width="0.35" height="489.32"/><rect class="cls-2" x="82.07" y="650.95" width="209.91" height="0.35"/><rect class="cls-2" x="359.06" y="94.47" width="0.35" height="488.61"/><path class="cls-2" d="M181.85,138.16l.16-.2c.05-.06.11-.15.2-.23l.3-.29c.12-.1.26-.2.41-.32s.33-.21.52-.32a4.64,4.64,0,0,1,1.4-.46,4.83,4.83,0,0,1,1.75.06,4.55,4.55,0,0,1,1.77.83,4.61,4.61,0,0,1,1.34,1.62,4.79,4.79,0,0,1,.51,2.12c0,.18,0,.35,0,.53a4.64,4.64,0,0,1-.1.55,3.78,3.78,0,0,1-.16.52,3.57,3.57,0,0,1-.22.5,4.61,4.61,0,0,1-1.34,1.62,4.54,4.54,0,0,1-1.77.83,4.84,4.84,0,0,1-1.74.07,4.62,4.62,0,0,1-1.4-.46c-.19-.11-.37-.21-.52-.32s-.29-.22-.41-.32l-.3-.29c-.08-.09-.14-.17-.2-.24l-.16-.2.17.19c.06.06.12.14.21.22l.31.27c.12.1.27.19.42.29l.53.28a5,5,0,0,0,1.36.38,4.5,4.5,0,0,0,3.31-.94,4.3,4.3,0,0,0,1.23-1.52,3.26,3.26,0,0,0,.2-.47,3.47,3.47,0,0,0,.14-.49,4.36,4.36,0,0,0,.09-.49c0-.17,0-.35,0-.53a4.48,4.48,0,0,0-.46-2,4.3,4.3,0,0,0-1.23-1.52,4.61,4.61,0,0,0-1.65-.82,3,3,0,0,0-.42-.09,2.78,2.78,0,0,0-.43,0h-.41a4,4,0,0,0-.4,0,5,5,0,0,0-1.37.38l-.53.28c-.15.11-.3.2-.42.29l-.31.27c-.09.08-.15.16-.21.22Z"/><path class="cls-2" d="M198.2,138.63l-.17-.19c-.06-.06-.12-.14-.21-.22l-.31-.27c-.12-.1-.27-.19-.42-.29l-.53-.28a5,5,0,0,0-1.37-.38,4,4,0,0,0-.4,0h-.41a2.78,2.78,0,0,0-.43,0,3,3,0,0,0-.42.09,4.61,4.61,0,0,0-1.65.82,4.3,4.3,0,0,0-1.23,1.52,4.48,4.48,0,0,0-.46,2c0,.18,0,.36,0,.53a4.36,4.36,0,0,0,.09.49,3.47,3.47,0,0,0,.14.49,3.26,3.26,0,0,0,.2.47,4.3,4.3,0,0,0,1.23,1.52,4.5,4.5,0,0,0,3.31.94,5,5,0,0,0,1.36-.38l.53-.28c.15-.11.3-.2.42-.29l.31-.27c.09-.08.15-.16.21-.22l.17-.19-.16.2c-.05.06-.11.15-.2.24l-.3.29c-.12.1-.26.2-.41.32s-.33.21-.52.32a4.62,4.62,0,0,1-1.4.46,4.84,4.84,0,0,1-1.74-.07,4.54,4.54,0,0,1-1.77-.83,4.61,4.61,0,0,1-1.34-1.62,3.56,3.56,0,0,1-.22-.5,3.78,3.78,0,0,1-.16-.52,4.64,4.64,0,0,1-.1-.55c0-.18,0-.36,0-.53a4.79,4.79,0,0,1,.51-2.12,4.61,4.61,0,0,1,1.34-1.62,4.55,4.55,0,0,1,1.77-.83,4.83,4.83,0,0,1,1.75-.06,4.64,4.64,0,0,1,1.4.46c.19.11.37.21.52.32s.29.22.41.32l.3.29c.08.09.14.17.2.23Z"/><path class="cls-2" d="M185,139.25l.1-.12a2.42,2.42,0,0,1,.3-.33l.25-.2.32-.2a2.82,2.82,0,0,1,.87-.29,3.05,3.05,0,0,1,1.09,0,2.9,2.9,0,0,1,2,1.5,3,3,0,0,1,.33,1.34c0,.11,0,.21,0,.33a2.84,2.84,0,0,1-.06.35,2.78,2.78,0,0,1-.24.64,2.9,2.9,0,0,1-2,1.5,3.06,3.06,0,0,1-1.08,0,2.8,2.8,0,0,1-.87-.29l-.32-.2-.25-.2a2.43,2.43,0,0,1-.3-.33l-.1-.12.11.11a3.07,3.07,0,0,0,.33.29l.26.17.33.16a3.19,3.19,0,0,0,.83.21,2.75,2.75,0,0,0,2-.58,2.64,2.64,0,0,0,.74-.91,2.45,2.45,0,0,0,.21-.57,2.54,2.54,0,0,0,.05-.29c0-.1,0-.21,0-.32a2.66,2.66,0,0,0-1-2.08,2.82,2.82,0,0,0-1-.5,2.45,2.45,0,0,0-.51-.09,2.82,2.82,0,0,0-.49,0,3.18,3.18,0,0,0-.84.22l-.33.16-.26.17a3,3,0,0,0-.33.29Z"/><path class="cls-2" d="M195.08,139.25l-.11-.11a3,3,0,0,0-.33-.29l-.26-.17-.33-.16a3.18,3.18,0,0,0-.84-.22,2.82,2.82,0,0,0-.49,0,2.45,2.45,0,0,0-.51.09,2.82,2.82,0,0,0-1,.5,2.66,2.66,0,0,0-1,2.08c0,.11,0,.22,0,.32a2.54,2.54,0,0,0,.05.29,2.45,2.45,0,0,0,.21.57,2.64,2.64,0,0,0,.74.91,2.75,2.75,0,0,0,2,.58,3.19,3.19,0,0,0,.83-.21l.33-.16.26-.17a3.07,3.07,0,0,0,.33-.29l.11-.11-.1.12a2.43,2.43,0,0,1-.3.33l-.25.2-.32.2a2.8,2.8,0,0,1-.87.29,3.06,3.06,0,0,1-1.08,0,2.9,2.9,0,0,1-2-1.5,2.78,2.78,0,0,1-.24-.64,2.83,2.83,0,0,1-.06-.35c0-.12,0-.22,0-.33a3,3,0,0,1,.33-1.34,2.9,2.9,0,0,1,2-1.5,3.05,3.05,0,0,1,1.09,0,2.82,2.82,0,0,1,.87.29l.32.2.25.2a2.42,2.42,0,0,1,.3.33Z"/><path class="cls-2" d="M187.5,141,186,141l-4.05.06-5.73.05-6.57,0-6.57,0-5.73-.05-4.05-.06-1.54,0,1.54,0,4.05-.06,5.73-.05,6.57,0,6.57,0,5.73.05,4.05.06Z"/><path class="cls-2" d="M228.31,141l-1.54,0-4.05.06-5.73.05-6.57,0-6.57,0-5.73-.05-4.05-.06-1.54,0,1.54,0,4.05-.06,5.73-.05,6.57,0,6.57,0,5.73.05,4.05.06Z"/><path class="cls-3" d="M158.22,73.74a5.22,5.22,0,0,0,2-.33,1,1,0,0,1,.23.69c0,1.08-.71,2-2.52,2a9.91,9.91,0,0,1-3.46-.71l-2,11.35a3.94,3.94,0,0,0,0,2,2.44,2.44,0,0,1-1.19.21c-1.54,0-1.83-.67-1.56-2.27l2-11.18c.08-.5.1-.81.1-.81A7.2,7.2,0,0,0,150,74.4c-1.9,0-2.92,1.06-2.92,2.25,0,.58.31,1,.83,1a.85.85,0,0,0,.35-.06.65.65,0,0,1,0,.19c0,.5-.52,1.17-1.58,1.17a2,2,0,0,1-2.19-2.08c0-2.06,1.83-3.56,5.52-3.56C152.45,73.26,154.09,73.74,158.22,73.74Z"/><path class="cls-3" d="M156.87,84.38a5.69,5.69,0,0,1,5.58-5.92c2.12,0,3,1.1,3,2.17,0,1.9-2.19,3.15-5.85,3.83a2.86,2.86,0,0,0,3,2.77,4.64,4.64,0,0,0,4.06-2c.27,0,.42.17.33.54-.19.92-2.19,3.08-5.37,3.08C158.84,88.88,156.87,87.19,156.87,84.38Zm2.73-.9c2.54-.6,3.6-1.87,3.6-3.25a.69.69,0,0,0-.73-.73C161.28,79.51,159.82,80.88,159.59,83.48Z"/><path class="cls-3" d="M183.44,85.25c.27,0,.46.17.4.54a4.27,4.27,0,0,1-3.67,3.08,2.4,2.4,0,0,1-2.52-2.6A19.16,19.16,0,0,1,178,83.9l.4-2.29c.17-1,0-1.31-.5-1.31-1.06,0-2.67,3-3.31,6.6a3.56,3.56,0,0,0,0,1.79,2.28,2.28,0,0,1-1.08.19c-1.6,0-1.79-.6-1.54-2.06l.92-5.21c.17-.9,0-1.31-.48-1.31-1,0-2.65,2.75-3.33,6.6a3.56,3.56,0,0,0,0,1.79,2.28,2.28,0,0,1-1.08.19c-1.6,0-1.79-.6-1.54-2.06l1.1-6.37a3.56,3.56,0,0,0,0-1.79,2.28,2.28,0,0,1,1.08-.19c1.6,0,1.79.6,1.54,2.06L170,81c.69-1.15,1.92-2.56,3.35-2.56a2,2,0,0,1,2.17,2.17c0,.15,0,.29,0,.46.67-1.19,1.94-2.62,3.42-2.62a2,2,0,0,1,2.15,2.15,11.26,11.26,0,0,1-.19,1.69l-.5,2.94c-.21,1.23.1,1.83.85,1.83A2.72,2.72,0,0,0,183.44,85.25Z"/><path class="cls-3" d="M186.84,80.9c.88-1.58,2-2.44,3.35-2.44,1.94,0,3,1.38,3,3.54a9.22,9.22,0,0,1-.17,1.75,4.06,4.06,0,0,0,2.58-1.62c.27,0,.42.21.38.52-.12.73-1.48,1.9-3.19,2.06-.81,2.6-2.73,4.17-4.75,4.17a3.24,3.24,0,0,1-2.42-1l-1.1,6.33a3.55,3.55,0,0,0,0,1.79,2.28,2.28,0,0,1-1.08.19c-1.6,0-1.79-.6-1.54-2.06l2.37-13.66a3.56,3.56,0,0,0,0-1.79,2.28,2.28,0,0,1,1.08-.19c1.6,0,1.79.58,1.54,2.06Zm3.65.19c-.12-.71-.48-1-1-1s-1.23.52-1.94,1.65A11.64,11.64,0,0,0,186,85.78l-.15.79a1.78,1.78,0,0,0,1.58.9c1.15,0,2.27-1.33,2.79-3.31a2,2,0,0,1-.77-1.65A1.36,1.36,0,0,1,190.49,81.09Z"/><path class="cls-3" d="M196.14,78.46l.21-1.12a3.26,3.26,0,0,0,0-1.79,2.28,2.28,0,0,1,1.08-.19c1.6,0,1.81.6,1.54,2.06l-.19,1h2.06a.71.71,0,0,1,.15.44c0,.35-.25.6-.71.6h-1.69l-1,5.73c-.21,1.15.21,1.83,1.19,1.83a3,3,0,0,0,2.5-1.81c.27,0,.46.19.37.54a4.53,4.53,0,0,1-4,3.08,2.65,2.65,0,0,1-2.75-2.75,12.69,12.69,0,0,1,.23-2.23l.77-4.39h-1.35a.71.71,0,0,1-.15-.44c0-.35.25-.6.71-.6Z"/><path class="cls-3" d="M201.93,80.44a3.51,3.51,0,0,0,0-1.79,2.29,2.29,0,0,1,1.08-.19c1.6,0,1.79.6,1.54,2.06l-.81,4.71c-.21,1.25.15,1.83.9,1.83a2.89,2.89,0,0,0,2.19-1.81c.27,0,.46.17.4.54a4.23,4.23,0,0,1-3.73,3.08,2.34,2.34,0,0,1-2.44-2.6,12.12,12.12,0,0,1,.19-2Zm2.19-6.6a1.24,1.24,0,0,1,1.29,1.31,1.45,1.45,0,0,1-1.5,1.44,1.19,1.19,0,0,1-1.25-1.25A1.47,1.47,0,0,1,204.11,73.84Z"/><path class="cls-3" d="M213.61,81.61c.17-1,0-1.31-.5-1.31-1.31,0-3.29,3.1-3.94,6.6a3.56,3.56,0,0,0,0,1.79,2.28,2.28,0,0,1-1.08.19c-1.6,0-1.79-.6-1.54-2.06l1.1-6.37a3.56,3.56,0,0,0,0-1.79,2.28,2.28,0,0,1,1.08-.19c1.6,0,1.79.6,1.54,2.06l-.17,1c.81-1.35,2.4-3,4.08-3a2,2,0,0,1,2.15,2.15,11.26,11.26,0,0,1-.19,1.69l-.5,2.94c-.19,1,0,1.83.85,1.83s1.65-.73,2.19-1.81c.27,0,.46.17.4.54a4.25,4.25,0,0,1-3.67,3.08,2.4,2.4,0,0,1-2.52-2.6,18.21,18.21,0,0,1,.31-2.37Z"/><path class="cls-3" d="M226.65,88.65c-.83,4.81-2.75,7.52-5.83,7.52A2.14,2.14,0,0,1,218.49,94a4.41,4.41,0,0,1,1.75-3.23,16.08,16.08,0,0,1,3.81-2.35l.25-1.48a3.64,3.64,0,0,1-3,2c-1.71,0-3.06-1.15-3.06-3.58,0-4.64,2.71-6.83,5.14-6.83a2.73,2.73,0,0,1,2.25,1c.33-.75.85-1,1.87-1a2.1,2.1,0,0,1,1,.21,3.65,3.65,0,0,0-.48,1.5Zm-2.83,1.06a12.08,12.08,0,0,0-2.94,1.92,3.25,3.25,0,0,0-1.23,2.23.87.87,0,0,0,1,.94C222.07,94.79,223.2,93,223.82,89.71Zm1.33-7.85.19-1a1.51,1.51,0,0,0-1.37-1c-1.42,0-3,2.1-3,5.46,0,1.17.46,1.73,1.23,1.73C223.66,87.07,224.76,83.94,225.15,81.86Z"/></svg>