<svg id="Слой_1" data-name="Слой 1" xmlns="http://www.w3.org/2000/svg" viewBox="0 0 375 656.08"><defs><style>.cls-1{fill:#fff;}.cls-2{fill:#c4ae96;}.cls-3{fill:none;stroke:#c4ae96;stroke-miterlimit:10;stroke-width:0.5px;}</style></defs><title>_</title><path class="cls-1" d="M117.8,302.32a5.23,5.23,0,0,0,2-.33,1,1,0,0,1,.23.69c0,1.08-.71,2-2.52,2a9.91,9.91,0,0,1-3.46-.71l-2,11.35a3.94,3.94,0,0,0,0,2,2.43,2.43,0,0,1-1.19.21c-1.54,0-1.83-.67-1.56-2.27l2-11.19c.08-.5.1-.81.1-.81a7.16,7.16,0,0,0-1.73-.21c-1.9,0-2.92,1.06-2.92,2.25,0,.58.31,1,.83,1a.85.85,0,0,0,.35-.06.66.66,0,0,1,0,.19c0,.5-.52,1.17-1.58,1.17a2,2,0,0,1-2.19-2.08c0-2.06,1.83-3.56,5.52-3.56C112,301.84,113.68,302.32,117.8,302.32Z"/><path d="M110.82,317.71a1.94,1.94,0,0,1-1.58-.52c-.34-.4-.41-1-.23-2L111,304c0-.24.06-.43.08-.57h0a6.06,6.06,0,0,0-1.43-.15c-1.83,0-2.67,1-2.67,2,0,.21.06.71.58.71a.68.68,0,0,0,.25,0l.25-.11.09.26a.86.86,0,0,1,0,.27,1.63,1.63,0,0,1-1.83,1.42,2.24,2.24,0,0,1-2.44-2.33c0-2.39,2.16-3.81,5.77-3.81a28.39,28.39,0,0,1,3,.19,47.09,47.09,0,0,0,5.19.29,5.07,5.07,0,0,0,1.86-.31l.16-.07.12.12a1.27,1.27,0,0,1,.3.86c0,.66-.27,2.21-2.77,2.21a8.62,8.62,0,0,1-3-.55l-.24-.08-1.93,11.07a4,4,0,0,0,0,1.84l.08.19-.18.11A2.62,2.62,0,0,1,110.82,317.71Zm-1.23-15a6.52,6.52,0,0,1,1.53.16l.46.09v.22s0,.32-.11.84l-2,11.19c-.14.86-.11,1.36.12,1.63a1.51,1.51,0,0,0,1.19.34,3.13,3.13,0,0,0,.89-.11,5.48,5.48,0,0,1,.07-1.87l2-11.63.79.25a8.2,8.2,0,0,0,2.86.53c1.46,0,2.27-.61,2.27-1.71a.93.93,0,0,0-.08-.38,6,6,0,0,1-1.86.28,47.29,47.29,0,0,1-5.24-.29,28.19,28.19,0,0,0-2.92-.19c-3.3,0-5.27,1.24-5.27,3.31a1.75,1.75,0,0,0,1.94,1.83,1.24,1.24,0,0,0,1.32-.8h-.11a1.08,1.08,0,0,1-1.08-1.21C106.43,304,107.42,302.73,109.59,302.73Z"/><path class="cls-1" d="M116.87,314.11a9.88,9.88,0,0,1,.15-1.5l.65-3.58a3.56,3.56,0,0,0,0-1.79,2.29,2.29,0,0,1,1.08-.19c1.6,0,1.79.6,1.54,2.06l-.19,1.06a4.49,4.49,0,0,1,2-.44c1.94,0,3.29,1.15,3.29,3a4.62,4.62,0,0,1-4.94,4.77C118.14,317.46,116.87,316.15,116.87,314.11Zm2.69-.69a10,10,0,0,0-.15,1.62c0,.81.42,1.37,1.21,1.37,1.17,0,2.17-1.29,2.17-3.81,0-1.1-.56-1.62-1.44-1.62a2.16,2.16,0,0,0-1.5.69Zm7.77-4.4a3.56,3.56,0,0,0,0-1.79,2.29,2.29,0,0,1,1.08-.19c1.6,0,1.79.6,1.54,2.06l-.79,4.6c-.25,1.5.08,1.94.62,1.94a.86.86,0,0,0,.79-.58c.29,0,.44.23.4.6a2.35,2.35,0,0,1-2.42,1.79,2.2,2.2,0,0,1-2.1-2.46,12.06,12.06,0,0,1,.19-2.13Z"/><path d="M128.57,317.71a2.46,2.46,0,0,1-2.35-2.71,12.22,12.22,0,0,1,.19-2.17l.67-3.85a3.57,3.57,0,0,0,0-1.65l-.08-.2.18-.11a2.49,2.49,0,0,1,1.21-.22,2,2,0,0,1,1.6.49,2.26,2.26,0,0,1,.19,1.86l-.79,4.6c-.17,1,0,1.38.08,1.53a.35.35,0,0,0,.3.12.6.6,0,0,0,.55-.41l.06-.17h.18a.62.62,0,0,1,.48.2.84.84,0,0,1,.17.68A2.59,2.59,0,0,1,128.57,317.71Zm-1-8.64-.67,3.85a11.76,11.76,0,0,0-.18,2.08,2,2,0,0,0,1.85,2.21,2.11,2.11,0,0,0,2.17-1.57.52.52,0,0,0,0-.27,1.07,1.07,0,0,1-.92.52.85.85,0,0,1-.68-.29c-.29-.34-.35-1-.19-1.94l.79-4.6c.14-.8.12-1.22-.08-1.45s-.57-.32-1.22-.32a2.9,2.9,0,0,0-.79.09,5,5,0,0,1-.07,1.68Zm-7.06,8.64c-2.44,0-3.9-1.35-3.9-3.6a10.11,10.11,0,0,1,.15-1.54l.65-3.59a3.57,3.57,0,0,0,0-1.65l-.08-.2.18-.11a2.49,2.49,0,0,1,1.21-.22,2,2,0,0,1,1.6.49,2.26,2.26,0,0,1,.19,1.86l-.11.61a5.07,5.07,0,0,1,1.72-.28c2.12,0,3.54,1.29,3.54,3.21A4.88,4.88,0,0,1,120.51,317.71ZM118,307.39a5,5,0,0,1-.07,1.68l-.65,3.58a9.53,9.53,0,0,0-.14,1.46c0,2,1.24,3.1,3.4,3.1a4.36,4.36,0,0,0,4.69-4.52c0-1.65-1.19-2.71-3-2.71a4.28,4.28,0,0,0-1.93.41l-.44.22.27-1.55c.14-.8.11-1.22-.08-1.45s-.57-.32-1.22-.32A2.9,2.9,0,0,0,118,307.39Zm2.64,9.28a1.44,1.44,0,0,1-1.46-1.62,10.25,10.25,0,0,1,.15-1.67l.31-1.83.06-.06a2.4,2.4,0,0,1,1.68-.76c1.07,0,1.69.68,1.69,1.88C123,315.41,121.82,316.67,120.62,316.67Zm-.82-3.21h0a9.75,9.75,0,0,0-.14,1.58,1,1,0,0,0,1,1.13c1,0,1.92-1.1,1.92-3.56,0-.91-.4-1.37-1.19-1.37a1.87,1.87,0,0,0-1.27.56Z"/><path class="cls-1" d="M153.61,313.84c.27,0,.46.17.4.54a4.27,4.27,0,0,1-3.67,3.08,2.4,2.4,0,0,1-2.52-2.6,19.14,19.14,0,0,1,.31-2.37l.4-2.29c.17-1,0-1.31-.5-1.31-1.06,0-2.67,3-3.31,6.6a3.56,3.56,0,0,0,0,1.79,2.29,2.29,0,0,1-1.08.19c-1.6,0-1.79-.6-1.54-2.06l.92-5.21c.17-.9,0-1.31-.48-1.31-1,0-2.65,2.75-3.33,6.6a3.56,3.56,0,0,0,0,1.79,2.28,2.28,0,0,1-1.08.19c-1.6,0-1.79-.6-1.54-2.06l1.1-6.37a3.56,3.56,0,0,0,0-1.79,2.28,2.28,0,0,1,1.08-.19c1.6,0,1.79.6,1.54,2.06l-.08.5c.69-1.15,1.92-2.56,3.35-2.56a2,2,0,0,1,2.17,2.17c0,.15,0,.29,0,.46.67-1.19,1.94-2.63,3.42-2.63a2,2,0,0,1,2.15,2.15,11.2,11.2,0,0,1-.19,1.69l-.5,2.94c-.21,1.23.1,1.83.85,1.83A2.72,2.72,0,0,0,153.61,313.84Z"/><path d="M150.34,317.71a2.64,2.64,0,0,1-2.77-2.85,19.31,19.31,0,0,1,.32-2.42l.4-2.29c.11-.65,0-.87,0-.95s-.06-.07-.21-.07c-.76,0-2.37,2.55-3.07,6.4a3.57,3.57,0,0,0,0,1.65l.08.2-.18.11a2.49,2.49,0,0,1-1.21.22,2,2,0,0,1-1.6-.49,2.27,2.27,0,0,1-.19-1.86l.92-5.21c.12-.65,0-.87,0-.95s-.06-.07-.21-.07c-.79,0-2.39,2.49-3.09,6.4a3.57,3.57,0,0,0,0,1.65l.08.2-.18.11a2.47,2.47,0,0,1-1.21.22,2,2,0,0,1-1.6-.49,2.27,2.27,0,0,1-.19-1.86l1.1-6.38a3.59,3.59,0,0,0,0-1.65l-.08-.2.18-.11a2.47,2.47,0,0,1,1.21-.22,2,2,0,0,1,1.6.49,1.69,1.69,0,0,1,.27,1.29,4.05,4.05,0,0,1,2.95-1.78,2.24,2.24,0,0,1,2.39,2,4.26,4.26,0,0,1,3.17-2,2.27,2.27,0,0,1,2.4,2.4,11.7,11.7,0,0,1-.19,1.73l-.5,2.94c-.14.83,0,1.2.13,1.36a.59.59,0,0,0,.48.18c.72,0,1.46-.62,2-1.67l.07-.14h.16a.65.65,0,0,1,.51.21.73.73,0,0,1,.13.62A4.53,4.53,0,0,1,150.34,317.71ZM148,308.63a.74.74,0,0,1,.6.25,1.67,1.67,0,0,1,.15,1.36l-.4,2.29a19.56,19.56,0,0,0-.31,2.33,2.15,2.15,0,0,0,2.27,2.35,4,4,0,0,0,3.42-2.88.31.31,0,0,0,0-.21,2.85,2.85,0,0,1-2.32,1.77,1.07,1.07,0,0,1-.86-.36,2.14,2.14,0,0,1-.24-1.76l.5-2.94a11.22,11.22,0,0,0,.18-1.65,1.76,1.76,0,0,0-1.9-1.9c-1.32,0-2.52,1.29-3.2,2.5l-.47.83v-1c0-.09,0-.18,0-.26s0-.13,0-.2a1.76,1.76,0,0,0-1.92-1.92c-1.56,0-2.8,1.87-3.14,2.44l-.68,1.13.3-1.8c.14-.8.11-1.23-.08-1.46s-.57-.32-1.22-.32a2.9,2.9,0,0,0-.79.09,5,5,0,0,1-.07,1.68l-1.1,6.38c-.14.8-.11,1.22.08,1.45s.57.32,1.22.32a2.9,2.9,0,0,0,.79-.09,5,5,0,0,1,.07-1.68c.66-3.69,2.3-6.81,3.58-6.81a.73.73,0,0,1,.59.25,1.65,1.65,0,0,1,.13,1.36l-.92,5.21c-.14.8-.11,1.22.08,1.45s.57.32,1.22.32a2.9,2.9,0,0,0,.79-.09,5,5,0,0,1,.07-1.68C145.07,312.15,146.64,308.63,148,308.63Z"/><path class="cls-1" d="M162.14,313.81c-.23,1.25.15,1.83.9,1.83a2.89,2.89,0,0,0,2.19-1.81c.27,0,.46.17.4.54a4.23,4.23,0,0,1-3.73,3.08,2.32,2.32,0,0,1-2.44-2.35c-.85,1.54-2,2.35-3.19,2.35-1.71,0-3.06-1.15-3.06-3.58,0-4.65,2.71-6.83,5.15-6.83a2.73,2.73,0,0,1,2.25,1c.33-.75.85-1,1.88-1a2.1,2.1,0,0,1,1,.21,4.12,4.12,0,0,0-.48,1.5Zm-2.06-3.38.19-1a1.51,1.51,0,0,0-1.37-1c-1.42,0-3,2.1-3,5.46,0,1.17.46,1.73,1.23,1.73C158.57,315.65,159.68,312.52,160.07,310.44Z"/><path d="M161.89,317.71a2.5,2.5,0,0,1-2.57-1.9,3.78,3.78,0,0,1-3,1.9c-1.6,0-3.31-1-3.31-3.83,0-4.65,2.71-7.08,5.4-7.08a3,3,0,0,1,2.2.84,2,2,0,0,1,1.93-.84,2.31,2.31,0,0,1,1.17.25l.23.14-.16.22a4.15,4.15,0,0,0-.44,1.4l-.9,5.06a1.7,1.7,0,0,0,.13,1.33.64.64,0,0,0,.52.21,2.67,2.67,0,0,0,2-1.67l.07-.14h.16a.65.65,0,0,1,.51.21.73.73,0,0,1,.13.62A4.49,4.49,0,0,1,161.89,317.71Zm-2.25-3.46.06.84a2.07,2.07,0,0,0,2.19,2.12,4,4,0,0,0,3.48-2.88.29.29,0,0,0,0-.2A3,3,0,0,1,163,315.9a1.13,1.13,0,0,1-.91-.38,2.1,2.1,0,0,1-.24-1.74l.9-5.06a6.05,6.05,0,0,1,.38-1.33,2.53,2.53,0,0,0-.69-.09c-.93,0-1.36.23-1.65.87l-.17.38-.26-.32a2.48,2.48,0,0,0-2.05-.93c-2.43,0-4.9,2.26-4.9,6.58,0,2.09,1.05,3.33,2.81,3.33,1.12,0,2.17-.79,3-2.23Zm-2.54,1.65c-.44,0-1.48-.19-1.48-2,0-3.53,1.7-5.71,3.27-5.71a1.74,1.74,0,0,1,1.6,1.15l0,.07-.2,1.06C159.94,312.5,158.83,315.9,157.09,315.9Zm1.79-7.19c-1.16,0-2.77,1.81-2.77,5.21,0,1,.33,1.48,1,1.48,1.16,0,2.27-2.58,2.73-5l.17-.9A1.21,1.21,0,0,0,158.89,308.71Z"/><path class="cls-1" d="M168.16,312H169c.58,0,1-.69,1.25-1.19l.81-1.67c.83-1.69,1.5-2.1,2.4-2.1a1.29,1.29,0,0,1,1.35,1.42,1.89,1.89,0,0,1-.73,1.44,1,1,0,0,0-1-.75c-.63,0-1.08.46-1.46,1.25l-.35.75a2.34,2.34,0,0,1-.73.94,1.91,1.91,0,0,1,1.42,1.35l.23.73c.29,1,.71,1.48,1.56,1.48a2.88,2.88,0,0,0,2.23-1.81c.27,0,.46.17.4.54a4.28,4.28,0,0,1-3.73,3.08,2.93,2.93,0,0,1-2.9-2.44l-.33-1.1c-.17-.58-.44-.9-1-.9H168l-.42,2.46a3.56,3.56,0,0,0,0,1.79,2.28,2.28,0,0,1-1.08.19c-1.6,0-1.79-.6-1.54-2.06L166,309a3.56,3.56,0,0,0,0-1.79,2.28,2.28,0,0,1,1.08-.19c1.6,0,1.79.6,1.54,2.06Z"/><path d="M172.64,317.71a3.19,3.19,0,0,1-3.13-2.62l-.33-1.1c-.17-.6-.42-.72-.76-.72h-.23l-.38,2.25a3.57,3.57,0,0,0,0,1.66l.08.2-.18.11a2.47,2.47,0,0,1-1.21.22,2,2,0,0,1-1.6-.49,2.27,2.27,0,0,1-.19-1.86l1.1-6.38a3.59,3.59,0,0,0,0-1.65l-.08-.2.18-.11a2.47,2.47,0,0,1,1.21-.22,2,2,0,0,1,1.6.49,2.26,2.26,0,0,1,.19,1.86l-.45,2.6H169c.33,0,.68-.35,1-1l.81-1.66c.81-1.64,1.52-2.25,2.62-2.25a1.53,1.53,0,0,1,1.6,1.67,2.13,2.13,0,0,1-.83,1.64l-.3.21-.09-.36a.76.76,0,0,0-.76-.56c-.3,0-.76.11-1.23,1.11l-.35.75a2.71,2.71,0,0,1-.47.73,2.18,2.18,0,0,1,1.17,1.37l.23.74c.29,1,.65,1.3,1.32,1.3.83,0,1.62-.87,2-1.67l.07-.14H176a.65.65,0,0,1,.51.21.73.73,0,0,1,.13.62A4.55,4.55,0,0,1,172.64,317.71Zm-4.88-4.94h.65a1.25,1.25,0,0,1,1.24,1.08L170,315a2.7,2.7,0,0,0,2.66,2.26,4,4,0,0,0,3.48-2.87.3.3,0,0,0,0-.21,3,3,0,0,1-2.36,1.77c-1.14,0-1.55-.84-1.8-1.66l-.23-.73a1.66,1.66,0,0,0-1.24-1.19l-.52-.13.43-.32A2.06,2.06,0,0,0,171,311l.36-.76c.44-.94,1-1.39,1.68-1.39a1.25,1.25,0,0,1,1.08.58,1.55,1.55,0,0,0,.4-1,1,1,0,0,0-1.1-1.17c-.76,0-1.36.32-2.17,2l-.81,1.67c-.17.33-.66,1.33-1.47,1.33h-1.13l.55-3.19c.14-.8.11-1.22-.08-1.45s-.57-.32-1.22-.32a2.9,2.9,0,0,0-.79.09,5,5,0,0,1-.07,1.68l-1.1,6.38c-.14.8-.11,1.22.08,1.45s.57.32,1.22.32a2.9,2.9,0,0,0,.79-.09,5,5,0,0,1,.07-1.68Z"/><path class="cls-1" d="M184.49,313.81c-.23,1.25.15,1.83.9,1.83a2.89,2.89,0,0,0,2.19-1.81c.27,0,.46.17.4.54a4.23,4.23,0,0,1-3.73,3.08,2.32,2.32,0,0,1-2.44-2.35c-.85,1.54-2,2.35-3.19,2.35-1.71,0-3.06-1.15-3.06-3.58,0-4.65,2.71-6.83,5.15-6.83a2.73,2.73,0,0,1,2.25,1c.33-.75.85-1,1.88-1a2.1,2.1,0,0,1,1,.21,4.12,4.12,0,0,0-.48,1.5Zm-2.06-3.38.19-1a1.51,1.51,0,0,0-1.37-1c-1.42,0-3,2.1-3,5.46,0,1.17.46,1.73,1.23,1.73C180.93,315.65,182,312.52,182.43,310.44Z"/><path d="M184.24,317.71a2.5,2.5,0,0,1-2.57-1.9,3.78,3.78,0,0,1-3.05,1.9c-1.6,0-3.31-1-3.31-3.83,0-4.65,2.71-7.08,5.4-7.08a3,3,0,0,1,2.2.84,2,2,0,0,1,1.93-.84A2.3,2.3,0,0,1,186,307l.23.14-.16.22a4.15,4.15,0,0,0-.44,1.4l-.9,5.06a1.7,1.7,0,0,0,.13,1.33.63.63,0,0,0,.52.21,2.67,2.67,0,0,0,2-1.67l.07-.14h.16a.65.65,0,0,1,.51.21.73.73,0,0,1,.13.62A4.48,4.48,0,0,1,184.24,317.71ZM182,314.25l.06.84a2.07,2.07,0,0,0,2.19,2.12,4,4,0,0,0,3.48-2.88.3.3,0,0,0,0-.2,3,3,0,0,1-2.32,1.77,1.13,1.13,0,0,1-.91-.38,2.1,2.1,0,0,1-.24-1.74l.9-5.06a6.05,6.05,0,0,1,.38-1.33,2.52,2.52,0,0,0-.69-.09c-.93,0-1.36.23-1.65.87l-.17.38-.26-.32a2.48,2.48,0,0,0-2.05-.93c-2.43,0-4.9,2.26-4.9,6.58,0,2.09,1.05,3.33,2.81,3.33,1.12,0,2.17-.79,3-2.23Zm-2.54,1.65c-.44,0-1.48-.19-1.48-2,0-3.53,1.7-5.71,3.27-5.71a1.74,1.74,0,0,1,1.6,1.15l0,.07-.2,1.06C182.29,312.5,181.18,315.9,179.45,315.9Zm1.79-7.19c-1.16,0-2.77,1.81-2.77,5.21,0,1,.33,1.48,1,1.48,1.16,0,2.27-2.58,2.73-5l.17-.9A1.21,1.21,0,0,0,181.24,308.71Z"/><path class="cls-1" d="M196.68,309.44l-.73,4.27c-.25,1.5.08,1.94.63,1.94a.86.86,0,0,0,.79-.58c.29,0,.44.23.4.6a2.35,2.35,0,0,1-2.42,1.79,2.2,2.2,0,0,1-2.1-2.46,12.92,12.92,0,0,1,.08-1.48l-1.21,0-.52,1c-.92,1.85-1.71,2.85-3.06,2.85a1.88,1.88,0,0,1-2-2,1.74,1.74,0,0,1,1.67-1.94,1.3,1.3,0,0,1,.94.29,2.73,2.73,0,0,0-.33,1.17c0,.42.25.65.52.65s.81-.4,1.27-1.33l.38-.79c-2-.27-3-1.46-3-2.94,0-2,1.37-3.54,4.54-3.54a13.57,13.57,0,0,1,3.44.42C196.74,307.73,196.86,308.29,196.68,309.44Zm-3.19,3.08.54-3.17c.1-.65.17-1.1.17-1.1a4,4,0,0,0-1.19-.17,2.42,2.42,0,0,0-2.35,2.62,1.69,1.69,0,0,0,1.83,1.83C192.78,312.54,193.24,312.54,193.49,312.52Z"/><path d="M195.34,317.71A2.46,2.46,0,0,1,193,315c0-.41,0-.82.06-1.22l-.77,0-.45.91c-.91,1.85-1.78,3-3.29,3a2.12,2.12,0,0,1-2.25-2.23,2,2,0,0,1,1.92-2.19,1.52,1.52,0,0,1,1.12.37l.13.13-.09.16a2.49,2.49,0,0,0-.3,1c0,.27.14.4.27.4.31,0,.65-.39,1-1.19l.23-.49a3.15,3.15,0,0,1-2.86-3.13c0-2.41,1.75-3.79,4.79-3.79a13.76,13.76,0,0,1,3.52.43c1,.34,1.06,1.12.87,2.26h0l-.73,4.27c-.17,1,0,1.38.08,1.53a.35.35,0,0,0,.3.12.6.6,0,0,0,.55-.41l.06-.17h.18a.62.62,0,0,1,.48.2.84.84,0,0,1,.17.68A2.6,2.6,0,0,1,195.34,317.71Zm-1.74-4.45,0,.29a12.76,12.76,0,0,0-.08,1.45,2,2,0,0,0,1.85,2.21,2.12,2.12,0,0,0,2.17-1.57.52.52,0,0,0,0-.26,1.07,1.07,0,0,1-.91.52.85.85,0,0,1-.68-.29,2.43,2.43,0,0,1-.19-1.94l.73-4.27c.2-1.21,0-1.52-.54-1.7a13.25,13.25,0,0,0-3.35-.4c-2.73,0-4.29,1.2-4.29,3.29,0,1.45,1,2.45,2.76,2.69l.34,0-.52,1.1c-.5,1-1,1.48-1.5,1.48a.81.81,0,0,1-.77-.9,2.77,2.77,0,0,1,.26-1.08,1.4,1.4,0,0,0-.62-.12,1.5,1.5,0,0,0-1.42,1.69,1.63,1.63,0,0,0,1.75,1.73c1.1,0,1.85-.71,2.84-2.71l.59-1.18Zm-1.11-.47a1.93,1.93,0,0,1-2.08-2.08,2.66,2.66,0,0,1,2.6-2.87,4.21,4.21,0,0,1,1.27.18l.19.07,0,.2s-.06.46-.17,1.11l-.57,3.36-.19,0C193.25,312.79,192.79,312.79,192.49,312.79Zm.52-4.46a2.18,2.18,0,0,0-2.1,2.38,1.44,1.44,0,0,0,1.58,1.58h.79l.51-3c.06-.37.11-.69.13-.88A4.06,4.06,0,0,0,193,308.34Z"/><path class="cls-1" d="M211.88,315.71a15.75,15.75,0,0,0,3.4-1.87.37.37,0,0,1,.4.48c0,.21-.27.44-.69.75a23,23,0,0,1-3.31,1.92l0,.25c-.81,4.83-2.75,7.52-5.83,7.52a2.14,2.14,0,0,1-2.33-2.19,4.41,4.41,0,0,1,1.75-3.23A17,17,0,0,1,209,317l.44-2.69a12.4,12.4,0,0,1-.85,1.4,3.59,3.59,0,0,1-2.94,1.77,2.21,2.21,0,0,1-2.27-2.42,14.06,14.06,0,0,1,.25-2.56l.6-3.46a3.56,3.56,0,0,0,0-1.79,2.28,2.28,0,0,1,1.08-.19c1.6,0,1.79.6,1.54,2.06l-.83,4.81c-.21,1.21.08,1.73.69,1.73s1-.56,1.54-1.4a15.64,15.64,0,0,0,2.06-5.23,3.26,3.26,0,0,0,0-1.79,2.28,2.28,0,0,1,1.08-.19c1.6,0,1.79.6,1.54,2.06Zm-3.08,2.58a12.51,12.51,0,0,0-2.94,1.92,3.25,3.25,0,0,0-1.23,2.23.87.87,0,0,0,1,.94C207.07,323.38,208.2,321.63,208.8,318.29Z"/><path d="M205.8,325a2.38,2.38,0,0,1-2.58-2.44,4.65,4.65,0,0,1,1.84-3.42,17,17,0,0,1,3.75-2.33l.21-1.26-.19.28a3.83,3.83,0,0,1-3.14,1.88,2.46,2.46,0,0,1-2.52-2.67,14.4,14.4,0,0,1,.25-2.6L204,309a3.59,3.59,0,0,0,0-1.65l-.08-.2.18-.11a2.47,2.47,0,0,1,1.21-.22,2,2,0,0,1,1.6.49,2.26,2.26,0,0,1,.19,1.86l-.83,4.81c-.15.86,0,1.18.1,1.3a.4.4,0,0,0,.34.14c.15,0,.58-.12,1.33-1.28a15.5,15.5,0,0,0,2-5.14,3.24,3.24,0,0,0,0-1.64l-.09-.2.19-.12a2.49,2.49,0,0,1,1.21-.22,2,2,0,0,1,1.6.49,2.26,2.26,0,0,1,.19,1.86l-1,6.15a14.07,14.07,0,0,0,2.91-1.66l.07-.06h.09a.67.67,0,0,1,.53.23.64.64,0,0,1,.11.55c-.06.3-.36.58-.78.9a22.31,22.31,0,0,1-3.24,1.88l0,.12C211,322.33,208.93,325,205.8,325ZM210,312.79l-.71,4.35-.12.06a16.93,16.93,0,0,0-3.76,2.32,4.16,4.16,0,0,0-1.66,3,1.89,1.89,0,0,0,2.08,1.94c2.89,0,4.77-2.46,5.59-7.31l.06-.38.11-.06a22.58,22.58,0,0,0,3.27-1.89c.37-.28.57-.48.59-.6a.17.17,0,0,0,0-.13l-.06,0a16.12,16.12,0,0,1-3.38,1.85l-.41.16,1.2-7c.14-.8.11-1.22-.08-1.45s-.57-.32-1.22-.32a3,3,0,0,0-.78.09,4.62,4.62,0,0,1-.08,1.69,16,16,0,0,1-2.1,5.32c-.66,1-1.23,1.51-1.75,1.51a.91.91,0,0,1-.73-.31,2.09,2.09,0,0,1-.21-1.71l.83-4.81c.14-.8.11-1.22-.08-1.45s-.57-.32-1.22-.32a2.9,2.9,0,0,0-.79.09,5,5,0,0,1-.07,1.68l-.6,3.46a13.9,13.9,0,0,0-.25,2.52,2,2,0,0,0,2,2.17,3.33,3.33,0,0,0,2.74-1.67,12.25,12.25,0,0,0,.83-1.36Zm-4.37,10.83a1.12,1.12,0,0,1-1.21-1.19,3.46,3.46,0,0,1,1.3-2.41,12.62,12.62,0,0,1,3-2l.45-.23-.09.5C208.26,322.71,206.73,323.63,205.59,323.63Zm2.86-4.87a11.06,11.06,0,0,0-2.42,1.63,3,3,0,0,0-1.15,2,.62.62,0,0,0,.71.69C206.86,323.13,207.87,321.58,208.46,318.76Z"/><path class="cls-1" d="M220.32,307a1.45,1.45,0,0,1,1.6,1.65l.12,5.94,2.4-5.12a9.23,9.23,0,0,0,.83-2.27,2.29,2.29,0,0,1,1.08-.19c1.6,0,1.79.6,1.54,2.06l-.81,4.71c-.21,1.25.15,1.83.9,1.83a2.89,2.89,0,0,0,2.19-1.81c.27,0,.46.17.4.54a4.23,4.23,0,0,1-3.73,3.08,2.35,2.35,0,0,1-2.44-2.6,14.19,14.19,0,0,1,.19-2l.33-2-2.1,4.56a10.39,10.39,0,0,0-.62,1.69,1.87,1.87,0,0,1-1.15.31c-1,0-1.56-.67-1.6-2l-.13-4.71-1.15,3.9c-.56,1.94-1.46,2.83-2.81,2.83a1.91,1.91,0,0,1-2-2,1.73,1.73,0,0,1,1.62-1.9,1.48,1.48,0,0,1,1,.29,2.51,2.51,0,0,0-.33,1.17c0,.42.25.65.52.65s.71-.38,1-1.42l1.17-4.08a8.55,8.55,0,0,0,.52-2.92A6.87,6.87,0,0,1,220.32,307Z"/><path d="M226.84,317.71a2.6,2.6,0,0,1-2.69-2.85,14.43,14.43,0,0,1,.19-2l0-.13L223,315.56a10.36,10.36,0,0,0-.61,1.64l0,.08-.07.05a2.12,2.12,0,0,1-1.3.36c-1.13,0-1.81-.83-1.85-2.26l-.08-3.12-.7,2.37c-.6,2.06-1.57,3-3.05,3a2.17,2.17,0,0,1-2.21-2.27,2,2,0,0,1,1.88-2.15,1.7,1.7,0,0,1,1.15.36l.15.14-.11.17a2.27,2.27,0,0,0-.3,1c0,.27.14.4.27.4.34,0,.61-.67.78-1.24l1.17-4.08a8.75,8.75,0,0,0,.51-2.82l0-.22.21-.06a7,7,0,0,1,1.48-.2,1.69,1.69,0,0,1,1.85,1.89l.1,4.86,1.94-4.15a9.27,9.27,0,0,0,.81-2.2l0-.12.1-.06a2.49,2.49,0,0,1,1.21-.22,2,2,0,0,1,1.6.49,2.26,2.26,0,0,1,.19,1.86l-.81,4.71a1.74,1.74,0,0,0,.14,1.34.62.62,0,0,0,.51.2,2.67,2.67,0,0,0,2-1.67l.07-.14h.16a.65.65,0,0,1,.51.22.72.72,0,0,1,.13.62A4.48,4.48,0,0,1,226.84,317.71Zm-1.36-8.62-.64,3.83a13.89,13.89,0,0,0-.18,1.94,2.09,2.09,0,0,0,2.19,2.35,4,4,0,0,0,3.48-2.88.3.3,0,0,0,0-.2A3,3,0,0,1,228,315.9a1.11,1.11,0,0,1-.89-.37,2.14,2.14,0,0,1-.25-1.75l.81-4.71c.14-.8.11-1.22-.08-1.45s-.57-.32-1.22-.32a2.68,2.68,0,0,0-.86.12,11.06,11.06,0,0,1-.83,2.2l-2.85,6.1-.15-7c0-1-.45-1.4-1.35-1.4a6.15,6.15,0,0,0-1.16.14,11.36,11.36,0,0,1-.54,2.79l-1.17,4.08c-.22.75-.57,1.6-1.26,1.6a.81.81,0,0,1-.77-.9,2.65,2.65,0,0,1,.26-1.08,1.53,1.53,0,0,0-.65-.13,1.48,1.48,0,0,0-1.37,1.65,1.66,1.66,0,0,0,1.71,1.77c1.23,0,2-.84,2.57-2.65l1.59-5.42.17,6.29c0,.81.28,1.78,1.35,1.78A1.75,1.75,0,0,0,222,317a11.36,11.36,0,0,1,.62-1.64Z"/><path class="cls-1" d="M241.88,313.84c.27,0,.46.17.4.54a4.23,4.23,0,0,1-3.73,3.08,2.35,2.35,0,0,1-2.44-2.6,12.53,12.53,0,0,1,.19-2h-3.35l-.44,2.6a3.56,3.56,0,0,0,0,1.79,2.28,2.28,0,0,1-1.08.19c-1.6,0-1.79-.6-1.54-2.06L231,309a3.56,3.56,0,0,0,0-1.79,2.28,2.28,0,0,1,1.08-.19c1.6,0,1.79.6,1.54,2.06l-.48,2.73h3.33L237,309a3.56,3.56,0,0,0,0-1.79,2.28,2.28,0,0,1,1.08-.19c1.6,0,1.79.6,1.54,2.06l-.81,4.71c-.21,1.23.15,1.83.9,1.83A2.89,2.89,0,0,0,241.88,313.84Z"/><path d="M238.55,317.71a2.6,2.6,0,0,1-2.69-2.85,12.05,12.05,0,0,1,.15-1.73h-2.85l-.4,2.39a3.58,3.58,0,0,0,0,1.66l.08.2-.18.11a2.49,2.49,0,0,1-1.21.22,2,2,0,0,1-1.6-.49,2.27,2.27,0,0,1-.19-1.86l1.1-6.38a3.57,3.57,0,0,0,0-1.65l-.08-.2.18-.11a2.49,2.49,0,0,1,1.21-.22,2,2,0,0,1,1.6.49,2.26,2.26,0,0,1,.19,1.86l-.43,2.44h2.83l.46-2.61a3.59,3.59,0,0,0,0-1.65l-.08-.2.18-.11a2.47,2.47,0,0,1,1.21-.22,2,2,0,0,1,1.6.49,2.26,2.26,0,0,1,.19,1.86l-.81,4.71a1.73,1.73,0,0,0,.14,1.34.62.62,0,0,0,.51.2,2.67,2.67,0,0,0,2-1.67l.07-.14h.16a.65.65,0,0,1,.51.21.73.73,0,0,1,.13.62A4.48,4.48,0,0,1,238.55,317.71Zm-5.82-5.08h3.86l0,.29a12.25,12.25,0,0,0-.18,1.94,2.09,2.09,0,0,0,2.19,2.35,4,4,0,0,0,3.48-2.88.3.3,0,0,0,0-.2,3,3,0,0,1-2.32,1.77,1.11,1.11,0,0,1-.89-.38,2.13,2.13,0,0,1-.25-1.75l.81-4.71c.14-.8.11-1.22-.08-1.45s-.57-.32-1.22-.32a2.9,2.9,0,0,0-.79.09,5,5,0,0,1-.07,1.68l-.54,3h-3.84l.53-3c.14-.8.11-1.22-.08-1.45s-.57-.32-1.22-.32a2.9,2.9,0,0,0-.79.09,5,5,0,0,1-.07,1.68l-1.1,6.38c-.14.8-.11,1.22.08,1.45s.57.32,1.22.32a2.9,2.9,0,0,0,.79-.09,5,5,0,0,1,.07-1.68Z"/><path class="cls-1" d="M250.41,313.81c-.23,1.25.15,1.83.9,1.83a2.89,2.89,0,0,0,2.19-1.81c.27,0,.46.17.4.54a4.23,4.23,0,0,1-3.73,3.08,2.32,2.32,0,0,1-2.44-2.35c-.85,1.54-2,2.35-3.19,2.35-1.71,0-3.06-1.15-3.06-3.58,0-4.65,2.71-6.83,5.15-6.83a2.73,2.73,0,0,1,2.25,1c.33-.75.85-1,1.88-1a2.1,2.1,0,0,1,1,.21,4.12,4.12,0,0,0-.48,1.5Zm-2.06-3.38.19-1a1.51,1.51,0,0,0-1.37-1c-1.42,0-3,2.1-3,5.46,0,1.17.46,1.73,1.23,1.73C246.84,315.65,247.95,312.52,248.34,310.44Z"/><path d="M250.16,317.71a2.5,2.5,0,0,1-2.57-1.9,3.78,3.78,0,0,1-3.05,1.9c-1.6,0-3.31-1-3.31-3.83,0-4.65,2.71-7.08,5.4-7.08a3,3,0,0,1,2.2.84,2,2,0,0,1,1.93-.84,2.3,2.3,0,0,1,1.17.25l.23.14-.16.22a4.15,4.15,0,0,0-.44,1.4l-.9,5.06a1.7,1.7,0,0,0,.13,1.33.64.64,0,0,0,.52.21,2.67,2.67,0,0,0,2-1.67l.07-.14h.16a.65.65,0,0,1,.51.21.73.73,0,0,1,.13.62A4.48,4.48,0,0,1,250.16,317.71Zm-2.25-3.46.06.84a2.07,2.07,0,0,0,2.19,2.12,4,4,0,0,0,3.48-2.88.3.3,0,0,0,0-.2,3,3,0,0,1-2.32,1.77,1.13,1.13,0,0,1-.91-.38,2.11,2.11,0,0,1-.24-1.74l.9-5.06a6.05,6.05,0,0,1,.38-1.33,2.52,2.52,0,0,0-.69-.09c-.93,0-1.36.23-1.65.87l-.17.38-.26-.32a2.48,2.48,0,0,0-2.05-.93c-2.43,0-4.9,2.26-4.9,6.58,0,2.09,1.05,3.33,2.81,3.33,1.12,0,2.17-.79,3-2.23Zm-2.54,1.65c-.44,0-1.48-.19-1.48-2,0-3.53,1.7-5.71,3.27-5.71a1.74,1.74,0,0,1,1.6,1.15l0,.07-.2,1.06C248.21,312.5,247.1,315.9,245.36,315.9Zm1.79-7.19c-1.16,0-2.77,1.81-2.77,5.21,0,1,.33,1.48,1,1.48,1.16,0,2.27-2.58,2.73-5l.17-.9A1.21,1.21,0,0,0,247.16,308.71Z"/><path class="cls-1" d="M262.59,309.44l-.73,4.27c-.25,1.5.08,1.94.63,1.94a.86.86,0,0,0,.79-.58c.29,0,.44.23.4.6a2.35,2.35,0,0,1-2.42,1.79,2.2,2.2,0,0,1-2.1-2.46,12.92,12.92,0,0,1,.08-1.48l-1.21,0-.52,1c-.92,1.85-1.71,2.85-3.06,2.85a1.88,1.88,0,0,1-2-2,1.74,1.74,0,0,1,1.67-1.94,1.3,1.3,0,0,1,.94.29,2.73,2.73,0,0,0-.33,1.17c0,.42.25.65.52.65s.81-.4,1.27-1.33l.38-.79c-2-.27-3-1.46-3-2.94,0-2,1.37-3.54,4.54-3.54a13.57,13.57,0,0,1,3.44.42C262.66,307.73,262.78,308.29,262.59,309.44Zm-3.19,3.08.54-3.17c.1-.65.17-1.1.17-1.1a4,4,0,0,0-1.19-.17,2.42,2.42,0,0,0-2.35,2.62,1.69,1.69,0,0,0,1.83,1.83C258.7,312.54,259.16,312.54,259.41,312.52Z"/><path d="M261.26,317.71a2.46,2.46,0,0,1-2.35-2.71c0-.41,0-.82.05-1.22l-.77,0-.45.91c-.91,1.85-1.78,3-3.29,3a2.12,2.12,0,0,1-2.25-2.23,2,2,0,0,1,1.92-2.19,1.52,1.52,0,0,1,1.12.37l.12.13-.09.16a2.49,2.49,0,0,0-.3,1c0,.27.14.4.27.4.31,0,.65-.39,1-1.19l.23-.49a3.15,3.15,0,0,1-2.86-3.13c0-2.41,1.75-3.79,4.79-3.79a13.76,13.76,0,0,1,3.52.43c1,.34,1.06,1.12.87,2.26h0l-.73,4.27c-.17,1,0,1.38.08,1.53a.35.35,0,0,0,.3.12A.61.61,0,0,0,263,315l.06-.17h.18a.62.62,0,0,1,.48.2.84.84,0,0,1,.17.68A2.59,2.59,0,0,1,261.26,317.71Zm-1.74-4.45,0,.29a12.69,12.69,0,0,0-.08,1.45,2,2,0,0,0,1.85,2.21,2.11,2.11,0,0,0,2.17-1.57.52.52,0,0,0,0-.27,1.07,1.07,0,0,1-.91.52.85.85,0,0,1-.68-.29,2.43,2.43,0,0,1-.19-1.94l.73-4.27c.2-1.21,0-1.52-.54-1.7a13.25,13.25,0,0,0-3.35-.4c-2.73,0-4.29,1.2-4.29,3.29,0,1.45,1,2.45,2.76,2.69l.34,0-.52,1.1c-.5,1-1,1.48-1.5,1.48a.81.81,0,0,1-.77-.9,2.78,2.78,0,0,1,.26-1.08,1.4,1.4,0,0,0-.62-.12,1.5,1.5,0,0,0-1.42,1.69,1.63,1.63,0,0,0,1.75,1.73c1.1,0,1.85-.71,2.84-2.71l.59-1.18Zm-1.11-.47a1.93,1.93,0,0,1-2.08-2.08,2.66,2.66,0,0,1,2.6-2.87,4.21,4.21,0,0,1,1.27.18l.19.07,0,.2s-.06.46-.17,1.11l-.57,3.36-.19,0C259.17,312.79,258.71,312.79,258.41,312.79Zm.52-4.46a2.18,2.18,0,0,0-2.1,2.38,1.44,1.44,0,0,0,1.58,1.58h.79l.51-3c.06-.37.11-.69.13-.88A4.06,4.06,0,0,0,258.93,308.34Z"/><path class="cls-1" d="M267,314.92a1.33,1.33,0,0,1,1.35,1.46c0,1.44-1.33,3.29-2.27,3.29a.46.46,0,0,1-.52-.44,2.89,2.89,0,0,0,.85-1.6,1.18,1.18,0,0,1-.87-1.21A1.47,1.47,0,0,1,267,314.92Z"/><path d="M266.11,319.92a.72.72,0,0,1-.77-.69v-.11l.08-.08a2.58,2.58,0,0,0,.73-1.26,1.44,1.44,0,0,1-.83-1.37,1.73,1.73,0,0,1,1.71-1.75,1.59,1.59,0,0,1,1.6,1.71C268.63,317.93,267.22,319.92,266.11,319.92Zm-.25-.6a.27.27,0,0,0,.25.1c.77,0,2-1.7,2-3a1.09,1.09,0,0,0-1.1-1.21,1.22,1.22,0,0,0-1.21,1.25.93.93,0,0,0,.69,1l.22.06,0,.23A3.17,3.17,0,0,1,265.87,319.31Z"/><path class="cls-1" d="M133.21,337H134c.58,0,1-.69,1.25-1.19l.81-1.67c.83-1.69,1.5-2.1,2.4-2.1a1.29,1.29,0,0,1,1.35,1.42,1.89,1.89,0,0,1-.73,1.44,1,1,0,0,0-1-.75c-.63,0-1.08.46-1.46,1.25l-.35.75a2.34,2.34,0,0,1-.73.94,1.91,1.91,0,0,1,1.42,1.35l.23.73c.29,1,.71,1.48,1.56,1.48a2.88,2.88,0,0,0,2.23-1.81c.27,0,.46.17.4.54a4.28,4.28,0,0,1-3.73,3.08,2.93,2.93,0,0,1-2.9-2.44l-.33-1.1c-.17-.58-.44-.9-1-.9H133l-.42,2.46a3.56,3.56,0,0,0,0,1.79,2.28,2.28,0,0,1-1.08.19c-1.6,0-1.79-.6-1.54-2.06l1.1-6.37a3.56,3.56,0,0,0,0-1.79,2.28,2.28,0,0,1,1.08-.19c1.6,0,1.79.6,1.54,2.06Z"/><path d="M137.69,342.71a3.19,3.19,0,0,1-3.13-2.62l-.33-1.1c-.17-.6-.41-.72-.76-.72h-.23l-.38,2.25a3.57,3.57,0,0,0,0,1.66l.08.2-.18.11a2.49,2.49,0,0,1-1.21.22,2,2,0,0,1-1.6-.49,2.27,2.27,0,0,1-.19-1.86l1.1-6.38a3.57,3.57,0,0,0,0-1.65l-.08-.2L131,332a2.49,2.49,0,0,1,1.21-.22,2,2,0,0,1,1.6.49,2.26,2.26,0,0,1,.19,1.86l-.45,2.6H134c.33,0,.68-.35,1-1l.81-1.66c.81-1.64,1.52-2.25,2.62-2.25a1.53,1.53,0,0,1,1.6,1.67,2.13,2.13,0,0,1-.83,1.64l-.3.21-.09-.36a.76.76,0,0,0-.76-.56c-.48,0-.87.35-1.23,1.11l-.35.75a2.7,2.7,0,0,1-.47.73,2.18,2.18,0,0,1,1.17,1.37l.23.74c.29,1,.65,1.3,1.32,1.3.83,0,1.62-.87,2-1.67l.07-.14H141a.65.65,0,0,1,.51.21.73.73,0,0,1,.13.62A4.55,4.55,0,0,1,137.69,342.71Zm-4.88-4.94h.65a1.25,1.25,0,0,1,1.24,1.08L135,340a2.7,2.7,0,0,0,2.66,2.26,4,4,0,0,0,3.48-2.87.3.3,0,0,0,0-.21,3,3,0,0,1-2.36,1.77c-1.14,0-1.55-.84-1.8-1.66l-.23-.73a1.66,1.66,0,0,0-1.24-1.19l-.52-.13.43-.32a2.06,2.06,0,0,0,.65-.84l.36-.76c.44-.94,1-1.39,1.68-1.39a1.25,1.25,0,0,1,1.08.58,1.55,1.55,0,0,0,.4-1,1,1,0,0,0-1.1-1.17c-.76,0-1.36.32-2.17,2l-.81,1.67c-.17.33-.66,1.33-1.47,1.33h-1.13l.55-3.19c.14-.8.11-1.22-.08-1.45s-.57-.32-1.22-.32a2.9,2.9,0,0,0-.79.09,5,5,0,0,1-.07,1.68l-1.1,6.38c-.14.8-.11,1.22.08,1.45s.57.32,1.22.32a2.91,2.91,0,0,0,.79-.09,5,5,0,0,1,.07-1.68Z"/><path class="cls-1" d="M150.21,336a8.57,8.57,0,0,1-.06,1.06,4.34,4.34,0,0,0,1.83-2.52c.44,0,.67.31.48.9a4.26,4.26,0,0,1-2.52,2.69,5.44,5.44,0,0,1-5.5,4.31,3.64,3.64,0,0,1-3.83-4c0-3.77,2.21-6.44,5.77-6.44A3.63,3.63,0,0,1,150.21,336Zm-2.69-1.35c-.1-1-.58-1.6-1.35-1.6-1,0-2.13,1.06-2.71,4.17a15.2,15.2,0,0,0-.19,2.15c0,1.31.5,2,1.37,2,1.1,0,2-1.17,2.58-3.56a2.09,2.09,0,0,1-.77-1.77A1.34,1.34,0,0,1,147.52,334.67Z"/><path d="M144.44,342.71a3.9,3.9,0,0,1-4.08-4.23c0-4,2.42-6.69,6-6.69,2.52,0,4.08,1.62,4.08,4.23,0,.18,0,.37,0,.54a4.41,4.41,0,0,0,1.3-2.07l.06-.17H152a.78.78,0,0,1,.65.3,1,1,0,0,1,.06.93,4.55,4.55,0,0,1-2.55,2.8A5.67,5.67,0,0,1,144.44,342.71Zm1.94-10.42c-3.35,0-5.52,2.43-5.52,6.19a3.39,3.39,0,0,0,3.58,3.73,5.21,5.21,0,0,0,5.26-4.12l0-.13.13,0a4,4,0,0,0,2.37-2.53.58.58,0,0,0,0-.48.19.19,0,0,0-.08-.06,4.5,4.5,0,0,1-1.88,2.46l-.44.26.06-.5a8.29,8.29,0,0,0,.06-1A3.39,3.39,0,0,0,146.38,332.29Zm-1.73,9.37c-1,0-1.62-.83-1.62-2.29a15.39,15.39,0,0,1,.19-2.19c.68-3.61,2-4.37,3-4.37s1.49.67,1.6,1.83l0,.22-.22,0a1.1,1.1,0,0,0-.86,1.17,1.88,1.88,0,0,0,.67,1.57l.13.1,0,.16C146.74,341,145.53,341.67,144.65,341.67Zm1.52-8.35c-1.11,0-2,1.41-2.46,4a15.06,15.06,0,0,0-.18,2.1c0,.67.15,1.79,1.13,1.79s1.79-1.14,2.3-3.22a2.38,2.38,0,0,1-.74-1.87,1.6,1.6,0,0,1,1-1.6C147.15,333.91,146.88,333.31,146.17,333.31Z"/><path class="cls-1" d="M152.83,339.75a5.34,5.34,0,0,1,.46-1.94l1.37-3a2,2,0,0,0,.19-.71.57.57,0,0,0-.62-.62c-.58,0-1.31.67-1.79,2.08a.36.36,0,0,1-.15,0c-.29,0-.48-.21-.4-.67a3.46,3.46,0,0,1,3.27-2.85,2.08,2.08,0,0,1,2.35,2.08,4.82,4.82,0,0,1-.44,1.77l-1.27,2.71c-.54,1.17-.27,2,.73,2a2.91,2.91,0,0,0,2.46-1.81c.35,0,.46.23.4.56a4.53,4.53,0,0,1-3.9,3.06A2.45,2.45,0,0,1,152.83,339.75Z"/><path d="M155.5,342.71a2.7,2.7,0,0,1-2.92-3,5.56,5.56,0,0,1,.48-2l1.38-3a1.83,1.83,0,0,0,.17-.61c0-.26-.12-.37-.37-.37-.45,0-1.11.59-1.56,1.91l0,.1-.09,0a.6.6,0,0,1-.26,0,.64.64,0,0,1-.51-.22.87.87,0,0,1-.13-.74,3.73,3.73,0,0,1,3.52-3.06,2.32,2.32,0,0,1,2.6,2.33,5.09,5.09,0,0,1-.46,1.88L156,338.71a1.59,1.59,0,0,0-.14,1.41.71.71,0,0,0,.64.28,2.66,2.66,0,0,0,2.24-1.68l.07-.13H159a.64.64,0,0,1,.52.21.75.75,0,0,1,.12.64A4.8,4.8,0,0,1,155.5,342.71Zm-1.27-9.5a.82.82,0,0,1,.87.88,2.14,2.14,0,0,1-.21.81l-1.38,3a5.09,5.09,0,0,0-.44,1.83,2.21,2.21,0,0,0,2.42,2.46,4.29,4.29,0,0,0,3.65-2.86.33.33,0,0,0,0-.23h0a3,3,0,0,1-2.59,1.79,1.17,1.17,0,0,1-1.06-.51,2,2,0,0,1,.11-1.89l1.27-2.71a4.59,4.59,0,0,0,.41-1.66c0-1.13-.81-1.83-2.1-1.83a3.22,3.22,0,0,0-3,2.65c0,.23,0,.31,0,.33a.13.13,0,0,0,.09,0C152.73,334,153.48,333.21,154.23,333.21Z"/><path class="cls-1" d="M167.21,340.71a15.75,15.75,0,0,0,3.4-1.87.37.37,0,0,1,.4.48c0,.21-.27.44-.69.75A23,23,0,0,1,167,342l0,.25c-.81,4.83-2.75,7.52-5.83,7.52a2.14,2.14,0,0,1-2.33-2.19,4.41,4.41,0,0,1,1.75-3.23,16.09,16.09,0,0,1,3.81-2.35l.25-1.48a3.65,3.65,0,0,1-3,2c-1.71,0-3.06-1.15-3.06-3.58,0-4.65,2.71-6.83,5.15-6.83a2.73,2.73,0,0,1,2.25,1c.33-.75.85-1,1.88-1a2.1,2.1,0,0,1,1,.21,3.65,3.65,0,0,0-.48,1.5Zm-3.08,2.58a12.07,12.07,0,0,0-2.94,1.92,3.25,3.25,0,0,0-1.23,2.23.87.87,0,0,0,1,.94C162.38,348.38,163.5,346.63,164.13,343.29Zm1.33-7.85.19-1a1.51,1.51,0,0,0-1.37-1c-1.42,0-3,2.1-3,5.46,0,1.17.46,1.73,1.23,1.73C164,340.65,165.06,337.52,165.46,335.44Z"/><path d="M161.13,350a2.38,2.38,0,0,1-2.58-2.44,4.64,4.64,0,0,1,1.84-3.42,16.09,16.09,0,0,1,3.75-2.33l.06-.36a3.48,3.48,0,0,1-2.54,1.26c-1.6,0-3.31-1-3.31-3.83,0-4.65,2.71-7.08,5.4-7.08a3,3,0,0,1,2.2.84,2,2,0,0,1,1.93-.84A2.31,2.31,0,0,1,169,332l.24.15-.17.22a3.65,3.65,0,0,0-.43,1.39l-1.13,6.51a14.06,14.06,0,0,0,2.91-1.66l.07-.06h.09a.67.67,0,0,1,.52.23.65.65,0,0,1,.12.55c-.06.31-.36.58-.78.9a22.24,22.24,0,0,1-3.24,1.88l0,.12C166.36,347.33,164.25,350,161.13,350Zm3.93-10.66-.47,2.8-.12.06a16,16,0,0,0-3.76,2.32,4.16,4.16,0,0,0-1.67,3,1.89,1.89,0,0,0,2.08,1.94c2.89,0,4.77-2.46,5.59-7.31l.06-.38.12-.06a22.22,22.22,0,0,0,3.27-1.89c.37-.28.57-.48.59-.6a.17.17,0,0,0,0-.13l-.06,0a16.15,16.15,0,0,1-3.38,1.85l-.42.17,1.29-7.4a5.3,5.3,0,0,1,.37-1.33,2.51,2.51,0,0,0-.69-.09c-.93,0-1.36.23-1.65.87l-.17.38-.26-.32a2.48,2.48,0,0,0-2.05-.93c-2.43,0-4.9,2.26-4.9,6.58,0,2.09,1.05,3.33,2.81,3.33a3.39,3.39,0,0,0,2.75-1.84Zm-4.14,9.28a1.12,1.12,0,0,1-1.21-1.19A3.46,3.46,0,0,1,161,345a12.13,12.13,0,0,1,3-2l.45-.23-.09.5C163.55,347.71,162,348.63,160.92,348.63Zm2.86-4.87a10.33,10.33,0,0,0-2.41,1.63,3,3,0,0,0-1.16,2.05.62.62,0,0,0,.71.69C162.16,348.13,163.17,346.58,163.78,343.76Zm-1.3-2.86c-.44,0-1.48-.19-1.48-2,0-3.53,1.7-5.71,3.27-5.71a1.74,1.74,0,0,1,1.6,1.15l0,.07-.2,1.06C165.32,337.5,164.21,340.9,162.48,340.9Zm1.79-7.19c-1.16,0-2.77,1.81-2.77,5.21,0,1,.33,1.48,1,1.48,1.16,0,2.27-2.58,2.73-5l.17-.9A1.21,1.21,0,0,0,164.27,333.71Z"/><path class="cls-1" d="M179.15,338.71c-.27,1.48.08,1.94.62,1.94a.86.86,0,0,0,.79-.58c.29,0,.44.23.4.6a2.35,2.35,0,0,1-2.42,1.79,2.17,2.17,0,0,1-2.1-2.33c-.87,1.52-2,2.33-3.19,2.33-1.71,0-3.06-1.15-3.06-3.58,0-4.65,2.71-6.83,5.15-6.83a2.73,2.73,0,0,1,2.25,1c.33-.75.85-1,1.88-1a2.1,2.1,0,0,1,1,.21,4.12,4.12,0,0,0-.48,1.5Zm-2.08-3.27.19-1a1.51,1.51,0,0,0-1.37-1c-1.42,0-3,2.1-3,5.46,0,1.17.46,1.73,1.23,1.73C175.56,340.65,176.67,337.52,177.06,335.44Z"/><path d="M178.54,342.71a2.32,2.32,0,0,1-2.26-1.87,3.81,3.81,0,0,1-3,1.87c-1.6,0-3.31-1-3.31-3.83,0-4.65,2.71-7.08,5.4-7.08a3,3,0,0,1,2.2.84,2,2,0,0,1,1.93-.84,2.3,2.3,0,0,1,1.17.25l.23.14-.16.22a4.15,4.15,0,0,0-.44,1.4l-.87,5c-.19,1,0,1.39.07,1.52a.36.36,0,0,0,.31.12.6.6,0,0,0,.55-.41l.06-.17h.18a.62.62,0,0,1,.48.2.84.84,0,0,1,.17.68A2.59,2.59,0,0,1,178.54,342.71Zm-1.88-3.48,0,.89a1.93,1.93,0,0,0,1.85,2.09,2.11,2.11,0,0,0,2.17-1.57.52.52,0,0,0,0-.26,1.07,1.07,0,0,1-.92.52.87.87,0,0,1-.69-.3,2.4,2.4,0,0,1-.18-1.93l.88-5a6.08,6.08,0,0,1,.38-1.33,2.52,2.52,0,0,0-.69-.09c-.93,0-1.36.23-1.65.87l-.17.38-.26-.32a2.48,2.48,0,0,0-2.05-.93c-2.43,0-4.9,2.26-4.9,6.58,0,2.09,1.05,3.33,2.81,3.33,1.1,0,2.15-.78,3-2.21Zm-2.58,1.66c-.44,0-1.48-.19-1.48-2,0-3.53,1.7-5.71,3.27-5.71a1.74,1.74,0,0,1,1.6,1.15l0,.07-.2,1.06C176.93,337.5,175.82,340.9,174.08,340.9Zm1.79-7.19c-1.16,0-2.77,1.81-2.77,5.21,0,1,.33,1.48,1,1.48,1.16,0,2.27-2.58,2.73-5l.17-.9A1.21,1.21,0,0,0,175.88,333.71Z"/><path class="cls-1" d="M187.56,339.75a5.34,5.34,0,0,1,.46-1.94l1.37-3a2,2,0,0,0,.19-.71.57.57,0,0,0-.62-.62c-.58,0-1.31.67-1.79,2.08a.36.36,0,0,1-.15,0c-.29,0-.48-.21-.4-.67A3.46,3.46,0,0,1,189.9,332a2.08,2.08,0,0,1,2.35,2.08,4.82,4.82,0,0,1-.44,1.77l-1.27,2.71c-.54,1.17-.27,2,.73,2a2.91,2.91,0,0,0,2.46-1.81c.35,0,.46.23.4.56a4.53,4.53,0,0,1-3.9,3.06A2.45,2.45,0,0,1,187.56,339.75Z"/><path d="M190.23,342.71a2.7,2.7,0,0,1-2.92-3,5.55,5.55,0,0,1,.48-2l1.38-3a1.84,1.84,0,0,0,.17-.61c0-.26-.12-.37-.37-.37-.45,0-1.11.59-1.55,1.91l0,.1-.09,0a.58.58,0,0,1-.26,0,.64.64,0,0,1-.51-.22.87.87,0,0,1-.13-.74,3.73,3.73,0,0,1,3.52-3.06,2.32,2.32,0,0,1,2.6,2.33A5.09,5.09,0,0,1,192,336l-1.27,2.71a1.59,1.59,0,0,0-.14,1.4.7.7,0,0,0,.64.28,2.66,2.66,0,0,0,2.24-1.68l.07-.13h.15a.64.64,0,0,1,.52.21.75.75,0,0,1,.12.64A4.81,4.81,0,0,1,190.23,342.71Zm-1.27-9.5a.82.82,0,0,1,.88.88,2.15,2.15,0,0,1-.21.8l-1.38,3a5.09,5.09,0,0,0-.44,1.83,2.21,2.21,0,0,0,2.42,2.46,4.29,4.29,0,0,0,3.65-2.86.33.33,0,0,0,0-.23h0a3,3,0,0,1-2.59,1.79,1.17,1.17,0,0,1-1.06-.51,2,2,0,0,1,.11-1.89l1.27-2.71a4.57,4.57,0,0,0,.41-1.66c0-1.13-.81-1.83-2.1-1.83a3.22,3.22,0,0,0-3,2.65c0,.23,0,.31,0,.33a.13.13,0,0,0,.09,0C187.46,334,188.21,333.21,189,333.21Z"/><path class="cls-1" d="M203.65,339.9a4.34,4.34,0,0,1-1.56-.29,5.35,5.35,0,0,1-4.94,2.85,3.64,3.64,0,0,1-3.83-4c0-3.77,2.21-6.44,5.77-6.44a3.63,3.63,0,0,1,3.83,4,7.87,7.87,0,0,1-.44,2.67A3.41,3.41,0,0,0,204,339a2.75,2.75,0,0,0,.92-.17c.21.15.17.46-.06.69A1.75,1.75,0,0,1,203.65,339.9Zm-7.67-.52c0,1.31.5,2,1.37,2,1.08,0,2-1.1,2.54-3.42a3.24,3.24,0,0,1-.73-1.92,1.34,1.34,0,0,1,1.06-1.42c-.1-1-.58-1.6-1.35-1.6-1,0-2.13,1.06-2.71,4.17A15.2,15.2,0,0,0,196,339.38Z"/><path d="M197.15,342.71a3.9,3.9,0,0,1-4.08-4.23c0-4,2.42-6.69,6-6.69,2.52,0,4.08,1.62,4.08,4.23a8.25,8.25,0,0,1-.38,2.53,2.79,2.79,0,0,0,2,.09l.12,0,.11.07a.56.56,0,0,1,.24.42.84.84,0,0,1-.27.65,1.9,1.9,0,0,1-1.38.41,4.61,4.61,0,0,1-1.45-.23A5.58,5.58,0,0,1,197.15,342.71Zm1.94-10.42c-3.35,0-5.52,2.43-5.52,6.19a3.39,3.39,0,0,0,3.58,3.73,5.1,5.1,0,0,0,4.72-2.72l.1-.2.21.08a4.08,4.08,0,0,0,1.47.27,1.48,1.48,0,0,0,1-.26.41.41,0,0,0,.12-.21,3.36,3.36,0,0,1-2.43-.26l-.2-.1.08-.21a7.64,7.64,0,0,0,.42-2.58A3.39,3.39,0,0,0,199.08,332.29Zm-1.73,9.37c-1,0-1.62-.83-1.62-2.29a15.39,15.39,0,0,1,.19-2.19c.68-3.61,2-4.37,3-4.37s1.49.67,1.6,1.83l0,.22-.22,0a1.1,1.1,0,0,0-.86,1.17,3,3,0,0,0,.68,1.77l.07.09,0,.12C199.41,341,198.22,341.67,197.35,341.67Zm1.52-8.35c-1.11,0-2,1.41-2.46,4a15.06,15.06,0,0,0-.18,2.1c0,.67.15,1.79,1.13,1.79,1.22,0,1.91-1.67,2.27-3.11a3.41,3.41,0,0,1-.71-2,1.6,1.6,0,0,1,1-1.6C199.86,333.91,199.59,333.31,198.87,333.31Z"/><path class="cls-1" d="M211.08,334a8.32,8.32,0,0,0,.1-.92c-1.06.1-1.79.9-2.29,2.58l-1.1,3.83c-.54,1.9-1.42,2.94-2.85,2.94a1.91,1.91,0,0,1-2-2,1.72,1.72,0,0,1,1.62-1.87,1.48,1.48,0,0,1,1,.29,2.65,2.65,0,0,0-.33,1.08c0,.5.23.73.52.73s.73-.42,1-1.42l1.08-3.85A4,4,0,0,1,212,332c1.77,0,1.94.6,1.69,2.06l-.81,4.71c-.21,1.25.15,1.83.9,1.83a2.89,2.89,0,0,0,2.19-1.81c.27,0,.46.17.4.54a4.23,4.23,0,0,1-3.73,3.08,2.35,2.35,0,0,1-2.44-2.6,12.14,12.14,0,0,1,.19-2Z"/><path d="M212.67,342.71a2.6,2.6,0,0,1-2.69-2.85,12.33,12.33,0,0,1,.19-2l.67-3.85c0-.21.06-.41.08-.57-.81.21-1.36,1-1.78,2.35l-1.1,3.83c-.6,2.1-1.61,3.12-3.09,3.12a2.15,2.15,0,0,1-2.21-2.29,2,2,0,0,1,1.88-2.12,1.7,1.7,0,0,1,1.15.36l.14.13-.1.17a2.41,2.41,0,0,0-.3,1c0,.18,0,.48.27.48s.42,0,.76-1.23l1.08-3.86a4.28,4.28,0,0,1,4.43-3.52,2.17,2.17,0,0,1,1.75.52c.35.41.33,1,.19,1.84l-.81,4.71a1.74,1.74,0,0,0,.14,1.34.62.62,0,0,0,.51.2,2.67,2.67,0,0,0,2-1.67l.07-.14H216a.65.65,0,0,1,.51.21.73.73,0,0,1,.13.62A4.48,4.48,0,0,1,212.67,342.71Zm-1.34-8.64-.67,3.85a11.84,11.84,0,0,0-.18,1.94,2.09,2.09,0,0,0,2.19,2.35,4,4,0,0,0,3.48-2.88.3.3,0,0,0,0-.2,3,3,0,0,1-2.32,1.77,1.11,1.11,0,0,1-.89-.37,2.15,2.15,0,0,1-.25-1.75l.81-4.71c.12-.67.15-1.17-.08-1.43s-.63-.34-1.37-.34a3.79,3.79,0,0,0-3.95,3.15L207,339.3c-.2.74-.53,1.6-1.24,1.6-.36,0-.77-.26-.77-1a2.55,2.55,0,0,1,.26-1,1.53,1.53,0,0,0-.65-.13,1.48,1.48,0,0,0-1.37,1.62,1.66,1.66,0,0,0,1.71,1.79c1.25,0,2.08-.88,2.61-2.76l1.1-3.83c.52-1.77,1.32-2.65,2.51-2.76l.29,0v.29a8.47,8.47,0,0,1-.11.95Z"/><path class="cls-1" d="M224.52,338.81c-.23,1.25.15,1.83.9,1.83a2.89,2.89,0,0,0,2.19-1.81c.27,0,.46.17.4.54a4.23,4.23,0,0,1-3.73,3.08,2.32,2.32,0,0,1-2.44-2.35c-.85,1.54-2,2.35-3.19,2.35-1.71,0-3.06-1.15-3.06-3.58,0-4.65,2.71-6.83,5.15-6.83a2.73,2.73,0,0,1,2.25,1c.33-.75.85-1,1.88-1a2.1,2.1,0,0,1,1,.21,4.12,4.12,0,0,0-.48,1.5Zm-2.06-3.38.19-1a1.51,1.51,0,0,0-1.37-1c-1.42,0-3,2.1-3,5.46,0,1.17.46,1.73,1.23,1.73C221,340.65,222.06,337.52,222.46,335.44Z"/><path d="M224.27,342.71a2.5,2.5,0,0,1-2.57-1.9,3.78,3.78,0,0,1-3.05,1.9c-1.6,0-3.31-1-3.31-3.83,0-4.65,2.71-7.08,5.4-7.08a3,3,0,0,1,2.2.84,2,2,0,0,1,1.93-.84A2.31,2.31,0,0,1,226,332l.23.14-.16.22a4.15,4.15,0,0,0-.44,1.4l-.9,5.06a1.7,1.7,0,0,0,.13,1.33.64.64,0,0,0,.52.21,2.67,2.67,0,0,0,2-1.67l.07-.14h.16a.65.65,0,0,1,.51.21.73.73,0,0,1,.13.62A4.48,4.48,0,0,1,224.27,342.71ZM222,339.25l.06.84a2.07,2.07,0,0,0,2.19,2.12,4,4,0,0,0,3.48-2.88.3.3,0,0,0,0-.2,3,3,0,0,1-2.32,1.77,1.13,1.13,0,0,1-.91-.38,2.1,2.1,0,0,1-.24-1.74l.9-5.06a6.05,6.05,0,0,1,.38-1.33,2.53,2.53,0,0,0-.69-.09c-.93,0-1.36.23-1.65.87l-.17.38-.26-.32a2.48,2.48,0,0,0-2.05-.93c-2.43,0-4.9,2.26-4.9,6.58,0,2.09,1.05,3.33,2.81,3.33,1.12,0,2.17-.79,3-2.23Zm-2.54,1.65c-.44,0-1.48-.19-1.48-2,0-3.53,1.7-5.71,3.27-5.71a1.74,1.74,0,0,1,1.6,1.15l0,.07-.2,1.06C222.32,337.5,221.21,340.9,219.48,340.9Zm1.79-7.19c-1.16,0-2.77,1.81-2.77,5.21,0,1,.33,1.48,1,1.48,1.16,0,2.27-2.58,2.73-5l.17-.9A1.21,1.21,0,0,0,221.27,333.71Z"/><path class="cls-1" d="M236.71,334.44l-.73,4.27c-.25,1.5.08,1.94.62,1.94a.86.86,0,0,0,.79-.58c.29,0,.44.23.4.6a2.35,2.35,0,0,1-2.42,1.79,2.2,2.2,0,0,1-2.1-2.46,12.92,12.92,0,0,1,.08-1.48l-1.21,0-.52,1c-.92,1.85-1.71,2.85-3.06,2.85a1.88,1.88,0,0,1-2-2,1.74,1.74,0,0,1,1.67-1.94,1.3,1.3,0,0,1,.94.29,2.73,2.73,0,0,0-.33,1.17c0,.42.25.65.52.65s.81-.4,1.27-1.33l.38-.79c-2-.27-3-1.46-3-2.94,0-2,1.37-3.54,4.54-3.54a13.58,13.58,0,0,1,3.44.42C236.77,332.73,236.9,333.29,236.71,334.44Zm-3.19,3.08.54-3.17c.1-.65.17-1.1.17-1.1a4,4,0,0,0-1.19-.17,2.42,2.42,0,0,0-2.35,2.62,1.69,1.69,0,0,0,1.83,1.83C232.81,337.54,233.27,337.54,233.52,337.52Z"/><path d="M235.37,342.71A2.46,2.46,0,0,1,233,340c0-.41,0-.82.05-1.22l-.77,0-.45.91c-.91,1.85-1.78,3-3.29,3a2.12,2.12,0,0,1-2.25-2.23,2,2,0,0,1,1.92-2.19,1.52,1.52,0,0,1,1.12.37l.12.13-.09.16a2.49,2.49,0,0,0-.3,1c0,.27.14.4.27.4.31,0,.65-.39,1-1.19l.23-.49a3.15,3.15,0,0,1-2.86-3.13c0-2.41,1.75-3.79,4.79-3.79a13.76,13.76,0,0,1,3.52.43c1,.34,1.06,1.12.87,2.26h0l-.73,4.27c-.17,1,0,1.38.08,1.53a.35.35,0,0,0,.3.12.61.61,0,0,0,.55-.41l.06-.17h.18a.62.62,0,0,1,.48.2.84.84,0,0,1,.17.68A2.59,2.59,0,0,1,235.37,342.71Zm-1.74-4.45,0,.29a12.69,12.69,0,0,0-.08,1.45,2,2,0,0,0,1.85,2.21,2.11,2.11,0,0,0,2.17-1.57.52.52,0,0,0,0-.26,1.07,1.07,0,0,1-.91.52.85.85,0,0,1-.68-.29,2.43,2.43,0,0,1-.19-1.94l.73-4.27c.2-1.21,0-1.52-.54-1.7a13.25,13.25,0,0,0-3.35-.4c-2.73,0-4.29,1.2-4.29,3.29,0,1.45,1,2.45,2.76,2.69l.34,0-.52,1.1c-.5,1-1,1.48-1.5,1.48a.81.81,0,0,1-.77-.9,2.78,2.78,0,0,1,.26-1.08,1.4,1.4,0,0,0-.62-.12,1.5,1.5,0,0,0-1.42,1.69,1.63,1.63,0,0,0,1.75,1.73c1.1,0,1.85-.71,2.84-2.71l.59-1.18Zm-1.11-.47a1.93,1.93,0,0,1-2.08-2.08,2.66,2.66,0,0,1,2.6-2.87,4.22,4.22,0,0,1,1.27.18l.19.07,0,.2s-.06.46-.17,1.11l-.57,3.36-.19,0C233.28,337.79,232.82,337.79,232.52,337.79Zm.52-4.46a2.18,2.18,0,0,0-2.1,2.38,1.44,1.44,0,0,0,1.58,1.58h.79l.51-3c.06-.37.11-.69.13-.88A4.06,4.06,0,0,0,233,333.34Z"/><path class="cls-1" d="M241.14,339.92a1.24,1.24,0,0,1,1.29,1.31,1.45,1.45,0,0,1-1.5,1.44,1.19,1.19,0,0,1-1.25-1.25A1.47,1.47,0,0,1,241.14,339.92Z"/><path d="M240.94,342.92a1.44,1.44,0,0,1-1.5-1.5,1.73,1.73,0,0,1,1.71-1.75,1.49,1.49,0,0,1,1.54,1.56A1.7,1.7,0,0,1,240.94,342.92Zm.21-2.75a1.22,1.22,0,0,0-1.21,1.25,1,1,0,0,0,1,1,1.21,1.21,0,0,0,1.25-1.19A1,1,0,0,0,241.15,340.17Z"/><path class="cls-2" d="M13.44,26.58a.93.93,0,0,1,.12.9,1.12,1.12,0,0,1-.77.52,2,2,0,0,1-.95,0,1.48,1.48,0,0,1-.8-.53,3.13,3.13,0,0,1-.59-1.81A3.4,3.4,0,0,1,11,23.79a3.91,3.91,0,0,1,1.37-1.35,4.07,4.07,0,0,1,1.86-.51,5.3,5.3,0,0,1,3.57,1.2,5.4,5.4,0,0,1,1.92,3.24,6,6,0,0,1,.1,1.9,6.49,6.49,0,0,1-.47,1.85,7.56,7.56,0,0,1-5.79,4.46l.07-.32,4.82,3,.92.57-1.06-.26a8.48,8.48,0,0,0-1.1-.18,9.37,9.37,0,0,0-1.12,0,7.56,7.56,0,0,0-1.11.1l-.55.1c-.18,0-.36.09-.54.14a5.5,5.5,0,0,0-.52.19,4.78,4.78,0,0,0-.5.25,5.16,5.16,0,0,0-.47.3,5,5,0,0,0-.43.36,5,5,0,0,0-.39.4c-.11.15-.24.29-.34.45a4.72,4.72,0,0,0-.29.49c-.09.16-.16.34-.25.51.07-.18.13-.36.21-.53a4.79,4.79,0,0,1,.26-.51,5,5,0,0,1,.31-.48,5.26,5.26,0,0,1,.8-.84,5.37,5.37,0,0,1,.47-.34,5,5,0,0,1,.51-.29,5.77,5.77,0,0,1,.54-.23,6,6,0,0,1,1.13-.3,8.4,8.4,0,0,1,1.16-.1,9.72,9.72,0,0,1,1.16.05,8.77,8.77,0,0,1,1.15.19l-.14.32-4.82-3L13,34.29l.47-.07A7.21,7.21,0,0,0,19,30a6.14,6.14,0,0,0,.45-1.75,5.7,5.7,0,0,0-.1-1.8,5.11,5.11,0,0,0-.63-1.68,5.17,5.17,0,0,0-1.17-1.35,5,5,0,0,0-3.33-1.12,4.34,4.34,0,0,0-.88.13,2.81,2.81,0,0,0-.42.13,3.39,3.39,0,0,0-.4.2A3.52,3.52,0,0,0,11.26,24a3.75,3.75,0,0,0-.53,1.68,2.89,2.89,0,0,0,.44,1.71,1.61,1.61,0,0,0,1.6.56,1.05,1.05,0,0,0,.75-.45A.91.91,0,0,0,13.44,26.58Z"/><path class="cls-2" d="M13.57,64.71a1.19,1.19,0,0,0,.2-1.08A1.12,1.12,0,0,0,12.9,63a1.49,1.49,0,0,0-1.06.21,1.42,1.42,0,0,0-.39.38,3.33,3.33,0,0,0-.28.49A3.26,3.26,0,0,0,11,66.25a4,4,0,0,0,1.1,1.87,3.33,3.33,0,0,0,.91.6l.13.05.12,0,.27.07A4,4,0,0,0,14,69a4.71,4.71,0,0,0,2.18-.27,5.11,5.11,0,0,0,3-3.06,4.46,4.46,0,0,0,.16-.53c0-.09,0-.18.06-.28s0-.17,0-.26a3.33,3.33,0,0,0-.13-1.08,7.9,7.9,0,0,0-1-2,35.49,35.49,0,0,0-2.77-3.64c-1-1.18-2-2.35-2.89-3.59a20.86,20.86,0,0,1-1.28-1.94,10.22,10.22,0,0,1-.95-2.13l-.24-.81.55.66a4.64,4.64,0,0,0,.34.36l.38.34a9.2,9.2,0,0,0,.81.6,10.08,10.08,0,0,0,.88.51c.3.16.61.29.92.42l-.2.27a20.89,20.89,0,0,1-1.56-2.37c-.23-.41-.45-.83-.66-1.25a11.18,11.18,0,0,1-.53-1.31c-.08-.22-.15-.45-.21-.68s-.13-.46-.17-.69a8.86,8.86,0,0,1-.21-1.4c0-.24,0-.47,0-.71a6.38,6.38,0,0,1,.06-.7,5.1,5.1,0,0,1,.14-.69A5.8,5.8,0,0,1,11,42a5.78,5.78,0,0,0-.19.68,5,5,0,0,0-.1.69,6.28,6.28,0,0,0,0,.7c0,.23,0,.46.05.69a8.66,8.66,0,0,0,.28,1.36c.06.22.13.44.21.66s.16.44.25.65c.18.43.37.85.56,1.27s.41.83.64,1.23a20.59,20.59,0,0,0,1.53,2.32l.4.52-.6-.25c-.32-.13-.64-.27-1-.44a10.42,10.42,0,0,1-.91-.53,9.54,9.54,0,0,1-.85-.63l-.39-.35a4.88,4.88,0,0,1-.37-.39l.3-.16a9.89,9.89,0,0,0,.92,2.06A20.51,20.51,0,0,0,13,54c.9,1.23,1.9,2.4,2.88,3.58a35.77,35.77,0,0,1,2.8,3.68,8.23,8.23,0,0,1,1,2.12,3.68,3.68,0,0,1,.14,1.19,3,3,0,0,1,0,.31c0,.09,0,.19-.06.29a4.8,4.8,0,0,1-.17.57A5.45,5.45,0,0,1,16.34,69a5.05,5.05,0,0,1-2.34.29,4.36,4.36,0,0,1-.59-.11l-.28-.08-.15,0L12.83,69a3.68,3.68,0,0,1-1-.67,3.76,3.76,0,0,1-1.15-2.06,3.43,3.43,0,0,1,.65-2.81,1.57,1.57,0,0,1,.44-.4,1.59,1.59,0,0,1,1.15-.19,1.18,1.18,0,0,1,.89.7A1.21,1.21,0,0,1,13.57,64.71Z"/><path class="cls-2" d="M16.81,43.25v.09c0,.06,0,.15,0,.27a1.54,1.54,0,0,0,.24,1,.88.88,0,0,0,.57.35,1.27,1.27,0,0,0,.78-.14,1.56,1.56,0,0,0,.65-.64,3.24,3.24,0,0,0,.38-1,4,4,0,0,0,.06-1.11,3.42,3.42,0,0,0-.33-1.14,3.54,3.54,0,0,0-1.84-1.73,4.89,4.89,0,0,0-2.76-.09,5.07,5.07,0,0,0-2.48,1.43,4,4,0,0,0-1.11,2.58,5.44,5.44,0,0,0,.75,2.68A14.51,14.51,0,0,0,13.2,48c.54.67,1.09,1.27,1.6,1.81l.75.77c.25.24.48.47.68.69l1.09,1.16c.61.64.92,1,.92,1L18,53.2l-.76-.68-1.2-1c-.23-.2-.47-.43-.71-.67L14.55,50c-.52-.55-1.08-1.15-1.62-1.83a14.85,14.85,0,0,1-1.54-2.27,5.77,5.77,0,0,1-.79-2.85,4.34,4.34,0,0,1,1.21-2.81,5.41,5.41,0,0,1,2.65-1.53,5.22,5.22,0,0,1,3,.11,3.88,3.88,0,0,1,2,1.91,3.45,3.45,0,0,1,.26,2.48,3.5,3.5,0,0,1-.49,1,1.83,1.83,0,0,1-.76.67,1.42,1.42,0,0,1-.88.11,1,1,0,0,1-.62-.42,1.59,1.59,0,0,1-.19-1c0-.12,0-.21,0-.27Z"/><path class="cls-2" d="M13.44,81.94a2.21,2.21,0,0,0,0-.93.91.91,0,0,0-.6-.63,1.66,1.66,0,0,0-1.61.6,2.57,2.57,0,0,0-.62,1.66,3.45,3.45,0,0,0,.5,1.7,4,4,0,0,0,1.23,1.31,3.26,3.26,0,0,0,.8.4,4.37,4.37,0,0,0,.89.18,4.91,4.91,0,0,0,3.42-1,5.13,5.13,0,0,0,1.23-1.33,5,5,0,0,0,.68-1.68,5.88,5.88,0,0,0,.14-1.82A6,6,0,0,0,19,78.63a7,7,0,0,0-2.21-2.89,7.2,7.2,0,0,0-1.58-.94,7,7,0,0,0-1.76-.5l-.4-.06.32-.25,5.25-4,.17.3a10.41,10.41,0,0,1-1.17.33,11.5,11.5,0,0,1-1.19.2,10,10,0,0,1-1.21.07,5.84,5.84,0,0,1-.61,0c-.2,0-.4-.06-.6-.1a5.21,5.21,0,0,1-.59-.16,5.74,5.74,0,0,1-.57-.22,5,5,0,0,1-.53-.29,3.83,3.83,0,0,1-.49-.36l-.22-.2-.2-.22a3.91,3.91,0,0,1-.36-.48l-.15-.26-.13-.27c-.09-.18-.15-.37-.22-.55.09.18.16.36.26.53l.15.26.17.24a4.27,4.27,0,0,0,.38.45l.21.2.23.18a4.54,4.54,0,0,0,2.13.86,7.78,7.78,0,0,0,1.16.08,9,9,0,0,0,1.16-.06,11.16,11.16,0,0,0,1.15-.2,10.12,10.12,0,0,0,1.12-.31l1-.36-.86.66-5.25,4L13.52,74a7.29,7.29,0,0,1,1.85.53,7.55,7.55,0,0,1,1.65,1,7.67,7.67,0,0,1,1.36,1.36,7.14,7.14,0,0,1,1,1.67,6.37,6.37,0,0,1,.45,1.88,6.24,6.24,0,0,1-.14,1.92,5.35,5.35,0,0,1-.73,1.8,5.48,5.48,0,0,1-1.32,1.42,5.25,5.25,0,0,1-3.66,1.06,4.75,4.75,0,0,1-1-.19,3.58,3.58,0,0,1-.89-.44,4.45,4.45,0,0,1-1.34-1.42,3.3,3.3,0,0,1-.48-1.89,2.8,2.8,0,0,1,.77-1.76,2.1,2.1,0,0,1,.81-.54,1.44,1.44,0,0,1,1,0,1,1,0,0,1,.62.71A2.23,2.23,0,0,1,13.44,81.94Z"/><path class="cls-2" d="M22.42,17.33a.91.91,0,0,0,.87.08,1.05,1.05,0,0,0,.45-.75,1.61,1.61,0,0,0-.56-1.6,2.89,2.89,0,0,0-1.71-.44,3.75,3.75,0,0,0-1.68.53,3.52,3.52,0,0,0-1.23,1.25,3.39,3.39,0,0,0-.2.4,2.81,2.81,0,0,0-.13.42,4.33,4.33,0,0,0-.13.88,5,5,0,0,0,1.12,3.33,5.17,5.17,0,0,0,1.35,1.17,5.11,5.11,0,0,0,1.68.63,5.7,5.7,0,0,0,1.8.1,6.14,6.14,0,0,0,1.75-.45,7.21,7.21,0,0,0,4.25-5.52l.07-.47.25.41,3,4.82-.32.14a8.77,8.77,0,0,1-.19-1.15,9.72,9.72,0,0,1-.05-1.16,8.4,8.4,0,0,1,.1-1.16,6,6,0,0,1,.3-1.13,5.77,5.77,0,0,1,.23-.54,5,5,0,0,1,.29-.51,5.37,5.37,0,0,1,.34-.47,5.26,5.26,0,0,1,.84-.8,5,5,0,0,1,.48-.31,4.79,4.79,0,0,1,.51-.26c.17-.08.36-.14.53-.21-.17.08-.35.15-.51.25a4.73,4.73,0,0,0-.49.29c-.16.1-.3.22-.45.34a5,5,0,0,0-.4.39,4.94,4.94,0,0,0-.36.43,5.16,5.16,0,0,0-.3.47,4.78,4.78,0,0,0-.25.5,5.5,5.5,0,0,0-.19.52c-.05.18-.1.36-.14.54s-.07.36-.1.55a7.56,7.56,0,0,0-.1,1.11,9.37,9.37,0,0,0,0,1.12,8.48,8.48,0,0,0,.18,1.1l.26,1.06-.57-.92-3-4.82.32-.07A7.56,7.56,0,0,1,26,23.2a6.49,6.49,0,0,1-1.85.47,6.05,6.05,0,0,1-1.9-.1A5.4,5.4,0,0,1,19,21.66a5.3,5.3,0,0,1-1.2-3.57,4.07,4.07,0,0,1,.51-1.86,3.91,3.91,0,0,1,1.35-1.37,3.4,3.4,0,0,1,1.85-.51,3.13,3.13,0,0,1,1.81.59,1.48,1.48,0,0,1,.53.8,2,2,0,0,1,0,.95,1.12,1.12,0,0,1-.52.77A.93.93,0,0,1,22.42,17.33Z"/><path class="cls-2" d="M60.55,17.46a1.21,1.21,0,0,1-1.09.23,1.18,1.18,0,0,1-.7-.89,1.59,1.59,0,0,1,.19-1.15,1.57,1.57,0,0,1,.4-.44,3.43,3.43,0,0,1,2.81-.65,3.76,3.76,0,0,1,2.06,1.15,3.68,3.68,0,0,1,.67,1l.06.14A1.39,1.39,0,0,1,65,17c0,.09.06.18.08.28a4.36,4.36,0,0,1,.11.59,5.05,5.05,0,0,1-.29,2.34,5.45,5.45,0,0,1-3.27,3.24,4.79,4.79,0,0,1-.57.17l-.29.06-.31,0a3.68,3.68,0,0,1-1.19-.14,8.23,8.23,0,0,1-2.12-1,35.77,35.77,0,0,1-3.68-2.8c-1.18-1-2.35-2-3.58-2.88A20.52,20.52,0,0,0,48,15.68a9.89,9.89,0,0,0-2.06-.92l.16-.3a4.87,4.87,0,0,1,.39.37q.18.19.35.39a9.54,9.54,0,0,1,.63.85A10.44,10.44,0,0,1,48,17c.16.31.3.63.44,1l.25.6-.52-.4a20.59,20.59,0,0,0-2.32-1.53c-.4-.23-.81-.45-1.23-.64s-.84-.39-1.27-.56l-.65-.25c-.22-.07-.44-.15-.66-.21a8.66,8.66,0,0,0-1.36-.28c-.23,0-.46,0-.69-.05a6.28,6.28,0,0,0-.7,0,5,5,0,0,0-.69.1,5.78,5.78,0,0,0-.68.19,5.8,5.8,0,0,1,.67-.22,5.09,5.09,0,0,1,.69-.14,6.38,6.38,0,0,1,.7-.06c.24,0,.47,0,.71,0a8.85,8.85,0,0,1,1.4.21c.23,0,.46.11.69.17l.68.21a11.17,11.17,0,0,1,1.31.53c.42.21.84.42,1.25.66a20.89,20.89,0,0,1,2.37,1.56l-.27.2c-.13-.31-.27-.62-.42-.92a10.08,10.08,0,0,0-.51-.88,9.2,9.2,0,0,0-.6-.81l-.34-.38a4.65,4.65,0,0,0-.36-.34l-.66-.55.81.24a10.23,10.23,0,0,1,2.13.95,20.85,20.85,0,0,1,1.94,1.28c1.24.91,2.42,1.91,3.59,2.89a35.49,35.49,0,0,0,3.64,2.77,7.9,7.9,0,0,0,2,1,3.33,3.33,0,0,0,1.08.13l.26,0,.28-.06a4.45,4.45,0,0,0,.53-.16,5.11,5.11,0,0,0,3.06-3,4.71,4.71,0,0,0,.27-2.18,4,4,0,0,0-.1-.54c0-.09,0-.18-.07-.27a1.07,1.07,0,0,0,0-.12l-.05-.13A3.33,3.33,0,0,0,64,16a4,4,0,0,0-1.87-1.1,3.26,3.26,0,0,0-2.17.19,3.33,3.33,0,0,0-.49.28,1.42,1.42,0,0,0-.38.39,1.49,1.49,0,0,0-.21,1.06,1.11,1.11,0,0,0,.63.87A1.19,1.19,0,0,0,60.55,17.46Z"/><path class="cls-2" d="M39.09,20.71l.09,0,.27,0a1.59,1.59,0,0,1,1,.19,1,1,0,0,1,.42.62,1.42,1.42,0,0,1-.11.88,1.83,1.83,0,0,1-.67.76,3.5,3.5,0,0,1-1,.49,3.45,3.45,0,0,1-2.48-.26,3.88,3.88,0,0,1-1.91-2,5.22,5.22,0,0,1-.11-3,5.41,5.41,0,0,1,1.53-2.65,4.34,4.34,0,0,1,2.81-1.21,5.77,5.77,0,0,1,2.85.79A14.85,14.85,0,0,1,44,16.82c.68.55,1.28,1.1,1.83,1.62l.78.76c.25.24.48.47.67.71l1,1.2.68.76.25.26s-.4-.31-1-.92l-1.16-1.09c-.23-.2-.46-.44-.69-.68l-.77-.75c-.54-.52-1.14-1.07-1.81-1.6a14.51,14.51,0,0,0-2.21-1.51,5.44,5.44,0,0,0-2.68-.75,4,4,0,0,0-2.58,1.11,5.07,5.07,0,0,0-1.43,2.48A4.89,4.89,0,0,0,35,21.18,3.54,3.54,0,0,0,36.75,23a3.42,3.42,0,0,0,1.14.33A4,4,0,0,0,39,23.3a3.24,3.24,0,0,0,1-.38,1.56,1.56,0,0,0,.64-.65,1.27,1.27,0,0,0,.14-.78.88.88,0,0,0-.35-.57,1.54,1.54,0,0,0-1-.24l-.27,0Z"/><path class="cls-2" d="M77.78,17.33a2.23,2.23,0,0,1-.94,0,1,1,0,0,1-.71-.62,1.44,1.44,0,0,1,0-1,2.1,2.1,0,0,1,.54-.81,2.8,2.8,0,0,1,1.76-.77,3.3,3.3,0,0,1,1.89.48A4.45,4.45,0,0,1,81.79,16a3.58,3.58,0,0,1,.44.89,4.74,4.74,0,0,1,.19,1,5.25,5.25,0,0,1-1.06,3.66,5.48,5.48,0,0,1-1.42,1.32,5.35,5.35,0,0,1-1.8.73,6.24,6.24,0,0,1-1.92.14,6.37,6.37,0,0,1-1.88-.45,7.14,7.14,0,0,1-1.67-1,7.67,7.67,0,0,1-1.36-1.36,7.55,7.55,0,0,1-1-1.65,7.29,7.29,0,0,1-.53-1.85l.31.08-4,5.25-.66.86.36-1a10.12,10.12,0,0,0,.31-1.12,11.16,11.16,0,0,0,.2-1.15,9,9,0,0,0,.06-1.16A7.78,7.78,0,0,0,66.26,18a4.54,4.54,0,0,0-.86-2.13l-.18-.23-.2-.21a4.27,4.27,0,0,0-.45-.38l-.24-.17-.26-.15c-.17-.1-.35-.17-.53-.26.18.08.38.13.55.22l.27.13.26.15a3.91,3.91,0,0,1,.48.36l.22.2.2.22a3.83,3.83,0,0,1,.36.49,5,5,0,0,1,.29.53,5.76,5.76,0,0,1,.22.57,5.21,5.21,0,0,1,.16.59c0,.2.07.4.1.6a5.83,5.83,0,0,1,0,.61,10,10,0,0,1-.07,1.21,11.5,11.5,0,0,1-.2,1.19,10.41,10.41,0,0,1-.33,1.17l-.3-.17,4-5.25.25-.32.06.4a6.94,6.94,0,0,0,.5,1.76,7.2,7.2,0,0,0,.94,1.58,7,7,0,0,0,2.89,2.21,6,6,0,0,0,1.78.42,5.88,5.88,0,0,0,1.82-.14,5,5,0,0,0,1.68-.68,5.13,5.13,0,0,0,1.33-1.23,4.91,4.91,0,0,0,1-3.42,4.37,4.37,0,0,0-.18-.89,3.26,3.26,0,0,0-.4-.8A4,4,0,0,0,80.19,15a3.45,3.45,0,0,0-1.7-.5,2.57,2.57,0,0,0-1.66.62,1.66,1.66,0,0,0-.6,1.61.91.91,0,0,0,.63.6A2.21,2.21,0,0,0,77.78,17.33Z"/><path class="cls-2" d="M361,26.73a.91.91,0,0,0-.08.87,1.05,1.05,0,0,0,.75.45,1.61,1.61,0,0,0,1.6-.56,2.89,2.89,0,0,0,.44-1.71,3.75,3.75,0,0,0-.53-1.68,3.52,3.52,0,0,0-1.25-1.23,3.39,3.39,0,0,0-.4-.2,2.81,2.81,0,0,0-.42-.13,4.34,4.34,0,0,0-.88-.13,5,5,0,0,0-3.33,1.12,5.17,5.17,0,0,0-1.17,1.35,5.11,5.11,0,0,0-.63,1.68,5.7,5.7,0,0,0-.1,1.8,6.14,6.14,0,0,0,.45,1.75,7.21,7.21,0,0,0,5.52,4.25l.47.07-.41.25-4.82,3-.14-.32a8.77,8.77,0,0,1,1.15-.19,9.72,9.72,0,0,1,1.16-.05,8.4,8.4,0,0,1,1.16.1,6,6,0,0,1,1.13.3,5.77,5.77,0,0,1,.54.23,5,5,0,0,1,.51.29,5.36,5.36,0,0,1,.47.34,5.11,5.11,0,0,1,.42.4,5.17,5.17,0,0,1,.38.44,5,5,0,0,1,.31.48,4.78,4.78,0,0,1,.26.51c.08.17.14.36.21.53-.08-.17-.15-.35-.25-.51a4.73,4.73,0,0,0-.29-.49c-.1-.16-.22-.3-.34-.45a5,5,0,0,0-.39-.4,4.94,4.94,0,0,0-.43-.36,5.16,5.16,0,0,0-.47-.3,4.78,4.78,0,0,0-.5-.25,5.5,5.5,0,0,0-.52-.19c-.18-.05-.36-.1-.54-.14l-.55-.1a7.56,7.56,0,0,0-1.11-.1,9.37,9.37,0,0,0-1.12,0,8.48,8.48,0,0,0-1.1.18l-1.06.26.92-.57,4.82-3,.07.32a7.56,7.56,0,0,1-5.79-4.46,6.49,6.49,0,0,1-.47-1.85,6,6,0,0,1,.1-1.9,5.4,5.4,0,0,1,1.92-3.24,5.3,5.3,0,0,1,3.57-1.2,4.07,4.07,0,0,1,1.86.51,3.91,3.91,0,0,1,1.37,1.35,3.4,3.4,0,0,1,.51,1.85,3.13,3.13,0,0,1-.59,1.81,1.48,1.48,0,0,1-.8.53,2,2,0,0,1-.95,0,1.12,1.12,0,0,1-.77-.52A.93.93,0,0,1,361,26.73Z"/><path class="cls-2" d="M360.85,64.86a1.21,1.21,0,0,1-.23-1.09,1.18,1.18,0,0,1,.89-.7,1.59,1.59,0,0,1,1.15.19,1.57,1.57,0,0,1,.44.4,3.43,3.43,0,0,1,.65,2.81,3.76,3.76,0,0,1-1.15,2.06,3.68,3.68,0,0,1-1,.67l-.14.06-.15,0-.28.08a4.36,4.36,0,0,1-.59.11,5.05,5.05,0,0,1-2.34-.29,5.45,5.45,0,0,1-3.24-3.27,4.78,4.78,0,0,1-.17-.57c0-.1,0-.19-.06-.29a3,3,0,0,1,0-.31,3.68,3.68,0,0,1,.14-1.19,8.23,8.23,0,0,1,1-2.12,35.78,35.78,0,0,1,2.8-3.68c1-1.18,2-2.35,2.88-3.58a20.52,20.52,0,0,0,1.26-1.9,9.89,9.89,0,0,0,.92-2.06l.3.16a4.87,4.87,0,0,1-.37.39l-.39.35a9.54,9.54,0,0,1-.85.63,10.42,10.42,0,0,1-.91.53c-.31.16-.63.3-1,.44l-.6.25.4-.52a20.6,20.6,0,0,0,1.53-2.32c.23-.4.45-.81.64-1.23s.39-.84.56-1.27c.09-.21.17-.43.25-.65s.15-.44.21-.66a8.66,8.66,0,0,0,.28-1.36c0-.23,0-.46.05-.69a6.26,6.26,0,0,0,0-.7,5,5,0,0,0-.1-.69,5.78,5.78,0,0,0-.19-.68,5.81,5.81,0,0,1,.22.67,5.11,5.11,0,0,1,.14.69,6.38,6.38,0,0,1,.06.7c0,.24,0,.47,0,.71a8.85,8.85,0,0,1-.21,1.4c0,.23-.11.46-.17.69s-.14.45-.21.68a11.16,11.16,0,0,1-.53,1.31c-.21.42-.42.84-.66,1.25a20.91,20.91,0,0,1-1.56,2.37l-.2-.27c.31-.13.62-.27.92-.42a10.08,10.08,0,0,0,.88-.51,9.19,9.19,0,0,0,.81-.6l.38-.34a4.65,4.65,0,0,0,.34-.36l.55-.66-.24.81a10.22,10.22,0,0,1-.95,2.13,20.86,20.86,0,0,1-1.28,1.94c-.91,1.24-1.91,2.42-2.89,3.59A35.49,35.49,0,0,0,356,61.63a7.9,7.9,0,0,0-1,2,3.33,3.33,0,0,0-.13,1.08c0,.09,0,.17,0,.26s0,.19.06.28a4.46,4.46,0,0,0,.16.53,5.11,5.11,0,0,0,3,3.06,4.71,4.71,0,0,0,2.18.27,4,4,0,0,0,.54-.1l.27-.07.12,0,.13-.05a3.33,3.33,0,0,0,.91-.6,4,4,0,0,0,1.1-1.87,3.26,3.26,0,0,0-.19-2.17,3.33,3.33,0,0,0-.28-.49,1.42,1.42,0,0,0-.39-.38,1.49,1.49,0,0,0-1.06-.21,1.12,1.12,0,0,0-.87.63A1.19,1.19,0,0,0,360.85,64.86Z"/><path class="cls-2" d="M357.61,43.4l0,.09c0,.06,0,.15,0,.27a1.59,1.59,0,0,1-.19,1,1,1,0,0,1-.62.42,1.42,1.42,0,0,1-.88-.11,1.83,1.83,0,0,1-.76-.67,3.5,3.5,0,0,1-.49-1,3.45,3.45,0,0,1,.26-2.48A3.88,3.88,0,0,1,357,39a5.22,5.22,0,0,1,3-.11,5.41,5.41,0,0,1,2.65,1.53,4.34,4.34,0,0,1,1.21,2.81,5.77,5.77,0,0,1-.79,2.85,14.85,14.85,0,0,1-1.54,2.27c-.55.68-1.1,1.28-1.62,1.83l-.76.78c-.24.25-.47.48-.71.67l-1.2,1-.76.68-.26.25s.31-.4.92-1l1.09-1.16c.2-.23.44-.46.68-.69l.75-.77c.52-.54,1.07-1.14,1.6-1.81a14.51,14.51,0,0,0,1.51-2.21,5.44,5.44,0,0,0,.75-2.68,4,4,0,0,0-1.11-2.58,5.07,5.07,0,0,0-2.48-1.43,4.89,4.89,0,0,0-2.76.09,3.54,3.54,0,0,0-1.84,1.73,3.42,3.42,0,0,0-.33,1.14,4,4,0,0,0,.06,1.11,3.24,3.24,0,0,0,.38,1,1.56,1.56,0,0,0,.65.64,1.27,1.27,0,0,0,.78.14.88.88,0,0,0,.57-.35,1.54,1.54,0,0,0,.24-1c0-.12,0-.21,0-.27Z"/><path class="cls-2" d="M361,82.09a2.23,2.23,0,0,1,0-.94,1,1,0,0,1,.62-.71,1.44,1.44,0,0,1,1,0,2.1,2.1,0,0,1,.81.54,2.8,2.8,0,0,1,.77,1.76,3.3,3.3,0,0,1-.48,1.89,4.45,4.45,0,0,1-1.34,1.42,3.58,3.58,0,0,1-.89.44,4.75,4.75,0,0,1-1,.19,5.25,5.25,0,0,1-3.66-1.06,5.48,5.48,0,0,1-1.32-1.42,5.35,5.35,0,0,1-.73-1.8,6.25,6.25,0,0,1-.14-1.92,6.38,6.38,0,0,1,.45-1.88A7.14,7.14,0,0,1,356,77a7.67,7.67,0,0,1,1.36-1.36,7.55,7.55,0,0,1,1.65-1,7.29,7.29,0,0,1,1.85-.53l-.08.31-5.25-4-.86-.66,1,.36a10.12,10.12,0,0,0,1.12.31,11.15,11.15,0,0,0,1.15.2,9,9,0,0,0,1.16.06,7.78,7.78,0,0,0,1.16-.08,4.54,4.54,0,0,0,2.13-.86l.23-.18.21-.2a4.26,4.26,0,0,0,.38-.45l.17-.24.15-.26c.1-.17.17-.35.26-.53-.08.18-.13.38-.22.55l-.13.27-.15.26a3.9,3.9,0,0,1-.36.48l-.2.22-.22.2a3.83,3.83,0,0,1-.49.36,5,5,0,0,1-.53.29,5.74,5.74,0,0,1-.57.22,5.21,5.21,0,0,1-.59.16c-.2,0-.4.07-.6.1a5.84,5.84,0,0,1-.61,0,10,10,0,0,1-1.21-.07,11.5,11.5,0,0,1-1.19-.2,10.41,10.41,0,0,1-1.17-.33l.17-.3,5.25,4,.32.25-.4.06a7,7,0,0,0-1.76.5,7.2,7.2,0,0,0-1.58.94,7,7,0,0,0-2.21,2.89,6,6,0,0,0-.43,1.78,5.88,5.88,0,0,0,.14,1.82,5,5,0,0,0,.68,1.68A5.13,5.13,0,0,0,357,85.4a4.91,4.91,0,0,0,3.42,1,4.37,4.37,0,0,0,.89-.18,3.26,3.26,0,0,0,.8-.4,4,4,0,0,0,1.23-1.31,3.45,3.45,0,0,0,.5-1.7,2.57,2.57,0,0,0-.62-1.66,1.66,1.66,0,0,0-1.61-.6.91.91,0,0,0-.6.63A2.21,2.21,0,0,0,361,82.09Z"/><path class="cls-2" d="M352,17.48a.93.93,0,0,1-.9.12,1.12,1.12,0,0,1-.52-.77,2,2,0,0,1,0-.95,1.48,1.48,0,0,1,.53-.8,3.13,3.13,0,0,1,1.81-.59,3.4,3.4,0,0,1,1.85.51,3.91,3.91,0,0,1,1.35,1.37,4.07,4.07,0,0,1,.51,1.86,5.3,5.3,0,0,1-1.2,3.57,5.4,5.4,0,0,1-3.24,1.92,6.05,6.05,0,0,1-1.9.1,6.49,6.49,0,0,1-1.85-.47A7.56,7.56,0,0,1,344,17.57l.32.07-3,4.82-.57.92.26-1.06a8.47,8.47,0,0,0,.18-1.1,9.37,9.37,0,0,0,0-1.12,7.56,7.56,0,0,0-.1-1.11c0-.18-.06-.37-.1-.55s-.09-.36-.14-.54a5.5,5.5,0,0,0-.19-.52,4.77,4.77,0,0,0-.25-.5,5.13,5.13,0,0,0-.3-.47,4.94,4.94,0,0,0-.36-.43,5,5,0,0,0-.4-.39c-.15-.11-.29-.24-.45-.34a4.73,4.73,0,0,0-.49-.29c-.16-.09-.34-.16-.51-.25.18.07.36.13.53.21a4.79,4.79,0,0,1,.51.26,5,5,0,0,1,.48.31,5.17,5.17,0,0,1,.44.38,5.11,5.11,0,0,1,.4.42,5.35,5.35,0,0,1,.34.47,5,5,0,0,1,.29.51,5.78,5.78,0,0,1,.23.54,6,6,0,0,1,.3,1.13,8.41,8.41,0,0,1,.1,1.16,9.72,9.72,0,0,1-.05,1.16,8.77,8.77,0,0,1-.19,1.15l-.32-.14,3-4.82.25-.41.07.47A7.21,7.21,0,0,0,348.6,23a6.14,6.14,0,0,0,1.75.45,5.7,5.7,0,0,0,1.8-.1,5.11,5.11,0,0,0,1.68-.63,5.17,5.17,0,0,0,1.35-1.17,5,5,0,0,0,1.12-3.33,4.34,4.34,0,0,0-.13-.88A2.81,2.81,0,0,0,356,17a3.39,3.39,0,0,0-.2-.4,3.52,3.52,0,0,0-1.23-1.25,3.75,3.75,0,0,0-1.68-.53,2.89,2.89,0,0,0-1.71.44,1.61,1.61,0,0,0-.56,1.6,1.05,1.05,0,0,0,.45.75A.91.91,0,0,0,352,17.48Z"/><path class="cls-2" d="M313.87,17.61a1.19,1.19,0,0,0,1.08.2,1.12,1.12,0,0,0,.63-.87,1.49,1.49,0,0,0-.21-1.06,1.42,1.42,0,0,0-.38-.39,3.33,3.33,0,0,0-.49-.28,3.26,3.26,0,0,0-2.17-.19,4,4,0,0,0-1.87,1.1,3.33,3.33,0,0,0-.6.91l-.05.13a1.06,1.06,0,0,0,0,.12c0,.09-.06.18-.07.27a4,4,0,0,0-.1.54,4.71,4.71,0,0,0,.27,2.18,5.11,5.11,0,0,0,3.06,3,4.45,4.45,0,0,0,.53.16l.28.06.26,0a3.33,3.33,0,0,0,1.08-.13,7.9,7.9,0,0,0,2-1,35.49,35.49,0,0,0,3.64-2.77c1.18-1,2.35-2,3.59-2.89a20.85,20.85,0,0,1,1.94-1.28,10.22,10.22,0,0,1,2.13-.95l.81-.24-.66.55a4.64,4.64,0,0,0-.36.34l-.34.38a9.21,9.21,0,0,0-.6.81,10.09,10.09,0,0,0-.51.88c-.16.3-.29.61-.42.92l-.27-.2a20.9,20.9,0,0,1,2.37-1.56c.41-.23.83-.45,1.25-.66a11.17,11.17,0,0,1,1.31-.53l.68-.21c.23-.06.46-.13.69-.17a8.85,8.85,0,0,1,1.4-.21c.24,0,.47,0,.71,0a6.38,6.38,0,0,1,.7.06,5.09,5.09,0,0,1,.69.14,5.81,5.81,0,0,1,.67.22,5.78,5.78,0,0,0-.68-.19,5,5,0,0,0-.69-.1,6.28,6.28,0,0,0-.7,0c-.23,0-.46,0-.69.05a8.66,8.66,0,0,0-1.36.28c-.22.06-.44.13-.66.21l-.65.25c-.43.18-.85.37-1.27.56s-.83.41-1.23.64a20.59,20.59,0,0,0-2.32,1.53l-.52.4.25-.6c.13-.32.27-.64.44-1a10.42,10.42,0,0,1,.53-.91,9.54,9.54,0,0,1,.63-.85q.17-.2.35-.39a4.88,4.88,0,0,1,.39-.37l.16.3a9.89,9.89,0,0,0-2.06.92,20.51,20.51,0,0,0-1.9,1.26c-1.23.9-2.4,1.9-3.58,2.88a35.78,35.78,0,0,1-3.68,2.8,8.23,8.23,0,0,1-2.12,1,3.68,3.68,0,0,1-1.19.14l-.31,0-.29-.06a4.79,4.79,0,0,1-.57-.17,5.45,5.45,0,0,1-3.27-3.24,5.05,5.05,0,0,1-.29-2.34,4.37,4.37,0,0,1,.11-.59c0-.1,0-.19.08-.28a1.4,1.4,0,0,1,0-.15l.06-.14a3.68,3.68,0,0,1,.67-1,3.76,3.76,0,0,1,2.06-1.15,3.43,3.43,0,0,1,2.81.65,1.57,1.57,0,0,1,.4.44,1.59,1.59,0,0,1,.19,1.15,1.18,1.18,0,0,1-.7.89A1.21,1.21,0,0,1,313.87,17.61Z"/><path class="cls-2" d="M335.33,20.86h-.09l-.27,0a1.54,1.54,0,0,0-1,.24.88.88,0,0,0-.35.57,1.27,1.27,0,0,0,.14.78,1.56,1.56,0,0,0,.64.65,3.24,3.24,0,0,0,1,.38,4,4,0,0,0,1.11.06,3.42,3.42,0,0,0,1.14-.33,3.54,3.54,0,0,0,1.73-1.84,4.89,4.89,0,0,0,.09-2.76,5.07,5.07,0,0,0-1.43-2.48A4,4,0,0,0,335.49,15a5.44,5.44,0,0,0-2.68.75,14.52,14.52,0,0,0-2.21,1.51c-.67.54-1.27,1.09-1.81,1.6l-.77.75c-.24.25-.47.48-.69.68l-1.16,1.09c-.64.61-1,.92-1,.92l.25-.26.68-.76,1-1.2c.2-.23.43-.47.67-.71l.78-.76c.55-.52,1.15-1.08,1.83-1.62a14.85,14.85,0,0,1,2.27-1.54,5.77,5.77,0,0,1,2.85-.79,4.34,4.34,0,0,1,2.81,1.21,5.41,5.41,0,0,1,1.53,2.65,5.22,5.22,0,0,1-.11,3,3.88,3.88,0,0,1-1.91,2,3.45,3.45,0,0,1-2.48.26,3.5,3.5,0,0,1-1-.49,1.83,1.83,0,0,1-.67-.76,1.42,1.42,0,0,1-.11-.88A1,1,0,0,1,334,21a1.59,1.59,0,0,1,1-.19l.27,0Z"/><path class="cls-2" d="M296.64,17.48a2.21,2.21,0,0,0,.93,0,.91.91,0,0,0,.63-.6,1.66,1.66,0,0,0-.6-1.61,2.57,2.57,0,0,0-1.66-.62,3.45,3.45,0,0,0-1.7.5,4,4,0,0,0-1.31,1.23,3.26,3.26,0,0,0-.4.8,4.37,4.37,0,0,0-.18.89,4.91,4.91,0,0,0,1,3.42,5.13,5.13,0,0,0,1.33,1.23,5,5,0,0,0,1.68.68,5.88,5.88,0,0,0,1.82.14,6,6,0,0,0,1.78-.42,7,7,0,0,0,2.89-2.21,7.21,7.21,0,0,0,.94-1.58,6.94,6.94,0,0,0,.5-1.76l.06-.4.25.32,4,5.25-.3.17a10.41,10.41,0,0,1-.33-1.17,11.5,11.5,0,0,1-.2-1.19,10,10,0,0,1-.07-1.21,5.83,5.83,0,0,1,0-.61c0-.2.06-.4.1-.6a5.21,5.21,0,0,1,.16-.59,5.74,5.74,0,0,1,.22-.57,5,5,0,0,1,.29-.53,3.83,3.83,0,0,1,.36-.49l.2-.22.22-.2a3.91,3.91,0,0,1,.48-.36l.26-.15.27-.13c.18-.09.37-.15.55-.22-.18.09-.36.16-.53.26l-.26.15-.24.17a4.27,4.27,0,0,0-.45.38l-.2.21L309,16a4.54,4.54,0,0,0-.86,2.13,7.78,7.78,0,0,0-.08,1.16,8.94,8.94,0,0,0,.06,1.16,11.15,11.15,0,0,0,.2,1.15,10.13,10.13,0,0,0,.31,1.12l.36,1-.66-.86-4-5.25.31-.08a7.29,7.29,0,0,1-.53,1.85,7.55,7.55,0,0,1-1,1.65,7.67,7.67,0,0,1-1.36,1.36,7.14,7.14,0,0,1-1.67,1,6.37,6.37,0,0,1-1.88.45,6.24,6.24,0,0,1-1.92-.14,5.35,5.35,0,0,1-1.8-.73,5.48,5.48,0,0,1-1.42-1.32A5.25,5.25,0,0,1,292,18a4.74,4.74,0,0,1,.19-1,3.58,3.58,0,0,1,.44-.89,4.45,4.45,0,0,1,1.42-1.34,3.3,3.3,0,0,1,1.89-.48,2.8,2.8,0,0,1,1.76.77,2.1,2.1,0,0,1,.54.81,1.44,1.44,0,0,1,0,1,1,1,0,0,1-.71.62A2.23,2.23,0,0,1,296.64,17.48Z"/><path class="cls-2" d="M13.28,635.49a.91.91,0,0,0,.08-.87,1.05,1.05,0,0,0-.75-.45,1.61,1.61,0,0,0-1.6.56,2.89,2.89,0,0,0-.44,1.71,3.75,3.75,0,0,0,.53,1.68,3.52,3.52,0,0,0,1.25,1.23,3.39,3.39,0,0,0,.4.2,2.81,2.81,0,0,0,.42.13,4.34,4.34,0,0,0,.88.13,5,5,0,0,0,3.33-1.12,5.17,5.17,0,0,0,1.17-1.35,5.11,5.11,0,0,0,.63-1.68,5.7,5.7,0,0,0,.1-1.8,6.14,6.14,0,0,0-.45-1.75,7.21,7.21,0,0,0-5.52-4.25l-.47-.07.41-.25,4.82-3,.14.32a8.77,8.77,0,0,1-1.15.19,9.72,9.72,0,0,1-1.16.05,8.39,8.39,0,0,1-1.16-.1,6,6,0,0,1-1.13-.3,5.78,5.78,0,0,1-.54-.23,5,5,0,0,1-.51-.29,5.37,5.37,0,0,1-.47-.34,5.26,5.26,0,0,1-.8-.84,5,5,0,0,1-.31-.48,4.78,4.78,0,0,1-.26-.51c-.08-.17-.14-.36-.21-.53.08.17.15.35.25.51a4.72,4.72,0,0,0,.29.49c.1.16.22.3.34.45a5,5,0,0,0,.39.4,5,5,0,0,0,.43.36,5.15,5.15,0,0,0,.47.3,4.77,4.77,0,0,0,.5.25,5.5,5.5,0,0,0,.52.19c.18.05.36.1.54.14l.55.1a7.56,7.56,0,0,0,1.11.1,9.38,9.38,0,0,0,1.12,0,8.48,8.48,0,0,0,1.1-.18l1.06-.26-.92.57-4.82,3-.07-.32A7.56,7.56,0,0,1,19.15,632a6.49,6.49,0,0,1,.47,1.85,6.05,6.05,0,0,1-.1,1.9A5.4,5.4,0,0,1,17.6,639a5.3,5.3,0,0,1-3.57,1.2,4.07,4.07,0,0,1-1.86-.51,3.91,3.91,0,0,1-1.37-1.35,3.4,3.4,0,0,1-.51-1.85,3.13,3.13,0,0,1,.59-1.81,1.48,1.48,0,0,1,.8-.53,2,2,0,0,1,.95,0,1.12,1.12,0,0,1,.77.52A.93.93,0,0,1,13.28,635.49Z"/><path class="cls-2" d="M13.41,597.37a1.21,1.21,0,0,1,.23,1.09,1.18,1.18,0,0,1-.89.7,1.59,1.59,0,0,1-1.15-.19,1.57,1.57,0,0,1-.44-.4,3.43,3.43,0,0,1-.65-2.81,3.76,3.76,0,0,1,1.15-2.06,3.68,3.68,0,0,1,1-.67l.14-.06.15,0,.28-.08a4.37,4.37,0,0,1,.59-.11,5.05,5.05,0,0,1,2.34.29,5.45,5.45,0,0,1,3.24,3.27,4.8,4.8,0,0,1,.17.57c0,.1,0,.19.06.29a3,3,0,0,1,0,.31,3.68,3.68,0,0,1-.14,1.19,8.23,8.23,0,0,1-1,2.12,35.77,35.77,0,0,1-2.8,3.68c-1,1.18-2,2.35-2.88,3.58a20.51,20.51,0,0,0-1.26,1.9,9.89,9.89,0,0,0-.92,2.06l-.3-.16a4.88,4.88,0,0,1,.37-.39l.39-.35a9.55,9.55,0,0,1,.85-.63,10.42,10.42,0,0,1,.91-.53c.31-.16.63-.3,1-.44l.6-.25-.4.52a20.6,20.6,0,0,0-1.53,2.32c-.23.4-.45.81-.64,1.23s-.39.84-.56,1.27c-.09.21-.17.43-.25.65s-.15.44-.21.66a8.66,8.66,0,0,0-.28,1.36c0,.23,0,.46-.05.69a6.28,6.28,0,0,0,0,.7,5,5,0,0,0,.1.69,5.78,5.78,0,0,0,.19.68,5.8,5.8,0,0,1-.22-.67,5.09,5.09,0,0,1-.14-.69,6.37,6.37,0,0,1-.06-.7c0-.24,0-.47,0-.71a8.86,8.86,0,0,1,.21-1.4c0-.23.11-.46.17-.69s.14-.45.21-.68a11.18,11.18,0,0,1,.53-1.31c.21-.42.42-.84.66-1.25a20.89,20.89,0,0,1,1.56-2.37l.2.27c-.31.13-.62.27-.92.42a10.08,10.08,0,0,0-.88.51,9.2,9.2,0,0,0-.81.6l-.38.34a4.64,4.64,0,0,0-.34.36l-.55.66.24-.81a10.22,10.22,0,0,1,.95-2.13,20.85,20.85,0,0,1,1.28-1.94c.91-1.24,1.91-2.42,2.89-3.59a35.5,35.5,0,0,0,2.77-3.64,7.9,7.9,0,0,0,1-2,3.33,3.33,0,0,0,.13-1.08c0-.09,0-.17,0-.26s0-.19-.06-.28a4.46,4.46,0,0,0-.16-.53,5.11,5.11,0,0,0-3-3.06,4.71,4.71,0,0,0-2.18-.27,4,4,0,0,0-.54.1l-.27.07-.12,0-.13.05a3.33,3.33,0,0,0-.91.6,4,4,0,0,0-1.1,1.87A3.26,3.26,0,0,0,11,598a3.33,3.33,0,0,0,.28.49,1.42,1.42,0,0,0,.39.38,1.49,1.49,0,0,0,1.06.21,1.11,1.11,0,0,0,.87-.63A1.19,1.19,0,0,0,13.41,597.37Z"/><path class="cls-2" d="M16.65,618.83l0-.09c0-.06,0-.15,0-.27a1.59,1.59,0,0,1,.19-1,1,1,0,0,1,.62-.42,1.42,1.42,0,0,1,.88.11,1.83,1.83,0,0,1,.76.67,3.5,3.5,0,0,1,.49,1,3.45,3.45,0,0,1-.26,2.48,3.88,3.88,0,0,1-2,1.91,5.22,5.22,0,0,1-3,.11,5.41,5.41,0,0,1-2.65-1.53A4.34,4.34,0,0,1,10.43,619a5.77,5.77,0,0,1,.79-2.85,14.84,14.84,0,0,1,1.54-2.27c.55-.68,1.1-1.28,1.62-1.83l.76-.78c.24-.25.47-.48.71-.67l1.2-1,.76-.68.26-.25s-.31.4-.92,1l-1.09,1.16c-.2.23-.44.46-.68.69l-.75.77c-.52.54-1.07,1.14-1.6,1.81a14.51,14.51,0,0,0-1.51,2.21,5.44,5.44,0,0,0-.75,2.68,4,4,0,0,0,1.11,2.58A5.07,5.07,0,0,0,14.37,623a4.89,4.89,0,0,0,2.76-.09A3.54,3.54,0,0,0,19,621.17,3.42,3.42,0,0,0,19.3,620a4,4,0,0,0-.06-1.11,3.24,3.24,0,0,0-.38-1,1.56,1.56,0,0,0-.65-.64,1.27,1.27,0,0,0-.78-.14.88.88,0,0,0-.57.35,1.54,1.54,0,0,0-.24,1c0,.12,0,.21,0,.27Z"/><path class="cls-2" d="M13.27,580.13a2.23,2.23,0,0,1,0,.94,1,1,0,0,1-.62.71,1.44,1.44,0,0,1-1,0,2.1,2.1,0,0,1-.81-.54,2.8,2.8,0,0,1-.77-1.76,3.3,3.3,0,0,1,.48-1.89,4.45,4.45,0,0,1,1.34-1.42,3.58,3.58,0,0,1,.89-.44,4.75,4.75,0,0,1,1-.19,5.25,5.25,0,0,1,3.66,1.06A5.48,5.48,0,0,1,18.76,578a5.35,5.35,0,0,1,.73,1.8,6.24,6.24,0,0,1,.14,1.92,6.37,6.37,0,0,1-.45,1.88,7.14,7.14,0,0,1-1,1.67,7.67,7.67,0,0,1-1.36,1.36,7.55,7.55,0,0,1-1.65,1,7.29,7.29,0,0,1-1.85.53l.08-.31,5.25,4,.86.66-1-.36a10.12,10.12,0,0,0-1.12-.31,11.14,11.14,0,0,0-1.15-.2,9,9,0,0,0-1.16-.06,7.78,7.78,0,0,0-1.16.08,4.54,4.54,0,0,0-2.13.86l-.23.18-.21.2a4.28,4.28,0,0,0-.38.45l-.17.24-.15.26c-.1.17-.17.35-.26.53.08-.18.13-.38.22-.55l.13-.27.15-.26a3.91,3.91,0,0,1,.36-.48l.2-.22.22-.2a3.82,3.82,0,0,1,.49-.36,5,5,0,0,1,.53-.29,5.74,5.74,0,0,1,.57-.22,5.21,5.21,0,0,1,.59-.16c.2,0,.4-.07.6-.1a5.84,5.84,0,0,1,.61,0,10.05,10.05,0,0,1,1.21.07,11.5,11.5,0,0,1,1.19.2,10.41,10.41,0,0,1,1.17.33l-.17.3-5.25-4-.32-.25.4-.06a7,7,0,0,0,1.76-.5,7.2,7.2,0,0,0,1.58-.94,7,7,0,0,0,2.21-2.89,6,6,0,0,0,.42-1.78,5.87,5.87,0,0,0-.14-1.82,5,5,0,0,0-.68-1.68,5.13,5.13,0,0,0-1.23-1.33,4.91,4.91,0,0,0-3.42-1,4.37,4.37,0,0,0-.89.18,3.26,3.26,0,0,0-.8.4,4,4,0,0,0-1.23,1.31,3.45,3.45,0,0,0-.5,1.7,2.57,2.57,0,0,0,.62,1.66,1.66,1.66,0,0,0,1.61.6.91.91,0,0,0,.6-.63A2.21,2.21,0,0,0,13.27,580.13Z"/><path class="cls-2" d="M22.26,644.74a.93.93,0,0,1,.9-.12,1.12,1.12,0,0,1,.52.77,2,2,0,0,1,0,.95,1.48,1.48,0,0,1-.53.8,3.13,3.13,0,0,1-1.81.59,3.4,3.4,0,0,1-1.85-.51,3.91,3.91,0,0,1-1.35-1.37A4.07,4.07,0,0,1,17.6,644a5.3,5.3,0,0,1,1.2-3.57A5.4,5.4,0,0,1,22,638.5a6.05,6.05,0,0,1,1.9-.1,6.49,6.49,0,0,1,1.85.47,7.56,7.56,0,0,1,4.46,5.79l-.32-.07,3-4.82.57-.92-.26,1.06a8.47,8.47,0,0,0-.18,1.1,9.37,9.37,0,0,0,0,1.12,7.56,7.56,0,0,0,.1,1.11c0,.18.06.37.1.55s.09.36.14.54a5.5,5.5,0,0,0,.19.52,4.78,4.78,0,0,0,.25.5,5.16,5.16,0,0,0,.3.47,5,5,0,0,0,.36.43,5,5,0,0,0,.4.39c.15.11.29.24.45.34a4.73,4.73,0,0,0,.49.29c.16.09.34.16.51.25-.18-.07-.36-.13-.53-.21a4.79,4.79,0,0,1-.51-.26,5,5,0,0,1-.48-.31,5.16,5.16,0,0,1-.44-.38,5.1,5.1,0,0,1-.4-.42,5.37,5.37,0,0,1-.34-.47,5,5,0,0,1-.29-.51,5.77,5.77,0,0,1-.23-.54,6,6,0,0,1-.3-1.13,8.4,8.4,0,0,1-.1-1.16,9.72,9.72,0,0,1,.05-1.16,8.77,8.77,0,0,1,.19-1.15l.32.14-3,4.82-.25.41-.07-.47a7.21,7.21,0,0,0-4.25-5.52,6.14,6.14,0,0,0-1.75-.45,5.7,5.7,0,0,0-1.8.1,5.11,5.11,0,0,0-1.68.63,5.17,5.17,0,0,0-1.35,1.17A5,5,0,0,0,18,644a4.34,4.34,0,0,0,.13.88,2.81,2.81,0,0,0,.13.42,3.39,3.39,0,0,0,.2.4,3.52,3.52,0,0,0,1.23,1.25,3.75,3.75,0,0,0,1.68.53A2.89,2.89,0,0,0,23,647a1.61,1.61,0,0,0,.56-1.6,1.05,1.05,0,0,0-.45-.75A.91.91,0,0,0,22.26,644.74Z"/><path class="cls-2" d="M60.39,644.61a1.19,1.19,0,0,0-1.08-.2,1.12,1.12,0,0,0-.63.87,1.49,1.49,0,0,0,.21,1.06,1.42,1.42,0,0,0,.38.39,3.33,3.33,0,0,0,.49.28,3.26,3.26,0,0,0,2.17.19,4,4,0,0,0,1.87-1.1,3.33,3.33,0,0,0,.6-.91l.05-.13a1.06,1.06,0,0,0,0-.12c0-.09.06-.18.07-.27a4,4,0,0,0,.1-.54A4.71,4.71,0,0,0,64.4,642a5.11,5.11,0,0,0-3.06-3,4.44,4.44,0,0,0-.53-.16l-.28-.06-.26,0a3.33,3.33,0,0,0-1.08.13,7.9,7.9,0,0,0-2,1,35.49,35.49,0,0,0-3.64,2.77c-1.18,1-2.35,2-3.59,2.89A20.85,20.85,0,0,1,48,646.7a10.23,10.23,0,0,1-2.13.95l-.81.24.66-.55a4.64,4.64,0,0,0,.36-.34l.34-.38a9.2,9.2,0,0,0,.6-.81,10.09,10.09,0,0,0,.51-.88c.16-.3.29-.61.42-.92l.27.2a20.9,20.9,0,0,1-2.37,1.56c-.41.23-.83.45-1.25.66a11.18,11.18,0,0,1-1.31.53l-.68.21c-.23.06-.46.13-.69.17a8.85,8.85,0,0,1-1.4.21c-.24,0-.47,0-.71,0a6.37,6.37,0,0,1-.7-.06,5.09,5.09,0,0,1-.69-.14,5.8,5.8,0,0,1-.67-.22,5.78,5.78,0,0,0,.68.19,5,5,0,0,0,.69.1,6.28,6.28,0,0,0,.7,0c.23,0,.46,0,.69-.05a8.66,8.66,0,0,0,1.36-.28c.22-.06.44-.13.66-.21l.65-.25c.43-.18.85-.37,1.27-.56s.83-.41,1.23-.64A20.59,20.59,0,0,0,48,643.94l.52-.4-.25.6c-.13.32-.27.64-.44,1a10.43,10.43,0,0,1-.53.91,9.55,9.55,0,0,1-.63.85q-.17.2-.35.39a4.89,4.89,0,0,1-.39.37l-.16-.3a9.88,9.88,0,0,0,2.06-.92,20.5,20.5,0,0,0,1.9-1.26c1.23-.9,2.4-1.9,3.58-2.88a35.78,35.78,0,0,1,3.68-2.8,8.23,8.23,0,0,1,2.12-1,3.67,3.67,0,0,1,1.19-.14l.31,0,.29.06a4.78,4.78,0,0,1,.57.17,5.45,5.45,0,0,1,3.27,3.24,5.05,5.05,0,0,1,.29,2.34,4.36,4.36,0,0,1-.11.59c0,.1,0,.19-.08.28a1.4,1.4,0,0,1,0,.15l-.06.14a3.68,3.68,0,0,1-.67,1A3.76,3.76,0,0,1,62,647.51a3.43,3.43,0,0,1-2.81-.65,1.58,1.58,0,0,1-.4-.44,1.59,1.59,0,0,1-.19-1.15,1.18,1.18,0,0,1,.7-.89A1.21,1.21,0,0,1,60.39,644.61Z"/><path class="cls-2" d="M38.92,641.37H39l.27,0a1.54,1.54,0,0,0,1-.24.88.88,0,0,0,.35-.57,1.27,1.27,0,0,0-.14-.78,1.56,1.56,0,0,0-.64-.65,3.24,3.24,0,0,0-1-.38,4,4,0,0,0-1.11-.06,3.42,3.42,0,0,0-1.14.33,3.54,3.54,0,0,0-1.73,1.84,4.89,4.89,0,0,0-.09,2.76,5.07,5.07,0,0,0,1.43,2.48,4,4,0,0,0,2.58,1.11,5.44,5.44,0,0,0,2.68-.75A14.51,14.51,0,0,0,43.66,645c.67-.54,1.27-1.09,1.81-1.6l.77-.75c.24-.25.47-.48.69-.68l1.16-1.09c.64-.61,1-.92,1-.92l-.25.26-.68.76-1,1.2c-.2.23-.43.47-.67.71l-.78.76c-.55.52-1.15,1.08-1.83,1.62a14.85,14.85,0,0,1-2.27,1.54,5.77,5.77,0,0,1-2.85.79,4.34,4.34,0,0,1-2.81-1.21,5.41,5.41,0,0,1-1.53-2.65,5.22,5.22,0,0,1,.11-3,3.88,3.88,0,0,1,1.91-2,3.45,3.45,0,0,1,2.48-.26,3.5,3.5,0,0,1,1,.49,1.83,1.83,0,0,1,.67.76,1.42,1.42,0,0,1,.11.88,1,1,0,0,1-.42.62,1.59,1.59,0,0,1-1,.19l-.27,0Z"/><path class="cls-2" d="M77.62,644.75a2.21,2.21,0,0,0-.93,0,.91.91,0,0,0-.63.6,1.66,1.66,0,0,0,.6,1.61,2.57,2.57,0,0,0,1.66.62,3.45,3.45,0,0,0,1.7-.5,4,4,0,0,0,1.31-1.23,3.26,3.26,0,0,0,.4-.8,4.37,4.37,0,0,0,.18-.89,4.91,4.91,0,0,0-1-3.42,5.13,5.13,0,0,0-1.33-1.23,5,5,0,0,0-1.68-.68,5.87,5.87,0,0,0-1.82-.14,6,6,0,0,0-1.78.42,7,7,0,0,0-2.89,2.21,7.21,7.21,0,0,0-.94,1.58,7,7,0,0,0-.5,1.76l-.06.4-.25-.32-4-5.25.3-.17a10.41,10.41,0,0,1,.33,1.17,11.5,11.5,0,0,1,.2,1.19,10,10,0,0,1,.07,1.21,5.83,5.83,0,0,1,0,.61c0,.2-.06.4-.1.6a5.22,5.22,0,0,1-.16.59,5.75,5.75,0,0,1-.22.57,5,5,0,0,1-.29.53,3.83,3.83,0,0,1-.36.49l-.2.22-.22.2a3.91,3.91,0,0,1-.48.36l-.26.15-.27.13c-.18.09-.37.15-.55.22.18-.09.36-.16.53-.26l.26-.15.24-.17a4.27,4.27,0,0,0,.45-.38l.2-.21.18-.23a4.54,4.54,0,0,0,.86-2.13,7.78,7.78,0,0,0,.08-1.16,9,9,0,0,0-.06-1.16,11.16,11.16,0,0,0-.2-1.15,10.12,10.12,0,0,0-.31-1.12l-.36-1,.66.86,4,5.25-.31.08a7.29,7.29,0,0,1,.53-1.85,7.55,7.55,0,0,1,1-1.65,7.67,7.67,0,0,1,1.36-1.36,7.14,7.14,0,0,1,1.67-1,6.37,6.37,0,0,1,1.88-.45,6.25,6.25,0,0,1,1.92.14,5.35,5.35,0,0,1,1.8.73,5.48,5.48,0,0,1,1.42,1.32,5.25,5.25,0,0,1,1.06,3.66,4.74,4.74,0,0,1-.19,1,3.58,3.58,0,0,1-.44.89,4.45,4.45,0,0,1-1.42,1.34,3.3,3.3,0,0,1-1.89.48,2.8,2.8,0,0,1-1.76-.77,2.1,2.1,0,0,1-.54-.81,1.44,1.44,0,0,1,0-1,1,1,0,0,1,.71-.62A2.23,2.23,0,0,1,77.62,644.75Z"/><path class="cls-2" d="M360.82,635.34a.93.93,0,0,1-.12-.9,1.12,1.12,0,0,1,.77-.52,2,2,0,0,1,.95,0,1.48,1.48,0,0,1,.8.53,3.13,3.13,0,0,1,.59,1.81,3.4,3.4,0,0,1-.51,1.85,3.91,3.91,0,0,1-1.37,1.35,4.07,4.07,0,0,1-1.86.51,5.3,5.3,0,0,1-3.57-1.2,5.4,5.4,0,0,1-1.92-3.24,6.05,6.05,0,0,1-.1-1.9,6.49,6.49,0,0,1,.47-1.85,7.56,7.56,0,0,1,5.79-4.46l-.07.32-4.82-3-.92-.57,1.06.26a8.48,8.48,0,0,0,1.1.18,9.38,9.38,0,0,0,1.12,0,7.56,7.56,0,0,0,1.11-.1l.55-.1c.18,0,.36-.09.54-.14a5.49,5.49,0,0,0,.52-.19,4.77,4.77,0,0,0,.5-.25,5.16,5.16,0,0,0,.47-.3,4.94,4.94,0,0,0,.43-.36,5,5,0,0,0,.39-.4c.11-.15.24-.29.34-.45a4.71,4.71,0,0,0,.29-.49c.09-.16.16-.34.25-.51-.07.18-.13.36-.21.53a4.8,4.8,0,0,1-.26.51,5,5,0,0,1-.31.48,5.26,5.26,0,0,1-.8.84,5.36,5.36,0,0,1-.47.34,5,5,0,0,1-.51.29,5.78,5.78,0,0,1-.54.23,6,6,0,0,1-1.13.3,8.4,8.4,0,0,1-1.16.1,9.72,9.72,0,0,1-1.16-.05,8.77,8.77,0,0,1-1.15-.19l.14-.32,4.82,3,.41.25-.47.07a7.21,7.21,0,0,0-5.52,4.25,6.14,6.14,0,0,0-.45,1.75,5.69,5.69,0,0,0,.1,1.8,5.11,5.11,0,0,0,.63,1.68,5.17,5.17,0,0,0,1.17,1.35,5,5,0,0,0,3.33,1.12,4.34,4.34,0,0,0,.88-.13,2.81,2.81,0,0,0,.42-.13,3.4,3.4,0,0,0,.4-.2A3.52,3.52,0,0,0,363,638a3.75,3.75,0,0,0,.53-1.68,2.89,2.89,0,0,0-.44-1.71,1.61,1.61,0,0,0-1.6-.56,1.05,1.05,0,0,0-.75.45A.91.91,0,0,0,360.82,635.34Z"/><path class="cls-2" d="M360.69,597.22a1.19,1.19,0,0,0-.2,1.08,1.12,1.12,0,0,0,.87.63,1.49,1.49,0,0,0,1.06-.21,1.42,1.42,0,0,0,.39-.38,3.33,3.33,0,0,0,.28-.49,3.26,3.26,0,0,0,.19-2.17,4,4,0,0,0-1.1-1.87,3.33,3.33,0,0,0-.91-.6l-.13-.05-.12,0-.27-.07a4,4,0,0,0-.54-.1,4.71,4.71,0,0,0-2.18.27,5.11,5.11,0,0,0-3,3.06,4.43,4.43,0,0,0-.16.53c0,.09,0,.18-.06.28s0,.17,0,.26a3.33,3.33,0,0,0,.13,1.08,7.91,7.91,0,0,0,1,2,35.49,35.49,0,0,0,2.77,3.64c1,1.18,2,2.35,2.89,3.59a20.83,20.83,0,0,1,1.28,1.94,10.22,10.22,0,0,1,.95,2.13l.24.81-.55-.66a4.65,4.65,0,0,0-.34-.36l-.38-.34a9.21,9.21,0,0,0-.81-.6,10.08,10.08,0,0,0-.88-.51c-.3-.16-.61-.29-.92-.42l.2-.27a20.89,20.89,0,0,1,1.56,2.37c.23.41.45.83.66,1.25a11.18,11.18,0,0,1,.53,1.31c.08.22.15.45.21.68s.13.46.17.69a8.85,8.85,0,0,1,.21,1.4c0,.24,0,.47,0,.71a6.38,6.38,0,0,1-.06.7,5.09,5.09,0,0,1-.14.69,5.82,5.82,0,0,1-.22.67,5.78,5.78,0,0,0,.19-.68,5,5,0,0,0,.1-.69,6.28,6.28,0,0,0,0-.7c0-.23,0-.46-.05-.69a8.66,8.66,0,0,0-.28-1.36c-.06-.22-.13-.44-.21-.66s-.16-.44-.25-.65c-.18-.43-.37-.85-.56-1.27s-.41-.83-.64-1.23a20.59,20.59,0,0,0-1.53-2.32l-.4-.52.6.25c.32.13.64.27,1,.44a10.42,10.42,0,0,1,.91.53,9.53,9.53,0,0,1,.85.63l.39.35a4.89,4.89,0,0,1,.37.39l-.3.16a9.89,9.89,0,0,0-.92-2.06,20.52,20.52,0,0,0-1.26-1.9c-.9-1.23-1.9-2.4-2.88-3.58a35.79,35.79,0,0,1-2.8-3.68,8.23,8.23,0,0,1-1-2.12,3.68,3.68,0,0,1-.14-1.19,3,3,0,0,1,0-.31c0-.09,0-.19.06-.29a4.78,4.78,0,0,1,.17-.57,5.45,5.45,0,0,1,3.24-3.27,5.05,5.05,0,0,1,2.34-.29,4.37,4.37,0,0,1,.59.11l.28.08.15,0,.14.06a3.68,3.68,0,0,1,1,.67,3.76,3.76,0,0,1,1.15,2.06,3.43,3.43,0,0,1-.65,2.81,1.57,1.57,0,0,1-.44.4,1.59,1.59,0,0,1-1.15.19,1.18,1.18,0,0,1-.89-.7A1.21,1.21,0,0,1,360.69,597.22Z"/><path class="cls-2" d="M357.44,618.68v-.09c0-.06,0-.15,0-.27a1.54,1.54,0,0,0-.24-1,.88.88,0,0,0-.57-.35,1.27,1.27,0,0,0-.78.14,1.56,1.56,0,0,0-.65.64,3.24,3.24,0,0,0-.38,1,4,4,0,0,0-.06,1.11,3.42,3.42,0,0,0,.33,1.14,3.54,3.54,0,0,0,1.84,1.73,4.89,4.89,0,0,0,2.76.09,5.07,5.07,0,0,0,2.48-1.43,4,4,0,0,0,1.11-2.58,5.44,5.44,0,0,0-.75-2.68,14.51,14.51,0,0,0-1.51-2.21c-.54-.67-1.09-1.27-1.6-1.81l-.75-.77c-.25-.24-.48-.47-.68-.69l-1.09-1.16c-.61-.64-.92-1-.92-1l.26.25.76.68,1.2,1c.23.2.47.43.71.67l.76.78c.52.55,1.08,1.15,1.62,1.83a14.85,14.85,0,0,1,1.54,2.27,5.77,5.77,0,0,1,.79,2.85,4.34,4.34,0,0,1-1.21,2.81,5.41,5.41,0,0,1-2.65,1.53,5.22,5.22,0,0,1-3-.11,3.88,3.88,0,0,1-2-1.91,3.45,3.45,0,0,1-.26-2.48,3.5,3.5,0,0,1,.49-1,1.83,1.83,0,0,1,.76-.67,1.42,1.42,0,0,1,.88-.11,1,1,0,0,1,.62.42,1.59,1.59,0,0,1,.19,1c0,.12,0,.21,0,.27Z"/><path class="cls-2" d="M360.82,580a2.21,2.21,0,0,0,0,.93.91.91,0,0,0,.6.63,1.66,1.66,0,0,0,1.61-.6,2.57,2.57,0,0,0,.62-1.66,3.45,3.45,0,0,0-.5-1.7,4,4,0,0,0-1.23-1.31,3.26,3.26,0,0,0-.8-.4,4.37,4.37,0,0,0-.89-.18,4.91,4.91,0,0,0-3.42,1,5.13,5.13,0,0,0-1.23,1.33,5,5,0,0,0-.68,1.68,5.87,5.87,0,0,0-.14,1.82,6,6,0,0,0,.42,1.78,7,7,0,0,0,2.21,2.89,7.21,7.21,0,0,0,1.58.94,7,7,0,0,0,1.76.5l.4.06-.32.25-5.25,4-.17-.3a10.42,10.42,0,0,1,1.17-.33,11.5,11.5,0,0,1,1.19-.2,10,10,0,0,1,1.21-.07,5.84,5.84,0,0,1,.61,0c.2,0,.4.06.6.1a5.2,5.2,0,0,1,.59.16,5.74,5.74,0,0,1,.57.22,5,5,0,0,1,.53.29,3.83,3.83,0,0,1,.49.36l.22.2.2.22a3.91,3.91,0,0,1,.36.48l.15.26.13.27c.09.18.15.37.22.55-.09-.18-.16-.36-.26-.53l-.15-.26-.17-.24a4.28,4.28,0,0,0-.38-.45l-.21-.2-.23-.18a4.54,4.54,0,0,0-2.13-.86,7.78,7.78,0,0,0-1.16-.08,9,9,0,0,0-1.16.06,11.15,11.15,0,0,0-1.15.2,10.13,10.13,0,0,0-1.12.31l-1,.36.86-.66,5.25-4,.08.31a7.29,7.29,0,0,1-1.85-.53,7.55,7.55,0,0,1-1.65-1,7.67,7.67,0,0,1-1.36-1.36,7.14,7.14,0,0,1-1-1.67,6.37,6.37,0,0,1-.45-1.88,6.24,6.24,0,0,1,.14-1.92,5.35,5.35,0,0,1,.73-1.8,5.48,5.48,0,0,1,1.32-1.42,5.25,5.25,0,0,1,3.66-1.06,4.75,4.75,0,0,1,1,.19,3.58,3.58,0,0,1,.89.44,4.45,4.45,0,0,1,1.34,1.42,3.3,3.3,0,0,1,.48,1.89,2.8,2.8,0,0,1-.77,1.76,2.1,2.1,0,0,1-.81.54,1.44,1.44,0,0,1-1,0,1,1,0,0,1-.62-.71A2.23,2.23,0,0,1,360.82,580Z"/><path class="cls-2" d="M351.84,644.59a.91.91,0,0,0-.87-.08,1.05,1.05,0,0,0-.45.75,1.61,1.61,0,0,0,.56,1.6,2.89,2.89,0,0,0,1.71.44,3.75,3.75,0,0,0,1.68-.53,3.52,3.52,0,0,0,1.23-1.25,3.4,3.4,0,0,0,.2-.4,2.81,2.81,0,0,0,.13-.42,4.33,4.33,0,0,0,.13-.88,5,5,0,0,0-1.12-3.33,5.17,5.17,0,0,0-1.35-1.17,5.11,5.11,0,0,0-1.68-.63,5.7,5.7,0,0,0-1.8-.1,6.14,6.14,0,0,0-1.75.45,7.21,7.21,0,0,0-4.25,5.52l-.07.47-.25-.41-3-4.82.32-.14a8.77,8.77,0,0,1,.19,1.15,9.7,9.7,0,0,1,.05,1.16,8.39,8.39,0,0,1-.1,1.16,6,6,0,0,1-.3,1.13,5.78,5.78,0,0,1-.23.54,5,5,0,0,1-.29.51,5.37,5.37,0,0,1-.34.47,5.26,5.26,0,0,1-.84.8,5,5,0,0,1-.48.31,4.79,4.79,0,0,1-.51.26c-.17.08-.36.14-.53.21.17-.08.35-.15.51-.25a4.72,4.72,0,0,0,.49-.29c.16-.1.3-.22.45-.34a5,5,0,0,0,.4-.39,5,5,0,0,0,.36-.43,5.16,5.16,0,0,0,.3-.47,4.79,4.79,0,0,0,.25-.5,5.5,5.5,0,0,0,.19-.52c.05-.18.1-.36.14-.54s.07-.36.1-.55a7.56,7.56,0,0,0,.1-1.11,9.39,9.39,0,0,0,0-1.12,8.48,8.48,0,0,0-.18-1.1l-.26-1.06.57.92,3,4.82-.32.07a7.56,7.56,0,0,1,4.46-5.79,6.49,6.49,0,0,1,1.85-.47,6.05,6.05,0,0,1,1.9.1,5.4,5.4,0,0,1,3.24,1.92,5.3,5.3,0,0,1,1.2,3.57,4.07,4.07,0,0,1-.51,1.86,3.91,3.91,0,0,1-1.35,1.37,3.4,3.4,0,0,1-1.85.51A3.13,3.13,0,0,1,351,647a1.48,1.48,0,0,1-.53-.8,2,2,0,0,1,0-.95,1.12,1.12,0,0,1,.52-.77A.93.93,0,0,1,351.84,644.59Z"/><path class="cls-2" d="M313.71,644.46a1.21,1.21,0,0,1,1.09-.23,1.18,1.18,0,0,1,.7.89,1.59,1.59,0,0,1-.19,1.15,1.58,1.58,0,0,1-.4.44,3.43,3.43,0,0,1-2.81.65A3.76,3.76,0,0,1,310,646.2a3.68,3.68,0,0,1-.67-1l-.06-.14a1.4,1.4,0,0,1,0-.15c0-.09-.06-.18-.08-.28a4.36,4.36,0,0,1-.11-.59,5.05,5.05,0,0,1,.29-2.34,5.45,5.45,0,0,1,3.27-3.24,4.8,4.8,0,0,1,.57-.17l.29-.06.31,0a3.67,3.67,0,0,1,1.19.14,8.23,8.23,0,0,1,2.12,1,35.77,35.77,0,0,1,3.68,2.8c1.18,1,2.35,2,3.58,2.88a20.5,20.5,0,0,0,1.9,1.26,9.89,9.89,0,0,0,2.06.92l-.16.3a4.88,4.88,0,0,1-.39-.37q-.18-.19-.35-.39a9.55,9.55,0,0,1-.63-.85,10.43,10.43,0,0,1-.53-.91c-.16-.31-.3-.63-.44-1l-.25-.6.52.4a20.59,20.59,0,0,0,2.32,1.53c.4.23.81.45,1.23.64s.84.39,1.27.56l.65.25c.22.07.44.15.66.21a8.66,8.66,0,0,0,1.36.28c.23,0,.46,0,.69.05a6.28,6.28,0,0,0,.7,0,5,5,0,0,0,.69-.1,5.78,5.78,0,0,0,.68-.19,5.8,5.8,0,0,1-.67.22,5.09,5.09,0,0,1-.69.14,6.37,6.37,0,0,1-.7.06c-.24,0-.47,0-.71,0a8.85,8.85,0,0,1-1.4-.21c-.23,0-.46-.11-.69-.17l-.68-.21a11.18,11.18,0,0,1-1.31-.53c-.42-.21-.84-.42-1.25-.66a20.89,20.89,0,0,1-2.37-1.56l.27-.2c.13.31.27.62.42.92a10.09,10.09,0,0,0,.51.88,9.2,9.2,0,0,0,.6.81l.34.38a4.64,4.64,0,0,0,.36.34l.66.55-.81-.24a10.23,10.23,0,0,1-2.13-.95,20.86,20.86,0,0,1-1.94-1.28c-1.24-.91-2.42-1.91-3.59-2.89a35.49,35.49,0,0,0-3.64-2.77,7.9,7.9,0,0,0-2-1,3.33,3.33,0,0,0-1.08-.13l-.26,0-.28.06a4.44,4.44,0,0,0-.53.16,5.11,5.11,0,0,0-3.06,3,4.71,4.71,0,0,0-.27,2.18,4,4,0,0,0,.1.54c0,.09,0,.18.07.27a1.06,1.06,0,0,0,0,.12l.05.13a3.33,3.33,0,0,0,.6.91,4,4,0,0,0,1.87,1.1,3.26,3.26,0,0,0,2.17-.19,3.33,3.33,0,0,0,.49-.28,1.42,1.42,0,0,0,.38-.39,1.49,1.49,0,0,0,.21-1.06,1.12,1.12,0,0,0-.63-.87A1.19,1.19,0,0,0,313.71,644.46Z"/><path class="cls-2" d="M335.17,641.22l-.09,0-.27,0a1.59,1.59,0,0,1-1-.19,1,1,0,0,1-.42-.62,1.42,1.42,0,0,1,.11-.88,1.83,1.83,0,0,1,.67-.76,3.5,3.5,0,0,1,1-.49,3.45,3.45,0,0,1,2.48.26,3.88,3.88,0,0,1,1.91,2,5.22,5.22,0,0,1,.11,3,5.41,5.41,0,0,1-1.53,2.65,4.34,4.34,0,0,1-2.81,1.21,5.77,5.77,0,0,1-2.85-.79,14.84,14.84,0,0,1-2.27-1.54c-.68-.55-1.28-1.1-1.83-1.62l-.78-.76c-.25-.24-.48-.47-.67-.71l-1-1.2-.68-.76-.25-.26s.4.31,1,.92l1.16,1.09c.23.2.46.44.69.68l.77.75c.54.52,1.14,1.07,1.81,1.6a14.51,14.51,0,0,0,2.21,1.51,5.44,5.44,0,0,0,2.68.75,4,4,0,0,0,2.58-1.11,5.07,5.07,0,0,0,1.43-2.48,4.89,4.89,0,0,0-.09-2.76,3.54,3.54,0,0,0-1.73-1.84,3.42,3.42,0,0,0-1.14-.33,4,4,0,0,0-1.11.06,3.24,3.24,0,0,0-1,.38,1.56,1.56,0,0,0-.64.65,1.27,1.27,0,0,0-.14.78.88.88,0,0,0,.35.57,1.54,1.54,0,0,0,1,.24l.27,0Z"/><path class="cls-2" d="M296.48,644.59a2.23,2.23,0,0,1,.94,0,1,1,0,0,1,.71.62,1.44,1.44,0,0,1,0,1,2.1,2.1,0,0,1-.54.81,2.8,2.8,0,0,1-1.76.77,3.3,3.3,0,0,1-1.89-.48,4.45,4.45,0,0,1-1.42-1.34A3.58,3.58,0,0,1,292,645a4.74,4.74,0,0,1-.19-1,5.25,5.25,0,0,1,1.06-3.66,5.48,5.48,0,0,1,1.42-1.32,5.35,5.35,0,0,1,1.8-.73,6.24,6.24,0,0,1,1.92-.14,6.37,6.37,0,0,1,1.88.45,7.14,7.14,0,0,1,1.67,1A7.67,7.67,0,0,1,303,641a7.55,7.55,0,0,1,1,1.65,7.29,7.29,0,0,1,.53,1.85l-.31-.08,4-5.25.66-.86-.36,1a10.12,10.12,0,0,0-.31,1.12,11.16,11.16,0,0,0-.2,1.15,9,9,0,0,0-.06,1.16,7.78,7.78,0,0,0,.08,1.16,4.54,4.54,0,0,0,.86,2.13l.18.23.2.21a4.27,4.27,0,0,0,.45.38l.24.17.26.15c.17.1.35.17.53.26-.18-.08-.38-.13-.55-.22l-.27-.13-.26-.15a3.91,3.91,0,0,1-.48-.36l-.22-.2-.2-.22a3.83,3.83,0,0,1-.36-.49,5,5,0,0,1-.29-.53,5.75,5.75,0,0,1-.22-.57,5.22,5.22,0,0,1-.16-.59c0-.2-.07-.4-.1-.6a5.83,5.83,0,0,1,0-.61,10,10,0,0,1,.07-1.21,11.5,11.5,0,0,1,.2-1.19,10.41,10.41,0,0,1,.33-1.17l.3.17-4,5.25-.25.32-.06-.4a7,7,0,0,0-.5-1.76,7.21,7.21,0,0,0-.94-1.58,7,7,0,0,0-2.89-2.21,6,6,0,0,0-1.78-.42,5.87,5.87,0,0,0-1.82.14,5,5,0,0,0-1.68.68,5.13,5.13,0,0,0-1.33,1.23,4.91,4.91,0,0,0-1,3.42,4.37,4.37,0,0,0,.18.89,3.26,3.26,0,0,0,.4.8,4,4,0,0,0,1.31,1.23,3.45,3.45,0,0,0,1.7.5,2.57,2.57,0,0,0,1.66-.62,1.66,1.66,0,0,0,.6-1.61.91.91,0,0,0-.63-.6A2.21,2.21,0,0,0,296.48,644.59Z"/><line class="cls-3" x1="82.27" y1="18.92" x2="292.19" y2="18.92"/><line class="cls-3" x1="15.03" y1="86.38" x2="15.03" y2="575.71"/><line class="cls-3" x1="82.07" y1="643.15" x2="291.99" y2="643.15"/><line class="cls-3" x1="359.23" y1="575.11" x2="359.23" y2="86.5"/><path class="cls-2" d="M179.32,198.93l.15-.2a4.53,4.53,0,0,1,2.83-1.62,4.11,4.11,0,0,1,.85,0,3,3,0,0,1,.44,0,3.23,3.23,0,0,1,.46.08,4.55,4.55,0,0,1,1.77.83,4.61,4.61,0,0,1,1.34,1.62,4.79,4.79,0,0,1,.51,2.12c0,.18,0,.35,0,.53a4.63,4.63,0,0,1-.1.55,3.79,3.79,0,0,1-.16.52,3.59,3.59,0,0,1-.22.5,4.61,4.61,0,0,1-1.34,1.62,4.54,4.54,0,0,1-1.77.83,4.79,4.79,0,0,1-1.75.07,4.52,4.52,0,0,1-2.33-1.1,4.47,4.47,0,0,1-.5-.52l-.15-.2.17.19a5.21,5.21,0,0,0,.53.48,4.52,4.52,0,0,0,5.62,0,4.3,4.3,0,0,0,1.24-1.52,3.27,3.27,0,0,0,.2-.47,3.47,3.47,0,0,0,.14-.49,4.39,4.39,0,0,0,.09-.5c0-.17,0-.35,0-.53a4.48,4.48,0,0,0-.46-2,4.3,4.3,0,0,0-1.24-1.52,4.61,4.61,0,0,0-1.65-.82,3,3,0,0,0-.42-.09,2.81,2.81,0,0,0-.43,0,3.9,3.9,0,0,0-.81,0,4.57,4.57,0,0,0-2.31,1,5.23,5.23,0,0,0-.53.48Z"/><path class="cls-2" d="M195.68,199.41l-.17-.19a5.28,5.28,0,0,0-.53-.48,4.57,4.57,0,0,0-2.31-1,3.9,3.9,0,0,0-.81,0,2.81,2.81,0,0,0-.43,0,3,3,0,0,0-.42.09,4.61,4.61,0,0,0-1.65.82,4.3,4.3,0,0,0-1.24,1.52,4.48,4.48,0,0,0-.46,2c0,.17,0,.36,0,.53a4.37,4.37,0,0,0,.09.5,3.46,3.46,0,0,0,.14.49,3.27,3.27,0,0,0,.2.47,4.3,4.3,0,0,0,1.24,1.52,4.53,4.53,0,0,0,5.62,0,5.25,5.25,0,0,0,.53-.48l.17-.19-.15.2a4.47,4.47,0,0,1-.5.52,4.52,4.52,0,0,1-2.33,1.1,4.79,4.79,0,0,1-1.75-.07,4.54,4.54,0,0,1-1.77-.83,4.61,4.61,0,0,1-1.34-1.62,3.59,3.59,0,0,1-.22-.5,3.78,3.78,0,0,1-.16-.52,4.63,4.63,0,0,1-.1-.55c0-.18,0-.36,0-.53a4.79,4.79,0,0,1,.51-2.12,4.61,4.61,0,0,1,1.34-1.62,4.55,4.55,0,0,1,1.77-.83,3.27,3.27,0,0,1,.46-.08,3,3,0,0,1,.44,0,4.11,4.11,0,0,1,.85,0,4.53,4.53,0,0,1,2.83,1.62Z"/><path class="cls-2" d="M182.45,200l.09-.13a2.64,2.64,0,0,1,.3-.33,2.8,2.8,0,0,1,1.44-.69,2.64,2.64,0,0,1,.53,0,2.72,2.72,0,0,1,.56.06,2.9,2.9,0,0,1,2,1.5,3,3,0,0,1,.33,1.34c0,.11,0,.21,0,.33a2.82,2.82,0,0,1-.06.35,2.78,2.78,0,0,1-.24.64,2.9,2.9,0,0,1-2,1.5,3,3,0,0,1-1.09,0,2.8,2.8,0,0,1-1.44-.7,2.64,2.64,0,0,1-.3-.33l-.09-.13.11.11a3.44,3.44,0,0,0,.33.29,2.85,2.85,0,0,0,1.42.55,2.76,2.76,0,0,0,2-.58,2.64,2.64,0,0,0,.74-.91,2.44,2.44,0,0,0,.21-.57,2.53,2.53,0,0,0,.05-.29c0-.1,0-.21,0-.32a2.66,2.66,0,0,0-1-2.08,2.81,2.81,0,0,0-3.42,0,3.4,3.4,0,0,0-.33.29Z"/><path class="cls-2" d="M192.55,200l-.11-.11a3.4,3.4,0,0,0-.33-.29,2.85,2.85,0,0,0-1.42-.55,2.76,2.76,0,0,0-2,.58,2.66,2.66,0,0,0-1,2.08c0,.11,0,.22,0,.32a2.53,2.53,0,0,0,.05.29,2.44,2.44,0,0,0,.21.57,2.64,2.64,0,0,0,.74.91,2.81,2.81,0,0,0,3.42,0,3.44,3.44,0,0,0,.33-.29l.11-.11-.09.13a2.64,2.64,0,0,1-.3.33,2.8,2.8,0,0,1-1.44.7,3,3,0,0,1-1.09,0,2.9,2.9,0,0,1-2-1.5,2.78,2.78,0,0,1-.24-.64,2.82,2.82,0,0,1-.06-.35c0-.12,0-.22,0-.33a3,3,0,0,1,.33-1.34,2.9,2.9,0,0,1,2-1.5,2.72,2.72,0,0,1,.56-.06,2.64,2.64,0,0,1,.53,0,2.8,2.8,0,0,1,1.44.69,2.64,2.64,0,0,1,.3.33Z"/><path class="cls-2" d="M185,201.73l-1.54,0-4.05.06-5.73.05-6.57,0-6.57,0-5.73-.05-4.05-.06-1.54,0,1.54,0,4.05-.06,5.73-.05,6.57,0,6.57,0,5.73.05,4.05.06Z"/><path class="cls-2" d="M225.79,201.73l-1.54,0-4.05.06-5.73.05-6.57,0-6.57,0-5.73-.05-4.05-.06-1.54,0,1.54,0,4.05-.06,5.73-.05,6.57,0,6.57,0,5.73.05,4.05.06Z"/></svg>